<svg width="16" height="16" viewBox="0 0 16 16" fill="none" xmlns="http://www.w3.org/2000/svg">
<path d="M8.91161 7.99529L15.7991 1.1011C15.9206 0.978991 15.9887 0.813704 15.9886 0.641442C15.9885 0.46918 15.9201 0.303984 15.7985 0.182038C15.5549 -0.0602715 15.126 -0.061495 14.88 0.183262L7.99438 7.07745L1.10632 0.181426C0.861558 -0.0602714 0.432622 -0.0590477 0.189089 0.18265C0.128642 0.242856 0.0807903 0.314498 0.0483277 0.393396C0.0158651 0.472294 -0.000558735 0.556867 1.45043e-05 0.642181C1.45043e-05 0.815958 0.0673226 0.978721 0.189089 1.09926L7.07654 7.99467L0.189701 14.8907C0.0681703 15.013 0.000111821 15.1785 0.000455957 15.3509C0.000800092 15.5233 0.0695189 15.6886 0.191537 15.8104C0.309632 15.9272 0.476678 15.9945 0.649232 15.9945H0.652903C0.826068 15.9939 0.993115 15.926 1.10876 15.8079L7.99438 8.91374L14.8824 15.8098C15.0042 15.9309 15.167 15.9982 15.3395 15.9982C15.4249 15.9985 15.5094 15.9818 15.5883 15.9493C15.6671 15.9168 15.7388 15.8689 15.7991 15.8086C15.8595 15.7483 15.9073 15.6766 15.9398 15.5977C15.9724 15.5189 15.989 15.4343 15.9887 15.349C15.9887 15.1758 15.9214 15.0125 15.7991 14.8919L8.91161 7.99529Z" fill="url(#paint0_linear)"/>
<defs>
<linearGradient id="paint0_linear" x1="0" y1="0" x2="16.6321" y2="0.699425" gradientUnits="userSpaceOnUse">
<stop stop-color="#F89017"/>
<stop offset="1" stop-color="#F3B514"/>
</linearGradient>
</defs>
</svg>
