<svg width="43" height="43" viewBox="0 0 43 43" fill="none" xmlns="http://www.w3.org/2000/svg">
<g clip-path="url(#clip0)">
<path d="M40.9972 26.3311C42.1014 26.3311 43 25.4325 43 24.3282V18.6718C43 17.5675 42.1014 16.6689 40.9972 16.6689H39.1784C38.7729 15.1808 38.1821 13.7541 37.4164 12.4159L38.7027 11.1296C39.4835 10.3488 39.4835 9.07819 38.7027 8.29707L34.7026 4.29731C34.3243 3.91905 33.8214 3.71073 33.2867 3.71073C32.7516 3.71073 32.2487 3.91905 31.8704 4.29731L30.5841 5.58365C29.2459 4.81795 27.8192 4.2271 26.3311 3.82162V2.00283C26.3311 0.898567 25.4325 0 24.3282 0H18.6718C17.5675 0 16.6689 0.898567 16.6689 2.00283V3.82162C15.1808 4.2271 13.7541 4.81795 12.4159 5.58332L11.1296 4.29731C10.7513 3.91905 10.2484 3.71073 9.71332 3.71073C9.17857 3.71073 8.67565 3.91872 8.29739 4.29731L4.29731 8.29707C3.51619 9.07819 3.51619 10.3488 4.29731 11.1296L5.58332 12.4159C4.81795 13.7541 4.2271 15.1808 3.82162 16.6689H2.00283C0.898567 16.6689 0 17.5672 0 18.6718V24.3282C0 25.4325 0.898567 26.3311 2.00283 26.3311H3.82162C4.2271 27.8192 4.81795 29.2459 5.58332 30.5841L4.29731 31.8704C3.51619 32.6512 3.51619 33.9218 4.29731 34.7026L8.29707 38.7027C8.67532 39.0809 9.17825 39.2893 9.71332 39.2893C10.2484 39.2893 10.7513 39.0809 11.1296 38.7027L12.4156 37.4164C13.7541 38.1821 15.1808 38.7729 16.6689 39.1784V40.9972C16.6689 42.1014 17.5672 43 18.6714 43H24.3282C25.4325 43 26.3311 42.1014 26.3311 40.9972V39.1784C27.8192 38.7729 29.2456 38.1821 30.5841 37.4164C30.5841 37.4164 31.8698 38.7017 31.8704 38.7027C32.6427 39.475 33.9313 39.474 34.7026 38.7027L38.7027 34.7026C39.4835 33.9218 39.4835 32.6512 38.7027 31.8704L37.4164 30.5841C38.1821 29.2459 38.7729 27.8192 39.1784 26.3311H40.9972ZM38.0784 25.5522C37.665 27.249 36.9954 28.8657 36.088 30.3571C35.9368 30.6054 35.9752 30.9246 36.1805 31.13L37.812 32.7615C38.1017 33.0508 38.1017 33.5226 37.812 33.8122C37.812 33.8122 33.8218 37.8025 33.8119 37.812C33.534 38.0899 33.0515 38.1023 32.7611 37.812L31.13 36.1809C30.9246 35.9752 30.6051 35.9371 30.3571 36.088C28.8657 36.9954 27.249 37.6654 25.5522 38.0784C25.2701 38.1473 25.0713 38.4002 25.0713 38.6906V40.9972C25.0713 41.4069 24.738 41.7402 24.3282 41.7402H18.6718C18.262 41.7402 17.9287 41.4069 17.9287 40.9972V38.6906C17.9287 38.4002 17.7299 38.1473 17.4478 38.0784C15.751 37.6654 14.1343 36.9954 12.6429 36.088C12.3966 35.9381 12.0741 35.9771 11.87 36.1809C11.87 36.1809 10.2441 37.8067 10.2389 37.812C9.95149 38.0994 9.47416 38.0981 9.18809 37.812L5.188 33.8122C4.89832 33.5226 4.89832 33.0511 5.188 32.7615L6.81947 31.13C7.02483 30.9246 7.06322 30.6054 6.91198 30.3571C6.00455 28.8657 5.33498 27.249 4.92162 25.5522C4.85272 25.2701 4.60011 25.0713 4.30945 25.0713H2.00283C1.59308 25.0713 1.25977 24.738 1.25977 24.3286V18.6718C1.25977 18.262 1.59308 17.9287 2.00283 17.9287H4.30945C4.59978 17.9287 4.85272 17.7302 4.92162 17.4481C5.33465 15.751 6.00455 14.1343 6.91198 12.6429C7.06289 12.3949 7.02483 12.0757 6.81914 11.8703L5.188 10.2389C4.89832 9.9492 4.89832 9.47777 5.188 9.18809C5.188 9.18809 9.18317 5.19292 9.18776 5.18833C9.47482 4.90128 9.95149 4.90128 10.2385 5.18833L11.87 6.81947C12.0754 7.02483 12.3949 7.06322 12.6429 6.91231C14.1343 6.00455 15.751 5.33498 17.4478 4.92162C17.7299 4.85305 17.9287 4.60011 17.9287 4.30978V2.00283C17.9287 1.59308 18.262 1.25977 18.6714 1.25977H24.3282C24.738 1.25977 25.0713 1.59308 25.0713 2.00283V4.30945C25.0713 4.60011 25.2698 4.85272 25.5519 4.92162C27.249 5.33465 28.8657 6.00455 30.3571 6.91198C30.6054 7.06322 30.9246 7.02483 31.1297 6.81914C31.1297 6.81914 32.7598 5.18932 32.7611 5.188C33.0482 4.90095 33.5245 4.90062 33.8119 5.188L37.812 9.18776C38.1017 9.47744 38.1017 9.94887 37.812 10.2385L36.1805 11.87C35.9752 12.0754 35.9368 12.3946 36.0877 12.6426C36.9954 14.1343 37.665 15.7507 38.0784 17.4478C38.1469 17.7299 38.3999 17.9284 38.6902 17.9284H40.9972C41.4066 17.9284 41.7402 18.2617 41.7402 18.6714V24.3282C41.7402 24.738 41.4069 25.0713 40.9972 25.0713H38.6902C38.3999 25.0713 38.1473 25.2701 38.0784 25.5522Z" fill="url(#paint0_linear)"/>
<path d="M31.6967 11.1689C29.0725 8.57854 25.47 6.97693 21.5001 6.97693C17.5302 6.97693 13.9277 8.57854 11.3036 11.1689C11.278 11.1876 11.1878 11.2782 11.1691 11.3034C8.57866 13.9276 6.97705 17.5301 6.97705 21.5C6.97705 25.4699 8.57866 29.0724 11.1691 31.6965C11.1878 31.7218 11.2078 31.7464 11.2307 31.7694C11.2537 31.7923 11.2783 31.8124 11.3036 31.8311C13.9277 34.4214 17.5302 36.0231 21.5001 36.0231C25.47 36.0231 29.0725 34.4214 31.6967 31.8311C31.7219 31.8124 31.8125 31.7218 31.8312 31.6965C34.4216 29.072 36.0235 25.4699 36.0235 21.5C36.0235 17.5301 34.4216 13.9276 31.8312 11.3034C31.8125 11.2782 31.7219 11.1876 31.6967 11.1689ZM32.3341 22.1299H34.748C34.5987 25.3131 33.3222 28.2063 31.3092 30.4184L29.6062 28.7154C29.3602 28.4694 28.9613 28.4694 28.7156 28.7154C28.4695 28.9615 28.4695 29.3604 28.7156 29.6061L30.4185 31.3091C28.2064 33.3221 25.3132 34.5986 22.13 34.7479V32.334C22.13 31.9862 21.8479 31.7041 21.5001 31.7041C21.1524 31.7041 20.8702 31.9862 20.8702 32.334V34.7482C17.687 34.5986 14.7938 33.3221 12.5817 31.3091L14.2847 29.6061C14.5307 29.3601 14.5307 28.9615 14.2847 28.7154C14.039 28.4694 13.64 28.4694 13.394 28.7154L11.691 30.4184C9.678 28.2063 8.4015 25.3131 8.25224 22.1299H10.6661C11.0139 22.1299 11.296 21.8477 11.296 21.5C11.296 21.1522 11.0139 20.8701 10.6661 20.8701H8.25191C8.4015 17.6869 9.678 14.7937 11.691 12.5816C11.691 12.5816 13.3933 14.2839 13.394 14.2846C13.6367 14.5273 14.0419 14.5273 14.2847 14.2846C14.5307 14.0385 14.5307 13.6396 14.2847 13.3939L12.5817 11.6909C14.7938 9.67788 17.687 8.40138 20.8702 8.25179V10.666C20.8702 11.0138 21.152 11.2959 21.5001 11.2959C21.8479 11.2959 22.13 11.0138 22.13 10.666V8.25179C25.3129 8.40138 28.2064 9.67788 30.4182 11.6909L28.7152 13.3939C28.4695 13.6396 28.4695 14.0385 28.7152 14.2846C28.955 14.524 29.3615 14.529 29.6062 14.2846L31.3092 12.5816C33.3222 14.7937 34.5984 17.6869 34.748 20.8701H32.3341C31.9864 20.8701 31.7042 21.1519 31.7042 21.5C31.7042 21.8477 31.9864 22.1299 32.3341 22.1299Z" fill="url(#paint1_linear)"/>
<path d="M29.6379 20.6155L28.2479 19.6186C28.0609 19.4844 27.8421 19.4135 27.615 19.4135C27.014 19.4135 26.5249 19.9023 26.5249 20.503V20.8701H23.4142C23.2144 20.2645 22.7354 19.7855 22.1298 19.5857V16.475H22.4969C22.907 16.475 23.278 16.2484 23.4654 15.8835C23.6527 15.5187 23.6205 15.0854 23.3814 14.7521L22.3841 13.362C22.1803 13.0779 21.8496 12.908 21.4999 12.908C21.1499 12.908 20.8195 13.0779 20.6155 13.362L19.6182 14.7521C19.3793 15.0854 19.3472 15.5187 19.5345 15.8835C19.7215 16.2484 20.0925 16.475 20.5026 16.475H20.8697V19.5857C20.0663 19.8508 19.4843 20.6087 19.4843 21.5C19.4843 22.6115 20.3884 23.5156 21.4999 23.5156C22.3913 23.5156 23.1491 22.9336 23.4142 22.1299H26.5249V22.497C26.5249 23.0977 27.014 23.5865 27.615 23.5865C27.8421 23.5865 28.0609 23.5153 28.2479 23.3814L29.6375 22.3845C29.922 22.1804 30.0916 21.8497 30.0916 21.5C30.0916 21.1503 29.922 20.8196 29.6379 20.6155ZM21.4999 14.2905L22.1633 15.2153H20.8366L21.4999 14.2905ZM21.4999 22.2559C21.0833 22.2559 20.7441 21.9166 20.7441 21.5C20.7441 21.0834 21.083 20.7445 21.4996 20.7441H21.4999H21.5003C21.9166 20.7445 22.2551 21.0827 22.2558 21.499V21.5V21.501C22.2551 21.9173 21.9166 22.2559 21.4999 22.2559ZM27.7846 22.1633V20.8367L28.7095 21.5L27.7846 22.1633Z" fill="url(#paint2_linear)"/>
</g>
<defs>
<linearGradient id="paint0_linear" x1="0" y1="0" x2="44.7301" y2="1.88214" gradientUnits="userSpaceOnUse">
<stop stop-color="#F89017"/>
<stop offset="1" stop-color="#F3B514"/>
</linearGradient>
<linearGradient id="paint1_linear" x1="6.97705" y1="6.97693" x2="37.1922" y2="8.24832" gradientUnits="userSpaceOnUse">
<stop stop-color="#F89017"/>
<stop offset="1" stop-color="#F3B514"/>
</linearGradient>
<linearGradient id="paint2_linear" x1="19.4136" y1="12.908" x2="30.5212" y2="13.3754" gradientUnits="userSpaceOnUse">
<stop stop-color="#F89017"/>
<stop offset="1" stop-color="#F3B514"/>
</linearGradient>
<clipPath id="clip0">
<rect width="43" height="43" fill="white"/>
</clipPath>
</defs>
</svg>
