<svg width="206" height="337" viewBox="0 0 206 337" fill="none" xmlns="http://www.w3.org/2000/svg">
<path d="M98.1506 205.552C99.1323 203.587 98.2277 201.508 97.3402 199.653C95.6951 196.217 93.0246 193.322 90.6238 190.415C87.6833 186.84 84.7361 183.271 81.7903 179.702C87.5632 171.95 91.5194 163.101 93.4364 153.555C93.4802 153.56 93.5312 153.572 93.5876 153.565C98.1022 153.577 102.609 153.582 107.129 153.588C109.949 153.593 114.391 154.523 116.944 152.964C119.123 151.638 120.218 148.02 121.107 145.819C122.296 142.859 123.17 139.78 123.702 136.631C124.55 131.543 125.304 125.979 119.554 123.95C115.68 122.57 111.082 122.39 107.044 121.717C102.656 120.988 98.2661 120.258 93.884 119.534C93.147 119.414 92.6552 119.952 92.5522 120.518C91.2123 111.42 89.2832 102.409 84.7187 94.4186C87.8739 91.1717 90.9458 87.8443 93.8903 84.4074C96.3182 81.5819 99.7146 78.4694 101.373 75.1117C102.391 73.0588 102.101 71.9661 101.029 70.0077C99.0675 66.4153 96.2627 63.0691 93.9419 59.6965C90.736 55.0278 88.5669 51.3695 82.7321 54.3391C74.9994 58.2536 67.6932 63.4536 60.2794 67.9582C60.168 68.0228 60.0811 68.1003 60.0129 68.1828C52.685 62.6352 44.5523 59.3433 35.7743 56.8472C36.6479 49.354 37.5266 41.064 36.1592 33.5931C34.8483 26.4476 28.0259 26.515 21.9982 26.1417C17.0206 25.8425 9.78194 24.1419 7.60045 29.8063C4.4352 38.0005 2.82432 47.0884 1.64487 55.7555C1.55041 56.429 1.99174 56.8924 2.50324 57.0524C-7.52577 58.6032 -17.2024 61.5932 -26.3502 65.9782C-32.1578 60.1078 -37.8106 53.3865 -44.2624 48.3374C-48.4854 45.0298 -54.4672 51.5938 -57.5276 54.2164C-61.1257 57.295 -67.8822 62.3974 -65.8779 67.9791C-64.6545 71.3909 -61.1104 74.6346 -58.9113 77.4829C-56.102 81.1167 -53.2919 84.7628 -50.4883 88.403C-55.16 95.9469 -58.9183 103.963 -61.7598 112.371C-61.7849 112.371 -61.8036 112.366 -61.8287 112.366C-69.8829 113.404 -78.6692 113.589 -86.5494 115.573C-92.3868 117.035 -92.0053 125.196 -92.2562 130.022C-92.5344 135.414 -93.6678 143.828 -87.7175 146.519C-84.2927 148.07 -80.028 148.174 -76.3418 148.584C-72.8068 148.984 -69.2609 149.259 -65.7032 149.469C-65.0331 159.007 -61.5664 168.033 -55.7217 175.617C-60.4629 181.749 -65.2738 187.864 -69.6959 194.216C-73.6535 199.894 -67.6718 204.011 -63.8913 208.174C-61.3543 210.953 -58.7861 214.427 -55.7322 216.644C-54.1984 217.765 -52.862 218.067 -51.1593 217.144C-47.7533 215.286 -44.7132 211.226 -41.8859 208.588C-38.5222 205.444 -35.1574 202.301 -31.793 199.169C-24.1534 205.289 -15.1121 209.186 -5.37381 210.584C-4.95531 218.732 -4.62566 227.163 -3.10526 235.165C-1.82106 241.903 6.37542 241.729 11.9338 242.217C17.3357 242.69 24.4595 243.602 26.8639 237.424C29.6351 230.292 30.1798 221.619 30.805 213.898C40.8397 213.018 50.2063 209.175 57.981 202.773C63.9747 207.85 69.8904 213.085 76.0918 217.88C81.8417 222.314 85.4568 217.773 90.008 213.639C92.5433 211.342 96.5874 208.644 98.1506 205.552ZM25.498 71.0835C51.2829 75.6101 72.892 95.6072 77.9403 121.487C80.675 135.494 78.0628 149.523 71.4426 162.08C64.4343 175.373 53.925 188.447 39.543 193.989C12.8167 204.276 -19.1322 194.262 -37.1012 172.548C-37.0425 172.307 -37.0855 172.045 -37.2727 171.778C-51.2439 151.673 -53.0734 124.015 -40.7817 102.633C-27.699 79.883 -0.464593 66.5227 25.498 71.0835Z" fill="#F8F8F8"/>
<path d="M31.6212 162.739C31.2054 160.999 30.7907 159.259 30.3749 157.519C32.9329 155.597 35.1408 153.305 36.9492 150.754C38.4358 151.629 40.1388 152.504 41.4422 150.974C42.3027 149.964 42.8221 148.308 43.3993 147.128C44.1754 145.543 44.9511 143.958 45.7282 142.373C46.0366 141.744 45.8968 140.747 45.1599 140.448C44.0839 140.011 43.0217 139.754 41.9289 139.665C42.7495 136.122 42.9599 132.445 42.472 128.828C43.7232 128.787 44.9117 127.974 45.4466 126.749C46.5251 124.279 44.2598 122.231 44.6425 119.863C44.7816 119.003 44.2113 118.054 43.2376 118.11C41.8299 118.189 40.4486 118.411 39.0784 118.708C38.8955 118.385 38.714 118.061 38.5164 117.742C36.7316 114.861 34.4942 112.443 31.9578 110.493C32.8516 109.584 33.5828 108.545 34.0786 107.319C34.3889 106.551 34.1673 105.411 33.1668 105.26C31.9617 105.081 30.9456 104.561 30.2415 103.54C29.6589 102.697 28.2836 102.553 27.7725 103.586C27.1578 104.828 26.3433 105.836 25.311 106.723C22.4216 105.576 19.3534 104.9 16.2365 104.739C16.7064 103.067 15.5227 101.271 13.7936 100.775C12.3574 100.362 10.7808 100.682 9.33384 100.828C7.3663 101.028 5.4002 101.227 3.43374 101.427C2.53794 101.518 1.82771 102.294 2.09391 103.231C2.29955 103.96 2.5052 104.688 2.71228 105.415C2.65352 105.828 2.77605 106.26 3.04189 106.582C3.09313 106.762 3.14329 106.942 3.19452 107.122C2.10641 107.598 1.03515 108.14 -0.00816551 108.762C-1.95868 109.925 -3.69248 111.303 -5.21383 112.844C-5.55488 112.213 -5.89629 111.583 -6.23734 110.952C-6.66124 110.168 -7.88792 110.009 -8.48034 110.69C-10.2784 112.759 -12.0762 114.826 -13.8743 116.895C-14.5874 117.715 -14.2571 118.963 -13.1882 119.26C-12.1992 119.535 -11.2983 119.973 -10.4898 120.549C-12.9418 125.909 -13.7051 132.018 -12.6728 137.905C-14.9428 138.333 -17.2124 138.76 -19.4834 139.187C-20.4708 139.373 -20.6664 140.522 -20.3201 141.277C-19.3692 143.343 -18.4194 145.409 -17.4685 147.475C-17.2175 148.021 -16.4138 148.296 -15.8626 148.118C-14.1214 147.557 -12.3583 147.091 -10.5791 146.681C-8.50131 151.24 -5.35459 155.014 -1.58115 157.8C-2.26326 158.975 -2.72748 160.229 -2.91284 161.633C-3.02355 162.47 -2.65447 163.046 -1.86839 163.348C0.345172 164.196 2.60887 164.654 4.97112 164.81C5.53799 164.847 6.24917 164.306 6.32418 163.726C6.40245 163.123 6.52953 162.534 6.65086 161.945C10.5875 163.143 14.7975 163.447 18.9989 162.647C19.1249 163.309 19.2512 163.97 19.3786 164.632C19.4928 165.233 20.1819 165.689 20.7703 165.665C24.0931 165.536 27.3783 165.14 30.6404 164.493C31.4142 164.338 31.7877 163.438 31.6212 162.739ZM36.8087 136.413C36.1096 140.771 34.209 144.981 31.2892 148.599C29.4534 146.254 27.6188 143.909 25.7831 141.564C27.2479 139.683 28.2943 137.439 28.8203 135.04C31.4547 135.664 34.1173 136.117 36.8087 136.413ZM32.4784 118.969C32.5778 119.102 32.6904 119.22 32.7873 119.356C35.9426 123.771 37.271 128.721 37.0782 133.606C34.4144 133.314 31.7824 132.844 29.1774 132.211C29.2098 131.315 29.1849 130.411 29.0576 129.502C28.7673 127.425 27.9656 125.611 26.8223 124.113C28.8061 122.499 30.6963 120.797 32.4784 118.969ZM30.6146 116.819C28.8058 118.698 26.8837 120.453 24.8489 122.091C23.1526 120.726 21.1006 119.835 18.9643 119.504C18.7439 119.444 18.5213 119.394 18.2977 119.343C19.0217 116.584 19.7446 113.825 20.4685 111.066C24.2499 112.022 27.7822 113.95 30.6146 116.819ZM17.666 110.558L15.4595 118.974C12.8269 118.89 10.1888 119.535 7.8529 120.967C6.0689 118.589 4.18827 116.295 2.18947 114.098C6.85706 111.057 12.3863 109.898 17.666 110.558ZM-0.102779 115.794C1.91756 117.991 3.81865 120.284 5.60695 122.677C5.23193 123.033 4.86874 123.411 4.5224 123.821C3.41945 125.127 2.60005 126.552 2.04736 128.035C-0.921202 127.766 -3.88976 127.498 -6.85797 127.228C-5.86201 122.881 -3.6348 118.843 -0.102779 115.794ZM-3.2793 146.804C-3.32 146.421 -3.44974 146.021 -3.70727 145.616C-6.67576 140.946 -7.9039 135.359 -7.34069 130.018C-4.44787 130.28 -1.55506 130.542 1.33811 130.804C0.783449 134.428 1.65727 138.152 3.76116 141.131C1.41351 143.021 -0.933439 144.912 -3.2793 146.804ZM-2.24625 149.588L5.62573 143.243C7.03805 144.566 8.74419 145.643 10.755 146.324C11.6721 146.635 12.5728 146.809 13.4624 146.923C13.1534 150.364 12.9123 153.81 12.7785 157.264C7.06562 156.89 1.56776 154.207 -2.24625 149.588ZM28.2654 151.811C24.5189 155.205 20.0739 156.938 15.6144 157.252C15.7467 153.828 15.9853 150.411 16.2896 146.998C19.15 146.734 21.7343 145.494 23.8345 143.642C25.681 146.002 27.5275 148.361 29.374 150.721C29.0094 151.089 28.6519 151.46 28.2654 151.811ZM40.9788 142.929C41.0342 142.77 41.0978 142.615 41.1507 142.457C41.5973 142.453 42.0364 142.493 42.4732 142.572L42.3223 142.881C41.893 142.657 41.3821 142.638 40.9788 142.929ZM27.9236 160.314C27.7932 159.984 27.5582 159.713 27.2419 159.581C27.4517 159.462 27.6568 159.335 27.8633 159.211C27.9564 159.603 28.0506 159.994 28.1437 160.386C28.0741 160.354 28.0015 160.331 27.9236 160.314Z" fill="#F8F8F8"/>
<path d="M203.256 290.511C203.448 289.015 202.391 287.871 201.395 286.868C199.551 285.012 197.163 283.738 194.947 282.395C192.231 280.742 189.511 279.094 186.793 277.446C188.783 271.111 189.347 264.475 188.43 257.849C188.459 257.842 188.495 257.838 188.53 257.821C191.461 256.806 194.386 255.79 197.32 254.771C199.15 254.136 202.242 253.734 203.545 252.145C204.658 250.791 204.55 248.197 204.629 246.568C204.73 244.378 204.6 242.183 204.232 240.02C203.631 236.527 202.86 232.748 198.671 232.733C195.846 232.714 192.823 233.639 190.051 234.116C187.039 234.636 184.026 235.156 181.02 235.678C180.515 235.767 180.317 236.227 180.379 236.618C177.45 231.019 174.16 225.611 169.39 221.46C170.702 218.64 171.942 215.786 173.074 212.89C174.009 210.508 175.508 207.72 175.824 205.167C176.019 203.605 175.584 202.961 174.446 201.934C172.36 200.047 169.783 198.511 167.514 196.849C164.378 194.546 162.143 192.664 159.03 195.911C154.9 200.2 151.338 205.227 147.548 209.827C147.49 209.894 147.451 209.964 147.426 210.033C141.417 208.093 135.396 207.798 129.137 208.166C128.008 203.107 126.701 197.531 124.123 192.994C121.656 188.655 117.245 190.243 113.251 191.365C109.954 192.298 104.874 192.833 104.741 197.001C104.542 203.033 105.554 209.293 106.75 215.182C106.841 215.64 107.233 215.841 107.601 215.829C101.446 219.105 95.8456 223.235 90.9039 228.149C85.8079 225.656 80.6198 222.575 75.2918 220.76C71.8038 219.57 69.409 225.182 68.0174 227.576C66.3801 230.387 63.152 235.227 65.7156 238.394C67.2813 240.33 70.3145 241.632 72.3857 242.982C75.0305 244.703 77.6786 246.433 80.3211 248.159C78.998 254.11 78.3745 260.161 78.4341 266.258C78.4178 266.264 78.4045 266.265 78.3882 266.271C73.3986 268.767 67.7408 270.876 63.078 273.946C59.6221 276.215 61.7168 281.423 62.6463 284.611C63.6861 288.171 64.8553 293.886 69.3243 294.285C71.8969 294.516 74.687 293.618 77.171 293.05C79.5547 292.509 81.917 291.885 84.2725 291.216C86.8657 297.251 91.1576 302.322 96.6654 305.919C94.9777 310.97 93.2409 316.025 91.81 321.147C90.5279 325.726 95.3398 327.042 98.7344 328.887C101.009 330.116 103.461 331.788 105.944 332.535C107.193 332.915 108.128 332.809 109.024 331.825C110.813 329.848 111.866 326.527 113.103 324.175C114.573 321.375 116.045 318.574 117.518 315.781C123.859 318.022 130.606 318.504 137.24 317.207C139.355 322.397 141.477 327.792 144.275 332.639C146.633 336.719 151.91 334.75 155.626 333.809C159.238 332.893 164.065 331.873 164.227 327.321C164.41 322.067 162.8 316.318 161.458 311.167C167.769 308.326 172.975 303.713 176.569 297.8C181.607 299.737 186.629 301.794 191.737 303.501C196.47 305.076 197.788 301.312 199.804 297.601C200.929 295.536 202.942 292.871 203.256 290.511ZM125.693 219.726C143.444 216.827 161.987 224.908 171.12 240.554C176.064 249.021 177.544 258.712 176.092 268.356C174.554 278.565 170.696 289.425 162.621 296.275C147.612 308.997 124.62 309.732 108.05 299.713C108.033 299.544 107.946 299.384 107.764 299.253C94.1509 289.373 86.7042 271.845 89.8384 255.193C93.176 237.475 107.819 222.644 125.693 219.726Z" fill="#F8F8F8"/>
<path d="M150.409 277.797C149.746 276.762 149.083 275.727 148.419 274.692C149.644 272.867 150.557 270.88 151.153 268.816C152.315 269.047 153.618 269.229 154.117 267.942C154.447 267.092 154.409 265.9 154.516 265.004C154.661 263.8 154.805 262.597 154.951 261.393C155.008 260.915 154.692 260.3 154.146 260.273C153.349 260.233 152.602 260.306 151.873 260.496C151.604 258.012 150.908 255.579 149.773 253.343C150.575 253.034 151.162 252.237 151.232 251.321C151.373 249.475 149.44 248.659 149.152 247.037C149.047 246.447 148.463 245.961 147.844 246.217C146.948 246.587 146.103 247.044 145.281 247.546C145.089 247.378 144.898 247.209 144.698 247.047C142.888 245.582 140.889 244.52 138.803 243.829C139.177 243.037 139.416 242.198 139.46 241.29C139.487 240.722 139.086 240.033 138.403 240.161C137.58 240.317 136.803 240.21 136.116 239.707C135.547 239.292 134.622 239.51 134.524 240.296C134.407 241.24 134.107 242.079 133.638 242.888C131.504 242.798 129.36 243.054 127.302 243.654C127.228 242.463 126.054 241.566 124.82 241.636C123.795 241.693 122.845 242.258 121.939 242.68C120.708 243.255 119.478 243.829 118.248 244.404C117.687 244.666 117.402 245.33 117.787 245.878C118.085 246.303 118.383 246.729 118.682 247.154C118.737 247.435 118.915 247.688 119.16 247.837C119.234 247.942 119.307 248.047 119.381 248.152C118.783 248.708 118.211 249.301 117.675 249.941C116.673 251.137 115.86 252.423 115.222 253.767C114.858 253.435 114.494 253.104 114.13 252.772C113.677 252.359 112.846 252.534 112.615 253.109C111.917 254.858 111.219 256.606 110.521 258.355C110.244 259.049 110.74 259.783 111.501 259.734C112.205 259.689 112.888 259.769 113.543 259.959C113.166 263.991 114.053 268.127 116.055 271.712C114.68 272.503 113.304 273.294 111.928 274.085C111.329 274.43 111.462 275.219 111.858 275.63C112.942 276.755 114.026 277.881 115.11 279.006C115.397 279.303 115.98 279.299 116.298 279.059C117.3 278.301 118.338 277.6 119.4 276.931C121.779 279.418 124.675 281.154 127.753 282.108C127.577 283.024 127.559 283.943 127.757 284.896C127.875 285.464 128.244 285.753 128.823 285.772C130.45 285.821 132.023 285.606 133.59 285.172C133.966 285.068 134.305 284.555 134.223 284.163C134.137 283.753 134.086 283.343 134.031 282.933C136.856 282.819 139.656 282.063 142.2 280.594C142.432 280.995 142.664 281.395 142.896 281.795C143.106 282.159 143.656 282.299 144.033 282.151C146.159 281.315 148.2 280.314 150.17 279.157C150.637 278.881 150.675 278.212 150.409 277.797ZM147.816 259.545C148.349 262.53 148.069 265.692 146.993 268.699C145.272 267.594 143.551 266.488 141.829 265.382C142.354 263.83 142.525 262.138 142.323 260.463C144.173 260.271 146.003 259.962 147.816 259.545ZM141.059 249.21C141.153 249.273 141.253 249.324 141.347 249.391C144.393 251.54 146.375 254.451 147.355 257.663C145.561 258.077 143.748 258.368 141.914 258.547C141.733 257.958 141.512 257.377 141.224 256.816C140.565 255.535 139.635 254.539 138.554 253.827C139.476 252.331 140.316 250.798 141.059 249.21ZM139.363 248.237C138.615 249.865 137.765 251.439 136.816 252.962C135.407 252.46 133.874 252.346 132.413 252.616C132.257 252.626 132.101 252.644 131.944 252.662C131.79 250.708 131.634 248.754 131.479 246.801C134.149 246.565 136.876 247.017 139.363 248.237ZM129.546 247.106L130.02 253.065C128.293 253.606 126.728 254.621 125.537 256.079C123.841 254.94 122.102 253.878 120.308 252.905C122.648 249.876 125.972 247.873 129.546 247.106ZM119.205 254.524C121.013 255.492 122.765 256.549 124.467 257.697C124.304 258.013 124.154 258.34 124.022 258.684C123.602 259.781 123.393 260.891 123.37 261.978C121.384 262.476 119.397 262.973 117.411 263.47C117.073 260.425 117.604 257.301 119.205 254.524ZM124.163 275.359C124.05 275.119 123.875 274.889 123.616 274.685C120.634 272.328 118.573 268.982 117.729 265.389C119.665 264.904 121.601 264.42 123.537 263.934C123.997 266.411 125.407 268.629 127.446 270.085C126.351 271.843 125.257 273.601 124.163 275.359ZM125.463 276.931L129.134 271.033C130.349 271.572 131.7 271.884 133.158 271.871C133.824 271.865 134.447 271.774 135.05 271.647C135.628 273.949 136.252 276.239 136.947 278.51C133.156 279.56 128.983 279.064 125.463 276.931ZM145.759 271.467C144.097 274.517 141.605 276.647 138.784 277.86C138.095 275.609 137.476 273.338 136.901 271.056C138.697 270.237 140.092 268.848 141.036 267.171C142.768 268.284 144.499 269.397 146.231 270.509C146.078 270.83 145.93 271.152 145.759 271.467ZM151.996 262.828C151.996 262.713 152.002 262.598 152 262.483C152.289 262.379 152.583 262.306 152.884 262.258L152.856 262.493C152.527 262.445 152.192 262.548 151.996 262.828ZM147.462 277.06C147.302 276.876 147.089 276.753 146.854 276.739C146.963 276.614 147.067 276.486 147.173 276.359C147.322 276.592 147.472 276.825 147.621 277.057C147.568 277.053 147.516 277.054 147.462 277.06Z" fill="#F8F8F8"/>
</svg>
