<svg width="317" height="317" viewBox="0 0 317 317" fill="none" xmlns="http://www.w3.org/2000/svg">
<path d="M20.7065 153.268C21.4833 150.581 24.1279 149.415 26.5619 148.444C31.0698 146.649 36.0725 146.243 40.8314 145.595C46.6735 144.787 52.515 143.99 58.3581 143.194C59.6479 130.948 63.5865 119.243 70.0372 108.648C69.9913 108.615 69.9339 108.582 69.8874 108.527C65.649 104.639 61.424 100.75 57.1861 96.8503C54.5415 94.4202 49.5775 91.4528 48.5359 87.7877C47.6408 84.6637 49.7394 80.3293 50.8087 77.4995C52.2525 73.7002 54.0943 70.0632 56.3159 66.653C59.9161 61.1546 64.0173 55.2946 71.1546 58.3612C75.9746 60.4155 80.4355 64.2194 84.7979 67.0752C89.5388 70.1826 94.2796 73.2914 99.0087 76.3997C99.8018 76.9249 99.7995 77.853 99.4046 78.473C108.519 71.1105 118.108 64.3371 129.286 60.7986C129.137 55.0323 129.133 49.2628 129.346 43.5002C129.512 38.7567 129.021 32.9079 130.368 28.3296C131.189 25.5284 132.405 24.7548 135.1 23.8475C140.04 22.1772 145.556 21.4665 150.643 20.3139C157.678 18.7105 162.87 17.1589 165.769 24.9799C169.63 35.3245 171.981 46.506 175.032 57.1292C175.08 57.287 175.095 57.4332 175.087 57.5697C186.741 58.7039 197.202 62.6459 207.578 67.892C213.232 60.1197 219.571 51.5975 227.304 45.7816C234.703 40.2219 241.034 46.1787 247.001 51.0357C251.92 55.0561 260.168 59.7149 257.318 66.9049C253.205 77.3129 246.862 87.2148 240.48 96.3503C239.986 97.0621 239.174 97.1144 238.557 96.8228C246.608 106.939 253.088 118.097 257.867 130.107C268.377 129.626 279.476 128.216 289.88 129.06C296.692 129.611 296.624 140.925 297.223 146.024C297.933 152.016 299.853 162.629 293.154 166.127C289.06 168.265 282.94 168.242 278.421 169.009C272.65 169.985 266.869 170.972 261.099 171.96C258.958 183.06 255.552 193.814 250.951 204.141C250.974 204.163 250.997 204.174 251.019 204.197C257.666 212.127 265.733 219.89 271.401 228.554C275.604 234.965 268.197 242.279 264.263 247.016C259.866 252.305 253.66 261.164 245.762 258.544C241.215 257.039 237.131 253.453 233.325 250.653C229.668 247.973 226.111 245.167 222.597 242.292C213.732 250.644 202.687 256.103 190.662 258.156C189.804 267.995 189.027 277.876 187.682 287.646C186.483 296.383 177.326 295.069 170.19 295.702C165.414 296.114 160.007 297.15 155.232 296.587C152.827 296.313 151.315 295.44 150.517 293.106C148.933 288.424 149.593 281.995 149.224 277.082C148.789 271.232 148.355 265.381 147.908 259.543C135.468 258.675 123.633 254.513 113.308 247.412C105.877 254.681 98.2865 262.291 89.9494 268.471C82.926 273.672 75.4024 266.429 69.774 262.085C64.3071 257.862 56.8476 252.563 59.9323 244.7C63.4981 235.627 70.4812 227.034 76.5646 219.264C67.9265 209.772 62.4766 198.082 60.7246 185.372C50.7264 184.948 40.6652 184.74 30.7134 183.875C21.4981 183.06 22.0364 175.685 21.3442 167.882C20.9558 163.535 19.4997 157.515 20.7065 153.268ZM204.901 90.1003C176.843 72.0672 139.333 72.1264 112.249 92.0014C97.5879 102.755 87.9173 118.15 83.27 135.629C78.3506 154.132 76.8991 175.454 85.5802 193.067C101.722 225.788 140.294 244.007 175.877 239.193C176.029 238.918 176.296 238.71 176.701 238.621C207.151 231.862 232.758 207.54 239.716 176.899C247.117 144.292 233.153 108.254 204.901 90.1003Z" fill="#F8F8F8"/>
<path d="M119.992 170.644C121.884 169.372 123.776 168.101 125.668 166.831C124.934 162.822 124.845 158.769 125.355 154.817C123.208 154.352 120.857 153.699 120.958 151.141C121.024 149.452 121.969 147.453 122.446 145.848C123.088 143.693 123.731 141.54 124.373 139.384C124.628 138.528 125.62 137.716 126.568 138.073C127.953 138.594 129.169 139.27 130.27 140.13C132.563 136.103 135.54 132.478 139.123 129.513C137.985 128.394 137.575 126.606 138.132 124.997C139.255 121.752 143.146 121.791 144.832 119.243C145.446 118.317 146.799 117.921 147.663 118.815C148.913 120.105 150.014 121.506 151.043 122.967C151.494 122.822 151.944 122.676 152.403 122.548C156.562 121.392 160.747 121.06 164.806 121.425C164.754 119.801 164.967 118.197 165.561 116.62C165.934 115.634 167.126 114.756 168.193 115.48C169.477 116.352 170.877 116.742 172.418 116.396C173.693 116.109 175.104 117.163 174.691 118.571C174.194 120.265 174.085 121.913 174.285 123.636C177.981 125.058 181.439 127.075 184.497 129.618C185.501 127.647 188.161 126.987 190.209 128.014C191.91 128.869 193.112 130.529 194.339 131.917C196.009 133.803 197.679 135.689 199.347 137.574C200.108 138.433 200.102 139.773 199.044 140.42C198.223 140.924 197.4 141.428 196.579 141.931C196.277 142.367 195.789 142.666 195.262 142.739C195.059 142.863 194.857 142.987 194.654 143.112C195.261 144.499 195.797 145.93 196.236 147.413C197.057 150.187 197.492 152.976 197.585 155.733C198.449 155.437 199.315 155.141 200.179 154.845C201.253 154.478 202.54 155.388 202.506 156.538C202.403 160.028 202.3 163.518 202.197 167.008C202.156 168.392 200.77 169.274 199.511 168.629C198.347 168.033 197.124 167.666 195.871 167.506C193.537 174.643 188.975 181.024 182.923 185.645C184.68 188.006 186.436 190.367 188.193 192.728C188.956 193.754 188.149 195 187.171 195.407C184.496 196.52 181.821 197.635 179.146 198.75C178.439 199.044 177.449 198.608 177.087 197.964C175.94 195.934 174.693 193.975 173.38 192.053C167.497 194.527 161.289 195.344 155.349 194.694C154.973 196.384 154.326 197.96 153.285 199.435C152.666 200.313 151.822 200.535 150.827 200.138C148.021 199.022 145.506 197.494 143.159 195.599C142.596 195.145 142.398 194.022 142.827 193.415C143.275 192.782 143.665 192.122 144.061 191.465C139.34 189.186 135.135 185.834 131.891 181.456C131.201 181.966 130.51 182.476 129.82 182.986C129.194 183.45 128.155 183.282 127.624 182.753C124.624 179.761 121.89 176.552 119.394 173.13C118.806 172.32 119.233 171.154 119.992 170.644ZM137.875 141.509C134.765 146.194 132.908 151.779 132.518 157.691C136.262 157.081 140.006 156.469 143.751 155.859C144.004 152.833 144.962 149.827 146.544 147.125C143.537 145.432 140.651 143.557 137.875 141.509ZM156.998 128.914C156.791 128.952 156.583 128.966 156.375 129.008C149.606 130.417 144.086 133.906 140.047 138.647C142.793 140.674 145.666 142.508 148.651 144.165C149.394 143.299 150.199 142.473 151.103 141.731C153.169 140.037 155.486 139.031 157.85 138.615C157.389 135.392 157.089 132.163 156.998 128.914ZM160.602 128.509C160.673 131.83 160.957 135.135 161.448 138.426C164.217 138.614 166.907 139.551 169.193 141.088C169.453 141.221 169.705 141.367 169.957 141.511C171.663 138.302 173.368 135.093 175.075 131.884C170.706 129.515 165.733 128.27 160.602 128.509ZM178.136 133.831L172.931 143.618C175.47 145.813 177.383 148.697 178.334 152.055C182.06 151.368 185.801 150.847 189.571 150.515C187.827 143.635 183.651 137.775 178.136 133.831ZM190.255 154.083C186.465 154.397 182.704 154.901 178.962 155.597C179.005 156.254 179.021 156.921 178.99 157.606C178.895 159.781 178.431 161.824 177.669 163.69C180.681 166.003 183.693 168.315 186.707 170.628C189.525 165.696 190.928 159.99 190.255 154.083ZM166.442 185.868C166.812 185.545 167.279 185.283 167.87 185.124C174.683 183.315 180.66 179.144 184.748 173.654C181.812 171.401 178.877 169.148 175.942 166.893C173.331 170.767 169.294 173.499 164.752 174.471C165.313 178.272 165.878 182.071 166.442 185.868ZM163.069 187.584L161.177 174.841C158.712 174.86 156.183 174.394 153.713 173.296C152.584 172.795 151.592 172.181 150.661 171.519C147.977 175.009 145.226 178.444 142.369 181.794C148.042 186.377 155.507 188.613 163.069 187.584ZM132.576 163.308C133.152 169.723 135.818 175.186 139.724 179.332C142.558 176.011 145.287 172.605 147.949 169.147C145.5 166.428 144.15 163.036 143.782 159.487C140.015 160.102 136.247 160.716 132.479 161.331C132.502 161.989 132.516 162.645 132.576 163.308ZM128.342 144.009C128.426 143.813 128.501 143.613 128.589 143.419C128.174 143.029 127.728 142.687 127.251 142.383L127.127 142.803C127.72 142.964 128.215 143.388 128.342 144.009ZM125.551 171.567C125.958 171.371 126.412 171.32 126.822 171.469C126.729 171.176 126.645 170.88 126.56 170.585C126.135 170.872 125.708 171.158 125.283 171.444C125.374 171.474 125.463 171.515 125.551 171.567Z" fill="#F8F8F8"/>
</svg>
