<svg width="411" height="410" viewBox="0 0 411 410" fill="none" xmlns="http://www.w3.org/2000/svg">
<path d="M32.8202 166.223C34.4427 163.035 38.0444 162.204 41.3342 161.57C47.4284 160.397 53.8096 161.09 59.9442 161.419C67.4768 161.808 75.007 162.211 82.5372 162.614C87.1004 147.541 94.8596 133.784 105.509 122.025C105.459 121.972 105.395 121.917 105.35 121.836C100.961 115.934 96.5867 110.034 92.2001 104.117C89.4624 100.429 83.9399 95.5089 83.5107 90.6548C83.1374 86.5141 86.8151 81.5744 88.8373 78.2773C91.5629 73.8519 94.7517 69.7246 98.3608 65.9761C104.204 59.9344 110.764 53.5586 118.994 59.1253C124.554 62.8635 129.245 68.7142 134.038 73.35C139.247 78.3931 144.455 83.4362 149.65 88.4769C150.518 89.3273 150.293 90.4921 149.65 91.1759C162.867 84.1173 176.541 77.9131 191.432 76.1531C192.629 68.8739 194.011 61.626 195.662 54.4379C197.011 48.5192 197.799 41.0539 200.591 35.6275C202.294 32.3061 204.008 31.6266 207.611 31.1335C214.219 30.2223 221.318 30.6554 227.987 30.4292C237.209 30.1051 244.104 29.4037 245.866 39.9243C248.23 53.8465 248.497 68.457 249.778 82.5342C249.801 82.7435 249.785 82.9313 249.741 83.1001C264.109 87.3244 276.302 94.7908 288.076 103.873C297.046 95.4687 307.056 86.2858 318.168 80.8382C328.799 75.6323 335.321 84.6369 341.65 92.1717C346.863 98.4038 356.104 106.238 350.797 114.585C343.128 126.671 332.782 137.587 322.571 147.528C321.78 148.304 320.746 148.174 320.04 147.659C327.724 162.301 333.183 177.874 336.301 194.109C349.619 196.03 363.902 196.925 376.767 200.486C385.191 202.814 382.389 217.01 381.916 223.56C381.368 231.257 381.23 245.051 371.975 247.834C366.319 249.536 358.636 248.037 352.775 247.915C345.292 247.754 337.792 247.606 330.307 247.46C324.95 260.888 318.089 273.579 309.826 285.447C309.85 285.481 309.876 285.5 309.9 285.533C316.343 297.092 324.612 308.782 329.649 321.027C333.388 330.091 322.328 337.498 316.248 342.503C309.454 348.091 299.528 357.728 290.237 352.54C284.887 349.556 280.619 344.07 276.51 339.638C272.561 335.393 268.766 331.014 265.043 326.558C251.9 334.92 236.714 339.124 221.116 338.814C217.675 350.967 214.325 363.193 210.288 375.142C206.683 385.829 195.495 381.979 186.379 381.06C180.281 380.429 173.24 380.431 167.377 378.578C164.423 377.655 162.732 376.196 162.29 373.071C161.424 366.808 163.799 358.892 164.516 352.632C165.375 345.178 166.235 337.725 167.077 330.284C151.659 326.205 137.793 318.134 126.527 306.731C115.447 314.077 104.082 321.814 92.1249 327.574C82.053 332.419 74.3413 321.513 68.3155 314.704C62.4629 308.085 54.3664 299.637 60.1297 290.501C66.7895 279.962 77.6249 270.845 87.1344 262.545C78.5648 248.546 74.5262 232.552 75.3797 216.165C62.922 213.23 50.3331 210.552 38.0404 207.073C26.6605 203.836 29.1089 194.7 30.113 184.733C30.6672 179.179 30.2838 171.267 32.8202 166.223ZM279.378 131.129C248.466 101.734 201.331 92.7967 162.534 111.256C141.534 121.243 125.687 138.258 115.649 159.097C105.024 181.158 98.0777 207.594 104.751 231.805C117.167 276.786 161.241 308.941 207.097 311.444C207.355 311.135 207.74 310.936 208.271 310.922C248.146 309.748 286.154 285.347 302.257 248.529C319.389 209.346 310.506 160.721 279.378 131.129Z" fill="#F8F8F8"/>
<path d="M141.779 143.883C141.996 143.56 142.258 143.276 142.551 143.028C143.612 141.866 144.692 140.722 145.813 139.617C175.342 110.538 220.996 105.984 255.801 128.477C288.177 149.401 303.825 189.937 295.371 227.389C286.255 267.778 248.971 297.476 207.894 299.207C207.213 299.236 206.626 299.09 206.117 298.846C170.874 298.168 137.822 275.914 124.127 243.276C110.359 210.459 118.291 170.285 141.779 143.883ZM126.577 227.253C127.791 232.706 129.608 237.959 131.928 242.96C135.064 240.489 138.668 238.425 142.826 239.203C146.688 239.926 148.807 242.788 149.763 246.377C150.313 248.441 150.677 249.51 152.01 251.173C153.197 252.652 154.005 253.935 153.925 255.898C153.78 259.504 150.356 262.972 147.755 265.854C158.82 277.255 173.033 285.62 188.489 289.409C189.322 285.194 190.411 276.483 195.049 274.67C197.299 273.79 199.857 274.608 202.126 275.009C205.378 275.585 208.63 276.161 211.882 276.735C213.386 277.001 214.792 278.349 214.88 279.933C215.099 283.833 214.809 287.642 213.915 291.442C228.185 289.703 241.891 284.417 253.652 276.337C252.003 274.622 250.355 272.907 248.706 271.19C247.273 269.699 246.689 266.718 248.928 265.469C253.416 262.962 257.424 259.927 260.941 256.168C262.401 254.609 264.306 254.6 266.036 255.711C268.042 257.001 269.808 258.469 271.466 260.095C276.541 253.972 280.777 247.121 283.92 239.656C285.7 235.428 287.073 231.057 288.115 226.614C288.071 226.607 288.031 226.609 287.986 226.6C284.531 225.849 281.067 225.184 277.581 224.602C276.181 224.368 274.543 222.961 274.582 221.406C274.669 217.986 274.753 214.567 274.839 211.148C274.901 208.663 274.309 204.975 275.543 202.644C276.42 200.986 278.062 200.321 279.817 199.981C283.159 199.333 286.599 198.982 289.98 198.525C288.741 185.376 284.627 172.494 277.817 161.199C274.73 163.893 269.988 167.851 265.887 165.823C263.738 164.76 262.513 162.308 261.203 160.425L255.547 152.297C254.477 150.76 254.727 148.308 256.396 147.253C258.729 145.779 260.201 144.066 261.275 141.581C251.198 132.919 239.306 126.929 226.79 123.84C225.927 126.889 225.265 130.398 223.696 133.063C221.769 136.333 218.493 136.076 215.179 135.671C212.142 135.3 207.349 135.638 205.083 133.19C202.739 130.656 203.387 125.674 203.194 122.476C203.173 122.128 203.211 121.806 203.274 121.496C188.622 122.159 174.106 126.789 161.501 135.782C161.368 135.877 161.242 135.979 161.11 136.074C164.264 138.852 168.088 142.405 166.267 146.402C165.194 148.759 162.353 150.388 160.44 151.927C157.815 154.039 155.191 156.15 152.567 158.264C151.12 159.428 148.5 159.012 147.523 157.414C146.46 155.673 145.395 153.93 144.332 152.187C137.615 160.665 132.452 170.361 129.096 180.651C130.996 180.967 132.897 181.281 134.796 181.595C136.807 181.928 137.974 183.819 137.761 185.762L136.682 195.579C136.367 198.454 136.467 201.908 135.622 204.693C134.043 209.9 128.808 208.591 124.58 207.719C124.497 214.262 125.144 220.819 126.577 227.253Z" fill="#F8F8F8"/>
</svg>
