<svg width="81" height="54" viewBox="0 0 81 54" fill="none" xmlns="http://www.w3.org/2000/svg">
<path d="M0 47.9776C0.333712 47.1197 0.639677 46.249 1.01088 45.4076C1.27635 44.8069 1.64981 44.2543 1.93928 43.6633C2.90967 41.6821 3.86956 39.6948 4.82195 37.7045C5.08217 37.1608 5.42638 36.7694 6.0638 36.6711C6.21904 36.6471 6.39527 36.4454 6.47251 36.2827C7.10543 34.9456 7.77511 33.6212 8.3218 32.2489C9.01247 30.5151 9.5839 28.7348 10.2326 26.9837C11.4999 23.5626 13.4692 20.5742 15.9027 17.8783C16.6526 17.0474 16.8843 16.5584 16.1321 15.2108C14.7471 12.7256 13.2097 10.3342 11.3987 8.12716C10.5303 7.06903 9.37917 6.61233 8.06982 6.4241C7.02519 6.27412 6.00156 6.4571 4.96818 6.53659C4.45524 6.57558 3.9228 6.50134 3.41361 6.4031C3.18788 6.35961 2.95691 6.16463 2.80093 5.9779C2.54071 5.66669 2.63145 5.30673 3.00416 5.1485C3.25763 5.04126 3.55309 4.95577 3.82156 4.97527C5.15266 5.07051 6.44851 4.74729 7.76536 4.68655C8.46578 4.65431 9.1662 4.58081 9.86512 4.59656C10.2003 4.60406 10.546 4.7458 10.8625 4.88153C12.5153 5.5917 13.8134 6.78031 14.9488 8.12266C16.4719 9.9232 17.9027 11.8025 19.3763 13.645C19.587 13.9082 19.8082 14.1632 20.037 14.4107C20.2904 14.6852 20.5836 14.8831 20.9856 14.8681C22.0745 14.8284 23.1723 14.8704 24.2477 14.7346C24.8252 14.6619 25.3613 14.2795 25.9223 14.0537C28.4817 13.0256 31.0689 12.074 33.7521 11.4193C35.1365 11.0818 36.5396 10.8238 37.9314 10.5164C39.9352 10.0739 41.6562 9.0323 43.4178 8.03117C46.3904 6.34086 49.4141 4.73455 52.473 3.20697C53.4509 2.71878 54.6012 2.55755 55.6864 2.30782C57.4404 1.90512 59.226 1.6779 61.0235 1.82863C62.5646 1.95761 64.0989 2.18859 65.6295 2.42106C66.0862 2.4908 66.4394 2.41581 66.7821 2.1271C67.565 1.46567 68.3689 0.828245 69.1398 0.153322C69.3535 -0.0334067 69.5133 -0.0341572 69.745 0.068581C70.7341 0.508031 71.1286 1.42818 70.8331 2.64229C70.8076 2.74652 70.7754 2.85001 70.7424 2.952C70.5302 3.61268 70.7544 4.10537 71.4338 4.3071C72.303 4.56507 73.1406 4.42858 73.9183 3.95838C74.0203 3.89689 74.1178 3.82715 74.345 3.78366C74.306 4.2381 74.3007 4.6993 74.2167 5.1455C74.1432 5.53845 73.9678 5.91116 73.8688 6.30037C73.8358 6.4286 73.8673 6.60033 73.9303 6.72032C74.0165 6.88455 74.1522 7.02478 74.2805 7.16277C75.2096 8.1624 75.3236 9.40351 75.3124 10.6746C75.3079 11.2056 75.3971 11.6668 75.6738 12.1572C76.2303 13.1456 76.4087 14.26 76.366 15.3961C76.3487 15.8618 76.1268 16.0283 75.4728 16.1032C75.3694 17.0654 74.7349 17.5956 73.8875 17.9398C73.8388 17.96 73.769 17.984 73.7533 18.0238C73.5111 18.6559 72.9411 18.8224 72.3779 18.9514C71.7218 19.1014 71.0633 19.0204 70.4334 18.7812C69.8155 18.5465 69.3115 18.1535 68.8721 17.6608C68.7664 17.5423 68.5714 17.4463 68.4132 17.4403C67.769 17.4156 67.124 17.4298 66.4746 17.4298C66.5286 17.6908 66.6869 17.8993 67.0731 18.0073C70.4514 18.9544 73.8223 19.9301 77.1984 20.8862C77.4354 20.9537 77.6978 20.9364 77.9483 20.9537C78.297 20.9769 78.651 20.9634 78.9929 21.0242C79.4916 21.1127 79.6596 21.3481 79.7324 21.9571C79.8006 21.9683 79.8771 21.9781 79.9528 21.9938C80.7635 22.1648 81.1264 22.6762 80.9607 23.4936C80.8737 23.9226 80.7822 24.3073 80.9397 24.7647C81.0267 25.0175 80.8797 25.4742 80.6765 25.6789C80.1801 26.1798 79.6319 26.6605 79.0244 27.0107C78.447 27.3437 77.7601 27.199 77.1257 27.0542C76.7477 26.9672 76.387 26.806 76.0105 26.7063C75.7248 26.6305 75.4271 26.6005 75.1249 26.5488C75.0514 27.7104 73.9265 28.2196 72.8826 28.0194C72.3135 27.9099 71.7675 27.8191 71.1788 27.8761C70.036 27.9871 69.1233 27.4562 68.3239 26.692C68.0509 26.4311 67.7975 26.1423 67.4915 25.9279C67.3153 25.8041 67.0371 25.7224 66.8308 25.7606C65.058 26.0883 63.292 26.4498 61.5222 26.7948C61.1262 26.872 60.7228 26.914 60.3261 26.9882C59.4547 27.151 58.7798 26.8338 58.2136 26.1828C57.7891 25.6946 57.3242 25.2409 56.896 24.7565C56.4183 24.2166 55.8086 23.9361 55.1134 23.9398C53.9443 23.9473 52.7519 23.9008 51.6136 24.1146C50.6687 24.2916 49.7778 24.7857 48.8816 25.1817C46.3094 26.3186 43.7425 27.4704 41.18 28.6298C39.1185 29.5627 36.9798 29.5485 34.7983 29.238C33.3592 29.0333 31.9126 28.86 30.4638 28.7475C28.1885 28.5706 26.2935 29.4105 24.6504 30.9703C22.5814 32.9336 20.8911 35.1923 19.2593 37.514C18.2769 38.9119 17.1453 40.2047 16.1037 41.5628C15.3905 42.4927 14.6751 43.4256 14.0354 44.4065C13.2352 45.6334 13.0448 47.0319 13.086 48.4733C13.11 49.3072 13.1512 50.1426 13.122 50.975C13.1047 51.4542 12.8768 51.8546 12.3316 51.9671C12.2596 51.9821 12.1846 52.0744 12.1456 52.1486C11.5052 53.3695 10.3713 53.5037 9.36868 52.4733C8.49053 51.5712 8.46203 49.8719 9.1917 48.843C9.52841 48.3675 9.69264 47.7474 9.84787 47.1699C10.1126 46.183 10.2858 45.1722 10.5453 44.1838C10.6698 43.7091 10.9217 43.2696 11.0822 42.8032C11.4797 41.6468 11.8486 40.4799 12.2513 39.3258C12.3151 39.1436 12.4763 38.9854 12.6196 38.8436C12.867 38.5992 13.1842 38.4124 13.3867 38.1387C14.4883 36.6494 14.7111 34.8893 14.831 33.0798C14.4516 33.5282 14.0736 33.9774 13.6934 34.4251C12.4283 35.916 11.1797 37.421 9.88687 38.8871C9.49091 39.3356 8.99747 39.7105 8.50552 40.0585C7.82835 40.5377 7.33266 41.1676 6.87746 41.8373C5.40463 44.0045 4.51898 46.3818 4.27151 49.0012C4.23101 49.4272 4.01804 49.8419 3.84856 50.2468C3.79232 50.3811 3.63708 50.5348 3.50285 50.5633C3.0574 50.657 2.77768 50.9622 2.45822 51.2412C2.08701 51.5659 1.79679 51.5277 1.41434 51.2127C1.3266 51.1407 1.21411 51.0852 1.10387 51.0552C0.457448 50.8745 0.248222 50.5978 0.230974 49.9296C0.222724 49.5367 0.335961 49.1145 0 48.7875C0 48.5175 0 48.2476 0 47.9776ZM47.528 20.7362C47.7335 20.4152 48.071 20.1288 48.0875 19.8251C48.1925 17.9135 48.2277 15.999 48.2795 14.0845C48.284 13.927 48.26 13.7613 48.2112 13.612C47.8183 12.4114 47.4133 11.2153 47.0226 10.0139C46.9844 9.89545 47.0174 9.75372 47.0174 9.62324C47.555 10.8366 48.047 12.041 48.5097 13.2566C48.6124 13.5265 48.6574 13.8348 48.6559 14.125C48.6447 15.8925 48.6049 17.6593 48.5892 19.4261C48.5794 20.4647 48.5989 21.5041 48.5989 22.5435C48.5989 22.929 48.7407 23.1914 49.1501 23.2529C49.5626 23.3144 49.975 23.4337 50.3867 23.4284C51.8873 23.4082 53.3871 23.3467 54.8877 23.3002C54.9327 21.9091 55.8768 20.4707 57.007 20.0755C57.007 20.3838 56.9747 20.6965 57.0145 20.9994C57.0685 21.4089 57.1329 21.8266 57.2754 22.2105C57.4067 22.563 57.7261 22.5817 57.9833 22.3148C58.713 21.5566 58.875 19.9773 58.2983 19.0759C58.584 18.7572 58.8742 18.434 59.1645 18.1108C59.2117 18.1325 59.2597 18.1543 59.3069 18.1768C58.8225 18.9184 59.0422 19.6833 59.1412 20.4482C59.1772 20.7257 59.1772 21.0129 59.154 21.2919C59.0985 21.9586 58.8 22.521 58.2706 23.0519C59.3002 22.8952 60.2398 22.752 61.1795 22.608C61.1802 22.5765 61.1802 22.545 61.181 22.5135C60.7235 22.3868 60.2668 22.26 59.8094 22.1333C59.8199 22.0876 59.8311 22.0418 59.8416 21.9961C60.6763 21.9991 61.5162 21.9308 62.3313 22.2135C62.4296 22.248 62.5233 22.3125 62.6013 22.383C63.6294 23.3137 64.6598 24.2421 65.6767 25.1855C65.9272 25.4179 66.1957 25.5304 66.5189 25.4584C67.226 25.3017 67.7352 25.5897 68.1829 26.1101C69.0093 27.0707 70.078 27.4419 71.3288 27.3385C71.7915 27.3002 71.9198 27.1712 71.8103 26.7228C71.673 26.1618 71.4953 25.6107 71.3386 25.0542C71.3108 24.9567 71.2996 24.8547 71.2808 24.7542C71.3161 24.7438 71.3521 24.734 71.3873 24.7235C71.4406 24.8232 71.502 24.92 71.547 25.0242C71.811 25.6421 72.1245 26.2458 72.318 26.8855C72.5047 27.5034 72.8991 27.6849 73.4608 27.6324C73.712 27.6092 74.0143 27.5634 74.189 27.4097C74.5385 27.1022 74.5385 26.3298 74.2535 25.9534C73.928 25.5237 73.5928 25.1007 73.2689 24.6695C73.2149 24.5975 73.1969 24.497 73.1271 24.3208C73.724 24.893 74.234 25.3842 74.7454 25.8724C74.9996 26.1153 75.3034 26.1206 75.5238 25.8911C75.7653 25.6399 75.7983 25.2124 75.5778 25.0017C75.1879 24.629 74.7852 24.2691 74.3975 23.8941C74.2707 23.7711 74.1755 23.6166 74.0653 23.4771C74.1058 23.4382 74.147 23.3992 74.1875 23.3594C74.7394 23.7291 75.2906 24.0996 75.8583 24.4798C75.9355 23.9098 75.8883 23.7884 75.4683 23.5364C73.7923 22.5323 72.114 21.5341 70.4379 20.5307C70.3224 20.4617 70.2182 20.3725 70.1095 20.293C70.1305 20.2555 70.1522 20.2188 70.1732 20.1813C70.3104 20.236 70.4507 20.2848 70.5842 20.347C72.2917 21.1382 73.9588 22.0283 75.8028 22.479C76.108 22.5533 76.4515 22.5907 76.7544 22.5323C77.5883 22.3703 78.276 22.5075 78.7102 23.2897C79.6881 23.2244 79.7429 23.2619 79.7961 24.2256C79.8231 24.7138 79.8006 25.2049 79.8006 25.7569C80.2101 25.5867 80.5753 25.4697 80.6533 25.0587C80.7042 24.7887 80.7657 24.4565 80.3495 24.374C80.987 22.8667 80.7935 22.4813 79.3132 22.2525C79.4519 21.5004 79.2749 21.2896 78.4717 21.2604C78.2835 21.2537 78.0938 21.2731 77.9056 21.2679C77.6671 21.2619 77.4174 21.2851 77.1924 21.2244C75.2981 20.7107 73.4001 20.2083 71.5223 19.6398C70.9441 19.4651 70.4619 19.4486 69.9797 19.8138C69.7787 19.9668 69.586 19.9563 69.3483 19.8393C68.0682 19.2094 66.7858 18.5832 65.4885 17.99C63.7652 17.2019 62.0464 16.3972 60.2893 15.6915C59.1727 15.2431 57.9901 14.9604 56.836 14.6049C56.332 14.4497 55.8266 14.3004 55.3212 14.1482C55.3302 14.0935 55.3399 14.0395 55.3489 13.9847C55.8251 14.0552 56.302 14.1265 56.7782 14.197C56.7947 14.1527 56.8112 14.1085 56.8277 14.0635C56.506 13.9337 56.1903 13.7823 55.8611 13.678C55.1097 13.4395 54.3395 13.2558 53.5986 12.9881C52.8719 12.7264 52.407 12.1729 52.1715 11.4373C52.0658 11.1043 51.975 10.7669 51.8851 10.4294C51.8686 10.3679 51.8918 10.2959 51.8963 10.2292C51.9285 10.2179 51.9608 10.2059 51.9923 10.1947C52.0545 10.2967 52.1183 10.3979 52.1783 10.5006C52.3957 10.8726 52.6117 11.2453 52.8284 11.618C53.1734 12.2112 53.6863 12.5719 54.3538 12.7166C54.656 12.7819 54.9567 12.8719 55.2627 12.9004C55.8018 12.9506 56.2458 13.1516 56.5765 13.5888C56.6658 13.7065 56.7797 13.8055 56.869 13.924C57.3767 14.5974 58.1783 14.4534 58.8922 14.7474C58.7003 13.4755 58.2983 12.3994 57.5079 11.51C56.827 10.7444 56.1243 9.99294 55.3759 9.29477C54.7527 8.71359 54.515 7.94343 54.1693 7.21976C54.1558 7.19126 54.2038 7.13352 54.2473 7.03453C54.6215 7.53248 54.9559 7.99742 55.3107 8.44587C56.0291 9.35477 56.7085 10.3169 57.6901 10.9611C58.3066 11.3653 58.6965 11.891 58.8952 12.5666C59.058 13.1193 59.1877 13.6855 59.2777 14.2547C59.3857 14.9326 59.4157 14.9866 60.1221 15.0136C60.1049 14.8134 60.1296 14.5982 60.0629 14.4167C59.6797 13.3721 59.2867 12.3304 58.869 11.2993C58.7288 10.9536 58.5623 10.5869 58.3088 10.3259C57.5476 9.54374 57.1749 8.57636 56.8367 7.57672C56.7752 7.39449 56.6148 7.24001 56.4798 7.09003C56.2495 6.83281 56.0028 6.58983 55.7636 6.34161C55.7989 6.29587 55.8333 6.25012 55.8686 6.20438C56.1273 6.32961 56.386 6.4541 56.7535 6.63108C56.5855 6.31387 56.4595 6.11064 56.3658 5.89316C55.9841 5.00526 55.1397 4.30485 55.2957 3.20172C55.2237 3.20172 55.1689 3.19347 55.1179 3.20322C53.6256 3.47094 52.1753 3.8639 50.8734 4.67455C50.6057 4.84103 50.3192 5.01501 50.122 5.25199C49.4448 6.06414 49.0789 7.02928 48.8209 8.04617C48.7512 8.32288 48.7827 8.53361 48.9409 8.75933C49.3293 9.31277 49.6728 9.88571 49.7268 10.5891C49.7643 11.0856 49.8355 11.5805 49.8993 12.0747C49.975 12.6664 50.0695 13.2551 50.515 13.705C51.2446 14.4422 51.9743 15.1793 52.7167 15.903C53.1329 16.3095 53.6661 16.446 54.233 16.4759C54.3493 16.4819 54.464 16.5022 54.5802 16.5164C54.5735 16.5644 54.566 16.6132 54.5592 16.6612C53.8063 16.7317 53.0107 16.9379 52.3792 16.305C51.4194 15.3421 50.4932 14.3447 49.5843 13.3346C49.4223 13.1546 49.3706 12.8456 49.3368 12.5869C49.2761 12.1197 49.2791 11.645 49.2334 11.1756C49.1749 10.5734 49.1794 9.9127 48.6439 9.51375C48.0785 9.0938 48.0237 8.52836 48.161 7.96968C48.3567 7.17402 48.6792 6.40985 48.9379 5.65994C48.7872 5.75893 48.4947 5.86017 48.3432 6.06489C47.4966 7.21526 46.6844 8.39113 45.8595 9.55799C45.6068 9.91495 45.606 10.2779 45.8122 10.6574C46.1535 11.2835 46.5179 11.9 46.8126 12.5479C46.9626 12.8779 47.0639 13.2723 47.0406 13.6285C46.9926 14.3642 46.8479 15.0946 46.7369 15.8258C46.7249 15.9038 46.6746 15.9758 46.6424 16.0507C46.6087 16.0478 46.5742 16.0455 46.5404 16.0425C46.5239 15.9053 46.4947 15.768 46.4924 15.63C46.4834 15.0091 46.5269 14.3837 46.4647 13.7688C46.4189 13.3136 46.2742 12.8576 46.1085 12.4272C45.9892 12.1189 45.762 11.852 45.5828 11.5663C45.1043 10.8021 44.8974 9.9712 45.1178 9.09305C45.2678 8.49611 45.5318 7.92768 45.7403 7.36075C45.1718 7.68021 44.5516 8.02067 43.9435 8.38213C43.8647 8.42862 43.822 8.58011 43.81 8.68809C43.7605 9.12979 43.7065 9.57299 43.696 10.0169C43.6495 11.9165 43.5925 13.816 43.591 15.7155C43.5902 16.6372 43.891 17.4808 44.5029 18.2075C45.3383 19.1989 46.3477 19.9743 47.528 20.7362ZM61.1795 11.1778C61.1262 11.1891 61.0722 11.2003 61.019 11.2116C60.9823 11.0533 60.95 10.8936 60.908 10.7369C60.7213 10.0364 60.5436 9.33377 60.3358 8.6401C60.2848 8.47062 60.1326 8.33113 59.9886 8.12191C59.7232 9.12379 60.9313 11.9855 61.8034 12.5239C61.8034 12.2457 61.7959 11.9907 61.8049 11.7372C61.8507 10.4706 63.0198 8.87632 64.2136 8.45112C64.3014 8.41962 64.3996 8.41287 64.4836 8.37463C64.8053 8.22764 65.2035 8.14665 65.427 7.90593C65.9362 7.3555 66.3576 6.72407 66.8158 6.12639C66.8871 6.03265 66.9621 5.94191 67.0348 5.84967C67.0776 5.87142 67.1196 5.89316 67.1623 5.91491C67.0528 6.26587 66.9433 6.61758 66.8181 7.01653C67.8897 5.97115 69.1331 5.32623 70.4627 4.81629C70.4634 4.91003 70.4379 4.97152 70.3914 4.99777C69.331 5.5992 68.5084 6.4661 67.6812 7.342C67.2463 7.80319 67.0678 8.30564 67.0671 8.90707C67.0663 9.28053 66.9403 9.56849 66.6126 9.79422C66.1552 10.1092 65.9857 10.7541 66.2909 11.1486C66.6719 11.642 66.6921 12.1947 66.6876 12.7579C66.6846 13.1688 66.6194 13.579 66.5759 14.047C66.2662 13.4733 66.0209 12.9873 65.7472 12.5187C65.5297 12.1467 65.2703 11.8002 65.0438 11.4335C64.7146 10.8988 64.7168 10.6739 65.136 10.2044C65.4577 9.84371 65.838 9.53549 66.1814 9.19278C66.2789 9.0953 66.3906 8.96406 66.4041 8.83883C66.4484 8.43012 66.4499 8.01617 66.4679 7.60522C66.4454 7.61122 66.4124 7.60972 66.3981 7.62547C66.3449 7.68546 66.3036 7.7582 66.2459 7.81294C65.6827 8.34988 65.1623 8.94606 64.5368 9.39601C64.1386 9.68248 63.8117 9.9712 63.7119 10.4294C63.529 11.2685 63.364 12.1152 63.274 12.9679C63.2387 13.3031 63.3677 13.6915 63.5237 14.0042C64.0127 14.9859 65.3535 16.1415 66.4431 16.5764C66.3186 16.1617 66.1994 15.765 66.0802 15.3676C66.2219 15.3616 66.2849 15.3916 66.3096 15.4411C66.6539 16.1167 67.199 16.4827 67.949 16.6109C68.4919 16.7039 68.9478 16.9356 69.3085 17.4336C69.9145 18.2705 70.7806 18.7422 71.8448 18.6949C72.5107 18.6649 73.0739 18.377 73.4908 17.8168C72.5999 16.9042 71.5898 16.212 70.5369 15.5881C70.1807 15.3773 69.736 15.3203 69.3438 15.1636C69.1398 15.0819 68.8953 14.9754 68.7911 14.8051C68.6914 14.6417 68.6756 14.3432 68.7626 14.1775C68.8219 14.0642 69.1608 13.9862 69.3055 14.05C69.856 14.2907 70.3764 14.6012 70.9141 14.8726C71.0446 14.9386 71.1998 14.9844 71.3453 14.9881C72.3622 15.0106 73.0746 15.5926 73.7743 16.2037C73.7555 16.248 73.7368 16.2922 73.7173 16.3365C73.0476 16.041 72.378 15.7448 71.7083 15.4493C71.6745 15.5018 71.6408 15.5543 71.607 15.6068C72.1965 16.1767 72.7784 16.7549 73.3836 17.3069C73.4736 17.3893 73.6918 17.4036 73.82 17.3601C74.7537 17.0429 75.1024 16.266 74.7499 15.3496C74.6742 15.1539 74.6134 14.9521 74.546 14.7526C74.5864 14.7294 74.6262 14.7069 74.6667 14.6837C74.7619 14.7834 74.8519 14.8884 74.9531 14.9814C75.1789 15.1891 75.3941 15.4133 75.6438 15.5888C75.8628 15.7433 76.0308 15.663 76.0525 15.3758C76.1305 14.3312 76.0128 13.3106 75.3964 12.4429C75.0079 11.8962 74.8332 11.3375 74.8287 10.6821C74.8257 10.1947 74.7499 9.70723 74.7064 9.22053C74.6719 9.21378 74.6374 9.20703 74.6037 9.20028C74.276 9.62399 73.9475 10.0477 73.6198 10.4714C73.5756 10.4489 73.5306 10.4271 73.4863 10.4046C73.5793 10.0942 73.6453 9.77172 73.7735 9.47625C73.904 9.17479 74.0968 8.90032 74.2992 8.54936C73.3671 8.05292 72.4214 7.54897 71.4758 7.04578C71.493 7.01503 71.5103 6.98429 71.5275 6.95354C72.273 7.15077 73.0184 7.348 73.7638 7.54522C73.8103 7.46948 73.8575 7.39374 73.904 7.318C73.7758 7.24301 73.6356 7.18227 73.5201 7.09078C73.0334 6.70457 72.5429 6.32136 72.0765 5.91116C71.838 5.70119 71.6475 5.43572 72.0247 5.10725C71.883 5.07876 71.8073 5.06526 71.733 5.04726C71.1368 4.90478 70.5654 4.70605 70.1395 4.2366C69.9482 4.02588 69.8725 3.81215 70.0667 3.51519C70.2699 3.20472 70.4079 2.84251 70.5212 2.48555C70.7701 1.70339 70.5527 0.988726 69.9737 0.562775C69.5448 0.247061 69.4473 0.262809 69.1451 0.711258C68.8369 1.16871 68.5796 1.67115 68.2152 2.0776C67.616 2.74502 67.5395 3.22122 68.0457 3.97413C68.1297 4.09862 68.2159 4.22086 68.3014 4.34459C68.2789 4.37234 68.2572 4.40008 68.2347 4.42708C68.0899 4.37384 67.9407 4.33109 67.802 4.26585C67.3385 4.04912 66.8721 3.83915 66.4199 3.60143C65.0888 2.90026 63.6992 2.39556 62.1731 2.50505C60.1573 2.64904 58.1453 2.85001 56.1326 3.03674C55.7621 3.07124 55.6286 3.3802 55.8206 3.71766C56.0666 4.15111 56.341 4.56882 56.5728 5.00976C56.8982 5.62919 57.1494 6.25987 57.2139 6.98729C57.3099 8.06416 57.7164 9.0383 58.4865 9.84821C58.788 10.1647 59.0385 10.5516 59.2297 10.9468C59.5297 11.5648 59.7606 12.2164 60.0486 12.9229C60.0959 12.4032 60.1469 11.942 60.1761 11.4793C60.1941 11.2033 60.2428 10.9056 60.1641 10.6529C59.9541 9.9727 59.7112 9.30002 59.4277 8.64685C59.2027 8.12941 59.1345 7.59997 59.2222 7.06678C59.3444 6.32511 59.5109 5.58795 59.7059 4.86203C59.8754 4.2336 60.2323 3.98688 60.9013 3.99813C61.7502 4.01238 62.5991 4.05737 63.448 4.09787C63.5815 4.10387 63.7119 4.15711 63.8439 4.18861C63.8424 4.22685 63.8417 4.2651 63.8402 4.30335C63.7067 4.33709 63.571 4.36559 63.439 4.40683C62.9658 4.55307 62.4843 4.6813 62.0231 4.85978C61.6849 4.99102 61.5027 5.25199 61.5349 5.65319C61.6219 6.72782 61.6969 7.80394 61.7562 8.88082C61.7869 9.43501 61.8979 10.0042 61.5687 10.6169C61.5289 10.3769 61.4982 10.2232 61.478 10.0679C61.3617 9.18679 61.3077 8.29214 61.1187 7.42674C60.902 6.4346 60.878 5.49571 61.4067 4.59581C61.01 4.39933 60.7115 4.50957 60.5166 4.84328C60.0861 5.58045 59.9196 6.35586 60.1896 7.20476C60.4866 8.13916 60.7595 9.08255 61.0115 10.0297C61.1112 10.3994 61.1262 10.7939 61.1795 11.1778ZM39.573 20.0148C39.612 20.0028 39.6502 19.9908 39.6892 19.9788C39.597 19.7253 39.5085 19.4711 39.4125 19.2191C39.2205 18.7197 38.8965 18.2322 38.8538 17.7216C38.7293 16.2337 38.7008 14.7369 38.6663 13.2431C38.6438 12.2877 39.0338 11.4928 39.7379 10.8478C39.8399 10.7541 39.9179 10.6341 40.0619 10.4609C39.4852 10.6244 38.9948 10.7571 38.5103 10.9078C38.4188 10.9363 38.3259 11.0241 38.2764 11.1088C37.4357 12.5502 36.5718 13.9802 35.7769 15.4463C35.276 16.3695 34.9235 17.3563 34.8268 18.4257C34.721 19.5903 34.556 20.7505 34.43 21.9136C34.4113 22.0883 34.4271 22.2855 34.49 22.4475C34.9827 23.7276 35.5272 24.989 35.9749 26.2833C36.1316 26.7363 36.3476 26.9897 36.7848 27.1112C38.0019 27.4479 39.231 27.7494 40.4256 28.1521C41.2363 28.4251 41.7935 27.9691 42.4504 27.7187C41.8272 27.6069 41.2198 27.5537 40.6468 27.3827C39.6832 27.094 38.7481 26.71 37.7874 26.4101C37.483 26.3156 37.387 26.1536 37.3487 25.8814C37.1905 24.7482 37.024 23.6159 36.8673 22.482C36.823 22.161 36.802 21.8371 36.7705 21.5154C36.907 21.5499 36.9565 21.6039 36.991 21.6661C37.6067 22.7857 38.2366 23.8979 38.829 25.0295C39.243 25.8214 39.8834 26.0943 40.7316 25.9924C40.8118 25.9826 40.8928 25.9774 40.9731 25.9661C42.0807 25.8176 43.0286 26.2353 43.9472 26.7835C44.0657 26.854 44.2779 26.8713 44.4017 26.815C45.0983 26.4948 45.7822 26.1446 46.4692 25.8041C46.6994 25.6901 46.9289 25.5732 47.1703 25.4517C46.8389 25.2799 46.5359 25.1562 46.2757 24.9725C46.164 24.893 46.0642 24.6733 46.089 24.5428C46.2479 23.7126 46.4564 22.8915 46.6154 22.0613C46.6432 21.9181 46.5592 21.6894 46.4474 21.5941C45.9862 21.2012 45.507 20.8255 45.0098 20.4797C44.1212 19.8626 43.4943 19.0279 42.9948 18.0935C42.8493 17.8205 42.7428 17.4793 42.7578 17.1756C42.8253 15.8168 42.9543 14.4602 43.0323 13.1013C43.0458 12.8711 42.9363 12.6251 42.8516 12.3987C42.6679 11.9112 42.3904 11.4463 42.2877 10.9446C42.1902 10.4646 42.2667 9.9502 42.2667 9.37201C41.6787 9.72897 41.0863 9.9727 40.6453 10.3806C39.9172 11.0541 39.4672 11.8932 39.4927 12.9536C39.5295 14.5022 39.5025 16.0522 39.5025 17.6031C39.9877 17.6233 40.0912 17.6923 40.1279 18.2375C40.1661 18.7999 40.0814 19.3751 40.1571 19.9301C40.2561 20.6552 40.4421 21.3714 40.6251 22.0823C40.8396 22.9147 40.9393 23.7869 41.4013 24.584C41.1403 24.5113 40.8561 24.437 40.6813 24.2571C40.4631 24.0321 40.3439 23.7149 40.1669 23.4472C39.8137 22.9125 39.5212 22.308 39.066 21.8791C38.7496 21.5806 38.5958 21.3226 38.6288 20.9282C38.6753 20.3688 38.5853 19.8468 38.3739 19.3196C38.0821 18.5915 38.0581 17.8228 38.2269 17.0549C38.2441 16.9754 38.3169 16.9072 38.3978 16.7804C38.7623 17.9345 38.6011 19.1824 39.573 20.0148ZM27.4326 22.896C27.5983 23.6301 27.6268 24.3695 28.0715 24.9822C28.2095 24.2271 28.2755 23.4846 28.0078 22.7497C27.6426 21.7463 27.6051 20.7205 27.8586 19.6878C28.0723 18.8179 28.5642 18.0853 29.1117 17.4021C29.7258 16.6349 30.403 15.918 31.0419 15.1704C31.6599 14.4474 32.5695 14.0147 33.0472 13.1516C33.0667 13.1156 33.1799 13.1321 33.2362 13.1253C32.8575 13.7785 32.4533 14.3709 32.1548 15.0129C31.3382 16.7699 30.6032 18.5652 29.7641 20.3103C29.2166 21.4486 28.9227 22.623 29.0487 23.8611C29.1229 24.5848 28.7944 25.3639 29.4746 26.0366C30.421 26.9725 31.4169 27.6234 32.9287 27.3737C31.8923 26.977 31.7469 26.1041 31.5556 25.2867C31.3622 24.4618 31.2002 23.6234 31.3389 22.761C31.4731 22.887 31.5571 23.0212 31.6306 23.1607C32.1368 24.1266 32.649 25.0887 33.1402 26.0621C33.3607 26.4986 33.6839 26.782 34.1488 26.9253C34.667 27.0842 35.1807 27.2612 35.7319 27.4419C35.6952 27.3242 35.6854 27.2125 35.6314 27.1292C34.7053 25.7059 33.8009 24.2653 32.5283 23.1082C32.4368 23.0249 32.3303 22.9005 32.3243 22.7902C32.2785 21.9578 32.2268 21.1232 32.2373 20.29C32.2448 19.7036 32.7352 19.2491 33.3359 19.1584C33.3044 19.6053 33.2729 20.0553 33.2407 20.5052C33.8729 19.7898 34.2673 18.206 33.9966 17.7448C33.7589 18.0988 33.5324 18.437 33.3059 18.7744C33.2519 18.7422 33.1987 18.7099 33.1447 18.6769C33.9524 16.2105 35.5264 14.1062 36.5441 11.627C36.2201 11.9465 35.9044 12.1804 35.6892 12.4857C35.2857 13.0571 34.9235 13.6593 34.5748 14.2667C33.9044 15.4343 33.2572 16.6154 32.5958 17.7883C32.526 17.912 32.4225 18.0163 32.3348 18.1303C32.319 18.1123 32.3033 18.095 32.2875 18.077C33.2609 15.963 34.2343 13.849 35.2077 11.7357C35.1747 11.7012 35.1417 11.6668 35.1087 11.6323C34.3573 11.8197 33.6044 12.005 32.8552 12.1999C32.7862 12.2179 32.733 12.2997 32.6745 12.3544C31.8241 13.1598 31.0359 14.047 30.109 14.7526C28.61 15.8933 27.5953 17.3166 27.0771 19.1134C26.9917 19.4104 26.8979 19.7051 26.8012 19.9983C26.7667 20.1025 26.7112 20.2 26.6654 20.3005C26.6204 20.2878 26.5747 20.2743 26.5297 20.2615C26.4105 19.0384 26.9167 17.9383 27.2984 16.8074C26.6054 17.4291 26.211 18.2667 26.1128 19.1231C25.938 20.6455 25.9223 22.1903 25.926 23.7261C25.9275 24.4663 26.2027 25.1877 26.6737 25.7801C26.9564 26.1356 27.0704 26.503 27.0404 26.9358C27.0104 27.364 26.8184 27.5394 26.3917 27.5184C25.8338 27.4914 25.4618 27.2147 25.3148 26.6418C23.857 27.2575 22.2447 27.5792 21.5585 29.3377C21.8135 29.3625 21.998 29.4045 22.1802 29.3947C23.3261 29.3332 24.4502 29.1847 25.5316 28.7475C26.541 28.3396 27.4446 27.6422 28.538 27.6437C28.448 27.3879 28.4022 27.1457 28.2853 26.9455C28.0265 26.5061 27.7476 26.0771 27.4491 25.6639C26.8304 24.8067 26.8042 23.7171 27.4326 22.896ZM15.4415 27.6384C15.5 27.6467 15.5592 27.6549 15.6177 27.6632C15.6177 27.8304 15.611 27.9976 15.6192 28.1641C15.6425 28.6463 15.6545 29.1292 15.7024 29.6092C15.7369 29.9557 16.0032 30.0756 16.3249 30.1461C16.3399 30.0374 16.3571 29.9587 16.3616 29.8799C16.4434 28.2256 16.5064 26.5698 16.6113 24.9162C16.6601 24.1446 16.6496 23.3587 17.0838 22.6515C17.8734 21.3661 18.5964 20.038 19.407 18.7669C20.2342 17.4696 20.9683 16.0702 22.4539 15.3518C22.4599 15.3488 22.4562 15.3278 22.4652 15.2131C22.208 15.2888 21.9492 15.3061 21.764 15.4313C21.1393 15.8535 20.5176 16.287 19.9395 16.7699C19.5623 17.0841 19.1723 17.4426 18.9451 17.8663C18.1884 19.2739 17.5015 20.7205 16.7891 22.152C16.7351 22.26 16.6863 22.3718 16.6353 22.4813C16.5948 22.4685 16.5536 22.4558 16.5131 22.443C16.5341 22.3253 16.5349 22.1985 16.5791 22.0906C17.203 20.5727 17.809 19.0474 18.4779 17.5498C18.6556 17.1524 18.9968 16.8052 19.326 16.5044C19.6912 16.1707 20.1284 15.9158 20.5341 15.6263C20.7029 15.5056 20.8709 15.3841 21.0696 15.2408C20.6504 15.0939 20.3407 15.1576 20.0227 15.3586C19.2143 15.87 18.3819 16.3417 17.575 16.8547C17.1903 17.0991 16.7831 17.3489 16.4891 17.6856C15.6567 18.6402 14.8633 19.6301 14.0796 20.626C11.4902 23.9188 10.1913 27.8131 8.99597 31.6347C9.39717 31.9377 9.83887 32.1949 10.1838 32.5466C11.02 33.4008 11.8111 34.2992 12.6443 35.2051C12.891 34.9036 13.116 34.6284 13.3365 34.3584C13.119 34.0307 12.927 33.7382 12.7328 33.4473C11.3709 31.403 10.813 29.2102 11.5907 26.809C11.8996 25.8544 12.1426 24.8135 12.7073 24.0201C13.9866 22.221 15.4467 20.551 16.8363 18.8307C16.8918 18.7624 16.9743 18.7167 17.0448 18.6604C17.074 18.6882 17.104 18.7159 17.1333 18.7444C17.0635 18.8472 16.9953 18.9522 16.9226 19.0527C15.7467 20.68 14.5671 22.3043 13.3965 23.9353C13.257 24.1296 13.0972 24.3478 13.062 24.5728C12.8213 26.1146 12.4943 27.6564 12.4246 29.208C12.3593 30.6418 13.0418 31.9099 13.8922 33.055C13.9671 33.1563 14.0961 33.217 14.2154 33.3078C14.3856 33.103 14.5341 32.9238 14.6976 32.7273C13.9102 32.4154 13.5397 31.8679 13.428 31.0895C13.209 29.5589 13.1947 28.0239 13.3072 26.4896C13.3755 25.5514 13.4715 24.5908 13.9926 23.7741C14.9713 22.2405 15.9927 20.7347 16.9998 19.2191C17.0478 19.1471 17.1288 19.0976 17.194 19.0384C17.2233 19.0624 17.2533 19.0864 17.2825 19.1104C17.224 19.2229 17.167 19.3354 17.1063 19.4464C16.4996 20.557 15.8554 21.6496 15.2997 22.785C15.0275 23.3414 14.8086 23.9668 14.7553 24.578C14.6421 25.8641 14.6211 27.1615 14.6263 28.4543C14.6286 29.1915 14.7388 29.9302 14.8348 30.6636C14.876 30.977 15.0403 31.2388 15.4497 31.2125C15.3447 30.6043 15.1648 30.0201 15.1655 29.436C15.1648 28.8353 15.3417 28.2369 15.4415 27.6384ZM8.32705 33.358C8.28955 33.3573 8.25205 33.3565 8.21456 33.3565C8.14707 33.5117 8.08482 33.6692 8.00983 33.8215C7.54263 34.7746 7.07844 35.73 6.59549 36.6756C6.531 36.8031 6.37427 36.9614 6.25128 36.9688C5.6401 37.0086 5.33339 37.3708 5.09117 37.8845C4.24151 39.685 3.38211 41.4818 2.49946 43.2659C1.86954 44.5392 1.12262 45.7578 0.759663 47.1512C0.719917 47.3049 0.647926 47.4579 0.559436 47.5906C0.214475 48.1096 0.251221 48.615 0.575184 49.1415C1.3056 48.8362 1.60707 48.1448 2.00827 47.4924C2.06976 47.6214 2.09226 47.6461 2.09076 47.6694C2.08551 47.7354 2.07501 47.8021 2.05926 47.8658C1.87778 48.5895 1.38284 49.0792 0.806907 49.4962C0.617929 49.6334 0.482195 49.7526 0.52644 50.0159C0.572934 50.2963 0.644176 50.5348 0.934393 50.66C1.13162 50.7455 1.2921 50.7605 1.42034 50.5558C1.7473 50.0323 2.07576 49.5112 2.40347 48.9885C2.44847 48.9165 2.49196 48.843 2.53621 48.7702C2.56996 48.7882 2.60295 48.807 2.6367 48.825C2.52571 49.6259 2.03527 50.2498 1.60182 50.8993C1.83654 51.2532 2.12976 51.1865 2.31123 50.9442C2.62845 50.5205 2.87667 50.0443 3.14739 49.5869C3.21263 49.4759 3.25313 49.3507 3.30487 49.2314C3.34912 49.2457 3.39261 49.2599 3.43686 49.2749C3.37761 49.6184 3.31912 49.9619 3.25013 50.3631C3.82231 49.9941 3.92355 49.4482 3.96779 48.9015C4.13803 46.7867 4.80245 44.8197 5.80808 42.9757C6.32552 42.027 6.99445 41.1624 7.60413 40.246C7.27267 40.1402 6.88496 39.988 6.48226 39.8988C6.19279 39.8343 6.08405 39.6663 6.12755 39.4226C6.25878 38.6854 6.41851 37.9527 6.5715 37.2201C6.57525 37.2013 6.63149 37.1931 6.74023 37.1481C6.72748 37.3303 6.70048 37.469 6.71173 37.6048C6.76122 38.1762 6.81747 38.7476 6.88346 39.3168C6.89546 39.4166 6.94495 39.5351 7.01769 39.5995C7.21117 39.7713 8.46428 39.7803 8.65926 39.5898C9.52166 38.7476 10.3676 37.8882 11.245 37.0101C10.4448 36.3884 9.75413 35.805 9.01397 35.2935C8.51977 34.9523 8.32929 34.5376 8.37729 33.9632C8.39529 33.7637 8.34579 33.5597 8.32705 33.358ZM13.4977 38.5842C13.2525 38.7694 13.0268 38.9194 12.828 39.0986C12.708 39.2073 12.5941 39.3498 12.5378 39.4998C11.9994 40.9456 11.4737 42.3967 10.9465 43.8471C10.9097 43.9483 10.8858 44.054 10.8625 44.159C10.663 45.0642 10.495 45.9776 10.2581 46.873C10.0331 47.7249 9.82087 48.5775 9.28244 49.3267C8.85423 49.9236 8.84074 51.3192 9.43692 51.9326C9.83137 51.302 10.2101 50.696 10.5858 50.0961C10.6368 50.561 10.3601 51.1437 9.54566 52.2521C9.81187 52.4073 10.0638 52.5828 10.3406 52.6983C10.4336 52.7373 10.666 52.6578 10.7065 52.5716C10.9397 52.0751 11.134 51.5607 11.3424 51.053C11.3769 50.9697 11.4182 50.8888 11.4557 50.807C11.5044 50.8228 11.5539 50.8393 11.6027 50.855C11.4437 51.4864 11.2847 52.1179 11.0995 52.8528C12.0909 52.2888 11.9589 51.2555 12.2993 50.4711C12.3413 50.4748 12.3833 50.4793 12.4261 50.483C12.4051 50.8528 12.3833 51.2225 12.3623 51.5922C12.3908 51.6102 12.4193 51.6282 12.4471 51.6462C12.5611 51.4519 12.7448 51.2675 12.774 51.0612C12.8378 50.6135 12.8528 50.1531 12.8333 49.6994C12.7838 48.5408 12.708 47.3837 12.9593 46.2363C13.1602 45.3199 13.5509 44.486 14.0886 43.7083C12.87 43.5224 11.9259 42.8872 11.9716 42.2317C12.5483 42.8879 13.2975 43.0304 14.0886 43.1196C14.0039 42.7019 13.9454 42.6404 13.5532 42.5265C12.9653 42.3555 12.5161 41.3543 12.7898 40.7012C12.855 40.8736 12.9008 41.0004 12.9503 41.1264C13.1092 41.5351 13.3627 41.889 13.8044 41.9655C14.1741 42.03 14.3091 42.2212 14.3564 42.5452C14.3848 42.7372 14.4156 42.9292 14.4523 43.1609C15.0485 42.3922 15.6192 41.6558 16.2034 40.9021C15.8569 40.9359 15.5502 40.9959 15.2458 40.9876C14.8828 40.9779 14.5438 40.8144 14.5191 40.4207C14.4703 39.6393 14.0166 39.1136 13.4977 38.5842ZM26.0468 14.6462C26.0273 14.6162 26.0085 14.5869 25.989 14.5569C25.6246 14.7376 25.1754 14.8374 24.9084 15.1126C23.0974 16.9776 21.2496 18.8224 20.1689 21.2552C20.0385 21.5499 19.8742 21.8303 19.7145 22.1108C19.6807 22.17 19.5998 22.203 19.5405 22.248C19.4963 22.218 19.4528 22.188 19.4085 22.158C19.9875 20.9094 20.4457 19.5843 21.1791 18.4347C21.911 17.2866 22.9181 16.314 23.8428 15.2183C23.4933 15.2836 23.1108 15.2566 22.8581 15.4246C22.3827 15.7403 21.8862 16.1017 21.5675 16.5622C20.5169 18.0778 19.4948 19.6173 18.5596 21.2057C18.1172 21.9571 17.7362 22.8165 17.6095 23.6684C17.3343 25.5184 17.2165 27.3939 17.0853 29.262C17.0313 30.0284 16.8851 30.7153 16.3031 31.2568C16.2341 31.3205 16.1966 31.418 16.1441 31.5005C16.1576 31.511 16.1719 31.5222 16.1854 31.5327C16.8086 31.1195 17.431 30.7056 18.0587 30.2894C17.686 29.5739 17.8907 28.8998 18.1592 28.2458C18.5694 27.247 18.8768 26.2293 19.0741 25.1615C19.2435 24.2436 19.5773 23.3542 19.8667 22.4618C19.9327 22.2585 20.1149 22.0936 20.2432 21.9113C20.2882 21.9316 20.3332 21.9518 20.3782 21.9728C19.9357 24.473 19.4933 26.974 19.0516 29.4742C19.473 29.2687 19.7955 29.049 20.0947 28.8008C20.1772 28.7318 20.2364 28.5788 20.2304 28.4678C20.1952 27.8236 20.0879 27.1802 20.0984 26.5383C20.1209 25.1847 20.2754 23.8581 21.0283 22.6642C21.2503 22.3118 21.3568 21.8761 21.4663 21.4644C21.7048 20.5675 22.0625 19.7381 22.6527 19.0129C23.1206 18.4377 23.5705 17.8475 24.0257 17.2611C24.6999 16.3905 25.3726 15.5176 26.0468 14.6462ZM31.3172 12.6904C31.3029 12.6619 31.2879 12.6334 31.2737 12.6049C30.9295 12.8179 30.5612 13.0008 30.2448 13.2498C29.4304 13.8925 28.6535 14.5832 27.8338 15.2191C27.3456 15.5978 26.8042 15.909 26.2342 16.2855C26.37 15.8063 26.6242 15.5378 26.9834 15.3361C27.7866 14.8854 28.3445 14.1662 28.9564 13.4965C28.4195 13.6548 27.8136 13.738 27.4161 14.0702C26.4202 14.9026 25.6373 15.9293 25.0936 17.1336C24.6189 18.1858 24.0745 19.2064 23.5623 20.2413C23.5278 20.311 23.5061 20.3875 23.4791 20.4602C23.4296 20.4235 23.3793 20.3867 23.3298 20.3508C23.5983 19.5686 23.866 18.7872 24.1345 18.005C24.0842 17.981 24.034 17.9563 23.9837 17.9323C23.6013 18.5915 23.1596 19.2236 22.8499 19.9151C22.4172 20.8817 22.1645 21.9338 21.6838 22.8727C21.1723 23.8716 20.8596 24.8817 20.8626 25.9969C20.8649 26.7288 20.8626 27.4614 20.8626 28.2264C21.2796 27.9421 21.6785 27.6752 22.0715 27.3977C22.1285 27.3572 22.1615 27.274 22.1915 27.2035C22.4772 26.5263 22.6946 25.8094 23.0629 25.1817C23.4048 24.5983 23.5848 24.0193 23.5855 23.3549C23.5863 22.2008 23.695 21.0842 24.4232 20.098C24.9871 19.3339 25.4093 18.4647 25.986 17.7118C26.5897 16.9251 27.2504 16.1655 27.9793 15.4958C29.0472 14.5127 30.1998 13.6203 31.3172 12.6904ZM14.9398 36.1529C14.8873 36.1619 14.8355 36.1702 14.7831 36.1792C14.5836 36.6231 14.3819 37.0663 14.1899 37.514C14.1741 37.55 14.2139 37.616 14.2386 37.6618C14.5371 38.2182 14.8078 38.7926 15.1453 39.3236C15.5465 39.9558 16.2469 39.9115 16.8836 39.9805C16.9368 39.9865 17.0125 39.9363 17.0523 39.8905C17.3358 39.5576 17.6125 39.2186 17.9679 38.7896C17.3695 38.8616 16.8926 38.9156 16.4164 38.9771C15.7362 39.0649 15.4925 38.9306 15.2533 38.2924C15.1685 38.0675 15.1168 37.8283 15.0658 37.5928C15.0508 37.5245 15.0928 37.445 15.1288 37.2771C15.2877 37.6145 15.383 37.8635 15.518 38.09C15.6327 38.2827 15.7939 38.3907 16.0594 38.3157C16.8303 38.0982 17.6005 37.8433 18.3886 37.7308C18.9023 37.6573 19.0141 37.3378 19.2338 36.9538C18.5266 36.9883 17.8802 36.9906 17.2405 37.0581C16.3181 37.1556 15.479 37.0881 14.9398 36.1529ZM64.7033 25.0062C64.2774 24.5593 63.8529 24.1303 63.448 23.6834C63.0663 23.2612 62.6351 23.1344 62.0809 23.3054C61.8417 23.3797 61.7314 23.4599 61.6917 23.7164C61.6159 24.2068 61.4892 24.689 61.3835 25.1742C61.3467 25.178 61.3107 25.1817 61.274 25.1855C61.151 24.9222 61.0063 24.6658 60.9118 24.3928C60.8135 24.1086 60.7633 23.8079 60.692 23.5146C60.5428 23.6601 60.4491 23.8199 60.4266 23.9886C60.3801 24.3478 60.3516 24.7123 60.3493 25.0745C60.3456 25.6414 60.5623 25.8356 61.1397 25.8596C62.4123 25.9136 63.5995 25.6286 64.7033 25.0062ZM22.4022 32.7738C21.2886 33.394 20.1884 34.0119 19.0846 34.6209C18.1787 35.1203 17.239 35.4128 16.1816 35.1556C16.0572 35.1256 15.7332 35.3895 15.7189 35.5373C15.686 35.892 16.1172 36.2512 16.4914 36.2422C17.5277 36.2174 18.5641 36.1822 19.5998 36.1372C19.7182 36.1319 19.8742 36.069 19.944 35.979C20.7696 34.9186 21.5825 33.8477 22.4022 32.7738ZM22.7306 26.932C22.7561 26.9605 22.7816 26.989 22.8071 27.0175C22.9301 26.9852 23.0539 26.953 23.1768 26.9208C23.7865 26.7588 24.3902 26.5705 25.0074 26.4446C25.3313 26.3786 25.4408 26.2256 25.4243 25.9286C25.4161 25.7809 25.4063 25.6331 25.3951 25.4854C25.2998 24.2796 25.1739 23.0752 25.1214 21.8678C25.0929 21.2199 25.1911 20.566 25.2354 19.8716C24.5822 20.5082 24.3422 21.2447 24.4787 22.0928C24.5312 22.4198 24.4577 22.5098 24.1195 22.3448C24.1712 23.2259 24.217 24.0591 24.2717 24.8922C24.3032 25.3759 24.2372 25.7876 23.7265 26.0261C23.4626 26.1491 23.2286 26.3478 23.0044 26.5398C22.8866 26.6403 22.8199 26.7993 22.7306 26.932ZM17.1063 34.2572C17.4775 34.1942 17.7437 34.1792 17.9897 34.1004C18.6166 33.8994 19.2368 33.6767 19.8547 33.4488C20.6991 33.1368 21.5255 32.7671 22.3857 32.5129C22.7794 32.3966 23.0254 32.2196 23.2031 31.9182C20.7839 31.547 18.7958 32.3269 17.1063 34.2572ZM18.8746 13.7935C18.9053 13.7508 18.9368 13.708 18.9676 13.6653C18.4561 12.9941 17.9529 12.3162 17.4265 11.657C17.3215 11.5258 17.14 11.429 16.9751 11.3758C15.9769 11.0503 15.3672 11.6683 14.7508 12.2802C15.0613 12.7766 15.3522 13.2431 15.677 13.7628C15.7399 13.639 15.8367 13.5108 15.8142 13.483C15.488 13.0953 15.9619 12.9491 16.0654 12.7069C16.1059 12.6124 16.4104 12.5419 16.5431 12.5929C16.9136 12.7354 17.2585 12.9476 17.6125 13.1328C18.0332 13.3518 18.4539 13.573 18.8746 13.7935ZM59.8476 23.5424C58.7985 23.5949 57.7749 23.6466 56.7925 23.6961C57.1607 24.1018 57.5484 24.4873 57.8859 24.9125C58.2803 25.4097 58.3118 25.4442 58.9252 25.2507C59.3107 25.1292 59.6932 24.989 60.0636 25.3039C59.9901 24.707 59.9204 24.1401 59.8476 23.5424ZM11.9266 36.0165C11.7092 35.8605 11.5082 35.703 11.2945 35.565C10.5955 35.1158 10.0443 34.5631 9.90111 33.697C9.87562 33.5417 9.79688 33.3933 9.73088 33.247C9.46616 32.6598 9.19845 32.5249 8.48978 32.6328C8.52202 32.7221 8.55127 32.8038 8.58202 32.8856C8.73275 33.2838 8.96672 33.6722 9.01622 34.0824C9.09721 34.7566 9.46091 35.1946 9.9851 35.5298C10.4021 35.796 10.8558 36.003 11.2832 36.2542C11.5802 36.4289 11.7811 36.3817 11.9266 36.0165ZM19.9297 14.8344C19.6118 14.2915 19.242 14.056 18.7314 14.0365C18.0654 14.011 17.392 13.8917 16.7373 13.9622C16.1127 14.029 16.0264 14.3289 16.3294 14.8704C16.3931 14.9851 16.4621 15.0969 16.5146 15.1861C16.6661 15.0901 16.7868 14.9761 16.9293 14.9289C17.8862 14.6132 18.8588 14.4804 19.9297 14.8344ZM34.8568 28.902C34.8672 28.8773 34.8785 28.8525 34.889 28.8278C34.6768 28.734 34.4728 28.5938 34.2508 28.5563C33.5894 28.4438 32.9227 28.3073 32.2561 28.2991C31.2017 28.2856 30.37 27.9189 29.7873 27.0355C29.5684 26.7033 29.3831 26.3486 29.2114 26.0531C29.1859 26.524 29.1582 27.043 29.1349 27.4704C29.4761 27.6234 29.8961 27.7127 30.1743 27.9609C30.5702 28.3156 30.9752 28.4633 31.4971 28.5068C32.6205 28.5991 33.7371 28.7655 34.8568 28.902ZM13.3582 10.1744C13.7077 9.35477 14.4088 9.07955 15.2375 8.77433C14.951 8.59885 14.7696 8.41287 14.5633 8.37913C14.2221 8.32363 13.8644 8.35888 13.5135 8.36863C13.0822 8.38063 12.8723 8.71134 12.7215 9.0308C12.6653 9.15079 12.8288 9.39451 12.9255 9.56249C13.0388 9.76047 13.188 9.93745 13.3582 10.1744ZM73.2936 6.65133C73.757 5.93816 73.937 5.18449 74.021 4.30934C73.3971 4.75404 72.8466 5.14625 72.2955 5.5392C72.6344 5.91641 72.9299 6.24562 73.2936 6.65133ZM43.5693 8.63935C42.9618 8.80808 42.6971 9.19728 42.6071 9.74622C42.5066 10.3582 42.7413 11.318 43.1291 11.7267C43.276 10.6934 43.4215 9.67723 43.5693 8.63935ZM5.66935 5.29323C5.40688 5.29323 5.11666 5.29773 4.82645 5.29173C4.59922 5.28723 4.36975 5.24449 4.14627 5.26699C3.84856 5.29698 3.65358 5.47546 3.63558 5.79043C3.61909 6.09039 3.84331 6.19838 4.07578 6.20963C4.57448 6.23437 5.07467 6.21713 5.54486 6.21713C5.59661 5.83317 5.63485 5.5467 5.66935 5.29323ZM16.8986 16.6747C17.6402 16.1827 18.3571 15.7065 19.0741 15.2311C19.0696 15.1876 19.0651 15.1434 19.0598 15.0999C18.5844 15.0999 18.1089 15.0916 17.6342 15.1059C17.5277 15.1089 17.4123 15.1741 17.3215 15.2393C17.1265 15.3811 16.9451 15.5416 16.7343 15.7133C16.7763 15.9615 16.8326 16.29 16.8986 16.6747ZM11.9491 8.26214C12.0931 7.45898 12.6188 7.12377 13.3657 6.8823C13.122 6.75781 12.9623 6.60558 12.8115 6.61383C12.4268 6.63483 12.0384 6.69857 11.6664 6.80056C11.248 6.9153 11.1392 7.35849 11.4197 7.67721C11.5772 7.85494 11.7384 8.02892 11.9491 8.26214ZM16.4794 10.3312C16.2536 10.1534 16.1157 9.9532 15.9882 9.95995C15.5225 9.98394 15.0478 10.0327 14.5986 10.1549C13.9949 10.3199 13.8329 10.9296 14.2274 11.435C14.5888 10.4114 15.4782 10.3911 16.4794 10.3312ZM79.3709 24.1948C79.3694 23.8941 79.1002 23.6834 78.6877 23.6976C78.4448 23.7066 78.1958 23.7471 78.1958 24.0913C78.1958 24.611 78.4665 25.0962 78.7567 25.079C79.0634 25.061 79.3731 24.6155 79.3709 24.1948ZM30.1705 17.3916C29.5564 18.0155 28.6707 20.0118 28.5335 21.0789C29.0502 20.5547 29.7423 18.9942 30.1705 17.3916ZM11.4294 5.52571C10.6278 5.05776 9.92586 5.5317 9.82912 6.55459C10.0226 6.64533 10.2206 6.73757 10.4516 6.8463C10.5145 6.20663 10.8018 5.76793 11.4294 5.52571ZM77.2066 22.983C76.9014 23.1524 76.5857 23.2477 76.4027 23.4584C76.2843 23.5949 76.9134 24.2533 77.1504 24.2653C77.3229 24.2736 77.7106 23.6121 77.6386 23.3324C77.6071 23.2072 77.3964 23.1284 77.2066 22.983ZM6.43876 6.06789C6.72448 6.04914 6.9862 6.03115 7.24642 6.0139C7.23667 5.83242 7.21867 5.68544 7.22317 5.53995C7.22842 5.38622 7.25617 5.23399 7.27417 5.08026C6.525 5.02026 6.29778 5.28273 6.43876 6.06789ZM77.8051 25.4644C77.9558 26.0051 78.3435 26.4108 78.6525 26.3501C78.8422 26.3126 78.9989 26.1086 79.1707 25.9789C79.1534 25.9256 79.1369 25.8724 79.1197 25.8191C78.7065 25.7074 78.2933 25.5964 77.8051 25.4644ZM8.98622 4.97602C8.42078 4.95202 7.98733 5.49571 8.06383 6.09864C8.21681 6.12339 8.37204 6.14888 8.50702 6.17063C8.66976 5.76493 8.82274 5.38397 8.98622 4.97602Z" fill="white"/>
<path d="M54.0382 22.65C53.2387 22.0013 52.5008 21.3181 52.0179 20.4137C51.8237 20.05 51.8934 19.6803 52.0606 19.3256C52.1754 19.0826 52.3209 18.8532 52.4213 18.605C52.4791 18.4625 52.5481 18.215 52.4828 18.155C52.3538 18.0358 52.1334 17.9585 51.9541 17.9645C51.7187 17.972 51.4877 18.0838 51.2515 18.1378C50.4266 18.3275 49.6144 17.9293 49.3984 17.1584C49.5447 17.2491 49.6384 17.2994 49.7239 17.3608C50.2646 17.7546 50.8263 17.807 51.4315 17.5041C52.0854 17.1764 52.7693 17.1036 53.4652 17.3661C53.9437 17.5461 54.0734 17.804 53.7569 18.1843C53.0513 19.0324 53.112 19.9061 53.4742 20.8547C53.6977 21.4396 53.8529 22.0508 54.0382 22.65Z" fill="white"/>
<path d="M62.6627 17.2986C62.4985 17.2814 62.3342 17.2551 62.1692 17.2514C62.0583 17.2491 61.9465 17.2806 61.8355 17.2964C61.8535 17.4103 61.834 17.5536 61.8955 17.6331C62.3155 18.173 62.7392 18.7122 63.1906 19.2259C63.4359 19.5048 63.7403 19.7328 64.0178 19.984C64.0125 20.0253 64.008 20.0665 64.0028 20.1085C63.7433 20.086 63.4321 20.149 63.2341 20.0268C62.41 19.5191 61.6151 18.9634 60.8224 18.4062C60.6289 18.2705 60.4722 18.0725 60.326 17.8828C60.1055 17.5963 60.1782 17.3308 60.4924 17.1876C61.2131 16.8592 61.9443 17.0196 62.6702 17.1164C62.6679 17.1764 62.6649 17.2379 62.6627 17.2986Z" fill="white"/>
<path d="M70.2452 9.15454C70.4095 9.63448 70.5475 10.1249 70.7439 10.5906C70.9884 11.1696 71.6461 10.9416 72.108 11.1921C71.9228 11.5025 71.7563 11.7815 71.5898 12.0605C71.6288 12.0897 71.6678 12.1189 71.7076 12.1482C72.0263 11.7582 72.3458 11.3683 72.6307 11.0188C72.21 10.8186 71.7406 10.7294 71.4931 10.4466C71.1219 10.0222 71.1684 9.42075 71.2096 8.75783C71.5471 8.92731 71.8343 9.0713 72.138 9.22428C72.2108 8.97381 72.123 8.84857 71.8756 8.75933C71.4714 8.6146 71.0822 8.42937 70.6577 8.24939C70.4627 8.38437 70.234 8.52536 70.0255 8.69184C69.6243 9.0128 69.2306 9.15004 68.8039 8.63484C68.4642 9.33826 68.429 10.0019 68.5789 10.6799C68.5999 10.7736 68.7634 10.8441 68.8714 10.9078C69.3761 11.207 69.8845 11.4995 70.3915 11.795C70.3757 11.8482 70.3592 11.9015 70.3435 11.9547C70.1448 11.9405 69.9445 11.9375 69.7481 11.909C69.2966 11.8437 68.8489 11.7387 68.396 11.702C67.9798 11.6682 67.841 11.8287 67.886 12.2644C67.9288 12.6716 68.0203 13.0736 68.1027 13.549C67.9918 13.4778 67.904 13.4545 67.8853 13.405C67.643 12.7646 67.3851 12.1287 67.1826 11.4755C67.0401 11.0158 67.1803 10.7369 67.6138 10.5089C67.865 10.3769 68.0068 10.2037 68.042 9.9247C68.081 9.61798 68.195 9.30902 68.1725 9.0083C68.1357 8.50061 68.3645 8.17065 68.7327 7.88493C68.8812 7.76944 69.0109 7.62996 69.1541 7.50697C69.4593 7.24525 69.796 7.01203 69.5088 6.51859C69.4496 6.4166 69.5013 6.16163 69.5936 6.07389C70.0683 5.62094 70.6607 5.40272 71.2801 5.26248C71.2974 5.29323 71.3154 5.32398 71.3326 5.35472C70.8864 5.71318 70.4402 6.07164 69.9603 6.45635C70.465 6.8868 70.267 7.26775 69.9445 7.65546C69.7743 7.86018 69.6371 8.09116 69.4773 8.32288C70.0405 8.43012 70.495 8.1699 70.6832 7.7012C70.7327 7.57822 70.9292 7.39374 70.9959 7.41699C71.5516 7.60971 72.093 7.84444 72.6382 8.06566C72.6187 8.12415 72.5985 8.1834 72.579 8.24189C72.2295 8.16615 71.8808 8.09041 71.5313 8.01467C71.5231 8.03491 71.5141 8.05591 71.5058 8.07616C71.7173 8.1669 71.9213 8.29813 72.1418 8.34013C72.5977 8.42637 72.672 8.71134 72.5722 9.08404C72.4942 9.37576 72.525 9.59623 72.7252 9.84746C72.9892 10.1774 73.0297 10.5839 72.8767 10.9956C72.4785 12.065 71.8358 12.7916 70.5805 12.8036C70.0368 12.8089 69.4938 12.9581 68.9186 13.0473C69.1159 12.6184 69.5088 12.5201 69.8613 12.5306C70.7754 12.5591 71.1819 11.8842 71.7481 11.3278C71.2029 11.219 70.5797 11.4035 70.3135 10.8051C70.081 10.2817 70.054 9.71397 70.1403 9.15303C70.1763 9.15303 70.2107 9.15379 70.2452 9.15454ZM72.423 10.1429C72.4207 10.0964 72.4185 10.0499 72.417 10.0042C72.1838 9.84071 71.9498 9.67723 71.7166 9.51374C71.6768 9.54149 71.6363 9.56924 71.5966 9.59698C71.7286 9.83996 71.8471 10.0927 72.0105 10.3124C72.0315 10.3416 72.2798 10.2029 72.423 10.1429Z" fill="white"/>
<path d="M73.7129 14.9626C73.2517 14.4204 72.8445 13.9997 72.2768 13.75C72.1494 13.6938 72.0631 13.5438 71.9581 13.4373C72.1464 13.3945 72.3728 13.2626 72.5168 13.3241C73.1475 13.5925 73.5689 14.113 73.9049 14.6889C74.0556 14.9469 74.1141 15.2581 74.2146 15.5453C74.1711 15.573 74.1269 15.6015 74.0834 15.6293C73.8277 15.4958 73.5824 15.3308 73.3132 15.2363C72.7995 15.0564 72.2708 14.9199 71.7504 14.7564C71.6409 14.7219 71.5434 14.6492 71.4399 14.5937C71.5284 14.4872 71.6079 14.3034 71.7084 14.2907C71.9266 14.2629 72.1726 14.2787 72.3773 14.3559C72.7958 14.5134 73.194 14.7226 73.7129 14.9626Z" fill="white"/>
<path d="M74.0172 13.1508C73.5215 12.7699 73.4038 11.8242 73.7863 11.3533C74.12 11.9322 74.0075 12.5232 74.0172 13.1508Z" fill="white"/>
<path d="M45.1334 24.8757C44.6587 24.824 44.1795 24.794 43.7093 24.7137C43.2916 24.6425 43.0059 24.3523 43.0404 23.9338C43.0974 23.2439 43.2391 22.5615 43.3516 21.8768C43.3569 21.8431 43.4281 21.8206 43.5774 21.7186C43.4754 23.1187 44.3228 23.9421 45.2279 24.734C45.1964 24.7805 45.1649 24.8277 45.1334 24.8757Z" fill="white"/>
</svg>
