<svg width="17" height="24" viewBox="0 0 17 24" fill="none" xmlns="http://www.w3.org/2000/svg">
<path d="M8.5 23.8654L7.97692 23.2769C7.65 22.95 0 13.9269 0 8.5C0 3.79231 3.79231 0 8.5 0C13.2077 0 17 3.79231 17 8.5C17 13.9269 9.35 22.95 9.02308 23.3423L8.5 23.8654ZM8.5 1.30769C4.51154 1.30769 1.30769 4.51154 1.30769 8.5C1.30769 12.6846 6.8 19.7462 8.5 21.8385C10.2 19.7462 15.6923 12.6846 15.6923 8.5C15.6923 4.51154 12.4885 1.30769 8.5 1.30769Z" fill="#202020"/>
<path d="M8.50019 11.7689C6.66942 11.7689 5.23096 10.3305 5.23096 8.4997C5.23096 6.66893 6.66942 5.23047 8.50019 5.23047C10.331 5.23047 11.7694 6.66893 11.7694 8.4997C11.7694 10.3305 10.331 11.7689 8.50019 11.7689ZM8.50019 6.53816C7.38865 6.53816 6.53865 7.38816 6.53865 8.4997C6.53865 9.61124 7.38865 10.4612 8.50019 10.4612C9.61173 10.4612 10.4617 9.61124 10.4617 8.4997C10.4617 7.38816 9.61173 6.53816 8.50019 6.53816Z" fill="#202020"/>
</svg>
