<svg width="44" height="44" viewBox="0 0 44 44" fill="none" xmlns="http://www.w3.org/2000/svg">
<circle cx="22" cy="22" r="22" fill="#F5F5F5"/>
<path d="M22.9116 21.9953L29.7991 15.1011C29.9206 14.979 29.9887 14.8137 29.9886 14.6414C29.9885 14.4692 29.9201 14.304 29.7985 14.182C29.5549 13.9397 29.126 13.9385 28.88 14.1833L21.9944 21.0774L15.1063 14.1814C14.8616 13.9397 14.4326 13.941 14.1891 14.1826C14.1286 14.2429 14.0808 14.3145 14.0483 14.3934C14.0159 14.4723 13.9994 14.5569 14 14.6422C14 14.816 14.0673 14.9787 14.1891 15.0993L21.0765 21.9947L14.1897 28.8907C14.0682 29.013 14.0001 29.1785 14.0005 29.3509C14.0008 29.5233 14.0695 29.6886 14.1915 29.8104C14.3096 29.9272 14.4767 29.9945 14.6492 29.9945H14.6529C14.8261 29.9939 14.9931 29.926 15.1088 29.8079L21.9944 22.9137L28.8824 29.8098C29.0042 29.9309 29.167 29.9982 29.3395 29.9982C29.4249 29.9985 29.5094 29.9818 29.5883 29.9493C29.6671 29.9168 29.7388 29.8689 29.7991 29.8086C29.8595 29.7483 29.9073 29.6766 29.9398 29.5977C29.9724 29.5189 29.989 29.4343 29.9887 29.349C29.9887 29.1758 29.9214 29.0125 29.7991 28.8919L22.9116 21.9953Z" fill="#202020"/>
</svg>
