<svg width="19" height="19" viewBox="0 0 19 19" fill="none" xmlns="http://www.w3.org/2000/svg">
<path d="M14.5398 18.3872C14.3568 18.3867 14.1744 18.3666 13.9956 18.3273C10.5925 17.6233 7.45727 15.9727 4.95084 13.5655C2.4979 11.1529 0.796659 8.08125 0.0529435 4.72206C-0.03475 4.3034 -0.0132265 3.86922 0.115443 3.46129C0.244113 3.05336 0.475598 2.68541 0.787629 2.39283L2.96447 0.29762C3.07566 0.192472 3.20777 0.111951 3.35218 0.061314C3.49659 0.0106767 3.65005 -0.00893936 3.80256 0.00374616C3.96069 0.0202428 4.11328 0.0711812 4.24961 0.152979C4.38594 0.234777 4.5027 0.345448 4.59166 0.47721L7.31272 4.49893C7.41476 4.65498 7.46402 4.83966 7.45324 5.0258C7.44247 5.21194 7.37223 5.3897 7.25286 5.53293L5.88689 7.16556C6.43091 8.3696 7.20135 9.45782 8.15625 10.371C9.10497 11.3172 10.2263 12.0728 11.4596 12.5968L13.1521 11.2526C13.2943 11.1402 13.4672 11.0738 13.648 11.0622C13.8289 11.0505 14.0089 11.0941 14.1643 11.1873L18.2731 13.843C18.4141 13.9272 18.5343 14.0422 18.6245 14.1794C18.7147 14.3166 18.7728 14.4725 18.7942 14.6353C18.8157 14.7981 18.8 14.9637 18.7484 15.1196C18.6968 15.2755 18.6106 15.4177 18.4963 15.5355L16.3738 17.6362C16.1327 17.8761 15.8466 18.066 15.5318 18.1948C15.2171 18.3237 14.88 18.3891 14.5398 18.3872ZM3.71548 1.08128L1.53864 3.1765C1.36311 3.34006 1.23317 3.54649 1.1616 3.7755C1.09004 4.00451 1.07931 4.2482 1.13048 4.4826C1.82202 7.63475 3.41166 10.5192 5.7073 12.7873C8.06602 15.052 11.0164 16.6046 14.2188 17.2661C14.4612 17.3168 14.7123 17.3065 14.9498 17.2362C15.1872 17.166 15.4035 17.0379 15.5793 16.8634L17.7017 14.7628L13.7344 12.1995L11.9167 13.6471C11.8472 13.7022 11.7652 13.7394 11.6779 13.7555C11.5906 13.7717 11.5007 13.7662 11.4161 13.7396C9.90681 13.1836 8.53908 12.3008 7.41068 11.1546C6.24354 10.0647 5.33757 8.72528 4.76037 7.23631C4.73595 7.14617 4.73514 7.05126 4.75801 6.96072C4.78089 6.87017 4.82668 6.78704 4.89098 6.71931L6.36035 4.96151L3.71548 1.08128Z" fill="#202020"/>
</svg>
