<svg width="56" height="56" viewBox="0 0 56 56" fill="none" xmlns="http://www.w3.org/2000/svg">
<path d="M51.9855 21.5843L52.3707 14.6637C52.3976 14.1991 52.145 13.7629 51.7288 13.555L45.5668 10.4391L42.4509 4.2771C42.2389 3.86454 41.8054 3.61335 41.3422 3.63523L34.4098 4.00905L28.633 0.192492C28.2437 -0.0641639 27.739 -0.0641639 27.3492 0.192492L21.5724 4.00905L14.6523 3.62384C14.1873 3.59649 13.7515 3.84904 13.5436 4.26571L10.4273 10.4277L4.26571 13.5436C3.85269 13.7551 3.60196 14.1887 3.62384 14.6523L4.0086 21.5729L0.192492 27.3497C-0.064164 27.739 -0.064164 28.2436 0.192492 28.6334L3.9972 34.4216L3.61199 41.3422C3.58509 41.8067 3.83719 42.243 4.25385 42.4509L10.4159 45.5668L13.5318 51.7288C13.7433 52.1418 14.1768 52.3925 14.6404 52.3707L21.561 51.9854L27.3378 55.8015C27.7249 56.0664 28.2345 56.0664 28.6216 55.8015L34.3984 51.9854L41.319 52.3707C41.7835 52.3975 42.2193 52.145 42.4277 51.7288L45.5435 45.5668L51.7056 42.4509C52.1181 42.2389 52.3693 41.8058 52.3474 41.3422L51.9622 34.4216L55.7783 28.6448C56.035 28.2555 56.035 27.7504 55.7783 27.3611L51.9855 21.5843ZM49.8146 33.4647C49.6724 33.6735 49.6063 33.9247 49.6282 34.1768L49.9897 40.7236L44.1664 43.6644C43.9443 43.7756 43.7643 43.9562 43.653 44.1782L40.7118 50.0015L34.165 49.64C33.9142 49.6309 33.6667 49.6956 33.4529 49.8264L27.9911 53.4328L22.5298 49.8264C22.3401 49.6983 22.1167 49.629 21.8879 49.6281H21.8295L15.2823 49.9901L12.3415 44.1663C12.2302 43.9443 12.0502 43.7642 11.8277 43.653L5.99255 40.7236L6.35451 34.1768C6.36363 33.9261 6.29844 33.6785 6.16761 33.4647L2.56166 28.0029L6.16761 22.5411C6.31029 22.3328 6.37639 22.0812 6.35451 21.8295L5.99255 15.2823L11.8163 12.3415C12.0383 12.2302 12.2184 12.0502 12.3296 11.8282L15.2705 6.0044L21.8177 6.36636C22.068 6.37502 22.3155 6.31029 22.5298 6.17945L27.9911 2.57351L33.4529 6.17945C33.6617 6.32214 33.9133 6.38824 34.165 6.36636L40.7118 6.0044L43.653 11.8282C43.7643 12.0502 43.9443 12.2302 44.1664 12.3415L49.9897 15.2823L49.6282 21.8295C49.619 22.0798 49.6842 22.3273 49.8146 22.5411L53.421 28.0029L49.8146 33.4647Z" fill="white"/>
<path d="M22.504 29.224C21.368 29.224 20.496 28.768 19.888 27.856C19.296 26.944 19 25.688 19 24.088C19 22.472 19.28 21.224 19.84 20.344C20.4 19.448 21.288 19 22.504 19C23.688 19 24.584 19.448 25.192 20.344C25.8 21.224 26.104 22.472 26.104 24.088C26.104 25.688 25.808 26.944 25.216 27.856C24.64 28.768 23.736 29.224 22.504 29.224ZM22.12 35.848L31.624 19.288H33.472L23.968 35.848H22.12ZM22.504 27.712C23.736 27.712 24.352 26.504 24.352 24.088C24.352 21.688 23.736 20.488 22.504 20.488C21.896 20.488 21.448 20.792 21.16 21.4C20.888 21.992 20.752 22.888 20.752 24.088C20.752 25.288 20.888 26.192 21.16 26.8C21.448 27.408 21.896 27.712 22.504 27.712ZM32.992 36.136C31.856 36.136 30.984 35.68 30.376 34.768C29.784 33.856 29.488 32.6 29.488 31C29.488 29.384 29.768 28.136 30.328 27.256C30.888 26.36 31.776 25.912 32.992 25.912C34.16 25.912 35.048 26.36 35.656 27.256C36.28 28.136 36.592 29.384 36.592 31C36.592 32.6 36.296 33.856 35.704 34.768C35.128 35.68 34.224 36.136 32.992 36.136ZM32.992 34.624C34.224 34.624 34.84 33.416 34.84 31C34.84 28.616 34.224 27.424 32.992 27.424C32.384 27.424 31.936 27.728 31.648 28.336C31.376 28.928 31.24 29.816 31.24 31C31.24 32.216 31.376 33.128 31.648 33.736C31.936 34.328 32.384 34.624 32.992 34.624Z" fill="white"/>
</svg>
