<svg width="56" height="56" viewBox="0 0 56 56" fill="none" xmlns="http://www.w3.org/2000/svg">
<path d="M54.4906 19.2833L42.5565 15.8743L35.1785 4.473C33.7207 2.21987 31.2497 0.875 28.567 0.875H14.3124C11.1081 0.875 8.25037 2.7895 7.03062 5.75138L2.91375 15.75H0.875V17.5H3.5C3.85437 17.5 4.17463 17.2865 4.30938 16.9584L8.64937 6.41813C9.59788 4.11337 11.8212 2.625 14.3124 2.625H28.567C30.653 2.625 32.5754 3.67062 33.7094 5.42238L41.2659 17.1001C41.3805 17.2778 41.5564 17.409 41.7594 17.4667L49.875 19.7846V24.5C49.875 24.9839 50.267 25.375 50.75 25.375H53.375V30.625H49V32.375H54.25C54.733 32.375 55.125 31.9839 55.125 31.5V20.125C55.125 19.7348 54.866 19.3909 54.4906 19.2833ZM51.625 23.625V20.2851L53.375 20.7847V23.625H51.625Z" fill="white"/>
<path d="M37.5138 17.052C37.6686 16.7755 37.6607 16.436 37.4954 16.1656L31.52 6.45663C30.7299 5.17213 29.3019 4.375 27.7942 4.375H14.6535C12.8562 4.375 11.2156 5.502 10.5699 7.17937L7.05762 16.3109C6.95437 16.5804 6.99025 16.8831 7.153 17.1211C7.31575 17.3591 7.58612 17.5 7.87487 17.5H36.7499C37.0666 17.5 37.3589 17.3285 37.5138 17.052ZM12.2035 7.8085C12.5911 6.80137 13.5755 6.125 14.6535 6.125H20.9999V15.75H9.14887L12.2035 7.8085ZM22.7499 15.75V6.125H27.7942C28.699 6.125 29.5556 6.60363 30.0299 7.3745L35.1836 15.75H22.7499Z" fill="white"/>
<path d="M21 19.25H24.5V21H21V19.25Z" fill="white"/>
<path d="M7 19.25H10.5V21H7V19.25Z" fill="white"/>
<path d="M45.5 7C47.4303 7 49 8.56975 49 10.5C49 10.9839 49.392 11.375 49.875 11.375C50.358 11.375 50.75 10.9839 50.75 10.5C50.75 8.56975 52.3197 7 54.25 7C54.733 7 55.125 6.60887 55.125 6.125C55.125 5.64113 54.733 5.25 54.25 5.25C52.3197 5.25 50.75 3.68025 50.75 1.75C50.75 1.26613 50.358 0.875 49.875 0.875C49.392 0.875 49 1.26613 49 1.75C49 3.68025 47.4303 5.25 45.5 5.25C45.017 5.25 44.625 5.64113 44.625 6.125C44.625 6.60887 45.017 7 45.5 7ZM49.875 4.64888C50.2635 5.23338 50.7666 5.7365 51.3511 6.125C50.7666 6.5135 50.2635 7.01663 49.875 7.60113C49.4865 7.01663 48.9834 6.5135 48.3989 6.125C48.9834 5.7365 49.4865 5.23338 49.875 4.64888Z" fill="white"/>
<path d="M26.25 26.25H5.25C2.83763 26.25 0.875 28.2126 0.875 30.625V54.25C0.875 54.7339 1.267 55.125 1.75 55.125H6.125H7.875H16.625H18.375H26.25C26.733 55.125 27.125 54.7339 27.125 54.25V35.875H29.75C30.233 35.875 30.625 35.4839 30.625 35V32.375H35V30.625H30.625C30.625 28.2126 28.6624 26.25 26.25 26.25ZM2.625 53.375V30.625C2.625 29.1777 3.80275 28 5.25 28C6.69725 28 7.875 29.1777 7.875 30.625V35V36.911C7.60025 36.813 7.308 36.75 7 36.75C5.55275 36.75 4.375 37.9277 4.375 39.375V49C4.375 49.2327 4.46688 49.455 4.63138 49.6186L6.125 51.1123V53.375H2.625ZM7.875 53.375V50.75C7.875 50.5173 7.78312 50.295 7.61862 50.1314L6.125 48.6377V39.375C6.125 38.892 6.51788 38.5 7 38.5C7.48212 38.5 7.875 38.892 7.875 39.375V42H9.625V39.375V35.875H11.375V42H13.125V35.875H14.875V42H16.625V35.875H18.375V44.625V47.25H20.125V44.625C20.125 44.142 20.5179 43.75 21 43.75C21.4821 43.75 21.875 44.142 21.875 44.625V47.6569L17.0144 50.897C16.7711 51.0597 16.625 51.3328 16.625 51.625V53.375H7.875ZM25.375 53.375H18.375V52.0931L23.2356 48.853C23.4789 48.6903 23.625 48.4172 23.625 48.125V44.625C23.625 43.1777 22.4473 42 21 42C20.692 42 20.3997 42.063 20.125 42.161V35.875H25.375V53.375ZM28.875 34.125H9.625V30.625C9.625 29.6406 9.29775 28.7315 8.74825 28H26.25C27.6973 28 28.875 29.1777 28.875 30.625V34.125Z" fill="white"/>
<path d="M50.75 34.125H47.25V28.875H49C49.3535 28.875 49.6729 28.6624 49.8085 28.3351C49.9441 28.0079 49.8689 27.6316 49.6186 27.3814L46.1186 23.8814C45.955 23.7169 45.7319 23.625 45.5 23.625H37.625C37.142 23.625 36.75 24.0161 36.75 24.5V28C36.75 28.4839 37.142 28.875 37.625 28.875H39.5798L37.7501 31.9244L39.2508 32.8247L41.6203 28.875H42V34.125H38.5C38.017 34.125 37.625 34.5161 37.625 35V54.25C37.625 54.7339 38.017 55.125 38.5 55.125H50.75C51.233 55.125 51.625 54.7339 51.625 54.25V35C51.625 34.5161 51.233 34.125 50.75 34.125ZM42.875 27.125H38.5V25.375H45.1377L46.8877 27.125H46.375C45.892 27.125 45.5 27.5161 45.5 28V34.125H43.75V28C43.75 27.5161 43.358 27.125 42.875 27.125ZM49.875 35.875V40.25H39.375V35.875H49.875ZM49.875 42V47.25H39.375V42H49.875ZM39.375 53.375V49H49.875V53.375H39.375Z" fill="white"/>
</svg>
