<svg width="21" height="21" viewBox="0 0 21 21" fill="none" xmlns="http://www.w3.org/2000/svg">
<path d="M13.4583 19.335C13.289 19.3054 13.1234 19.2578 12.9642 19.193C9.9263 17.9993 7.28723 15.9722 5.35067 13.3448C3.46446 10.7211 2.37901 7.60693 2.22564 4.37919C2.21115 3.97772 2.30022 3.57927 2.48429 3.22218C2.66836 2.86509 2.94122 2.56138 3.27664 2.34026L5.62524 0.747629C5.7449 0.668012 5.88001 0.614523 6.02174 0.590653C6.16347 0.566783 6.30864 0.573068 6.44778 0.6091C6.59152 0.649554 6.72465 0.721006 6.83781 0.818432C6.95097 0.915858 7.04141 1.03689 7.10278 1.17302L8.98086 5.32893C9.05046 5.48962 9.06664 5.66841 9.02702 5.83898C8.98739 6.00956 8.89407 6.16291 8.76077 6.27647L7.23639 7.57009C7.54817 8.7712 8.08797 9.90117 8.8264 10.8985C9.55383 11.9254 10.4714 12.8034 11.5295 13.4848L13.3102 12.5102C13.4596 12.4288 13.6303 12.3949 13.7995 12.4129C13.9688 12.4309 14.1285 12.5 14.2575 12.611L17.6376 15.7235C17.7548 15.8239 17.8476 15.9495 17.9093 16.0909C17.971 16.2322 17.9999 16.3857 17.9938 16.5399C17.9877 16.694 17.9469 16.8447 17.8743 16.9808C17.8017 17.1169 17.6992 17.2348 17.5746 17.3257L15.2755 18.932C15.0141 19.1157 14.719 19.2458 14.4072 19.315C14.0953 19.3842 13.7729 19.391 13.4583 19.335Z" fill="white"/>
</svg>
