<svg width="394" height="451" viewBox="0 0 394 451" fill="none" xmlns="http://www.w3.org/2000/svg">
<path d="M750.15 208.826H502.574C501.305 189.35 494.237 137.57 454.947 137.57C447.149 137.57 438.642 138.098 429.914 139.028C405.02 108.403 362.857 62.5197 323.349 47.676C316.88 38.1416 306.062 28.6374 288.025 24.8531C279.963 23.1624 273.159 22.5184 267.187 22.5448C263.734 21.1139 259.942 19.9127 255.739 19.0316C231.203 13.8841 218.159 18.3011 205.545 22.5636C201.794 23.8326 198.127 25.0564 194.196 26.0618L86.0307 9.13575C84.0763 8.84204 82.235 10.1713 81.9262 12.1293L81.5535 14.4979L48.8385 9.37675C44.4554 3.38955 39.1084 -0.564254 32.6957 0.06459C25.4019 0.746151 18.6917 4.55687 13.2881 11.0825C2.92917 23.5992 -1.70997 44.5129 0.56818 68.4654C1.44178 77.6571 6.12234 95.2986 12.6894 116.683C10.031 123.57 8.73185 132.001 10.2418 142.134C11.2849 149.116 12.7873 154.786 14.5835 159.588C14.4705 162.788 14.6362 166.192 15.1784 169.826C18.2549 190.439 25.3077 199.754 32.289 208.389L34.5446 247.603C34.6161 248.876 35.6742 249.859 36.9319 249.859C36.9771 249.859 37.026 249.855 37.0712 249.855L37.6699 249.821L38.6151 266.254C36.6834 267.583 34.6274 268.999 32.4321 270.513C28.949 272.915 27.8005 277.55 29.7623 281.301L40.6899 302.184C37.8695 306.202 35.8776 310.521 35.0981 315.123C33.8028 322.801 35.4784 334.304 50.838 345.511C65.1169 355.93 84.6713 361.209 108.955 361.209C133.845 361.209 154.699 355.602 155.576 355.361C158.363 354.601 160.422 352.247 160.807 349.385C161.191 346.524 159.824 343.707 157.335 342.242L128.747 325.38L99.7861 273.898C98.487 271.589 96.0658 270.234 93.5241 270.234C93.1287 270.234 92.7295 270.275 92.3342 270.343L66.9733 101.369C128.212 105.277 231.309 113.445 275.301 126.217L328.553 202.876C321.949 236.032 321.478 285.066 342.343 334.38C343.469 337.038 346.074 338.767 348.959 338.767H356.143V343.775L355.665 344.159H354.027L347.709 339.094L341.39 344.159H339.752L333.434 339.094L326.938 344.302C326.818 344.309 326.693 344.309 326.573 344.313L319.49 339.904L313.585 345.921C313.232 346 312.915 346.109 312.565 346.192L303.573 343.963L300.15 350.831C299.811 351.016 299.457 351.185 299.13 351.377L289.915 351.912L288.515 360.52L280.434 364.267L282.219 372.434L275.177 378.534L279.349 386.272L273.298 393.819L279.082 401.03C279.135 401.835 279.236 402.589 279.308 403.372L275.177 411.031L281.981 416.924C282.042 417.105 282.079 417.3 282.143 417.481L280.437 425.298L288.059 428.834C288.247 429.09 288.417 429.369 288.612 429.617L289.919 437.653L298.188 438.131C298.945 438.602 299.725 439.054 300.53 439.483L303.577 445.595L311.469 443.637C312.388 443.874 313.299 444.119 314.259 444.318L319.494 449.65L325.71 445.779C326.332 445.813 326.991 445.813 327.623 445.836L333.437 450.497L339.097 445.96H342.045L347.705 450.497L353.368 445.96H356.317L361.976 450.497L367.636 445.96H370.584L376.244 450.497L381.907 445.96H384.856L390.515 450.497L396.179 445.96H399.127L404.79 450.497L410.45 445.96H413.398L419.058 450.497L424.721 445.96H427.67L433.329 450.497L438.989 445.96H441.937L447.597 450.497L453.26 445.96H456.209L461.868 450.497L467.528 445.96H470.476L476.136 450.497L481.795 445.96H484.744L490.403 450.497L496.063 445.96H499.011L504.671 450.497L510.331 445.96H513.279L518.939 450.497L524.598 445.96H527.547L533.206 450.497L538.866 445.96H541.814L547.474 450.497L553.137 445.96H556.086L561.749 450.497L567.409 445.96H570.357L576.017 450.497L581.676 445.96H584.625L590.284 450.497L595.944 445.96H598.892L604.552 450.497L610.211 445.96H613.16L618.819 450.497L624.479 445.96H627.427L633.087 450.497L638.747 445.96H641.695L647.358 450.497L653.018 445.96H655.966L661.63 450.497L667.289 445.96H670.238L675.897 450.497L681.561 445.96H684.509L690.169 450.497L695.934 445.877C696.894 445.851 697.873 445.839 698.807 445.79L705.009 449.65L710.179 444.382C711.21 444.175 712.201 443.926 713.184 443.678L720.922 445.598L723.866 439.686C724.819 439.189 725.745 438.67 726.634 438.116L734.576 437.657L735.799 430.122C736.183 429.648 736.515 429.124 736.876 428.631L744.053 425.302L742.449 417.967C742.607 417.515 742.754 417.048 742.901 416.585L749.306 411.035L745.424 403.839C745.529 402.784 745.646 401.737 745.714 400.642L751.185 393.819L745.465 386.687C745.439 386.397 745.405 386.111 745.375 385.824L749.306 378.538L742.687 372.803C742.589 372.517 742.472 372.253 742.37 371.971L744.053 364.27L736.281 360.667C736.15 360.497 736.04 360.305 735.909 360.136L734.572 351.912L725.689 351.396C725.226 351.125 724.721 350.888 724.239 350.632L720.918 343.963L712.08 346.154C711.666 346.057 711.267 345.947 710.845 345.861L705.005 339.907L699.198 343.522V338.774H750.093C770.77 338.774 772.999 292.473 772.999 272.569C773.056 253.394 770.823 208.826 750.15 208.826ZM490.43 276.842C490.43 276.842 491.522 276.782 493.435 276.68C495.348 276.613 498.081 276.451 501.361 276.375C504.641 276.304 508.467 276.165 512.567 276.112C516.668 276.04 521.04 276.029 525.415 276.01C529.787 276.029 534.163 276.037 538.263 276.108C542.364 276.157 546.19 276.3 549.47 276.372C552.749 276.447 555.483 276.613 557.396 276.677C559.309 276.778 560.401 276.839 560.401 276.839C560.401 276.839 559.309 276.899 557.396 277.001C555.483 277.068 552.749 277.234 549.47 277.306C546.19 277.377 542.364 277.52 538.263 277.569C534.163 277.641 529.791 277.652 525.415 277.667C521.044 277.648 516.668 277.637 512.567 277.565C508.467 277.513 504.641 277.373 501.361 277.302C498.081 277.226 495.348 277.065 493.435 276.997C491.526 276.899 490.43 276.842 490.43 276.842ZM421.329 140.063C418.256 140.477 415.179 140.933 412.111 141.434C406.869 134.66 400.712 127.042 393.509 118.92C387.002 111.566 379.727 103.764 371.488 96.0329C363.283 88.2759 354.216 80.4323 343.902 73.4435C338.724 69.983 333.313 66.6241 327.461 63.7962C324.513 62.4255 321.538 61.0474 318.39 59.9704C317.551 59.6692 316.967 59.4319 315.913 59.0893L313.604 58.4604C312.049 58.0538 310.569 57.5831 308.86 57.2894C295.631 54.5782 282.595 53.9154 269.408 53.6104C256.263 53.4222 243.166 53.8062 230.299 54.4163C217.429 54.9924 204.807 56.058 192.603 57.1199C168.202 59.3039 145.526 62.1055 126.137 64.8279C106.745 67.5015 90.666 70.2842 79.4071 72.1481C73.7776 73.0782 69.372 73.9518 66.3671 74.5016C65.8851 74.592 65.452 74.6748 65.0416 74.7539L64.9738 63.5364C126.295 55.3313 270.508 38.3337 316.737 52.9741C353.888 64.7413 395.587 108.983 421.329 140.063ZM404.945 142.677C404.387 142.123 402.493 140.248 399.82 137.687C396.615 134.615 392.285 130.578 387.842 126.673C383.402 122.761 378.835 118.995 375.257 116.367C374.38 115.689 373.529 115.128 372.795 114.608C372.06 114.089 371.409 113.652 370.855 113.317C369.76 112.635 369.135 112.244 369.135 112.244C369.135 112.244 369.714 112.699 370.727 113.494C371.24 113.882 371.838 114.382 372.512 114.977C373.186 115.565 373.962 116.209 374.76 116.973C378.014 119.94 382.126 124.135 386.091 128.462C390.063 132.784 393.908 137.217 396.743 140.579C397.775 141.799 398.668 142.872 399.394 143.746C388.463 145.945 378.074 148.596 369.176 151.473C367.184 149.888 359.495 143.802 351.595 137.981C347.012 134.592 342.362 131.297 338.796 128.94C335.233 126.575 332.771 125.156 332.771 125.156C332.771 125.156 335.064 126.839 338.329 129.569C341.601 132.291 345.841 136.06 350.002 139.909C355.567 145.045 360.978 150.305 363.968 153.246C362.466 153.785 361.012 154.327 359.627 154.877C352.883 148.622 343.356 140.583 331.152 132.272C324.434 127.795 317.012 123.103 308.751 118.848C306.732 117.707 304.541 116.755 302.398 115.678C301.231 115.105 300.052 114.533 298.87 113.979L279.534 86.1446C277.527 83.2565 274.514 81.321 271.05 80.6959C267.586 80.067 264.084 80.8315 261.199 82.8422C258.311 84.8493 256.376 87.8617 255.751 91.326C255.126 94.7865 255.89 98.2847 257.897 101.177L258.194 101.606C255.913 101.158 253.619 100.725 251.315 100.311C240.888 98.5144 230.277 96.8613 219.647 95.5133C214.33 94.8242 209.009 94.184 203.707 93.6418C198.402 93.0845 193.126 92.4519 187.881 91.9661C177.397 90.9193 167.061 90.1135 157.06 89.3604C147.066 88.5357 137.381 88.0424 128.208 87.4889C119.032 86.973 110.356 86.5664 102.339 86.2764C87.1302 85.6513 74.3575 85.4066 65.0943 85.2861L65.0341 75.0401C68.0239 74.7313 72.9718 74.2192 79.5916 73.5339C90.9296 72.2837 107.159 70.7963 126.608 68.9286C136.334 68.0588 146.874 67.1174 158.02 66.1195C169.166 65.1781 180.93 64.3083 193.092 63.4309C205.255 62.5573 217.832 61.9172 230.601 61.3524C243.37 60.8214 256.346 60.5428 269.269 60.7951C275.734 60.8741 282.173 61.1528 288.56 61.5858C291.727 61.921 294.935 62.0791 298.045 62.5498L302.729 63.1786L307.203 64.0221C319.399 66.4735 330.316 72.167 340.396 78.6964C350.416 85.2823 359.566 92.5987 367.869 99.9716C376.176 107.348 383.711 114.721 390.489 121.706C397.515 129 403.762 135.808 409.173 141.916C407.765 142.164 406.353 142.42 404.945 142.677ZM357.879 155.581C355.458 156.586 353.255 157.607 351.297 158.627C340.878 150.836 327.966 142.247 313.081 134.426L305.222 123.115C305.599 123.292 305.987 123.453 306.359 123.642C314.564 127.52 322.077 131.719 328.934 135.74C335.715 139.886 341.827 143.889 347.125 147.621C351.162 150.528 354.773 153.179 357.879 155.581ZM286.545 31.8833C297.495 34.1803 305.38 38.7818 311.07 44.1062C305.539 42.9314 299.194 42.039 292.186 41.3951L290.552 41.139C288.066 37.5994 284.967 34.0899 281.119 30.893C282.862 31.1716 284.651 31.4879 286.545 31.8833ZM265.79 29.7483C271.709 32.3804 276.359 35.7957 280.02 39.4897L244.096 33.8678C250.577 31.7553 257.234 29.9667 265.79 29.7483ZM248.604 25.0338C244.827 26.0279 241.306 27.2103 237.83 28.3851C234.671 29.4546 231.58 30.4976 228.334 31.4013L210.225 28.5697C220.569 25.1167 231 22.2398 248.604 25.0338ZM88.467 16.7948L238.678 40.2955C226.805 40.6231 214.416 41.2369 201.866 42.0427L88.0377 33.8527L161.334 45.2321C158.186 45.5183 155.049 45.812 151.935 46.1133L85.5035 35.7204L88.467 16.7948ZM123.957 49.0127C101.048 51.5356 80.469 54.1564 64.9324 56.2501L64.9173 53.6594C64.9173 53.4523 64.8985 53.2452 64.8608 53.0418C64.4768 50.903 62.8501 42.4569 59.8113 32.9151L78.221 35.7957L77.8519 38.1567C77.7051 39.0981 77.9385 40.0621 78.4996 40.8302C79.0607 41.5984 79.9041 42.118 80.8455 42.2649L123.957 49.0127ZM80.4426 21.5997L79.8703 25.2598L57.8833 24.0171L70.8141 27.3647L57.0963 25.2183C56.0608 22.5561 54.9123 19.9202 53.6546 17.4086L80.4426 21.5997ZM17.8181 143.904C17.6562 142.982 17.4905 142.051 17.3474 141.072C16.76 137.141 16.6583 133.519 16.9219 130.186C17.8896 133.218 18.8837 136.301 19.9042 139.419C19.1473 140.835 18.4469 142.33 17.8181 143.904ZM23.6358 175.956C25.1232 177.948 26.6369 179.827 28.1432 181.684C29.0921 182.855 30.0297 184.022 30.9522 185.197L31.5359 195.319C28.3578 190.363 25.5826 184.429 23.6358 175.956ZM21.8246 158.386C22.0317 155.284 22.5626 152.433 23.3233 149.816C25.5148 156.413 27.7779 163.12 30.0711 169.841L30.2406 172.771C27.1227 168.711 24.2082 164.306 21.8246 158.386ZM35.8286 186.552C37.429 191.161 39.0293 195.729 40.6184 200.236L44.8019 241.8L45.0466 212.742C45.3177 213.51 45.5964 214.289 45.8675 215.05L47.562 244.459L39.1912 244.941L35.8286 186.552ZM45.5399 261.513C44.7943 262.021 44.0262 262.545 43.2316 263.091L42.4522 249.55L44.8433 249.41L45.5399 261.513ZM34.0061 279.083C33.1664 277.475 33.6597 275.491 35.1508 274.463C48.0176 265.587 55.9591 260.195 61.0049 256.923C61.4869 258.244 61.9576 259.517 62.4133 260.76L43.7475 274.967L55.7483 269.104C51.7719 271.785 47.5281 274.673 43.6007 277.366C42.599 278.055 42.2714 279.377 42.8325 280.453L47.4302 289.235L41.6953 282.461L46.9143 294.996C45.8788 296.001 44.8809 297.022 43.9471 298.076L34.0061 279.083ZM51.5836 231.001C54.3625 238.713 56.9721 245.89 59.318 252.306C56.9306 253.839 53.9483 255.816 50.164 258.376L49.633 249.143L50.228 249.109C50.8644 249.075 51.4556 248.785 51.8773 248.311C52.299 247.84 52.5174 247.215 52.4798 246.579L51.5836 231.001ZM48.0628 280.118C54.7579 275.536 60.7602 271.488 65.2638 268.498C67.0185 273.25 68.4155 277.004 69.3607 279.538C63.7199 282.427 58.098 285.823 53.071 289.687L48.0628 280.118ZM93.5241 277.418L123.437 330.592L140.187 340.472L122.522 332.354L142.585 350.843C139.479 351.411 135.837 351.999 131.797 352.514L107.592 335.822L82.8036 289.227L103.819 338.345L104 338.763L104.497 339.173L121.946 353.527C117.815 353.84 113.455 354.036 108.963 354.036C90.7075 354.036 70.3548 350.861 55.0818 339.715C19.5389 313.786 64.1341 286.373 93.5241 277.418ZM85.3981 272.565C82.3781 273.657 79.1623 274.948 75.8713 276.421C65.9717 249.802 10.818 100.412 7.71892 67.7877C5.65541 46.0455 9.80503 26.5589 18.8235 15.6652C22.9806 10.642 28.0114 7.71991 33.366 7.2191C33.5618 7.20027 33.7576 7.19274 33.9571 7.19274C45.4345 7.19274 54.8521 38.3337 57.7327 54.0133L57.9398 89.3528C57.9398 89.5223 57.9549 89.6955 57.9775 89.865L85.3981 272.565ZM65.8738 94.056L65.1244 89.0554L65.1131 86.8375C74.3199 87.7186 86.9833 88.9311 102.076 90.3733C118.011 91.9172 136.602 93.7171 156.518 95.645C161.492 96.1534 166.549 96.6655 171.666 97.1889C176.78 97.7387 181.954 98.296 187.173 98.857C192.396 99.3805 197.633 100.051 202.909 100.649C208.184 101.233 213.464 101.911 218.735 102.634C229.305 103.907 239.826 105.447 250.133 107.141C252.701 107.604 255.254 108.064 257.799 108.523C259.799 108.881 261.802 109.208 263.767 109.611L268.971 117.109C219.892 105.153 123.592 97.6709 65.8738 94.056ZM312.072 166.558L263.805 97.076C261.922 94.361 262.593 90.6256 265.308 88.7391C266.321 88.0349 267.499 87.6659 268.708 87.6659C269.066 87.6659 269.423 87.6998 269.781 87.7638C271.355 88.05 272.726 88.9273 273.641 90.2415L316.745 152.29L275.908 105.036L312.072 166.558ZM322.559 148.065C330.783 153.005 338.231 158.055 344.764 162.848C344.516 163.059 344.248 163.27 344.026 163.481C342.328 165.085 340.501 167.721 338.671 171.261L322.559 148.065ZM340.332 307.121C339.756 305.118 339.199 303.118 338.686 301.126C339.895 301.205 341.371 301.296 343.13 301.33C345.679 301.405 348.774 301.446 352.329 301.363C355.88 301.277 359.894 301.141 364.258 300.765C368.626 300.441 373.359 299.959 378.334 299.206C383.316 298.494 388.557 297.583 393.923 296.344C396.597 295.681 399.342 295.101 402.068 294.303C403.439 293.927 404.817 293.546 406.202 293.162C407.569 292.714 408.944 292.262 410.322 291.807C415.846 290.01 421.344 287.781 426.758 285.356C432.072 282.698 437.358 279.926 442.208 276.571C447.175 273.401 451.539 269.496 455.629 265.64C457.545 263.573 459.492 261.584 461.175 259.457C461.985 258.365 462.783 257.284 463.57 256.215C464.372 255.157 465.141 254.102 465.769 252.961C468.556 248.605 470.627 244.15 472.126 239.936C472.785 237.794 473.579 235.798 474.023 233.814C474.415 231.825 474.788 229.939 475.138 228.165C475.695 224.599 475.789 221.421 475.974 218.887C475.812 213.807 475.654 210.897 475.654 210.897C475.654 210.897 475.213 213.773 474.554 218.816C474.321 220.058 473.963 221.402 473.632 222.871C473.229 224.325 473.063 225.925 472.464 227.567C471.915 229.205 471.335 230.952 470.721 232.789C470.058 234.601 469.151 236.427 468.326 238.362C466.515 242.166 464.177 246.078 461.352 249.945C460.705 250.951 459.918 251.877 459.104 252.799C458.306 253.73 457.5 254.675 456.683 255.627C454.966 257.454 453.121 259.25 451.265 261.076C447.33 264.522 443.063 267.843 438.39 270.784C433.815 273.86 428.773 276.406 423.701 278.857C418.576 281.222 413.365 283.443 408.066 285.243C402.802 287.111 397.53 288.764 392.375 290.202C387.205 291.573 382.182 292.876 377.366 293.927C372.55 294.966 367.975 295.9 363.727 296.668C355.232 298.2 348.078 299.24 343.054 299.895C341.255 300.132 339.741 300.324 338.521 300.471C338.054 298.637 337.594 296.803 337.18 294.985C358.23 294.345 467.513 287.269 467.513 209.375C467.513 180.317 462.124 156.229 462.124 156.229C462.124 156.229 402.919 162.22 347.856 174.277C347.607 174.676 347.359 175.086 347.14 175.599C343.962 181.804 341.737 188.71 339.891 195.522C338.163 202.39 336.71 209.236 335.734 215.942C335.166 219.282 334.921 222.611 334.465 225.846C334.126 229.092 333.916 232.281 333.641 235.384C333.328 241.601 333.102 247.49 333.178 252.939C333.117 255.665 333.275 258.267 333.37 260.752C333.479 263.234 333.49 265.599 333.667 267.809C334.07 272.222 334.288 276.097 334.699 279.256C335.535 285.578 335.945 289.22 335.945 289.22C335.945 289.22 335.117 285.665 333.776 279.395C333.132 276.255 332.624 272.399 331.893 267.986C331.555 265.775 331.366 263.403 331.069 260.91C330.79 258.414 330.527 255.786 330.429 253.033C330.316 250.28 330.071 247.411 330.045 244.44C330.041 241.469 330.014 238.389 330.067 235.226C330.222 232.066 330.312 228.813 330.534 225.496C330.847 222.186 331.076 218.793 331.558 215.366C332.029 211.94 332.466 208.449 333.159 204.947C333.72 201.426 334.575 197.909 335.414 194.362C337.282 187.306 339.466 180.196 342.908 173.366C343.273 172.53 343.921 171.607 344.452 170.733C345.005 169.83 345.574 168.952 346.172 168.327L347.057 167.284L347.166 167.152C347.513 166.795 347.306 167.021 347.404 166.923L347.479 166.863L347.784 166.625L348.394 166.151C349.211 165.56 350.017 164.81 350.86 164.396C352.529 163.417 354.197 162.446 355.902 161.715C357.589 160.883 359.295 160.164 361.005 159.516C367.832 156.824 374.7 154.824 381.384 153.107C388.068 151.386 394.59 150.023 400.803 148.92C407.008 147.783 412.913 146.917 418.38 146.306C423.836 145.606 428.871 145.245 433.329 144.989C437.784 144.71 441.681 144.612 444.89 144.571C448.094 144.443 450.602 144.672 452.315 144.672C454.028 144.721 454.94 144.748 454.94 144.748C489.937 144.748 494.851 197.348 495.54 212.143V260.466C495.016 260.812 494.342 261.249 493.589 261.735L491.3 204.435L488.893 264.646C468.424 276.955 412.069 306.379 340.332 307.121ZM341.752 246.778C343.555 246.289 346.116 245.502 349.222 244.719C352.329 243.943 355.94 242.96 359.834 242.045C363.723 241.104 367.892 240.189 372.06 239.266C376.24 238.393 380.416 237.508 384.347 236.766C388.275 235.994 391.969 235.406 395.12 234.838C398.272 234.269 400.931 233.938 402.776 233.64C404.632 233.392 405.694 233.253 405.694 233.253C405.694 233.253 404.67 233.561 402.874 234.096C401.07 234.586 398.509 235.376 395.403 236.156C392.296 236.932 388.689 237.918 384.792 238.829C380.902 239.771 376.733 240.686 372.565 241.608C368.385 242.482 364.209 243.363 360.278 244.105C356.351 244.873 352.657 245.464 349.505 246.037C346.353 246.605 343.695 246.937 341.85 247.234C339.993 247.483 338.931 247.626 338.931 247.626C338.931 247.626 339.955 247.313 341.752 246.778ZM340.742 240.433C342.881 200.835 350.51 180.388 350.51 180.388L361.363 177.613L359.969 235.625L340.742 240.433ZM364.623 234.789L365.561 176.657L375.969 174.081V232.315L364.623 234.789ZM423.396 268.475C428.86 265.459 434.143 261.916 438.906 257.762C443.692 253.647 447.94 248.902 451.31 243.683C454.635 238.434 456.984 232.725 458.464 227.006C460.053 221.289 460.392 215.521 460.55 210.087C460.596 204.589 460.385 199.438 460.098 194.656C459.507 185.11 458.562 177.18 457.741 171.652C456.928 166.124 456.303 162.992 456.303 162.992C456.303 162.992 457.075 166.094 458.061 171.6C459.014 177.109 460.291 185.012 461.032 194.588C461.405 199.363 461.71 204.589 461.767 210.072C461.706 215.588 461.484 221.493 459.865 227.356C458.385 233.222 456.009 239.1 452.624 244.512C449.197 249.889 444.871 254.784 439.998 259.013C435.103 263.23 429.699 266.803 424.138 269.831C418.572 272.866 412.815 275.28 407.166 277.343C401.511 279.403 395.919 281.026 390.564 282.299C385.21 283.579 380.104 284.611 375.363 285.375C365.885 286.93 357.902 287.563 352.321 287.905C349.531 288.082 347.332 288.131 345.833 288.177C344.335 288.203 343.536 288.218 343.536 288.218C343.536 288.218 346.73 288.086 352.295 287.585C357.861 287.111 365.791 286.158 375.201 284.46C379.908 283.613 384.965 282.498 390.263 281.131C395.565 279.776 401.07 278.036 406.666 275.991C412.254 273.92 417.932 271.503 423.396 268.475ZM409.43 269.345C409.475 266.419 409.445 262.24 409.58 257.228C409.719 252.216 409.802 246.368 410.032 240.106C410.235 233.844 410.54 227.171 410.842 220.495C411.192 213.822 411.531 207.15 411.937 200.899C412.314 194.645 412.8 188.816 413.15 183.815C413.5 178.814 413.941 174.653 414.178 171.739C414.468 168.828 414.633 167.164 414.633 167.164C414.633 167.164 414.637 168.836 414.645 171.765C414.6 174.691 414.633 178.871 414.498 183.883C414.359 188.895 414.28 194.743 414.046 201.005C413.843 207.267 413.534 213.943 413.236 220.615C412.886 227.288 412.544 233.961 412.137 240.215C411.757 246.466 411.275 252.299 410.924 257.299C410.574 262.3 410.137 266.461 409.896 269.375C409.607 272.286 409.441 273.95 409.441 273.95C409.441 273.95 409.433 272.271 409.43 269.345ZM423.038 261.023C423.068 258.384 423.019 254.607 423.129 250.085C423.241 245.562 423.298 240.283 423.498 234.631C423.671 228.979 423.946 222.954 424.213 216.929C424.529 210.908 424.838 204.887 425.215 199.242C425.561 193.598 426.02 188.337 426.344 183.826C426.668 179.315 427.09 175.561 427.316 172.929C427.591 170.3 427.749 168.798 427.749 168.798C427.749 168.798 427.76 170.308 427.779 172.951C427.749 175.591 427.802 179.368 427.689 183.89C427.576 188.413 427.523 193.692 427.32 199.344C427.146 204.996 426.871 211.021 426.6 217.046C426.28 223.067 425.971 229.092 425.595 234.732C425.245 240.377 424.789 245.637 424.465 250.149C424.138 254.66 423.72 258.414 423.498 261.046C423.223 263.674 423.064 265.177 423.064 265.177C423.064 265.177 423.057 263.667 423.038 261.023ZM346.078 256.621C349.185 255.846 352.796 254.863 356.689 253.948C360.579 253.007 364.748 252.092 368.916 251.169C373.096 250.295 377.272 249.414 381.203 248.669C385.131 247.897 388.825 247.309 391.976 246.741C395.128 246.172 397.786 245.841 399.632 245.543C401.488 245.295 402.55 245.152 402.55 245.152C402.55 245.152 401.526 245.46 399.729 245.999C397.926 246.488 395.365 247.279 392.259 248.059C389.152 248.834 385.541 249.821 381.647 250.732C377.758 251.674 373.585 252.589 369.421 253.511C365.241 254.385 361.065 255.266 357.134 256.008C353.206 256.776 349.512 257.367 346.361 257.936C343.209 258.504 340.55 258.836 338.705 259.133C336.849 259.382 335.787 259.525 335.787 259.525C335.787 259.525 336.811 259.216 338.607 258.681C340.411 258.192 342.972 257.401 346.078 256.621ZM738.77 395.05C738.77 425.28 724.729 438.76 693.234 438.76H331.622C300.131 438.76 286.086 425.28 286.086 395.05C286.086 364.82 300.127 351.34 331.622 351.34H693.238C724.729 351.34 738.77 364.82 738.77 395.05ZM367.47 339.433C367.47 339.433 372.512 339.316 381.339 339.109C390.165 338.974 402.776 338.65 417.906 338.499C433.036 338.364 450.688 338.055 469.603 337.991C488.517 337.919 508.693 337.844 528.868 337.769C549.044 337.844 569.22 337.916 588.13 337.987C607.045 338.044 624.697 338.36 639.827 338.495C654.957 338.642 667.568 338.974 676.394 339.109C685.221 339.316 690.267 339.433 690.267 339.433C690.267 339.433 685.224 339.55 676.394 339.757C667.568 339.892 654.957 340.22 639.827 340.371C624.697 340.506 607.045 340.823 588.13 340.879C569.216 340.951 549.04 341.022 528.868 341.097C508.693 341.022 488.517 340.947 469.603 340.875C450.688 340.811 433.036 340.502 417.906 340.367C402.776 340.216 390.165 339.889 381.339 339.757C372.512 339.55 367.47 339.433 367.47 339.433ZM750.15 331.578C729.79 331.578 348.963 331.578 348.963 331.578C346.643 326.092 344.621 320.628 342.825 315.194C397.444 314.147 443.199 297.048 471.429 283.281C469.998 284.102 468.514 284.934 466.948 285.816C464.523 287.088 462 288.508 459.3 289.811C457.96 290.481 456.597 291.159 455.215 291.848C453.814 292.496 452.398 293.151 450.967 293.814C448.124 295.177 445.157 296.382 442.208 297.647C439.268 298.927 436.244 299.997 433.303 301.164C430.351 302.29 427.391 303.246 424.548 304.259C421.701 305.25 418.892 306.029 416.253 306.865C413.617 307.72 411.075 308.333 408.74 308.962C406.398 309.557 404.271 310.197 402.347 310.6C400.426 311.026 398.754 311.395 397.372 311.7C394.612 312.31 393.034 312.656 393.034 312.656C393.034 312.656 394.635 312.438 397.436 312.05C398.837 311.858 400.539 311.621 402.493 311.353C404.451 311.109 406.628 310.638 409.023 310.231C411.41 309.791 414.016 309.38 416.727 308.736C419.442 308.111 422.334 307.558 425.279 306.79C428.216 306.006 431.285 305.28 434.357 304.383C437.415 303.446 440.567 302.606 443.647 301.556C446.731 300.516 449.845 299.537 452.839 298.389C454.345 297.835 455.84 297.282 457.32 296.739C458.781 296.152 460.227 295.576 461.646 295.004C464.504 293.896 467.197 292.658 469.783 291.554C472.34 290.379 474.769 289.284 476.972 288.188C479.182 287.107 481.204 286.091 482.974 285.145C484.759 284.23 486.284 283.345 487.553 282.649C488.604 282.043 489.451 281.557 490.114 281.154H560.115C564.524 281.154 568.098 277.58 568.098 273.171C568.098 268.762 564.524 265.188 560.115 265.188H509.819L505.812 219.294L503.658 243.954V216.025C544.736 216.025 730.976 216.025 750.142 216.025C752.639 216.025 754.823 217.588 756.713 220.326C750.266 220.39 738.921 220.506 724.552 220.649C701.714 220.936 671.262 221.316 640.81 221.696C610.358 222.095 579.91 222.498 557.068 222.796C545.648 222.935 536.132 223.086 529.471 223.357C526.138 223.462 523.525 223.605 521.74 223.707C519.955 223.805 519.003 223.858 519.003 223.858C519.003 223.858 519.955 223.91 521.74 224.004C523.525 224.106 526.142 224.253 529.471 224.358C536.132 224.63 545.648 224.776 557.068 224.919C565.771 225.032 575.58 225.164 586.071 225.3V321.532C576.152 321.599 566.143 321.667 556.131 321.735C504.859 322.115 453.588 322.496 415.134 322.782C395.908 322.917 379.885 323.008 368.668 323.309C357.45 323.622 351.041 324.055 351.041 324.055C351.041 324.055 357.45 324.488 368.668 324.8C379.885 325.098 395.904 325.192 415.134 325.327C453.588 325.614 504.859 325.994 556.131 326.374C607.402 326.724 658.674 327.075 697.127 327.338C725.561 327.477 746.972 327.579 756.209 327.624C754.435 330.147 752.409 331.578 750.15 331.578ZM590.872 281.143H666.194C670.603 281.143 674.176 277.569 674.176 273.16C674.176 268.75 670.603 265.177 666.194 265.177H590.872V225.349C606.623 225.556 623.722 225.782 640.821 226.004C660.154 226.245 679.474 226.486 696.856 226.704V320.76C667.169 320.963 629.883 321.219 590.872 321.483V281.143ZM596.501 276.842C596.501 276.842 597.593 276.782 599.506 276.68C601.419 276.613 604.153 276.451 607.432 276.375C610.712 276.304 614.538 276.165 618.639 276.112C622.739 276.04 627.111 276.029 631.487 276.01C635.862 276.029 640.234 276.037 644.335 276.108C648.435 276.157 652.261 276.3 655.541 276.372C658.821 276.447 661.554 276.613 663.467 276.677C665.38 276.778 666.476 276.839 666.476 276.839C666.476 276.839 665.384 276.899 663.467 277.001C661.554 277.068 658.821 277.234 655.541 277.306C652.261 277.377 648.435 277.52 644.335 277.569C640.234 277.641 635.862 277.652 631.487 277.667C627.115 277.648 622.739 277.637 618.639 277.565C614.538 277.513 610.712 277.373 607.432 277.302C604.153 277.226 601.419 277.065 599.506 276.997C597.597 276.899 596.501 276.842 596.501 276.842ZM765.86 270.546L709.234 273.943L765.822 277.339C765.558 290.568 764.195 303.551 761.778 313.496L705.216 316.896L759.812 320.18C759.778 320.27 759.748 320.364 759.714 320.455C753.998 320.481 732.301 320.587 701.646 320.737V226.768C709.851 226.87 717.563 226.968 724.559 227.055C742.016 227.232 754.996 227.363 760.159 227.412C763.845 237.794 765.72 253.986 765.86 270.546Z" fill="#2B2B2B"/>
<path d="M336.092 356.216C295.839 356.216 292.642 373.044 292.642 395.05C292.642 417.052 295.843 433.88 336.092 433.88H688.768C729.022 433.88 732.219 417.052 732.219 395.05C732.219 373.048 729.018 356.216 688.768 356.216H336.092ZM303.946 395.05C303.946 381.11 315.288 369.768 329.228 369.768C339.685 369.768 348.68 376.151 352.521 385.225C352.216 384.627 351.904 384.036 351.557 383.482C349.867 380.767 347.735 378.617 345.551 377.039C343.36 375.458 341.123 374.422 339.075 373.85C337.06 373.187 335.215 373.067 333.754 372.988C332.233 372.988 331.122 373.112 330.38 373.262C329.627 373.402 329.228 373.477 329.228 373.477C329.228 373.477 329.619 373.594 330.354 373.808C331.107 373.955 332.154 374.4 333.377 374.844C334.62 375.405 336.062 376.132 337.538 377.156C339.033 378.143 340.494 379.532 341.842 381.129C342.302 381.675 342.731 382.27 343.141 382.887C339.752 379.012 334.786 376.553 329.231 376.553C319.019 376.553 310.739 384.834 310.739 395.046C310.739 400.431 313.055 405.262 316.726 408.64C316.255 408.308 315.755 408.003 315.325 407.645C313.725 406.305 312.336 404.844 311.349 403.349C310.325 401.873 309.598 400.431 309.033 399.192C308.585 397.93 308.145 396.902 307.994 396.168C307.775 395.434 307.663 395.042 307.663 395.042C307.663 395.042 307.587 395.445 307.444 396.198C307.29 396.963 307.169 398.092 307.165 399.572C307.245 401.033 307.361 402.878 308.024 404.893C308.593 406.945 309.632 409.182 311.21 411.373C313.062 413.968 315.785 416.453 319.215 418.245C310.242 414.367 303.946 405.435 303.946 395.05ZM333.705 409.189C331.517 409.991 329.107 410.168 327.002 409.957C322.484 409.513 318.869 407.092 316.764 404.407C315.687 403.074 314.93 401.692 314.478 400.401C313.974 399.128 313.793 397.949 313.661 397.004C313.589 396.04 313.582 395.295 313.638 394.786C313.672 394.282 313.691 394.014 313.691 394.014C313.691 394.014 313.736 394.282 313.819 394.779C313.872 395.276 314.083 395.987 314.309 396.872C314.61 397.746 315.002 398.781 315.63 399.866C316.229 400.965 317.106 402.076 318.176 403.127C319.26 404.166 320.593 405.107 322.118 405.815C323.651 406.52 325.394 406.934 327.145 407.032C329.036 407.137 330.836 406.806 332.609 406.169C334.364 405.518 335.994 404.464 337.335 403.119C338.683 401.783 339.734 400.148 340.385 398.394C340.72 397.527 340.946 396.59 341.093 395.761C341.202 395.377 341.195 394.779 341.247 394.297C341.304 393.92 341.244 393.408 341.251 392.971C341.153 391.171 340.739 389.432 340.035 387.903C339.323 386.378 338.385 385.041 337.342 383.96C336.292 382.891 335.181 382.013 334.082 381.415C332.997 380.782 331.962 380.391 331.088 380.093C330.214 379.867 329.499 379.656 328.991 379.604C328.493 379.521 328.226 379.476 328.226 379.476C328.226 379.476 328.493 379.457 328.998 379.427C329.499 379.37 330.237 379.374 331.216 379.449C332.165 379.581 333.343 379.762 334.612 380.266C335.904 380.718 337.286 381.475 338.619 382.552C339.952 383.618 341.247 385.022 342.23 386.766C343.224 388.494 343.955 390.542 344.166 392.745C344.192 393.314 344.286 393.811 344.248 394.451C344.218 394.986 344.267 395.419 344.166 396.051C344.038 397.264 343.812 398.386 343.401 399.489C342.625 401.7 341.345 403.771 339.681 405.476C337.986 407.137 335.912 408.417 333.705 409.189ZM362.628 395.05C362.628 381.283 354.25 369.437 342.328 364.334H683.157C671.236 369.437 662.858 381.283 662.858 395.05C662.858 404.546 666.845 413.124 673.228 419.209L358.38 423.19L562.344 425.765H342.332C354.253 420.659 362.628 408.817 362.628 395.05ZM711.207 396.044C711.079 397.256 710.853 398.378 710.443 399.482C709.667 401.692 708.387 403.763 706.722 405.469C705.016 407.137 702.942 408.414 700.735 409.189C698.547 409.991 696.137 410.168 694.032 409.957C689.514 409.513 685.899 407.092 683.794 404.407C682.717 403.074 681.96 401.692 681.512 400.401C681.007 399.128 680.827 397.949 680.695 397.004C680.623 396.04 680.616 395.295 680.672 394.786C680.706 394.282 680.725 394.014 680.725 394.014C680.725 394.014 680.77 394.282 680.853 394.779C680.906 395.276 681.117 395.987 681.342 396.872C681.644 397.746 682.035 398.781 682.664 399.866C683.263 400.965 684.14 402.076 685.21 403.127C686.294 404.166 687.627 405.107 689.152 405.815C690.685 406.52 692.428 406.934 694.179 407.032C696.069 407.137 697.869 406.806 699.643 406.169C701.398 405.518 703.028 404.464 704.369 403.119C705.717 401.783 706.767 400.148 707.419 398.394C707.754 397.527 707.98 396.59 708.127 395.761C708.236 395.377 708.228 394.779 708.281 394.297C708.338 393.92 708.277 393.408 708.285 392.971C708.187 391.171 707.773 389.432 707.065 387.903C706.353 386.378 705.416 385.041 704.372 383.96C703.322 382.891 702.211 382.013 701.112 381.415C700.027 380.782 698.988 380.391 698.118 380.093C697.244 379.867 696.529 379.656 696.024 379.604C695.527 379.521 695.26 379.476 695.26 379.476C695.26 379.476 695.527 379.457 696.032 379.427C696.533 379.37 697.274 379.374 698.25 379.449C699.199 379.581 700.377 379.762 701.646 380.266C702.938 380.718 704.32 381.475 705.653 382.552C706.986 383.618 708.281 385.022 709.264 386.766C710.258 388.494 710.989 390.542 711.199 392.745C711.226 393.314 711.32 393.811 711.282 394.451C711.26 394.978 711.305 395.415 711.207 396.044ZM719.551 385.225C719.246 384.627 718.934 384.036 718.587 383.482C716.897 380.767 714.765 378.617 712.581 377.039C710.39 375.458 708.153 374.422 706.105 373.85C704.09 373.187 702.245 373.067 700.784 372.988C699.263 372.988 698.152 373.112 697.41 373.262C696.657 373.402 696.258 373.477 696.258 373.477C696.258 373.477 696.649 373.594 697.384 373.808C698.137 373.955 699.184 374.4 700.407 374.844C701.646 375.405 703.088 376.132 704.568 377.156C706.063 378.143 707.524 379.532 708.872 381.129C709.332 381.675 709.761 382.27 710.171 382.887C706.782 379.012 701.816 376.553 696.262 376.553C686.049 376.553 677.769 384.834 677.769 395.046C677.769 400.431 680.085 405.262 683.756 408.64C683.285 408.308 682.785 408.003 682.355 407.649C680.755 406.309 679.366 404.848 678.379 403.353C677.355 401.877 676.628 400.434 676.063 399.196C675.615 397.934 675.175 396.906 675.024 396.172C674.806 395.438 674.693 395.046 674.693 395.046C674.693 395.046 674.617 395.449 674.474 396.202C674.32 396.966 674.203 398.096 674.196 399.576C674.275 401.037 674.391 402.882 675.054 404.897C675.623 406.949 676.662 409.186 678.24 411.377C680.092 413.972 682.815 416.457 686.245 418.249C677.272 414.363 670.976 405.428 670.976 395.046C670.976 381.106 682.318 369.764 696.258 369.764C706.715 369.768 715.711 376.151 719.551 385.225Z" fill="#2B2B2B"/>
<path d="M375.932 417.88H649.55C651.791 417.88 653.609 416.061 653.609 413.821V376.278C653.609 374.038 651.791 372.219 649.55 372.219H375.932C373.691 372.219 371.872 374.038 371.872 376.278V413.821C371.872 416.061 373.691 417.88 375.932 417.88ZM379.991 409.762V388.837H645.491V390.17L386.528 392.741L645.491 395.313V396.816L386.528 399.388L645.491 401.959V403.462L386.528 406.034L645.491 408.606V409.769H379.991V409.762Z" fill="#2B2B2B"/>
<path d="M61.9766 222.431C54.7355 199.615 45.0844 169.197 35.4296 138.779C30.6662 123.563 25.9593 108.324 21.9151 93.9696C19.9005 86.8113 18.0404 79.7999 16.7074 73.2366C16.3572 71.6362 16.0785 69.9869 15.8564 68.3188C15.6304 66.79 15.4836 65.0993 15.333 63.5366C15.043 60.3622 14.8999 57.2858 14.8208 54.3336C14.5083 42.5287 16.1915 32.6517 19.042 26.3633C20.4353 23.2115 21.9867 20.9522 23.1615 19.5138C24.3476 18.0829 25.1045 17.4126 25.1045 17.4126C25.1045 17.4126 24.2912 17.9887 22.9318 19.3029C21.58 20.6095 19.7386 22.7446 18.0667 25.8813C16.3647 28.9954 14.7983 33.0584 13.6573 37.8745C12.4862 42.6868 11.8724 48.2561 11.6503 54.3186C11.5448 57.3536 11.5976 60.5166 11.7406 63.7776C11.8348 65.4306 11.8875 67.0197 12.0833 68.797C12.2452 70.4388 12.4712 72.1371 12.7912 73.9031C13.9962 80.8279 15.7585 87.8393 17.6375 95.1256C19.5202 102.397 21.659 109.849 23.9033 117.395C26.1513 124.937 28.4445 132.596 30.9034 140.203C35.7195 155.442 40.803 170.587 45.6907 184.745C50.6047 198.892 55.3191 212.049 59.4763 223.285C63.6259 234.526 67.2559 243.826 69.7411 250.36C72.3167 256.859 73.7853 260.572 73.7853 260.572C73.7853 260.572 72.618 256.753 70.5808 250.066C68.5098 243.393 65.5388 233.867 61.9766 222.431Z" fill="#2B2B2B"/>
<path d="M283.153 82.8421C282.637 81.6145 281.974 80.2853 280.995 79.069C280.076 77.8038 278.871 76.629 277.47 75.6123C276.066 74.5994 274.458 73.7446 272.715 73.1609C271.833 72.9124 270.96 72.63 269.947 72.5132C268.836 72.3212 268.316 72.3513 267.224 72.2798C265.357 72.3325 263.485 72.5848 261.738 73.1685C259.995 73.7596 258.387 74.6069 256.982 75.6198C255.581 76.6365 254.384 77.8151 253.461 79.0766C252.479 80.2928 251.823 81.6258 251.304 82.8496C250.807 84.0923 250.528 85.2822 250.366 86.3327C250.212 87.3796 250.193 88.3096 250.234 89.0703C250.212 89.8234 250.4 90.3732 250.438 90.7648C250.502 91.1526 250.536 91.3597 250.536 91.3597C250.536 91.3597 250.592 91.1564 250.694 90.7798C250.81 90.4108 250.92 89.8196 251.176 89.1644C251.379 88.4979 251.718 87.726 252.11 86.8524C252.531 85.9939 253.081 85.0826 253.714 84.1412C254.403 83.2337 255.182 82.3036 256.116 81.4488C257.016 80.5602 258.142 79.8485 259.279 79.1443C260.439 78.4515 261.753 78.0147 263.075 77.6118C264.419 77.2653 265.816 77.0997 267.224 77.0733C267.767 77.1147 268.893 77.1072 269.39 77.2352C270.003 77.2992 270.696 77.4612 271.374 77.6155C272.692 78.026 274.01 78.459 275.166 79.1519C276.299 79.856 277.421 80.5715 278.325 81.4564C279.259 82.3074 280.035 83.2412 280.724 84.1487C281.356 85.0901 281.902 85.9976 282.328 86.8562C282.72 87.7222 283.062 88.5055 283.266 89.1833C283.714 90.5275 283.906 91.3635 283.906 91.3635C283.906 91.3635 283.94 91.1564 284.007 90.7723C284.045 90.3845 284.233 89.8008 284.211 89.059C284.256 88.3096 284.241 87.3909 284.083 86.3365C283.928 85.2746 283.65 84.0885 283.153 82.8421Z" fill="#2B2B2B"/>
<path d="M52.9956 90.9116C52.9956 90.9116 53.1726 93.5174 53.5981 98.0586C54.0725 102.592 54.6073 109.092 55.4997 116.852C56.3507 124.621 57.4502 133.665 58.7343 143.343C59.397 148.178 60.007 153.186 60.7677 158.251C61.5019 163.323 62.2475 168.474 62.9931 173.625C63.7914 178.769 64.5934 183.913 65.3804 188.974C66.1486 194.038 67.0297 199.005 67.8167 203.821C69.4321 213.446 71.04 222.419 72.5011 230.093C73.9244 237.775 75.3177 244.146 76.195 248.62C77.1214 253.086 77.7163 255.627 77.7163 255.627C77.7163 255.627 77.5393 253.021 77.1138 248.48C76.6394 243.947 76.1009 237.447 75.2085 229.686C74.3537 221.918 73.2542 212.873 71.9776 203.196C71.3149 198.361 70.7011 193.353 69.948 188.284C69.2137 183.212 68.4682 178.061 67.7264 172.91C66.9281 167.766 66.126 162.622 65.339 157.562C64.5784 152.493 63.6897 147.53 62.9065 142.71C61.2911 133.082 59.687 124.112 58.2222 116.438C56.7988 108.756 55.4018 102.385 54.5244 97.9117C53.5906 93.4534 52.9956 90.9116 52.9956 90.9116Z" fill="#2B2B2B"/>
<path d="M21.4252 40.4798C21.4252 42.4717 22.0126 44.3131 22.9766 45.8984C21.9524 44.8478 21.2068 43.7144 20.7211 42.773C20.4274 42.0877 20.1261 41.5191 20.0131 41.1086C19.8588 40.6982 19.7759 40.4798 19.7759 40.4798C19.7759 40.4798 19.7157 40.7057 19.6027 41.1312C19.486 41.5643 19.3692 42.2044 19.3203 43.0592C19.3165 43.8989 19.3278 44.9758 19.6667 46.1582C19.9454 47.3632 20.4951 48.6924 21.38 50.0028C23.1385 52.6274 26.343 55.139 30.76 55.7226C32.6616 56.0088 35.0602 55.8657 37.1689 55.139C39.3303 54.4499 41.3373 53.1922 42.9866 51.5806C44.5983 49.9275 45.8484 47.9205 46.5413 45.7591C46.9141 44.6821 47.1137 43.6278 47.2191 42.3625C47.2982 41.6735 47.2379 41.4174 47.253 40.9392C47.2756 40.2313 47.1626 39.8208 47.1137 39.2635C46.5375 35.0273 44.0184 31.6986 41.4014 29.9815C40.091 29.0966 38.7617 28.5468 37.5605 28.2644C36.3781 27.9255 35.305 27.918 34.4653 27.918C33.5841 27.9594 32.9553 28.0799 32.5373 28.1966C32.1118 28.3096 31.8859 28.3698 31.8859 28.3698C31.8859 28.3698 32.1043 28.4527 32.5147 28.6071C32.9364 28.72 33.5201 29.0213 34.1791 29.3112C35.128 29.8007 36.2727 30.5538 37.3346 31.5894C35.7418 30.6103 33.8891 30.0191 31.8859 30.0191C26.1095 30.0191 21.4252 34.6997 21.4252 40.4798ZM33.2528 33.3403C34.2017 33.4646 35.6476 33.8073 37.007 34.9143C38.3663 35.9724 39.5939 37.8364 39.8161 40.0844C39.8274 40.3706 39.8763 40.6266 39.8575 40.9505C39.8424 41.2216 39.865 41.4438 39.8161 41.7638C39.7521 42.3776 39.6353 42.9462 39.4282 43.5035C39.0366 44.6219 38.3852 45.6724 37.5417 46.5385C36.6794 47.382 35.625 48.0334 34.5067 48.425C33.3958 48.8317 32.1758 48.9221 31.1102 48.8129C28.8207 48.5907 26.9869 47.3632 25.9175 46C24.8104 44.6445 24.4715 43.1947 24.3435 42.2458C24.2983 41.7601 24.2983 41.3797 24.3284 41.1199C24.3435 40.8639 24.3548 40.7283 24.3548 40.7283C24.3548 40.7283 24.3774 40.8639 24.4188 41.1162C24.4452 41.3684 24.5544 41.7299 24.6636 42.1818C24.8104 42.6261 24.9987 43.1571 25.3301 43.7068C25.6388 44.2641 26.0869 44.8252 26.6292 45.3599C27.7099 46.4218 29.3818 47.2766 31.1855 47.3481C32.1457 47.4008 33.0607 47.2351 33.9644 46.9113C34.8569 46.5799 35.6853 46.0452 36.3668 45.3599C37.0522 44.6783 37.5869 43.8499 37.9182 42.9575C38.0915 42.5169 38.2044 42.0387 38.2797 41.617C38.3362 41.4212 38.3325 41.1162 38.3588 40.8714C38.3852 40.6794 38.355 40.4195 38.3588 40.1974C38.2835 38.3485 37.4325 36.7067 36.3668 35.6185C35.8321 35.08 35.2711 34.6281 34.7138 34.3231C34.164 33.9955 33.6331 33.8035 33.1887 33.6566C32.7444 33.5512 32.3791 33.4382 32.1231 33.4156C31.8708 33.3742 31.7352 33.3516 31.7352 33.3516C31.7352 33.3516 31.8708 33.3403 32.1269 33.3253C32.3829 33.2989 32.7595 33.2989 33.2528 33.3403Z" fill="#2B2B2B"/>
<path d="M50.1603 317.544C50.1301 318.44 50.0812 319.351 50.0925 320.263C50.2657 321.159 50.4389 322.055 50.6121 322.959C51.6326 326.476 53.4626 329.654 55.9893 332.211C56.6106 332.851 57.2395 333.532 57.8645 334.12L59.7473 335.633L61.743 337.219L63.8216 338.62C66.6269 340.419 69.5979 341.794 72.5012 342.961C75.4044 344.151 78.3264 344.931 81.0941 345.571C83.858 346.241 86.5202 346.595 88.964 346.874C93.863 347.404 97.9486 347.356 100.795 347.235C102.222 347.194 103.33 347.073 104.09 347.009C104.847 346.945 105.254 346.907 105.254 346.907C105.254 346.907 103.65 346.682 100.841 346.286C99.4473 346.09 97.7528 345.812 95.8324 345.477C93.9044 345.153 91.7543 344.682 89.4234 344.17C84.7843 343.063 79.4523 341.519 74.1429 339.083C71.4845 337.881 68.8787 336.39 66.3445 334.741L64.4806 333.438L62.7409 331.996L60.8845 330.452C60.3536 329.925 59.9167 329.39 59.4197 328.863C57.3637 326.875 55.8688 324.288 55.078 321.757C54.2383 319.182 54.5622 316.471 55.3454 313.936C55.5826 313.304 55.8199 312.679 56.0533 312.057C56.3922 311.47 56.716 310.879 57.0248 310.284C57.5897 309.068 58.5235 308.055 59.2239 306.955C60.0598 305.938 60.9259 304.971 61.7506 304.026C62.6468 303.129 63.5128 302.26 64.345 301.427C66.1148 299.857 67.7566 298.411 69.3042 297.225C70.818 295.994 72.2338 295.041 73.3484 294.171C75.668 292.548 76.9934 291.618 76.9934 291.618C76.9934 291.618 75.4835 292.202 72.8664 293.347C71.605 293.994 69.9895 294.668 68.28 295.696C67.4214 296.201 66.4838 296.713 65.5274 297.304C64.5935 297.937 63.6145 298.603 62.5903 299.3C61.6112 300.072 60.587 300.874 59.5289 301.706C58.5235 302.614 57.5181 303.6 56.4976 304.632C55.5902 305.788 54.4831 306.82 53.6735 308.187C53.248 308.853 52.8187 309.523 52.3857 310.205C52.0506 310.958 51.7154 311.719 51.3765 312.483C50.9924 313.232 50.8004 314.076 50.6046 314.931C50.4427 315.797 50.1264 316.633 50.1603 317.544Z" fill="#2B2B2B"/>
<path d="M335.135 102.042C332.04 102.042 329.529 104.554 329.529 107.649C329.529 110.745 332.04 113.256 335.135 113.256C338.231 113.256 340.742 110.745 340.742 107.649C340.742 104.55 338.231 102.042 335.135 102.042Z" fill="#2B2B2B"/>
<path d="M206.595 73.4019C203.5 73.4019 200.989 75.9135 200.989 79.0087C200.989 82.104 203.5 84.6156 206.595 84.6156C209.691 84.6156 212.202 82.104 212.202 79.0087C212.202 75.9135 209.691 73.4019 206.595 73.4019Z" fill="#2B2B2B"/>
<path d="M36.2089 77.4048C33.1137 77.4048 30.6021 79.9164 30.6021 83.0117C30.6021 86.1069 33.1137 88.6185 36.2089 88.6185C39.3042 88.6185 41.8158 86.1069 41.8158 83.0117C41.8158 79.9164 39.308 77.4048 36.2089 77.4048Z" fill="#2B2B2B"/>
<path d="M95.9568 289.095C97.1241 291.325 98.4345 293.949 99.9257 296.717C101.402 299.492 103.028 302.422 104.655 305.351C106.308 308.266 107.958 311.184 109.558 313.891C111.139 316.606 112.695 319.095 113.99 321.253C115.285 323.411 116.453 325.154 117.228 326.4C118.034 327.628 118.497 328.332 118.497 328.332C118.497 328.332 118.14 327.572 117.511 326.242C116.852 324.932 115.971 323.023 114.807 320.794C113.64 318.564 112.329 315.94 110.838 313.172C109.362 310.397 107.735 307.467 106.109 304.538C104.456 301.623 102.803 298.705 101.206 296.001C99.6245 293.286 98.0693 290.797 96.7739 288.64C95.4786 286.486 94.3113 284.739 93.5356 283.492C92.7298 282.265 92.2666 281.561 92.2666 281.561C92.2666 281.561 92.6243 282.321 93.2532 283.65C93.9121 284.961 94.7933 286.866 95.9568 289.095Z" fill="#2B2B2B"/>
<path d="M40.0835 103.85C40.0835 103.85 40.9458 110.462 42.6666 120.283C43.5101 125.197 44.5682 130.917 45.7694 137.028C46.387 140.082 46.9744 143.245 47.6597 146.442C48.3338 149.643 49.0153 152.892 49.7007 156.142C50.4236 159.384 51.1429 162.626 51.8545 165.819C52.5474 169.016 53.3231 172.138 54.0235 175.173C55.4544 181.236 56.8589 186.876 58.1242 191.7C60.6169 201.355 62.5712 207.73 62.5712 207.73C62.5712 207.73 61.7127 201.118 59.9919 191.297C59.1484 186.383 58.094 180.663 56.8891 174.552C56.2715 171.502 55.6879 168.335 54.995 165.138C54.321 161.937 53.6356 158.688 52.9541 155.438C52.2311 152.196 51.5119 148.954 50.8002 145.764C50.1036 142.571 49.3316 139.446 48.6275 136.411C47.1928 130.348 45.792 124.707 44.5268 119.884C42.034 110.225 40.0835 103.85 40.0835 103.85Z" fill="#2B2B2B"/>
<path d="M158.069 77.7627C155.23 77.7401 152.3 77.6648 149.321 77.6837C146.343 77.6874 143.315 77.6874 140.292 77.6912C137.264 77.7326 134.24 77.774 131.262 77.8117C128.283 77.838 125.354 77.9548 122.515 78.0188C116.84 78.1769 111.546 78.3916 107.008 78.6401C97.9332 79.0995 91.8857 79.6982 91.8857 79.6982C91.8857 79.6982 97.9407 80.2103 107.023 80.5417C111.564 80.7224 116.863 80.8618 122.537 80.9408C125.373 80.9634 128.306 81.035 131.284 81.0237C134.263 81.0199 137.291 81.0199 140.314 81.0162C143.342 80.9747 146.365 80.9371 149.344 80.8957C152.323 80.8731 155.252 80.7526 158.091 80.6923C163.766 80.5342 169.06 80.3195 173.598 80.071C182.673 79.6116 188.72 79.0054 188.72 79.0054C188.72 79.0054 182.665 78.4895 173.583 78.1581C169.041 77.9811 163.743 77.838 158.069 77.7627Z" fill="#2B2B2B"/>
<path d="M470.8 178.724C470.544 174.036 470.111 169.363 469.561 164.697C469.294 162.362 468.989 160.032 468.669 157.701C468.315 155.366 467.942 153.065 467.49 150.701L467.129 148.803L465.137 148.995C460.275 149.462 455.44 149.917 450.613 150.524L436.142 152.354C426.517 153.736 416.896 155.159 407.332 156.91C402.542 157.757 397.764 158.638 393 159.617L385.857 161.101C383.477 161.59 381.105 162.121 378.736 162.679L371.631 164.328L364.559 166.128C359.841 167.307 355.176 168.7 350.51 170.063L357.721 168.963L364.917 167.837L379.294 165.597L408.044 161.282L422.424 159.199L436.812 157.185L451.204 155.208L463.653 153.566C463.984 155.159 464.304 156.771 464.609 158.375C465.046 160.649 465.468 162.931 465.852 165.217C466.244 167.502 466.598 169.799 466.944 172.093C467.287 174.39 467.641 176.686 467.938 178.991C468.266 181.292 468.51 183.604 468.804 185.912C469.068 188.224 469.354 190.536 469.561 192.856C470.054 197.487 470.408 202.138 470.777 206.811C470.89 204.472 471.09 202.141 471.135 199.803C471.191 197.461 471.274 195.115 471.24 192.773C471.248 190.427 471.18 188.089 471.135 185.743C471.056 183.408 470.951 181.066 470.8 178.724Z" fill="#2B2B2B"/>
<path d="M64.1267 305.536C64.1267 305.536 57.3601 311.158 57.6726 318.131C58.1207 328.114 73.3899 335.2 73.3899 335.2C73.3899 335.2 64.1267 328.852 64.1267 305.536Z" fill="#2B2B2B"/>
</svg>
