<svg width="20" height="22" viewBox="0 0 20 22" fill="none" xmlns="http://www.w3.org/2000/svg">
<path d="M18.3269 12.1013C17.7951 16.489 14.6602 16.7662 14.0826 16.9561C13.8364 17.0369 11.5499 17.6191 8.67594 17.4266L5.56043 20.8794L5.5572 16.9006L5.53265 16.8942C1.34717 15.7041 1.48799 11.242 1.53517 8.89987C1.58235 6.55774 2.01199 4.63878 3.28936 3.34853C5.58235 1.22146 10.3074 1.53938 10.3074 1.53938C14.2977 1.55746 16.2103 2.787 16.6535 3.19922C18.1253 4.49018 18.8754 7.5779 18.3269 12.1013ZM17.7422 2.10404C17.2182 1.61045 15.1002 0.0365313 10.383 0.0151615C10.383 0.0151615 4.8206 -0.328564 2.10887 2.21839C0.599555 3.76393 0.0684862 6.0247 0.0122671 8.82946C-0.0432946 11.6342 -0.116336 16.8884 4.83161 18.3137L4.83616 18.315L4.83358 20.4891C4.83358 20.4891 4.80257 21.3698 5.36794 21.5487C6.05281 21.7664 6.45468 21.0971 7.10854 20.376C7.46777 19.9806 7.96268 19.3991 8.33616 18.9546C11.7205 19.2448 14.323 18.5792 14.6183 18.481C15.3019 18.2536 19.1682 17.7471 19.7969 12.4929C20.4455 7.07522 19.4821 3.64957 17.7422 2.10404Z" fill="white"/>
<path d="M14.7241 12.7562C14.7222 12.7543 14.0897 12.2148 13.7808 11.9822C13.4894 11.7632 13.0249 11.4686 12.7651 11.3187C12.2993 11.0531 11.8231 11.2198 11.6267 11.4808L11.2183 12.0061C11.009 12.2723 10.6866 12.2277 10.6019 12.2103C9.99844 12.0591 9.35691 11.6818 8.70042 11.046C8.03625 10.4044 7.63433 9.73444 7.49094 9.03789L7.48058 8.99197C7.44184 8.70572 7.48962 8.57328 7.60655 8.37822L7.62852 8.36013C7.90442 8.10359 8.41548 7.79153 8.48398 7.49433C8.68491 6.97805 7.81269 5.90167 7.68798 5.71175C7.68798 5.71175 7.05351 4.87181 6.82803 4.71153C6.58441 4.50868 6.2071 4.39301 5.82655 4.62693L5.80715 4.64112C4.71395 5.3809 4.31789 5.80611 4.42579 6.44057L4.482 6.6958C5.03636 8.44353 6.10699 10.3069 7.70348 11.9661C9.28255 13.6046 10.9909 14.5861 12.6747 15.2658C13.1121 15.4111 13.5656 15.2858 14.0309 14.8885L14.0387 14.8826C14.3953 14.5492 14.6777 14.1926 14.8883 13.8107L14.8902 13.803C15.095 13.3991 15.0258 13.0166 14.7241 12.7562Z" fill="white"/>
<path d="M12.1031 8.92905C12.0365 8.92905 11.9809 8.87546 11.9777 8.80697C11.9558 8.35404 11.8336 8.00708 11.6146 7.77513C11.3969 7.5451 11.0706 7.41655 10.6455 7.39327C10.5763 7.38938 10.5227 7.32861 10.5266 7.2576C10.5305 7.18653 10.5892 7.13228 10.659 7.13551C11.1501 7.16264 11.5319 7.31771 11.7955 7.59617C12.0578 7.87398 12.2038 8.27656 12.229 8.79404C12.2323 8.86511 12.1786 8.92521 12.1095 8.92905H12.1031Z" fill="white"/>
<path d="M13.349 9.35658H13.3457C13.2766 9.35466 13.2217 9.29587 13.223 9.2248C13.2424 8.35516 12.9885 7.61987 12.4677 7.0384C12.2086 6.74826 11.894 6.51889 11.5315 6.35675C11.1684 6.19456 10.7452 6.09445 10.2748 6.05889C10.2057 6.05369 10.1534 5.99171 10.1586 5.92125C10.1637 5.85018 10.2238 5.79654 10.293 5.80174C11.297 5.87736 12.0911 6.23462 12.6539 6.86453C13.2192 7.49582 13.4957 8.29247 13.4751 9.23061C13.473 9.30097 13.4168 9.35658 13.349 9.35658Z" fill="white"/>
<path d="M14.6243 9.86729C14.5552 9.86729 14.4989 9.81047 14.4983 9.73934C14.4925 8.97052 14.3769 8.27529 14.1533 7.67184C13.931 7.07288 13.5957 6.5463 13.1564 6.10696C12.7164 5.66822 12.2162 5.33353 11.6696 5.11195C11.1217 4.8897 10.5111 4.77469 9.8547 4.77014C9.78555 4.76948 9.72933 4.71134 9.72999 4.64027C9.73064 4.56921 9.78681 4.51233 9.85596 4.51233H9.85662C11.2348 4.52269 12.4036 4.99693 13.3321 5.92279C13.7979 6.388 14.1533 6.94559 14.3885 7.58071C14.6223 8.21195 14.7439 8.93814 14.7503 9.73737C14.7509 9.80849 14.6947 9.86658 14.6256 9.86723H14.6243V9.86729Z" fill="white"/>
</svg>
