<svg width="38" height="43" viewBox="0 0 38 43" fill="none" xmlns="http://www.w3.org/2000/svg">
<path d="M0.0944062 43C0.0944062 39.5277 -0.160837 36.1157 0.16806 32.7611C0.481286 29.5652 2.50854 27.2768 5.50132 26.0392C7.66707 25.1436 9.92507 24.4719 12.1016 23.5998C12.9702 23.2519 13.7304 22.6335 14.6695 22.0589C14.238 21.5814 14.0025 21.3265 13.7731 21.0662C11.5073 18.4957 10.1887 15.5045 9.73212 12.1105C9.65201 11.515 9.28687 10.9611 9.18266 10.3652C8.74641 7.87052 8.90175 5.40213 9.96739 3.08947C10.7654 1.35821 12.3155 0.363682 14.15 0.234788C16.9682 0.0365484 19.8304 -0.129173 22.63 0.142328C26.3213 0.500412 27.9776 2.4828 28.3435 6.18804C28.5231 8.00706 28.6597 9.77338 27.8469 11.5534C27.3474 12.6471 27.4205 13.9869 27.0593 15.1621C26.2822 17.6902 24.9766 19.9343 23.0324 21.7941C23.5182 22.7287 24.2857 23.226 25.1997 23.5545C27.3772 24.3367 29.5653 25.0917 31.7249 25.9209C35.3256 27.3034 37.534 30.5554 37.5424 34.4058C37.5487 37.2419 37.5436 40.0779 37.5436 43C25.0132 43 12.5414 43 0.0944062 43ZM15.3081 41.6505C15.4162 40.7195 15.4871 39.8145 15.6358 38.9224C15.7528 38.2213 15.5498 37.7412 15.0656 37.1966C12.798 34.6455 13.9355 30.4804 17.1592 29.5497C17.3062 30.1501 17.4589 30.7468 17.5978 31.3468C17.7464 31.9883 17.8258 32.3215 17.8832 32.5666C18.4911 32.5666 18.4711 32.5179 19.4909 32.5666C19.7571 31.5443 20.0901 30.5376 20.3665 29.4764C23.5752 30.8324 24.6769 34.4361 22.6044 36.9269C21.8829 37.7939 21.7428 38.5827 21.9107 39.5729C21.9814 39.9906 22.0596 40.4141 22.0592 40.8348C22.0586 41.494 22.3144 41.7383 22.9965 41.7216C24.7247 41.6791 26.4547 41.7103 28.1838 41.7058C28.4945 41.705 28.805 41.675 29.2209 41.6529C29.2209 39.5283 29.2209 37.5202 29.2209 35.5159C29.7104 35.5159 30.0846 35.5159 30.5727 35.5159C30.5727 37.587 30.5727 39.5958 30.5727 41.6239C32.4903 41.6239 34.2907 41.6239 36.1565 41.6239C36.1565 39.2605 36.1585 36.9811 36.1561 34.7016C36.1524 30.9454 34.3193 28.2939 30.8052 27.0014C29.1541 26.3941 27.4551 25.905 25.84 25.2166C24.801 24.7739 24.1387 24.9359 23.5875 25.8852C23.0269 26.8506 22.1993 27.2124 21.059 27.1123C19.8607 27.0073 18.6374 26.9849 17.4417 27.0995C15.7226 27.2643 14.3089 26.9659 13.3909 25.3263C13.2626 25.0972 12.6996 24.9003 12.4399 24.9886C10.1887 25.7524 7.91056 26.4705 5.73972 27.4276C3.31364 28.4972 1.82606 30.4735 1.47836 33.1211C1.27581 34.6634 1.3524 36.2436 1.32752 37.807C1.30735 39.0691 1.32341 40.3316 1.32341 41.6501C3.22235 41.6501 5.00083 41.6501 6.93268 41.6501C6.93268 39.5837 6.93268 37.5492 6.93268 35.5151C7.46099 35.5151 7.83357 35.5151 8.31683 35.5151C8.31683 37.5835 8.31683 39.5898 8.31683 41.6507C10.6947 41.6505 12.9606 41.6505 15.3081 41.6505ZM11.1788 12.5391C11.8606 15.7834 13.0795 18.9196 15.9242 21.1576C17.772 22.6115 19.7032 22.5667 21.5895 21.148C23.3092 19.8546 24.4353 18.1035 25.211 16.136C25.6906 14.9196 26.0236 13.6455 26.339 12.659C21.2124 10.3795 16.246 10.6014 11.1788 12.5391ZM27.1919 7.80784C26.9985 6.64309 26.8867 5.64915 26.6606 4.68185C26.2906 3.0977 25.2259 2.10729 23.6723 1.77839C20.4425 1.09435 17.1865 1.13509 13.9478 1.73941C12.7394 1.96488 11.6889 2.61229 11.2448 3.78253C10.7825 5.00095 10.5615 6.31086 10.1648 7.85387C15.9927 5.88872 21.4997 5.88382 27.1919 7.80784ZM21.2921 31.9015C21.012 32.6602 20.9585 33.4655 20.4703 33.7907C19.9461 34.1398 18.9526 34.0845 18.2176 34.0845C17.0423 34.0845 16.8464 33.8886 16.4546 32.7133C16.4299 32.5135 16.3212 32.1871 16.2264 31.8902C14.8472 33.1486 14.9386 35.3517 16.4777 36.636C17.1134 37.1664 17.1967 37.6626 17.0787 38.3956C16.9112 39.437 16.8584 40.4965 16.7541 41.5747C18.1561 41.5747 19.4037 41.5747 20.7462 41.5747C20.63 40.4209 20.5771 39.3479 20.3969 38.2967C20.2731 37.5751 20.4296 37.1265 21.0116 36.6371C22.5346 35.3562 22.6353 33.1754 21.2921 31.9015ZM25.65 10.8527C26.4426 10.9082 26.812 10.5048 26.9582 9.79591C27.1153 9.03312 26.4767 9.05506 26.0626 8.92362C21.1679 7.36866 16.2658 7.36415 11.3711 8.92205C10.9361 9.06055 10.2653 9.02646 10.4759 9.87231C10.674 10.668 11.1353 10.9573 11.9014 10.8073C12.3784 10.7138 12.8585 10.61 13.3169 10.4521C16.8613 9.23058 20.4061 9.26329 23.9617 10.3996C24.516 10.5771 25.0868 10.7031 25.65 10.8527ZM23.153 24.087C22.696 23.6374 22.2396 23.1886 21.7589 22.7159C19.7554 23.9254 17.7069 23.8576 15.7814 22.8215C15.236 23.3058 14.7573 23.731 14.3 24.1369C14.9533 25.2958 15.8207 25.8735 17.181 25.7025C18.1424 25.5816 19.1416 25.5898 20.1056 25.7003C21.4978 25.8599 22.5113 25.4284 23.153 24.087Z" fill="url(#paint0_linear)"/>
<defs>
<linearGradient id="paint0_linear" x1="0" y1="0" x2="39.0726" y2="1.43553" gradientUnits="userSpaceOnUse">
<stop stop-color="#F89017"/>
<stop offset="1" stop-color="#F3B514"/>
</linearGradient>
</defs>
</svg>
