<svg width="243" height="243" viewBox="0 0 243 243" fill="none" xmlns="http://www.w3.org/2000/svg">
<path d="M19.5289 98.6534C20.4874 96.7687 22.6163 96.2779 24.5597 95.9042C28.1601 95.2111 31.9313 95.6204 35.5568 95.8146C40.0079 96.0451 44.4578 96.2827 48.9077 96.5204C51.6035 87.6132 56.188 79.4849 62.482 72.5363C62.4521 72.5048 62.4149 72.4736 62.3878 72.4251C59.7953 68.9374 57.2098 65.4508 54.6173 61.9544C52.9998 59.775 49.7359 56.8681 49.4826 54.0003C49.2626 51.5533 51.4351 48.635 52.6303 46.686C54.2413 44.0707 56.1248 41.6318 58.2581 39.4169C61.7111 35.846 65.5872 32.0794 70.4501 35.3686C73.7364 37.5768 76.5072 41.0343 79.3402 43.7733C82.4174 46.753 85.4957 49.7343 88.5642 52.7125C89.078 53.2156 88.9445 53.9031 88.5641 54.3069C96.3735 50.135 104.454 46.4694 113.253 45.43C113.96 41.1282 114.776 36.8462 115.753 32.5985C116.55 29.101 117.016 24.6896 118.665 21.4836C119.672 19.5205 120.684 19.1189 122.813 18.8277C126.718 18.2885 130.912 18.5448 134.853 18.4106C140.302 18.2195 144.376 17.8043 145.418 24.0215C146.815 32.248 146.973 40.8804 147.729 49.1986C147.743 49.3227 147.733 49.434 147.708 49.5324C156.197 52.0287 163.403 56.4401 170.359 61.807C175.659 56.8413 181.574 51.4144 188.14 48.1963C194.421 45.1195 198.275 50.4403 202.015 54.8928C205.095 58.5756 210.555 63.2049 207.42 68.1363C202.889 75.2777 196.776 81.7273 190.742 87.602C190.274 88.0601 189.664 87.9837 189.247 87.6803C193.788 96.3322 197.013 105.534 198.855 115.126C206.724 116.261 215.164 116.79 222.766 118.895C227.743 120.27 226.088 128.658 225.808 132.529C225.484 137.076 225.403 145.228 219.934 146.872C216.592 147.877 212.053 146.992 208.589 146.919C204.168 146.824 199.735 146.736 195.312 146.65C192.147 154.585 188.092 162.084 183.21 169.097C183.224 169.117 183.24 169.128 183.253 169.147C187.06 175.977 191.946 182.884 194.922 190.119C197.131 195.476 190.596 199.852 187.004 202.808C182.991 206.11 177.125 211.805 171.635 208.74C168.473 206.977 165.952 203.735 163.524 201.115C161.19 198.608 158.948 196.02 156.748 193.386C148.982 198.327 140.009 200.811 130.792 200.628C128.759 207.809 126.78 215.034 124.394 222.094C122.263 228.409 115.653 226.134 110.266 225.59C106.663 225.218 102.502 225.218 99.0382 224.123C97.292 223.578 96.2932 222.716 96.0322 220.869C95.5202 217.169 96.9243 212.49 97.3478 208.792C97.855 204.387 98.3637 199.983 98.8609 195.586C89.7502 193.175 81.5561 188.407 74.8993 181.669C68.3525 186.008 61.6357 190.581 54.5718 193.984C48.6199 196.846 44.0639 190.402 40.5026 186.379C37.044 182.468 32.2597 177.476 35.6654 172.078C39.6012 165.85 46.0034 160.463 51.6229 155.559C46.5594 147.287 44.1733 137.837 44.678 128.153C37.3161 126.42 29.8776 124.837 22.6139 122.781C15.8896 120.868 17.3356 115.471 17.9286 109.582C18.257 106.309 18.0309 101.634 19.5289 98.6534ZM69.1644 93.081C71.3023 95.0444 73.6227 96.7172 76.1652 98.0989C78.9624 92.7087 82.6346 87.7578 87.0577 83.548C84.83 81.4301 82.9665 79.0128 81.4937 76.3224C76.4965 81.1015 72.3746 86.7805 69.1644 93.081ZM96.1758 66.1736C91.8227 68.2435 87.8542 70.8342 84.2669 73.8442C85.6542 76.6067 87.5038 79.0451 89.7675 81.1412C90.1495 80.8241 90.5158 80.4869 90.9077 80.1803C94.5064 77.3644 98.4295 75.1473 102.546 73.4982C102.264 70.3544 101.544 67.3096 100.337 64.4148C98.9372 64.949 97.5454 65.5228 96.1758 66.1736ZM124.094 60.5661C117.249 60.2917 110.356 61.1608 103.721 63.2378C104.906 66.1231 105.698 69.1183 106.063 72.2395C111.58 70.5037 117.373 69.7368 123.161 69.908C123.472 66.7935 123.783 63.6806 124.094 60.5661ZM127.696 60.812C127.385 63.9178 127.075 67.0249 126.765 70.1324C132.576 70.6946 138.32 72.1917 143.713 74.5932C144.481 71.528 145.758 68.6657 147.511 66.0713C141.222 63.2533 134.512 61.482 127.696 60.812ZM165.218 77.9165C160.889 73.799 156.016 70.3715 150.804 67.6674C148.989 70.2307 147.73 73.0785 147.045 76.215C147.879 76.6592 148.718 77.0982 149.53 77.5871C153.371 79.8975 156.794 82.6552 159.79 85.7488C162.615 84.1917 165.441 82.6361 168.266 81.0775C167.29 79.992 166.284 78.9292 165.218 77.9165ZM170.627 83.8793C167.839 85.4163 165.05 86.9517 162.262 88.4887C166.626 93.7137 169.867 99.7426 171.859 106.215C174.752 104.941 177.646 103.667 180.541 102.393C178.331 95.7205 175.006 89.4296 170.627 83.8793ZM181.585 105.879C178.66 107.167 175.734 108.455 172.809 109.743C174.09 115.259 174.512 121.027 173.952 126.851C177.184 127.12 180.381 127.592 183.555 128.262C184.228 120.751 183.535 113.141 181.585 105.879ZM178.737 147.287C180.897 142.346 182.352 137.15 183.133 131.865C179.94 131.184 176.726 130.701 173.478 130.425C173.444 130.633 173.428 130.842 173.392 131.05C172.513 136.064 170.961 140.753 168.85 145.054C171.552 147.019 174.255 148.983 176.957 150.948C177.587 149.75 178.191 148.536 178.737 147.287ZM175.169 154.11C172.489 152.162 169.81 150.213 167.131 148.266C165.306 151.397 163.171 154.292 160.768 156.922C162.373 159.949 164.069 162.925 165.827 165.865C169.4 162.357 172.547 158.415 175.169 154.11ZM163.137 168.38C161.406 165.492 159.741 162.567 158.146 159.602C154.351 163.183 150.01 166.155 145.283 168.444C146.655 171.469 148.027 174.494 149.401 177.522C154.347 175.072 158.982 172.004 163.137 168.38ZM127.182 183.891C133.72 183.269 140.119 181.602 146.123 179.036C144.743 175.993 143.363 172.952 141.982 169.909C137.416 171.743 132.54 172.959 127.467 173.478C127.373 176.949 127.278 180.421 127.182 183.891ZM122.508 184.462C122.661 184.28 122.889 184.162 123.201 184.153C123.329 184.149 123.459 184.138 123.587 184.133C123.682 180.661 123.779 177.189 123.874 173.716C122.485 173.767 121.087 173.782 119.676 173.726C119.136 173.959 118.52 174.08 117.814 174.007C115.324 173.75 112.87 173.287 110.46 172.672C109.037 175.573 107.729 178.52 106.537 181.518C111.727 183.139 117.091 184.167 122.508 184.462ZM118.249 166.779C118.715 166.609 119.24 166.524 119.818 166.558C147.061 168.134 168.6 145.467 166.894 118.551C165.375 94.5751 144.726 76.684 120.919 76.9861C97.8371 77.2801 78.9954 96.7099 77.2996 119.43C75.5168 143.336 95.1702 163.995 118.249 166.779ZM103.115 180.346C104.276 177.395 105.55 174.496 106.934 171.643C102.583 170.204 98.4194 168.225 94.5691 165.752C93.1515 168.542 91.4356 171.144 89.4157 173.522C93.7114 176.295 98.3242 178.57 103.115 180.346ZM86.4052 171.471C88.4494 169.097 90.1678 166.514 91.5638 163.687C87.1261 160.407 83.1722 156.476 79.9081 152.029C77.6741 154.337 75.357 156.555 72.9478 158.675C76.7957 163.531 81.3567 167.829 86.4052 171.471ZM70.788 155.77C73.2331 153.611 75.5774 151.345 77.8332 148.978C75.7416 145.668 74.007 142.129 72.7178 138.393C69.6178 139.537 66.5969 140.873 63.6718 142.416C65.4691 147.177 67.8847 151.645 70.788 155.77ZM62.0326 137.405C62.1781 137.934 62.3441 138.455 62.5056 138.977C65.4729 137.445 68.5149 136.096 71.6489 134.941C70.2279 129.567 69.7982 124.063 70.228 118.638C67.1454 118.547 64.0617 118.454 60.9791 118.363C60.1386 124.746 60.3219 131.198 62.0326 137.405ZM70.638 115.063C71.345 110.352 72.687 105.737 74.6062 101.363C72.0651 99.9987 69.6979 98.3693 67.5284 96.471C64.9087 102.236 62.7647 108.45 61.5554 114.793C64.5824 114.884 67.6094 114.974 70.638 115.063Z" fill="#F8F8F8"/>
</svg>
