<svg width="396" height="664" viewBox="0 0 396 664" fill="none" xmlns="http://www.w3.org/2000/svg">
<g clip-path="url(#clip0)">
<path d="M41.2299 326.878C41.6762 325.334 43.1958 324.664 44.5943 324.106C47.1844 323.074 50.0588 322.841 52.7931 322.469C56.1498 322.005 59.5062 321.547 62.8634 321.089C63.6045 314.053 65.8676 307.328 69.5739 301.24C69.5476 301.221 69.5146 301.202 69.4879 301.171C67.0526 298.937 64.625 296.702 62.1901 294.462C60.6706 293.065 57.8184 291.36 57.2199 289.255C56.7056 287.46 57.9114 284.969 58.5258 283.343C59.3553 281.16 60.4136 279.071 61.6901 277.111C63.7587 273.952 66.1151 270.585 70.216 272.347C72.9854 273.527 75.5485 275.713 78.055 277.354C80.779 279.139 83.503 280.925 86.2202 282.711C86.6758 283.013 86.6745 283.546 86.4476 283.903C91.6843 279.672 97.1943 275.781 103.617 273.747C103.531 270.434 103.529 267.119 103.651 263.808C103.747 261.083 103.464 257.722 104.238 255.092C104.71 253.482 105.409 253.038 106.957 252.516C109.795 251.557 112.965 251.148 115.888 250.486C119.93 249.565 122.913 248.673 124.579 253.167C126.797 259.111 128.148 265.535 129.901 271.639C129.929 271.73 129.937 271.814 129.933 271.892C136.628 272.544 142.64 274.809 148.601 277.823C151.85 273.357 155.492 268.461 159.935 265.119C164.186 261.925 167.824 265.347 171.252 268.138C174.079 270.448 178.818 273.125 177.18 277.256C174.817 283.236 171.173 288.925 167.506 294.174C167.222 294.583 166.755 294.613 166.4 294.446C171.027 300.258 174.75 306.67 177.496 313.57C183.534 313.294 189.912 312.483 195.89 312.969C199.803 313.285 199.764 319.786 200.109 322.716C200.516 326.158 201.62 332.256 197.77 334.266C195.418 335.495 191.902 335.481 189.305 335.922C185.99 336.483 182.668 337.05 179.353 337.618C178.123 343.995 176.166 350.174 173.522 356.108C173.535 356.12 173.548 356.127 173.561 356.14C177.38 360.696 182.015 365.157 185.272 370.135C187.687 373.819 183.431 378.021 181.17 380.743C178.644 383.782 175.078 388.872 170.54 387.367C167.928 386.502 165.581 384.441 163.395 382.832C161.293 381.292 159.25 379.681 157.231 378.028C152.137 382.827 145.791 385.964 138.882 387.144C138.389 392.797 137.942 398.474 137.169 404.088C136.48 409.108 131.219 408.353 127.119 408.717C124.375 408.953 121.268 409.548 118.524 409.225C117.143 409.067 116.274 408.566 115.815 407.225C114.905 404.534 115.285 400.84 115.072 398.018C114.823 394.657 114.573 391.295 114.316 387.94C107.168 387.442 100.369 385.051 94.4359 380.97C90.1666 385.147 85.8052 389.519 81.015 393.07C76.9795 396.058 72.6567 391.897 69.4227 389.401C66.2816 386.975 61.9956 383.93 63.768 379.412C65.8167 374.199 69.8291 369.262 73.3244 364.797C68.3612 359.344 65.2298 352.627 64.2232 345.324C58.4785 345.08 52.6976 344.961 46.9796 344.464C41.6848 343.996 41.9941 339.758 41.5963 335.275C41.3731 332.777 40.5366 329.318 41.2299 326.878ZM147.063 290.583C130.942 280.222 109.389 280.256 93.8275 291.676C85.4038 297.855 79.8473 306.7 77.1772 316.743C74.3506 327.374 73.5166 339.625 78.5045 349.745C87.7789 368.546 109.942 379.014 130.387 376.248C130.474 376.09 130.627 375.97 130.86 375.919C148.356 372.035 163.068 358.061 167.066 340.456C171.319 321.72 163.296 301.014 147.063 290.583Z" fill="#F8F8F8"/>
<path d="M98.2766 336.861C99.3637 336.131 100.451 335.4 101.538 334.671C101.116 332.367 101.065 330.038 101.358 327.768C100.125 327.501 98.7737 327.126 98.8317 325.656C98.8696 324.685 99.4127 323.537 99.6869 322.615C100.056 321.376 100.425 320.139 100.794 318.901C100.941 318.409 101.511 317.942 102.055 318.147C102.851 318.447 103.55 318.835 104.182 319.329C105.5 317.015 107.21 314.932 109.269 313.229C108.615 312.586 108.379 311.558 108.699 310.634C109.345 308.77 111.58 308.792 112.549 307.328C112.902 306.796 113.679 306.568 114.176 307.082C114.894 307.823 115.527 308.628 116.118 309.468C116.377 309.384 116.635 309.301 116.899 309.227C119.289 308.563 121.694 308.372 124.026 308.582C123.996 307.649 124.118 306.727 124.46 305.821C124.674 305.254 125.359 304.75 125.971 305.166C126.71 305.667 127.514 305.891 128.399 305.692C129.132 305.527 129.942 306.133 129.705 306.942C129.42 307.915 129.357 308.862 129.472 309.852C131.595 310.669 133.582 311.828 135.339 313.289C135.916 312.157 137.445 311.778 138.621 312.368C139.599 312.859 140.289 313.813 140.995 314.61C141.954 315.694 142.913 316.777 143.872 317.861C144.309 318.354 144.306 319.124 143.698 319.496C143.226 319.785 142.753 320.075 142.281 320.364C142.108 320.614 141.828 320.786 141.525 320.828C141.408 320.899 141.292 320.971 141.175 321.042C141.524 321.839 141.832 322.661 142.085 323.514C142.556 325.108 142.806 326.71 142.86 328.294C143.356 328.124 143.853 327.954 144.35 327.784C144.967 327.573 145.706 328.096 145.687 328.757C145.628 330.762 145.568 332.767 145.51 334.772C145.486 335.567 144.689 336.074 143.966 335.704C143.297 335.361 142.595 335.15 141.874 335.058C140.534 339.159 137.912 342.826 134.435 345.48C135.445 346.837 136.453 348.194 137.463 349.55C137.901 350.14 137.438 350.856 136.876 351.09C135.339 351.729 133.802 352.37 132.265 353.01C131.859 353.179 131.29 352.929 131.082 352.559C130.423 351.393 129.707 350.267 128.952 349.163C125.571 350.584 122.005 351.054 118.592 350.68C118.376 351.651 118.004 352.556 117.406 353.404C117.05 353.909 116.565 354.036 115.994 353.808C114.382 353.167 112.937 352.289 111.588 351.2C111.264 350.939 111.15 350.294 111.397 349.945C111.655 349.581 111.879 349.202 112.106 348.825C109.394 347.515 106.977 345.589 105.114 343.074C104.717 343.367 104.32 343.66 103.924 343.953C103.564 344.22 102.967 344.123 102.662 343.819C100.938 342.1 99.3675 340.256 97.933 338.29C97.5951 337.824 97.8403 337.154 98.2766 336.861ZM108.552 320.122C106.765 322.813 105.698 326.022 105.474 329.419C107.625 329.068 109.776 328.717 111.928 328.366C112.073 326.628 112.624 324.901 113.533 323.348C111.805 322.375 110.147 321.298 108.552 320.122ZM119.539 312.885C119.42 312.907 119.301 312.914 119.181 312.939C115.292 313.748 112.12 315.753 109.8 318.477C111.377 319.642 113.028 320.695 114.744 321.647C115.171 321.15 115.633 320.676 116.152 320.249C117.339 319.276 118.671 318.698 120.029 318.459C119.764 316.607 119.592 314.752 119.539 312.885ZM121.61 312.652C121.651 314.56 121.814 316.459 122.096 318.35C123.687 318.458 125.233 318.996 126.546 319.879C126.695 319.956 126.84 320.04 126.985 320.123C127.966 318.279 128.945 316.435 129.926 314.591C127.415 313.23 124.558 312.515 121.61 312.652ZM131.684 315.71L128.694 321.333C130.153 322.595 131.252 324.251 131.798 326.181C133.939 325.786 136.089 325.486 138.255 325.296C137.253 321.343 134.853 317.976 131.684 315.71ZM138.648 327.346C136.47 327.526 134.309 327.816 132.159 328.216C132.184 328.594 132.193 328.977 132.176 329.37C132.121 330.62 131.854 331.794 131.416 332.866C133.147 334.195 134.878 335.523 136.609 336.852C138.228 334.019 139.034 330.74 138.648 327.346ZM124.966 345.609C125.178 345.423 125.446 345.273 125.786 345.182C129.701 344.142 133.135 341.745 135.483 338.591C133.797 337.296 132.11 336.002 130.424 334.706C128.924 336.932 126.605 338.502 123.995 339.06C124.317 341.244 124.641 343.427 124.966 345.609ZM123.027 346.595L121.94 339.273C120.524 339.284 119.071 339.016 117.652 338.385C117.003 338.098 116.433 337.745 115.898 337.364C114.356 339.369 112.775 341.343 111.134 343.268C114.393 345.901 118.683 347.186 123.027 346.595ZM105.507 332.647C105.838 336.332 107.37 339.471 109.614 341.853C111.243 339.946 112.81 337.988 114.34 336.001C112.933 334.439 112.157 332.49 111.946 330.451C109.781 330.804 107.616 331.157 105.452 331.51C105.465 331.889 105.473 332.266 105.507 332.647ZM103.074 321.558C103.123 321.445 103.166 321.331 103.217 321.219C102.978 320.995 102.722 320.798 102.448 320.624L102.376 320.865C102.717 320.957 103.001 321.201 103.074 321.558ZM101.471 337.392C101.705 337.279 101.966 337.25 102.201 337.335C102.147 337.167 102.099 336.997 102.05 336.828C101.806 336.992 101.561 337.157 101.317 337.321C101.369 337.338 101.42 337.362 101.471 337.392Z" fill="#F8F8F8"/>
<path d="M299.07 131.923C300.002 130.091 302.072 129.614 303.962 129.25C307.464 128.575 311.13 128.974 314.655 129.163C318.983 129.386 323.309 129.618 327.636 129.849C330.258 121.189 334.716 113.284 340.835 106.528C340.807 106.498 340.77 106.466 340.744 106.42C338.222 103.028 335.708 99.6382 333.188 96.2386C331.615 94.1195 328.442 91.2926 328.195 88.5036C327.981 86.1245 330.094 83.2863 331.256 81.3918C332.822 78.8492 334.654 76.4777 336.728 74.3239C340.085 70.8525 343.854 67.1892 348.583 70.3876C351.778 72.5355 354.473 75.8972 357.227 78.5608C360.22 81.4584 363.212 84.356 366.197 87.2523C366.696 87.7409 366.567 88.4101 366.197 88.803C373.791 84.7473 381.648 81.1826 390.204 80.1713C390.892 75.9889 391.686 71.8245 392.634 67.6944C393.41 64.2937 393.862 60.0043 395.466 56.8865C396.445 54.9781 397.43 54.5877 399.5 54.3043C403.296 53.7808 407.376 54.0297 411.207 53.8997C416.506 53.7135 420.467 53.3104 421.48 59.3553C422.838 67.3546 422.992 75.7494 423.728 83.8377C423.741 83.958 423.732 84.0659 423.707 84.1629C431.962 86.59 438.968 90.88 445.733 96.0987C450.887 91.2696 456.638 85.9933 463.023 82.8633C469.131 79.8721 472.878 85.0459 476.515 89.3751C479.51 92.9559 484.82 97.4575 481.77 102.253C477.364 109.197 471.42 115.469 465.553 121.181C465.098 121.627 464.504 121.552 464.099 121.257C468.514 129.67 471.65 138.618 473.442 147.946C481.094 149.049 489.3 149.563 496.692 151.609C501.532 152.947 499.922 161.104 499.651 164.867C499.336 169.29 499.256 177.215 493.939 178.814C490.689 179.792 486.275 178.931 482.907 178.861C478.608 178.769 474.298 178.683 469.997 178.599C466.919 186.315 462.977 193.607 458.23 200.426C458.244 200.445 458.259 200.456 458.272 200.475C461.974 207.116 466.726 213.833 469.62 220.869C471.768 226.077 465.413 230.333 461.92 233.208C458.016 236.419 452.313 241.957 446.975 238.976C443.901 237.261 441.448 234.109 439.088 231.562C436.818 229.123 434.638 226.607 432.499 224.047C424.947 228.851 416.222 231.267 407.259 231.089C405.282 238.071 403.357 245.096 401.038 251.962C398.967 258.103 392.538 255.89 387.301 255.362C383.797 254.999 379.751 255.001 376.382 253.936C374.685 253.406 373.714 252.568 373.46 250.772C372.962 247.174 374.327 242.625 374.739 239.028C375.232 234.746 375.726 230.463 376.21 226.188C367.351 223.844 359.384 219.207 352.911 212.655C346.545 216.875 340.015 221.321 333.145 224.631C327.358 227.415 322.927 221.148 319.465 217.236C316.102 213.433 311.45 208.579 314.761 203.33C318.588 197.274 324.814 192.036 330.277 187.267C325.354 179.223 323.033 170.034 323.524 160.618C316.366 158.932 309.132 157.393 302.069 155.394C295.531 153.535 296.938 148.285 297.515 142.558C297.833 139.367 297.613 134.821 299.07 131.923ZM340.465 145.087C341.845 145.331 343.488 145.52 343.901 145.606C345.168 145.871 346.434 146.136 347.701 146.4C348.479 142.286 349.673 138.269 351.254 134.427C351.212 134.411 351.17 134.399 351.127 134.376C349.121 133.331 347.115 132.285 345.108 131.239C343.19 135.657 341.569 140.319 340.465 145.087ZM346.661 127.829C346.421 128.327 346.189 128.833 345.955 129.339C347.971 130.39 349.987 131.44 352.003 132.491C352.025 132.502 352.042 132.518 352.064 132.531C353.96 128.34 356.347 124.391 359.2 120.79C359.176 120.773 359.151 120.762 359.127 120.743C357.318 119.313 355.509 117.883 353.7 116.453C350.98 119.945 348.623 123.756 346.661 127.829ZM355.004 114.836C356.822 116.273 358.642 117.711 360.46 119.148C360.48 119.164 360.494 119.182 360.512 119.199C362.992 116.307 365.799 113.675 368.916 111.356C367.415 109.543 365.916 107.729 364.416 105.915C360.937 108.522 357.787 111.51 355.004 114.836ZM373.6 100.341C370.951 101.6 368.452 103.061 366.094 104.692C367.598 106.511 369.103 108.33 370.608 110.151C371.596 109.478 372.604 108.828 373.651 108.219C375.303 107.258 376.992 106.412 378.708 105.666C378.003 103.459 377.218 101.28 376.359 99.1289C375.432 99.5097 374.511 99.9073 373.6 100.341ZM391.673 95.2106C387.14 95.7263 382.647 96.7639 378.293 98.3717C379.15 100.513 379.932 102.68 380.635 104.876C384.766 103.287 389.041 102.303 393.347 101.882C392.728 99.673 392.169 97.4492 391.673 95.2106ZM407.395 95.5278C402.884 94.8496 398.304 94.6571 393.747 95.0121C394.25 97.2629 394.814 99.4986 395.448 101.719C399.176 101.514 402.913 101.745 406.596 102.365C406.862 100.085 407.128 97.8064 407.395 95.5278ZM409.445 95.8588C409.177 98.1556 408.908 100.453 408.64 102.749C412.174 103.491 415.642 104.61 418.982 106.078C419.646 103.779 420.309 101.48 420.972 99.1818C417.239 97.7068 413.378 96.5869 409.445 95.8588ZM392.924 105.974C389.12 106.464 385.335 107.423 381.639 108.867C362.825 116.574 351.629 135.505 350.764 155.412C350.537 160.631 350.85 165.956 352.068 170.953C354.388 177.609 358.239 183.457 363.097 188.43C372.807 195.811 383.956 202.326 396.09 204.417C396.195 204.434 396.283 204.467 396.377 204.496C414.872 204.725 433.029 194.285 441.381 177.628C450.253 159.935 447.96 138.276 435.12 123.156C424.747 110.938 408.61 104.161 392.924 105.974ZM422.891 99.9778L420.878 106.955C424.387 108.665 427.734 110.778 430.847 113.274C432.442 111.329 434.037 109.386 435.633 107.441C431.678 104.439 427.395 101.933 422.891 99.9778ZM440.735 111.759C439.618 110.696 438.456 109.691 437.268 108.723C435.66 110.682 434.052 112.641 432.445 114.601C432.45 114.606 432.457 114.611 432.463 114.616C435.482 117.239 438.143 120.149 440.44 123.273C442.597 121.752 444.686 120.144 446.735 118.483C444.929 116.098 442.93 113.845 440.735 111.759ZM447.955 120.164C445.9 121.831 443.803 123.444 441.639 124.97C443.938 128.369 445.816 132 447.265 135.787C449.768 134.835 452.173 133.683 454.478 132.321C452.785 128.039 450.608 123.948 447.955 120.164ZM455.219 134.298C452.894 135.647 450.47 136.793 447.953 137.747C448.868 140.444 449.564 143.212 450.043 146.024C452.718 145.809 455.321 145.296 457.876 144.476C457.274 141.014 456.395 137.604 455.219 134.298ZM458.199 146.548C455.641 147.345 453.026 147.862 450.352 148.082C450.818 151.628 450.914 155.232 450.671 158.841C453.341 159.021 456.01 159.117 458.682 159.123C458.945 154.926 458.78 150.707 458.199 146.548ZM458.519 161.192C455.845 161.18 453.174 161.078 450.503 160.9C450.09 164.822 449.261 168.737 447.974 172.58C447.838 172.983 447.688 173.377 447.544 173.775C449.132 174.045 450.721 174.315 452.308 174.585C453.095 174.718 453.881 174.852 454.668 174.986C454.938 175.032 455.209 175.077 455.478 175.123C457.053 170.608 458.063 165.924 458.519 161.192ZM446.128 192.001C449.234 188.123 451.859 183.839 453.881 179.214C454.178 178.533 454.46 177.846 454.731 177.156C454.319 177.064 453.915 176.965 453.537 176.9C451.309 176.522 449.079 176.143 446.851 175.765C446.825 175.76 446.805 175.751 446.781 175.745C445.086 179.868 442.872 183.677 440.248 187.136C442.315 188.637 444.272 190.26 446.128 192.001ZM444.8 193.599C442.956 191.869 441.012 190.257 438.961 188.766C436.206 192.112 433.043 195.087 429.58 197.661C429.641 197.714 429.7 197.774 429.754 197.848C431.137 199.73 432.52 201.612 433.903 203.494C437.91 200.641 441.589 197.331 444.8 193.599ZM432.192 204.673L428.062 199.053C428.008 198.979 427.968 198.905 427.935 198.832C424.723 201.04 421.27 202.899 417.652 204.392C419.05 206.356 420.516 208.268 422.05 210.129C425.589 208.62 428.99 206.796 432.192 204.673ZM415.874 205.476C415.654 205.486 415.43 205.435 415.241 205.321C412.984 206.132 410.668 206.791 408.313 207.309C409.173 209.423 409.924 211.574 410.571 213.761C413.797 213.073 416.965 212.133 420.036 210.947C418.586 209.171 417.201 207.346 415.874 205.476ZM393.256 214.736C395.229 215.036 397.213 215.254 399.205 215.363C399.353 215.185 399.574 215.071 399.879 215.063C402.788 214.978 405.677 214.662 408.526 214.156C407.869 211.973 407.109 209.829 406.239 207.72C402.425 208.408 398.519 208.716 394.578 208.576C393.991 210.604 393.552 212.655 393.256 214.736ZM391.206 214.395C391.509 212.27 391.957 210.179 392.561 208.111C392.579 208.051 392.603 207.999 392.628 207.946C389.283 207.188 386.048 206.122 382.904 204.83C381.777 206.913 380.648 208.994 379.52 211.076C383.31 212.533 387.224 213.657 391.206 214.395ZM377.583 210.297C378.718 208.202 379.853 206.106 380.989 204.01C377.557 202.483 374.239 200.69 371.01 198.733C369.704 200.614 368.4 202.495 367.094 204.375C367.022 204.479 366.941 204.554 366.857 204.617C370.255 206.821 373.85 208.728 377.583 210.297ZM365.307 203.583C365.321 203.404 365.377 203.221 365.499 203.044L369.245 197.646C366.881 196.156 364.564 194.585 362.291 192.97C360.803 191.913 359.37 190.806 358.017 189.622L353.149 192.833C356.729 196.891 360.83 200.503 365.307 203.583ZM351.794 191.239C353.345 190.216 354.896 189.193 356.447 188.17C354.497 186.254 352.784 184.117 351.464 181.618C350.611 180.005 349.918 178.313 349.334 176.581C347.484 177.279 345.636 177.977 343.786 178.675C345.922 183.188 348.625 187.4 351.794 191.239ZM340.399 169.605C341.079 172.067 341.943 174.453 342.939 176.772C344.865 176.046 346.79 175.319 348.716 174.593C347.864 171.574 347.321 168.458 346.975 165.372C346.874 164.471 346.799 163.568 346.737 162.664C344.246 163.048 341.754 163.432 339.262 163.815C339.508 165.762 339.874 167.696 340.399 169.605ZM339.039 161.749L346.628 160.581C346.481 156.514 346.728 152.444 347.348 148.447C345.027 147.963 342.706 147.477 340.385 146.992C340.283 146.97 340.171 146.953 340.063 146.934C339.074 151.837 338.65 156.828 339.039 161.749Z" fill="#F8F8F8"/>
<path d="M184.364 273.417C185.296 271.585 187.365 271.108 189.255 270.743C192.757 270.069 196.423 270.468 199.948 270.657C204.276 270.88 208.603 271.112 212.929 271.343C215.551 262.683 220.01 254.778 226.129 248.022C226.1 247.991 226.063 247.96 226.037 247.913C223.516 244.522 221.002 241.132 218.482 237.732C216.909 235.613 213.735 232.786 213.489 229.997C213.274 227.618 215.387 224.78 216.549 222.886C218.115 220.343 219.948 217.971 222.021 215.818C225.379 212.346 229.148 208.683 233.877 211.881C237.071 214.029 239.767 217.391 242.521 220.055C245.513 222.952 248.506 225.85 251.49 228.746C251.99 229.235 251.86 229.904 251.49 230.297C259.084 226.241 266.941 222.676 275.498 221.665C276.185 217.483 276.979 213.318 277.928 209.188C278.703 205.787 279.156 201.498 280.76 198.38C281.739 196.472 282.723 196.081 284.793 195.798C288.59 195.275 292.669 195.523 296.501 195.393C301.799 195.207 305.761 194.804 306.774 200.849C308.132 208.848 308.285 217.243 309.021 225.331C309.035 225.452 309.025 225.56 309 225.657C317.255 228.084 324.261 232.374 331.026 237.592C336.18 232.763 341.932 227.487 348.316 224.357C354.425 221.366 358.172 226.54 361.808 230.869C364.804 234.45 370.114 238.951 367.064 243.747C362.658 250.691 356.713 256.963 350.846 262.675C350.392 263.121 349.797 263.046 349.392 262.75C353.807 271.163 356.944 280.111 358.735 289.439C366.387 290.543 374.594 291.057 381.986 293.103C386.826 294.441 385.216 302.598 384.944 306.361C384.629 310.783 384.55 318.709 379.232 320.308C375.983 321.286 371.568 320.425 368.201 320.354C363.901 320.262 359.592 320.177 355.291 320.093C352.213 327.809 348.271 335.101 343.523 341.92C343.537 341.939 343.552 341.95 343.566 341.969C347.268 348.61 352.019 355.327 354.913 362.363C357.061 367.571 350.706 371.827 347.213 374.702C343.31 377.913 337.607 383.45 332.268 380.469C329.194 378.755 326.742 375.603 324.381 373.056C322.112 370.617 319.931 368.101 317.792 365.541C310.24 370.345 301.515 372.761 292.553 372.583C290.576 379.565 288.651 386.59 286.331 393.456C284.26 399.596 277.832 397.384 272.594 396.856C269.09 396.493 265.045 396.494 261.676 395.43C259.979 394.899 259.007 394.062 258.753 392.266C258.255 388.667 259.62 384.119 260.032 380.522C260.526 376.239 261.02 371.957 261.504 367.681C252.645 365.338 244.678 360.701 238.205 354.149C231.839 358.369 225.308 362.815 218.438 366.124C212.651 368.908 208.22 362.642 204.758 358.73C201.395 354.927 196.743 350.072 200.055 344.823C203.881 338.768 210.107 333.529 215.571 328.761C210.647 320.717 208.327 311.527 208.817 302.112C201.659 300.426 194.426 298.887 187.363 296.888C180.824 295.028 182.231 289.779 182.808 284.052C183.126 280.861 182.906 276.315 184.364 273.417ZM326.029 253.252C308.267 236.363 281.185 231.228 258.894 241.834C246.827 247.572 237.722 257.349 231.955 269.323C225.85 281.998 221.859 297.187 225.693 311.098C232.827 336.943 258.15 355.418 284.498 356.856C284.646 356.679 284.868 356.565 285.172 356.557C308.084 355.882 329.922 341.862 339.174 320.707C349.018 298.194 343.914 270.256 326.029 253.252Z" fill="#F8F8F8"/>
<path d="M246.968 260.581C247.093 260.395 247.244 260.232 247.412 260.089C248.021 259.422 248.642 258.764 249.286 258.129C266.252 241.422 292.484 238.805 312.482 251.729C331.084 263.751 340.075 287.042 335.218 308.561C329.98 331.767 308.557 348.831 284.956 349.825C284.565 349.842 284.227 349.758 283.935 349.618C263.685 349.228 244.694 336.442 236.826 317.689C228.915 298.833 233.473 275.751 246.968 260.581ZM238.234 308.483C238.931 311.616 239.975 314.634 241.308 317.508C243.11 316.088 245.181 314.902 247.57 315.349C249.789 315.764 251.006 317.409 251.555 319.471C251.871 320.657 252.081 321.271 252.847 322.227C253.529 323.077 253.993 323.814 253.947 324.941C253.863 327.013 251.896 329.006 250.402 330.662C256.76 337.213 264.926 342.019 273.806 344.196C274.285 341.774 274.911 336.769 277.576 335.727C278.869 335.222 280.338 335.692 281.642 335.922C283.51 336.253 285.379 336.584 287.247 336.914C288.112 337.067 288.919 337.841 288.97 338.751C289.095 340.992 288.929 343.181 288.416 345.364C296.615 344.365 304.49 341.328 311.247 336.685C310.3 335.7 309.353 334.714 308.405 333.728C307.582 332.871 307.246 331.158 308.533 330.44C311.112 329 313.415 327.256 315.435 325.097C316.274 324.201 317.369 324.195 318.363 324.834C319.516 325.575 320.53 326.418 321.482 327.353C324.399 323.835 326.832 319.898 328.639 315.609C329.661 313.18 330.45 310.668 331.049 308.116C331.023 308.112 331 308.113 330.974 308.108C328.99 307.676 326.999 307.294 324.996 306.96C324.192 306.825 323.251 306.017 323.273 305.123C323.323 303.158 323.371 301.194 323.421 299.229C323.456 297.801 323.116 295.683 323.825 294.343C324.329 293.391 325.273 293.009 326.281 292.813C328.201 292.441 330.177 292.239 332.12 291.977C331.408 284.422 329.045 277.02 325.132 270.53C323.358 272.078 320.634 274.352 318.277 273.187C317.043 272.576 316.339 271.167 315.586 270.085L312.336 265.415C311.721 264.532 311.865 263.123 312.824 262.517C314.164 261.67 315.01 260.686 315.627 259.258C309.837 254.281 303.005 250.84 295.813 249.064C295.317 250.817 294.937 252.833 294.035 254.364C292.928 256.243 291.046 256.095 289.142 255.862C287.397 255.649 284.643 255.843 283.341 254.437C281.994 252.981 282.366 250.118 282.255 248.281C282.244 248.081 282.265 247.896 282.301 247.718C273.883 248.099 265.542 250.759 258.3 255.926C258.223 255.981 258.151 256.039 258.075 256.094C259.887 257.69 262.084 259.732 261.038 262.028C260.422 263.382 258.789 264.318 257.69 265.203C256.182 266.416 254.674 267.629 253.167 268.843C252.335 269.512 250.83 269.273 250.269 268.355C249.658 267.355 249.046 266.353 248.435 265.352C244.575 270.223 241.609 275.794 239.681 281.707C240.772 281.888 241.865 282.069 242.956 282.249C244.111 282.44 244.782 283.527 244.66 284.643L244.04 290.284C243.858 291.936 243.916 293.92 243.431 295.52C242.523 298.512 239.515 297.76 237.086 297.259C237.038 301.018 237.41 304.786 238.234 308.483Z" fill="#F8F8F8"/>
<path d="M87.668 450.632C88.2187 449.549 89.4419 449.267 90.5585 449.052C92.6273 448.654 94.7941 448.889 96.8772 449.001C99.4347 449.133 101.991 449.27 104.548 449.406C106.097 444.289 108.731 439.618 112.348 435.626C112.33 435.608 112.309 435.59 112.294 435.562C110.804 433.558 109.318 431.555 107.829 429.546C106.899 428.294 105.024 426.623 104.879 424.976C104.752 423.57 106 421.893 106.687 420.773C107.613 419.27 108.695 417.869 109.921 416.596C111.905 414.545 114.132 412.38 116.926 414.27C118.814 415.539 120.406 417.526 122.034 419.099C123.802 420.812 125.571 422.524 127.334 424.236C127.629 424.525 127.552 424.92 127.334 425.152C131.821 422.755 136.464 420.649 141.519 420.051C141.925 417.58 142.395 415.119 142.956 412.679C143.414 410.669 143.681 408.134 144.629 406.292C145.207 405.164 145.789 404.934 147.012 404.766C149.256 404.457 151.666 404.604 153.93 404.527C157.061 404.417 159.402 404.178 160 407.751C160.803 412.477 160.894 417.437 161.328 422.217C161.336 422.288 161.331 422.352 161.316 422.408C166.194 423.843 170.334 426.377 174.331 429.461C177.376 426.608 180.774 423.49 184.547 421.641C188.156 419.873 190.37 422.93 192.519 425.488C194.289 427.604 197.426 430.264 195.625 433.098C193.021 437.201 189.509 440.907 186.042 444.282C185.774 444.545 185.423 444.502 185.183 444.327C187.792 449.298 189.646 454.586 190.704 460.097C195.225 460.749 200.075 461.053 204.442 462.262C207.302 463.052 206.351 467.872 206.19 470.096C206.004 472.709 205.958 477.393 202.815 478.337C200.895 478.915 198.287 478.406 196.296 478.364C193.756 478.31 191.209 478.259 188.668 478.21C186.849 482.769 184.52 487.077 181.715 491.107C181.723 491.118 181.732 491.125 181.739 491.136C183.927 495.06 186.734 499.028 188.444 503.186C189.713 506.263 185.958 508.778 183.895 510.477C181.589 512.374 178.218 515.646 175.064 513.885C173.247 512.872 171.799 511.009 170.404 509.504C169.063 508.063 167.774 506.576 166.51 505.063C162.048 507.902 156.893 509.329 151.597 509.224C150.429 513.35 149.291 517.501 147.92 521.557C146.696 525.186 142.898 523.879 139.803 523.566C137.733 523.353 135.342 523.353 133.352 522.723C132.349 522.41 131.775 521.915 131.625 520.854C131.33 518.728 132.137 516.039 132.381 513.914C132.672 511.384 132.964 508.853 133.25 506.327C128.015 504.942 123.307 502.202 119.482 498.33C115.721 500.823 111.861 503.451 107.803 505.406C104.383 507.051 101.765 503.348 99.7189 501.037C97.7317 498.789 94.9827 495.921 96.9396 492.82C99.201 489.241 102.88 486.146 106.108 483.329C103.199 478.576 101.828 473.146 102.118 467.581C97.888 466.586 93.6141 465.676 89.4406 464.495C85.5769 463.396 86.4078 460.295 86.7485 456.911C86.9372 455.03 86.8073 452.345 87.668 450.632ZM116.187 447.43C117.416 448.558 118.749 449.52 120.21 450.313C121.817 447.216 123.927 444.372 126.468 441.953C125.188 440.736 124.117 439.347 123.271 437.801C120.4 440.547 118.032 443.81 116.187 447.43ZM131.707 431.97C129.206 433.159 126.926 434.648 124.865 436.377C125.662 437.965 126.724 439.366 128.025 440.57C128.245 440.388 128.455 440.194 128.68 440.018C130.748 438.4 133.002 437.126 135.367 436.179C135.205 434.372 134.791 432.623 134.098 430.959C133.294 431.266 132.494 431.596 131.707 431.97ZM147.748 428.748C143.815 428.59 139.855 429.09 136.043 430.283C136.723 431.941 137.178 433.662 137.388 435.455C140.558 434.458 143.886 434.017 147.212 434.116C147.391 432.326 147.57 430.538 147.748 428.748ZM149.818 428.889C149.639 430.674 149.461 432.459 149.283 434.245C152.622 434.568 155.922 435.428 159.02 436.808C159.462 435.047 160.196 433.402 161.203 431.911C157.59 430.292 153.734 429.274 149.818 428.889ZM171.377 438.717C168.89 436.351 166.09 434.382 163.095 432.828C162.052 434.301 161.329 435.937 160.935 437.74C161.415 437.995 161.896 438.247 162.363 438.528C164.57 439.855 166.537 441.44 168.258 443.217C169.881 442.323 171.505 441.429 173.128 440.533C172.567 439.91 171.989 439.299 171.377 438.717ZM174.484 442.143C172.883 443.026 171.28 443.909 169.679 444.792C172.186 447.794 174.048 451.258 175.192 454.977C176.855 454.245 178.518 453.513 180.181 452.781C178.911 448.947 177.001 445.332 174.484 442.143ZM180.781 454.784C179.1 455.524 177.419 456.264 175.738 457.004C176.475 460.173 176.717 463.487 176.395 466.834C178.252 466.988 180.089 467.259 181.913 467.644C182.299 463.328 181.902 458.956 180.781 454.784ZM179.145 478.576C180.386 475.736 181.221 472.751 181.67 469.715C179.836 469.323 177.989 469.046 176.123 468.887C176.103 469.007 176.094 469.127 176.073 469.246C175.569 472.127 174.676 474.821 173.464 477.293C175.016 478.421 176.569 479.55 178.122 480.679C178.484 479.991 178.831 479.293 179.145 478.576ZM177.094 482.496C175.554 481.377 174.015 480.257 172.476 479.138C171.427 480.937 170.201 482.6 168.82 484.112C169.742 485.851 170.717 487.56 171.727 489.25C173.78 487.234 175.588 484.969 177.094 482.496ZM170.181 490.695C169.187 489.035 168.23 487.355 167.313 485.651C165.133 487.709 162.639 489.417 159.923 490.731C160.711 492.47 161.5 494.208 162.289 495.947C165.131 494.54 167.794 492.777 170.181 490.695ZM149.523 499.607C153.279 499.25 156.956 498.292 160.405 496.818C159.612 495.069 158.82 493.322 158.026 491.573C155.403 492.627 152.601 493.326 149.686 493.624C149.632 495.618 149.578 497.613 149.523 499.607ZM146.837 499.935C146.925 499.83 147.056 499.763 147.235 499.758C147.309 499.755 147.383 499.749 147.457 499.746C147.512 497.751 147.567 495.757 147.622 493.761C146.824 493.79 146.021 493.799 145.209 493.767C144.899 493.901 144.546 493.97 144.14 493.928C142.709 493.78 141.299 493.514 139.914 493.161C139.097 494.828 138.345 496.521 137.661 498.244C140.642 499.175 143.724 499.766 146.837 499.935ZM144.39 489.775C144.658 489.677 144.959 489.628 145.291 489.648C160.944 490.554 173.32 477.53 172.34 462.065C171.467 448.289 159.603 438.009 145.924 438.183C132.662 438.352 121.836 449.515 120.861 462.57C119.837 476.306 131.129 488.175 144.39 489.775ZM135.694 497.57C136.361 495.875 137.093 494.209 137.888 492.57C135.389 491.743 132.996 490.606 130.784 489.185C129.969 490.788 128.984 492.283 127.823 493.649C130.291 495.243 132.942 496.55 135.694 497.57ZM126.093 492.471C127.268 491.107 128.255 489.623 129.057 487.998C126.507 486.114 124.236 483.855 122.36 481.3C121.077 482.626 119.745 483.901 118.361 485.119C120.572 487.909 123.193 490.378 126.093 492.471ZM117.12 483.45C118.525 482.209 119.872 480.907 121.168 479.547C119.966 477.645 118.97 475.612 118.229 473.465C116.448 474.122 114.712 474.89 113.031 475.777C114.064 478.512 115.452 481.08 117.12 483.45ZM112.089 472.898C112.173 473.202 112.268 473.501 112.361 473.801C114.066 472.921 115.814 472.145 117.615 471.482C116.798 468.394 116.551 465.232 116.798 462.114C115.027 462.062 113.255 462.009 111.484 461.957C111.001 465.624 111.107 469.332 112.089 472.898ZM117.034 460.061C117.44 457.354 118.211 454.702 119.314 452.189C117.854 451.405 116.494 450.469 115.247 449.378C113.742 452.69 112.51 456.261 111.815 459.905C113.554 459.957 115.294 460.009 117.034 460.061Z" fill="#F8F8F8"/>
</g>
<defs>
<clipPath id="clip0">
<rect width="556.508" height="579.475" fill="white" transform="matrix(-0.986108 -0.166106 -0.166106 0.986108 645.031 92.4395)"/>
</clipPath>
</defs>
</svg>
