<svg width="17" height="17" viewBox="0 0 17 17" fill="none" xmlns="http://www.w3.org/2000/svg">
<path d="M13.1452 16.6236C12.9798 16.6231 12.8148 16.605 12.6532 16.5694C9.57649 15.933 6.74199 14.4407 4.47598 12.2643C2.25831 10.0832 0.720246 7.30612 0.0478653 4.26913C-0.0314169 3.89063 -0.0119579 3.4981 0.10437 3.1293C0.220698 2.76049 0.42998 2.42783 0.712082 2.16332L2.68013 0.269073C2.78065 0.174011 2.90009 0.101213 3.03065 0.055433C3.16121 0.00965261 3.29995 -0.00808193 3.43783 0.00338684C3.58079 0.0183012 3.71875 0.0643537 3.842 0.138306C3.96526 0.212258 4.07081 0.312314 4.15125 0.431437L6.61131 4.06741C6.70356 4.20849 6.7481 4.37546 6.73835 4.54374C6.72861 4.71203 6.66511 4.87274 6.55719 5.00223L5.32224 6.47827C5.81408 7.56682 6.51062 8.55066 7.37393 9.37622C8.23165 10.2317 9.24546 10.9148 10.3604 11.3885L11.8906 10.1733C12.0191 10.0717 12.1755 10.0117 12.339 10.0011C12.5024 9.99057 12.6652 10.03 12.8057 10.1142L16.5204 12.5153C16.6479 12.5914 16.7565 12.6953 16.8381 12.8194C16.9197 12.9434 16.9722 13.0843 16.9916 13.2315C17.011 13.3787 16.9968 13.5284 16.9502 13.6694C16.9035 13.8103 16.8256 13.9389 16.7222 14.0454L14.8033 15.9446C14.5853 16.1615 14.3266 16.3331 14.0421 16.4497C13.7575 16.5662 13.4527 16.6253 13.1452 16.6236ZM3.35911 0.977571L1.39106 2.87182C1.23236 3.01969 1.11489 3.20633 1.05019 3.41337C0.985485 3.62041 0.975789 3.84072 1.02205 4.05265C1.64726 6.90245 3.08443 9.5102 5.15987 11.5608C7.29235 13.6083 9.95975 15.0119 12.8549 15.61C13.0741 15.6558 13.3012 15.6465 13.5159 15.583C13.7305 15.5195 13.9261 15.4036 14.085 15.2459L16.0038 13.3468L12.4171 11.0294L10.7737 12.3381C10.7108 12.3879 10.6367 12.4216 10.5578 12.4362C10.4789 12.4507 10.3976 12.4458 10.3211 12.4218C8.95659 11.919 7.72004 11.121 6.69987 10.0847C5.64468 9.09932 4.82561 7.88838 4.30377 6.54223C4.28169 6.46073 4.28096 6.37493 4.30164 6.29307C4.32232 6.21121 4.36372 6.13605 4.42185 6.07482L5.75029 4.48562L3.35911 0.977571Z" fill="white"/>
</svg>
