<svg width="55" height="34" viewBox="0 0 55 34" fill="none" xmlns="http://www.w3.org/2000/svg">
<path d="M5.5 20.1189C5.98322 20.1189 6.375 20.5107 6.375 20.9939V27.125H7.76712C8.11023 24.0902 10.8485 21.9081 13.8833 22.2511C16.4455 22.5408 18.4674 24.5628 18.7571 27.125H37V1.75H6.375V4.50188C6.375 4.98509 5.98322 5.37688 5.5 5.37688C5.01678 5.37688 4.625 4.98509 4.625 4.50188V0.875C4.625 0.391781 5.01678 0 5.5 0H37.875C38.3582 0 38.75 0.391781 38.75 0.875V1.75H48.7705C50.9671 1.75284 52.7472 3.53281 52.75 5.7295V7C52.75 7.48322 52.3582 7.875 51.875 7.875H50.8574L51.525 15.8944C53.2723 16.3492 54.4939 17.9239 54.5 19.7295V27.125C54.5 27.6082 54.1082 28 53.625 28H51.8531C51.6133 31.129 48.8822 33.4712 45.7532 33.2313C42.9575 33.017 40.7362 30.7956 40.5219 28C40.514 28 40.5079 28.0044 40.5 28.0044H38.75C38.75 28.4876 38.3582 28.8794 37.875 28.8794H18.6775C18.0542 31.8702 15.1242 33.7894 12.1334 33.1661C9.97902 32.7171 8.29573 31.0337 7.84675 28.8794H5.5C5.01678 28.8794 4.625 28.4876 4.625 28.0044V20.9939C4.625 20.5105 5.01678 20.1189 5.5 20.1189ZM46.1875 31.5C48.3621 31.5 50.125 29.7371 50.125 27.5625C50.125 25.3879 48.3621 23.625 46.1875 23.625C44.0129 23.625 42.25 25.3879 42.25 27.5625C42.2524 29.7361 44.0139 31.4976 46.1875 31.5ZM38.75 26.25H40.5C40.5513 26.2554 40.602 26.2655 40.6514 26.2806C41.3551 23.2233 44.404 21.3153 47.4613 22.019C49.5694 22.5042 51.2189 24.1446 51.7157 26.25H52.75V19.7295C52.7486 18.4988 51.7512 17.5014 50.5205 17.5H38.75V26.25ZM38.75 15.75H49.7575L49.1012 7.875H38.75V15.75ZM38.75 6.125H51V5.7295C50.9986 4.49881 50.0012 3.50142 48.7705 3.5H38.75V6.125ZM9.48617 27.965C9.59861 29.9668 11.2564 31.5314 13.2612 31.528H13.2621C15.098 31.524 16.6655 30.2017 16.9791 28.3929C16.8258 28.1249 16.8433 27.792 17.0238 27.5415C16.9068 25.4601 15.1247 23.8675 13.0432 23.9844C10.9618 24.1013 9.36914 25.8835 9.48617 27.965Z" fill="white"/>
<path d="M9.375 7H21.625C22.1082 7 22.5 7.39178 22.5 7.875C22.5 8.35822 22.1082 8.75 21.625 8.75H9.375C8.89178 8.75 8.5 8.35822 8.5 7.875C8.5 7.39178 8.89178 7 9.375 7Z" fill="white"/>
<path d="M0.958334 16.625H22.0417C22.5709 16.625 23 17.0168 23 17.5C23 17.9832 22.5709 18.375 22.0417 18.375H0.958334C0.429094 18.375 0 17.9832 0 17.5C0 17.0168 0.429094 16.625 0.958334 16.625Z" fill="white"/>
<path d="M4.65385 11.375H17.3462C17.9834 11.375 18.5 11.7668 18.5 12.25C18.5 12.7332 17.9834 13.125 17.3462 13.125H4.65385C4.01663 13.125 3.5 12.7332 3.5 12.25C3.5 11.7668 4.01663 11.375 4.65385 11.375Z" fill="white"/>
</svg>
