<svg width="49" height="56" viewBox="0 0 49 56" fill="none" xmlns="http://www.w3.org/2000/svg">
<path d="M0.122948 56C0.122948 51.4779 -0.209462 47.0344 0.218869 42.6656C0.626791 38.5035 3.26693 35.5233 7.16451 33.9115C9.98502 32.7451 12.9257 31.8704 15.7602 30.7346C16.8914 30.2815 17.8815 29.4761 19.1045 28.7279C18.5424 28.1059 18.2358 27.774 17.9371 27.435C14.9862 24.0874 13.2691 20.1919 12.6744 15.7719C12.5701 14.9963 12.0945 14.2749 11.9588 13.4988C11.3907 10.25 11.593 7.03533 12.9808 4.0235C14.0201 1.76883 16.0388 0.473633 18.4279 0.30577C22.0982 0.0475979 25.8256 -0.168226 29.4716 0.185358C34.279 0.6517 36.4359 3.23342 36.9125 8.05884C37.1464 10.4278 37.3242 12.7281 36.2658 15.0463C35.6152 16.4706 35.7104 18.2156 35.24 19.746C34.2279 23.0384 32.5276 25.961 29.9956 28.383C30.6283 29.6001 31.6278 30.2479 32.8182 30.6757C35.654 31.6943 38.5036 32.6775 41.3162 33.7574C46.0054 35.558 48.8815 39.7931 48.8925 44.8075C48.9006 48.501 48.894 52.1945 48.894 56C32.5753 56 16.3329 56 0.122948 56ZM19.9361 54.2425C20.0769 53.03 20.1693 51.8514 20.3629 50.6896C20.5152 49.7766 20.2509 49.1513 19.6203 48.4421C16.6671 45.1198 18.1486 39.6954 22.3469 38.4833C22.5382 39.2653 22.7372 40.0423 22.9181 40.8237C23.1116 41.6592 23.215 42.0932 23.2898 42.4124C24.0814 42.4124 24.0554 42.3489 25.3835 42.4124C25.7302 41.0809 26.1639 39.7699 26.5238 38.3879C30.7026 40.1538 32.1373 44.8471 29.4382 48.0908C28.4987 49.2199 28.3162 50.2473 28.5349 51.5368C28.627 52.0807 28.7288 52.6323 28.7283 53.1803C28.7275 54.0387 29.0607 54.3568 29.949 54.3351C32.1995 54.2798 34.4527 54.3204 36.7045 54.3145C37.1091 54.3135 37.5135 54.2744 38.0551 54.2456C38.0551 51.4787 38.0551 48.8635 38.0551 46.2532C38.6926 46.2532 39.1799 46.2532 39.8156 46.2532C39.8156 48.9505 39.8156 51.5667 39.8156 54.2079C42.3129 54.2079 44.6576 54.2079 47.0875 54.2079C47.0875 51.1299 47.0901 48.1615 47.087 45.1927C47.0822 40.301 44.6949 36.8478 40.1184 35.1646C37.9681 34.3738 35.7555 33.7367 33.6521 32.8403C32.299 32.2637 31.4365 32.4747 30.7186 33.711C29.9885 34.9682 28.9107 35.4394 27.4257 35.309C25.8651 35.1723 24.272 35.1432 22.7148 35.2924C20.4759 35.507 18.6348 35.1184 17.4394 32.9832C17.2723 32.6847 16.5391 32.4283 16.2008 32.5433C13.2691 33.538 10.3021 34.4733 7.47498 35.7197C4.31544 37.1126 2.37813 39.6864 1.9253 43.1345C1.66152 45.143 1.76127 47.201 1.72887 49.237C1.70259 50.8807 1.72351 52.5249 1.72351 54.242C4.19656 54.242 6.5127 54.242 9.02861 54.242C9.02861 51.5509 9.02861 48.9013 9.02861 46.2522C9.71664 46.2522 10.2019 46.2522 10.8312 46.2522C10.8312 48.9459 10.8312 51.5588 10.8312 54.2428C13.928 54.2425 16.8789 54.2425 19.9361 54.2425ZM14.5584 16.33C15.4464 20.5552 17.0337 24.6395 20.7384 27.5541C23.1449 29.4476 25.66 29.3892 28.1165 27.5416C30.3561 25.8571 31.8227 23.5767 32.833 21.0144C33.4575 19.4301 33.8912 17.7709 34.3019 16.4862C27.6254 13.5174 21.1576 13.8065 14.5584 16.33ZM35.4127 10.1683C35.1609 8.65146 35.0152 7.35703 34.7208 6.09729C34.2389 4.03421 32.8524 2.74437 30.8291 2.31604C26.6228 1.4252 22.3824 1.47826 18.1646 2.26528C16.5909 2.55891 15.2227 3.40205 14.6444 4.92608C14.0423 6.51287 13.7545 8.21879 13.2379 10.2283C20.8277 7.66903 27.9997 7.66265 35.4127 10.1683ZM27.7292 41.5462C27.3644 42.5342 27.2948 43.583 26.659 44.0065C25.9764 44.4611 24.6824 44.3891 23.7253 44.3891C22.1946 44.3891 21.9395 44.134 21.4293 42.6034C21.3971 42.3432 21.2556 41.9181 21.1321 41.5314C19.3358 43.1702 19.455 46.0395 21.4594 47.712C22.2872 48.4028 22.3956 49.049 22.2421 50.0036C22.0239 51.3598 21.9551 52.7397 21.8193 54.1438C23.6452 54.1438 25.27 54.1438 27.0182 54.1438C26.867 52.6412 26.7981 51.2437 26.5634 49.8748C26.4022 48.935 26.606 48.3508 27.3639 47.7135C29.3474 46.0453 29.4785 43.2052 27.7292 41.5462ZM33.4047 14.1338C34.4369 14.206 34.918 13.6807 35.1083 12.7575C35.3129 11.7641 34.4813 11.7926 33.942 11.6215C27.5675 9.59639 21.1834 9.59052 14.8089 11.6194C14.2423 11.7998 13.3688 11.7554 13.643 12.857C13.901 13.8932 14.5018 14.27 15.4995 14.0746C16.1207 13.9529 16.746 13.8177 17.3429 13.6121C21.9589 12.0212 26.5754 12.0638 31.2059 13.5437C31.9279 13.7748 32.6712 13.9389 33.4047 14.1338ZM30.1528 31.3691C29.5576 30.7836 28.9632 30.1991 28.3372 29.5835C25.7279 31.1586 23.0602 31.0703 20.5525 29.7211C19.8422 30.3517 19.2187 30.9055 18.6233 31.4341C19.4741 32.9434 20.6037 33.6957 22.3752 33.473C23.6273 33.3156 24.9286 33.3263 26.184 33.4702C27.9971 33.6781 29.317 33.1161 30.1528 31.3691Z" fill="white"/>
</svg>
