<svg width="56" height="56" viewBox="0 0 56 56" fill="none" xmlns="http://www.w3.org/2000/svg">
<g clip-path="url(#clip0)">
<path d="M34.5333 32.6667H33.5067C33.1205 32.6674 32.7751 32.4265 32.6424 32.0638C32.5285 31.7651 32.4063 31.473 32.2747 31.1837C32.1111 30.8318 32.1858 30.4152 32.4613 30.1421L33.1931 29.4094C34.2794 28.3136 34.2774 26.5463 33.1884 25.453L30.5508 22.8154C29.4561 21.7271 27.6882 21.7271 26.5935 22.8154L25.8617 23.5462C25.588 23.8207 25.1721 23.8953 24.8201 23.7329C24.5308 23.6013 24.2387 23.479 23.9391 23.3595C23.5745 23.2278 23.3319 22.8811 23.3333 22.4934V21.4667C23.3333 19.9203 22.0798 18.6667 20.5333 18.6667H16.8C15.2536 18.6667 14 19.9203 14 21.4667V22.4934C14.0007 22.8796 13.7598 23.225 13.3971 23.3577C13.0984 23.4715 12.8063 23.5938 12.5169 23.7254C12.165 23.8882 11.7489 23.8136 11.4753 23.5387L10.7427 22.807C9.6481 21.7194 7.88083 21.7194 6.78627 22.807L4.14867 25.453C3.0604 26.5477 3.0604 28.3157 4.14867 29.4103L4.87947 30.1421C5.15503 30.4152 5.2297 30.8318 5.06613 31.1837C4.93453 31.473 4.81227 31.7651 4.69747 32.0647C4.56388 32.4296 4.21517 32.6707 3.82667 32.6667H2.8C1.25358 32.6667 0 33.9203 0 35.4667V39.2001C0 40.7465 1.25358 42.0001 2.8 42.0001H3.82667C4.21283 41.9994 4.55828 42.2403 4.69093 42.603C4.8048 42.9017 4.92707 43.1938 5.05867 43.4831C5.22223 43.835 5.14757 44.2516 4.872 44.5247L4.14027 45.2574C3.0527 46.352 3.0527 48.1192 4.14027 49.2138L6.77787 51.8514C7.87255 52.9397 9.64052 52.9397 10.7352 51.8514L11.4669 51.1206C11.7406 50.8461 12.1566 50.7715 12.5085 50.9339C12.7979 51.0655 13.09 51.1878 13.3896 51.3073C13.7561 51.4375 14.0007 51.7846 14 52.1734V53.2001C14 54.7465 15.2536 56.0001 16.8 56.0001H20.5333C22.0798 56.0001 23.3333 54.7465 23.3333 53.2001V52.1734C23.3326 51.7872 23.5736 51.4418 23.9363 51.3091C24.2349 51.1953 24.5271 51.073 24.8164 50.9414C25.1684 50.7787 25.5844 50.8532 25.858 51.1281L26.5907 51.8598C27.6868 52.9456 29.4536 52.9435 30.5471 51.8551L33.1847 49.2175C34.2729 48.1229 34.2729 46.3549 33.1847 45.2602L32.4539 44.5285C32.1783 44.2554 32.1036 43.8387 32.2672 43.4869C32.3988 43.1975 32.5211 42.9054 32.6405 42.6058C32.7723 42.2412 33.119 41.9987 33.5067 42.0001H34.5333C36.0798 42.0001 37.3333 40.7465 37.3333 39.2001V35.4667C37.3333 33.9203 36.0798 32.6667 34.5333 32.6667ZM35.4667 39.2001C35.4667 39.7155 35.0488 40.1334 34.5333 40.1334H33.5067C32.3464 40.1377 31.3081 40.8549 30.8933 41.9385C30.7944 42.1998 30.6874 42.4571 30.5723 42.7103C30.0924 43.7697 30.315 45.0152 31.1323 45.8426L31.8621 46.5734C32.2268 46.9376 32.2272 47.5287 31.8628 47.8934C31.8626 47.8936 31.8624 47.8938 31.8621 47.8941L29.2245 50.5317C28.8601 50.896 28.2693 50.896 27.9048 50.5317L27.1731 49.8009C26.346 48.9829 25.1 48.7602 24.0408 49.2409C23.7879 49.3557 23.5303 49.463 23.2708 49.5619C22.188 49.9766 21.4713 51.014 21.4667 52.1734V53.2001C21.4667 53.7155 21.0488 54.1334 20.5333 54.1334H16.8C16.2846 54.1334 15.8667 53.7155 15.8667 53.2001V52.1734C15.8624 51.0132 15.1452 49.9748 14.0616 49.5601C13.8003 49.4611 13.543 49.3542 13.2897 49.239C12.2304 48.7594 10.985 48.9821 10.1575 49.799L9.42667 50.5289C9.06243 50.8936 8.4714 50.8939 8.1067 50.5296C8.10647 50.5293 8.10623 50.5291 8.106 50.5289L5.4684 47.8941C5.10405 47.5296 5.10405 46.9388 5.4684 46.5743L6.1992 45.8426C7.01645 45.0152 7.23905 43.7697 6.7592 42.7103C6.6444 42.4574 6.53707 42.1998 6.43813 41.9403C6.02443 40.8564 4.9868 40.1385 3.82667 40.1334H2.8C2.28457 40.1334 1.86667 39.7155 1.86667 39.2001V35.4667C1.86667 34.9513 2.28457 34.5334 2.8 34.5334H3.82667C4.98692 34.5291 6.02525 33.8119 6.44 32.7283C6.53893 32.467 6.64592 32.2098 6.76107 31.9565C7.24092 30.8971 7.0182 29.6516 6.20107 28.8242L5.46747 28.0934C5.10277 27.7292 5.10242 27.1381 5.46677 26.7734C5.467 26.7732 5.46723 26.773 5.46747 26.7727L8.10507 24.1351C8.46953 23.7708 9.06033 23.7708 9.4248 24.1351L10.1565 24.8659C10.9836 25.6839 12.2296 25.9066 13.2888 25.4259C13.5417 25.3111 13.7993 25.2038 14.0588 25.1049C15.1431 24.6915 15.8614 23.6538 15.8667 22.4934V21.4667C15.8667 20.9513 16.2846 20.5334 16.8 20.5334H20.5333C21.0488 20.5334 21.4667 20.9513 21.4667 21.4667V22.4934C21.471 23.6537 22.1881 24.692 23.2717 25.1067C23.5331 25.2057 23.7903 25.3127 24.0436 25.4278C25.1028 25.9085 26.3488 25.6858 27.1759 24.8678L27.9067 24.1379C28.2725 23.776 28.8615 23.776 29.2273 24.1379L31.8649 26.7755C32.2293 27.14 32.2293 27.7308 31.8649 28.0953L31.1341 28.827C30.317 29.6544 30.0943 30.8999 30.5741 31.9593C30.6889 32.2122 30.7963 32.4698 30.8952 32.7293C31.3098 33.8121 32.3472 34.5287 33.5067 34.5334H34.5333C35.0488 34.5334 35.4667 34.9513 35.4667 35.4667V39.2001Z" fill="white"/>
<path d="M27.0484 36.96C27.039 36.736 27.0232 36.513 26.9961 36.2908C26.9662 36.0519 26.9308 35.8148 26.8813 35.5824C26.8486 35.4303 26.8057 35.28 26.7646 35.1288C26.7124 34.9366 26.6536 34.7471 26.5882 34.5604C26.5425 34.4307 26.4949 34.3019 26.4464 34.174C26.3262 33.8751 26.1888 33.5833 26.0348 33.3004C26.0226 33.279 26.0152 33.2556 26.003 33.2342C25.7603 32.802 25.4791 32.3924 25.163 32.0106C25.136 31.977 25.1052 31.9452 25.0772 31.9126C24.9484 31.7604 24.8158 31.613 24.6768 31.472C24.604 31.3964 24.5274 31.3255 24.4509 31.2527C24.3576 31.1659 24.2642 31.08 24.1709 30.9979C24.0576 30.8995 23.9422 30.8043 23.8246 30.7123L23.6716 30.5984C22.2274 29.5167 20.4714 28.9324 18.667 28.9334C18.5737 28.9334 18.4804 28.9473 18.387 28.9511C18.1882 28.9567 17.9885 28.9679 17.7878 28.9884C17.6824 28.9996 17.576 29.0118 17.4705 29.0267C17.1662 29.0667 16.8643 29.1232 16.5661 29.1956C12.072 30.3569 9.37023 34.9417 10.5315 39.4358C11.2969 42.3973 13.6106 44.7092 16.5726 45.4721C16.5876 45.4721 16.6034 45.4767 16.6193 45.4805C16.9417 45.5608 17.2682 45.6233 17.5974 45.6671C17.8149 45.6942 18.0324 45.6998 18.2508 45.7101C18.3964 45.7175 18.5308 45.739 18.6829 45.739C18.9489 45.739 19.2252 45.7213 19.507 45.6933C19.5369 45.6933 19.5668 45.6849 19.6004 45.6811C19.8272 45.6559 20.0568 45.6223 20.291 45.5757C20.3844 45.5579 20.4712 45.5346 20.5608 45.5141C20.725 45.4758 20.8884 45.4357 21.0564 45.3862C21.187 45.347 21.314 45.3013 21.4418 45.2565C21.5697 45.2117 21.7022 45.1631 21.8348 45.1127C21.9673 45.0623 22.0784 45.0045 22.1988 44.9485C22.3556 44.8766 22.5114 44.8057 22.6654 44.7217H22.671C23.5421 44.2553 24.3466 43.6743 25.0632 42.9941C25.2567 42.8135 25.4251 42.6074 25.5634 42.3818C26.2919 41.2139 26.7705 39.9079 26.969 38.5458C26.9952 38.3656 27.0185 38.1855 27.0325 38.0016C27.0456 37.8327 27.0549 37.6647 27.0586 37.4967C27.0586 37.4435 27.0661 37.3931 27.0661 37.3399C27.067 37.2083 27.054 37.087 27.0484 36.96ZM25.1882 37.5714C25.1882 37.6488 25.1817 37.7263 25.177 37.8028C25.1602 38.0287 25.1313 38.2546 25.093 38.4814C24.7442 40.4219 23.5394 42.1019 21.8133 43.0547C21.6976 43.1154 21.5837 43.1723 21.4698 43.2246L21.3924 43.2619C20.8501 43.5081 20.2777 43.6813 19.69 43.7771C19.6489 43.7837 19.6069 43.7911 19.5649 43.7967C19.4482 43.8135 19.3334 43.8275 19.2196 43.8378C19.0693 43.8509 18.9181 43.8583 18.7641 43.8611C18.6988 43.8611 18.6344 43.8611 18.569 43.8611C18.3482 43.8586 18.1277 43.8449 17.9082 43.8201L17.7962 43.807C17.5396 43.7734 17.285 43.7254 17.0337 43.6633C13.5381 42.7685 11.4297 39.2095 12.3243 35.7139C12.9155 33.4041 14.718 31.5998 17.0272 31.0063V31.0054C17.5634 30.8701 18.114 30.8011 18.667 30.8C18.9339 30.8015 19.2004 30.8196 19.465 30.8542C19.536 30.8626 19.606 30.8756 19.676 30.8859C19.8776 30.9176 20.0773 30.9578 20.2742 31.0082C20.3386 31.025 20.403 31.0399 20.4665 31.0576C20.9628 31.2009 21.4406 31.402 21.8898 31.6568C21.9617 31.6988 22.0317 31.7427 22.1026 31.7866C22.2501 31.8799 22.3929 31.9732 22.5338 32.0796C22.6094 32.1347 22.686 32.1888 22.7588 32.2476C22.9419 32.3939 23.1173 32.5497 23.2842 32.7143C23.3505 32.7815 23.4112 32.8552 23.4756 32.9252C23.5829 33.0419 23.6874 33.1614 23.7873 33.2874C23.8564 33.3742 23.9226 33.4638 23.988 33.5543C24.0813 33.6887 24.1746 33.8287 24.2586 33.9706C24.3053 34.048 24.352 34.1236 24.3996 34.203C24.52 34.4245 24.6272 34.653 24.7206 34.8871C24.758 34.9804 24.7897 35.0738 24.8233 35.1671C24.884 35.3388 24.9362 35.5124 24.982 35.6879C25.0053 35.7812 25.0314 35.8643 25.051 35.9548C25.1055 36.2071 25.1451 36.4623 25.1696 36.7192C25.1752 36.7874 25.1752 36.8564 25.1798 36.9246C25.1929 37.1392 25.1966 37.3548 25.1882 37.5714Z" fill="white"/>
<path d="M53.2002 19.6H50.2649C49.8734 19.604 49.5233 19.3575 49.395 18.9877C49.1055 18.1208 48.7553 17.2752 48.3469 16.4575C48.1735 16.1043 48.2457 15.6798 48.5261 15.4037L50.6074 13.3196C51.6999 12.2263 51.6999 10.4546 50.6074 9.36133L46.6389 5.39933C45.5456 4.30687 43.7739 4.30687 42.6806 5.39933L40.6002 7.4788C40.3245 7.75903 39.9005 7.8316 39.5474 7.65893C38.7296 7.24838 37.8837 6.89628 37.0162 6.6052C36.645 6.47815 36.3967 6.12768 36.4002 5.73533V2.8C36.4002 1.25358 35.1466 0 33.6002 0H28.0002C26.4538 0 25.2002 1.25358 25.2002 2.8V5.73533C25.2042 6.12675 24.9578 6.47687 24.5879 6.6052C23.7209 6.89617 22.8753 7.24803 22.0577 7.658C21.7045 7.83195 21.2797 7.75973 21.0039 7.4788L18.9198 5.39747C17.8252 4.30815 16.0561 4.30815 14.9615 5.39747L11.0005 9.35853C9.9074 10.4519 9.9074 12.2243 11.0005 13.3177L14.0609 16.3837C14.431 16.7424 15.022 16.733 15.3806 16.3627C15.7305 16.0015 15.7313 15.428 15.3825 15.0659L12.3202 12.0008C11.9558 11.6363 11.9558 11.0455 12.3202 10.6811L16.2813 6.72C16.6457 6.35565 17.2365 6.35565 17.601 6.72L19.6861 8.80133C20.5297 9.64997 21.8223 9.86207 22.893 9.32773C23.6323 8.95755 24.3967 8.63975 25.1806 8.37667C26.312 7.99365 27.0718 6.92988 27.0669 5.73533V2.8C27.0669 2.28457 27.4848 1.86667 28.0002 1.86667H33.6002C34.1156 1.86667 34.5335 2.28457 34.5335 2.8V5.73533C34.5287 6.92965 35.2885 7.99307 36.4198 8.37573C37.204 8.63893 37.9688 8.95697 38.7083 9.32773C39.7792 9.85927 41.0701 9.64693 41.9143 8.8004L43.9994 6.72C44.3638 6.35565 44.9547 6.35565 45.3191 6.72L49.2802 10.682C49.644 11.0464 49.644 11.6365 49.2802 12.0008L47.1989 14.0859C46.351 14.93 46.1391 16.222 46.6725 17.2928C47.0426 18.0321 47.3604 18.7965 47.6235 19.5804C48.0063 20.7121 49.0702 21.4718 50.2649 21.4667H53.2002C53.7156 21.4667 54.1335 21.8846 54.1335 22.4V28C54.1335 28.5154 53.7156 28.9333 53.2002 28.9333H50.2649C49.0705 28.9286 48.0071 29.6883 47.6245 30.8196C47.3614 31.6038 47.0432 32.3686 46.6725 33.1081C46.14 34.1789 46.3524 35.4703 47.1998 36.3141L49.2811 38.3992C49.6455 38.7637 49.6455 39.3545 49.2811 39.7189L45.3182 43.68C44.9538 44.0438 44.3637 44.0438 43.9994 43.68L40.9325 40.6196C40.5738 40.2493 39.9829 40.24 39.6127 40.5986C39.2424 40.9572 39.2331 41.5482 39.5917 41.9183C39.5992 41.926 39.6069 41.9337 39.6146 41.9412L42.6806 45.0016C43.7739 46.0941 45.5456 46.0941 46.6389 45.0016L50.5999 41.0415C51.693 39.9481 51.693 38.1757 50.5999 37.0823L48.5214 35C48.2414 34.7242 48.1689 34.3004 48.3413 33.9472C48.7518 33.1294 49.1039 32.2835 49.395 31.416C49.522 31.0448 49.8725 30.7965 50.2649 30.8H53.2002C54.7466 30.8 56.0002 29.5464 56.0002 28V22.4C56.0002 20.8536 54.7466 19.6 53.2002 19.6Z" fill="white"/>
<path d="M39.3789 16.6209C34.6378 11.8897 26.9616 11.8897 22.2205 16.6209C21.8624 16.9917 21.8727 17.5826 22.2434 17.9406C22.6051 18.2899 23.1785 18.2899 23.5402 17.9406C27.5226 13.9044 34.0229 13.8609 38.0592 17.8433C42.0954 21.8257 42.1389 28.3261 38.1565 32.3623C38.1243 32.3949 38.0918 32.4274 38.0592 32.4596C37.6884 32.8177 37.6781 33.4085 38.0363 33.7793C38.3945 34.1501 38.9853 34.1603 39.356 33.8022C39.3637 33.7947 39.3714 33.787 39.3789 33.7793C44.1101 29.0382 44.1101 21.362 39.3789 16.6209Z" fill="white"/>
</g>
<defs>
<clipPath id="clip0">
<rect width="56" height="56" fill="white"/>
</clipPath>
</defs>
</svg>
