<svg width="20" height="20" viewBox="0 0 20 20" fill="none" xmlns="http://www.w3.org/2000/svg">
<path d="M17.0096 2.90644C15.1379 1.0332 12.6488 0.00105288 9.9968 0C4.53255 0 0.0853104 4.44554 0.0831236 9.90984C0.0824217 11.6565 0.538914 13.3615 1.40644 14.8644L0 20L5.25537 18.6219C6.70338 19.4114 8.33362 19.8275 9.99286 19.8282H9.99693C15.4606 19.8282 19.9083 15.3821 19.9105 9.91773C19.9116 7.26967 18.8814 4.77968 17.0096 2.90644ZM9.99693 18.1544H9.99356C8.51502 18.1538 7.06485 17.7567 5.79974 17.0062L5.49883 16.8277L2.38022 17.6455L3.21264 14.6059L3.01667 14.2942C2.19186 12.9827 1.75624 11.4669 1.75688 9.91049C1.75867 5.36881 5.45507 1.67381 10.0001 1.67381C12.2009 1.67465 14.2698 2.53262 15.8255 4.08956C17.3812 5.6465 18.2375 7.71612 18.2367 9.91711C18.2349 14.4592 14.5385 18.1544 9.99693 18.1544ZM14.5166 11.9852C14.2689 11.8612 13.0511 11.2621 12.824 11.1795C12.597 11.0968 12.4318 11.0555 12.2667 11.3035C12.1016 11.5513 11.6269 12.1091 11.4823 12.2744C11.3378 12.4397 11.1933 12.4603 10.9456 12.3364C10.6979 12.2124 9.89977 11.9509 8.95364 11.1073C8.21729 10.4508 7.72012 9.63976 7.57563 9.39182C7.43114 9.14391 7.56027 9.00993 7.68426 8.88644C7.79568 8.77551 7.93196 8.59722 8.05582 8.45263C8.17966 8.30806 8.22096 8.20471 8.30352 8.03946C8.3861 7.87419 8.3448 7.72957 8.28287 7.60562C8.22096 7.48168 7.72554 6.26282 7.51912 5.76702C7.31808 5.28415 7.11382 5.34948 6.96177 5.3419C6.81744 5.33472 6.65214 5.3332 6.48703 5.3332C6.32191 5.3332 6.05354 5.39516 5.82649 5.64308C5.59945 5.89099 4.95954 6.49008 4.95954 7.70891C4.95954 8.92775 5.84712 10.1053 5.97098 10.2705C6.09484 10.4358 7.71766 12.937 10.2025 14.0097C10.7935 14.2648 11.2549 14.4172 11.6147 14.5313C12.2081 14.7197 12.7481 14.6931 13.1749 14.6294C13.6508 14.5583 14.6404 14.0304 14.8469 13.4519C15.0533 12.8735 15.0533 12.3777 14.9914 12.2744C14.9294 12.1711 14.7643 12.1091 14.5166 11.9852Z" fill="white"/>
</svg>
