<svg width="455" height="634" viewBox="0 0 455 634" fill="none" xmlns="http://www.w3.org/2000/svg">
<g clip-path="url(#clip0)">
<path d="M245.166 362.214C245.567 361.144 244.986 360.117 244.425 359.205C243.387 357.517 241.846 356.163 240.445 354.789C238.728 353.099 237.009 351.412 235.288 349.726C237.854 345.399 239.419 340.603 239.891 335.557C239.915 335.558 239.942 335.561 239.97 335.554C242.307 335.315 244.641 335.071 246.98 334.828C248.44 334.677 250.79 334.917 252.025 333.97C253.081 333.165 253.451 331.233 253.791 330.045C254.245 328.448 254.53 326.806 254.633 325.148C254.796 322.468 254.882 319.547 251.795 318.809C249.715 318.306 247.325 318.464 245.199 318.335C242.888 318.197 240.576 318.058 238.268 317.922C237.88 317.901 237.654 318.206 237.632 318.505C236.443 313.868 234.953 309.309 232.155 305.422C233.611 303.57 235.02 301.679 236.357 299.741C237.46 298.146 239.048 296.349 239.724 294.522C240.139 293.404 239.928 292.854 239.267 291.898C238.056 290.145 236.422 288.567 235.036 286.947C233.122 284.705 231.8 282.93 228.942 284.785C225.153 287.233 221.655 290.323 218.063 293.058C218.008 293.098 217.968 293.142 217.938 293.189C213.843 290.716 209.454 289.456 204.774 288.642C204.818 284.717 204.821 280.377 203.706 276.585C202.638 272.958 199.111 273.365 195.97 273.5C193.378 273.617 189.539 273.131 188.718 276.182C187.526 280.596 187.188 285.388 187.05 289.938C187.038 290.292 187.292 290.507 187.565 290.563C182.459 291.912 177.613 293.987 173.117 296.756C169.791 294.033 166.498 290.863 162.883 288.602C160.518 287.12 157.779 290.843 156.338 292.368C154.643 294.157 151.424 297.167 152.766 299.947C153.585 301.646 155.595 303.132 156.889 304.486C158.542 306.213 160.195 307.948 161.844 309.679C159.837 313.839 158.329 318.193 157.316 322.699C157.303 322.701 157.293 322.699 157.28 322.7C153.167 323.677 148.63 324.251 144.659 325.707C141.717 326.782 142.359 330.986 142.493 333.497C142.642 336.303 142.514 340.72 145.741 341.789C147.598 342.405 149.811 342.227 151.742 342.238C153.593 342.252 155.443 342.201 157.296 342.117C158.163 347.016 160.449 351.5 163.888 355.107C161.768 358.539 159.611 361.966 157.668 365.496C155.929 368.65 159.25 370.455 161.433 372.404C162.897 373.704 164.417 375.363 166.118 376.343C166.973 376.84 167.681 376.923 168.513 376.353C170.175 375.205 171.526 372.938 172.846 371.418C174.416 369.608 175.986 367.798 177.557 365.993C181.844 368.744 186.737 370.269 191.853 370.461C192.514 374.656 193.144 379.003 194.367 383.061C195.399 386.478 199.632 385.941 202.536 385.891C205.358 385.841 209.095 385.925 210.002 382.596C211.048 378.754 210.857 374.234 210.759 370.204C215.905 369.202 220.544 366.702 224.218 362.965C227.598 365.266 230.945 367.653 234.416 369.798C237.634 371.779 239.257 369.232 241.388 366.844C242.58 365.517 244.527 363.9 245.166 362.214ZM200.233 296.572C213.826 297.51 226.101 306.683 230.124 319.803C232.303 326.904 231.715 334.308 228.973 341.167C226.07 348.429 221.343 355.77 214.2 359.423C200.927 366.204 183.844 362.762 173.36 352.502C173.377 352.374 173.341 352.24 173.23 352.113C164.903 342.468 162.448 328.251 167.645 316.515C173.178 304.026 186.546 295.627 200.233 296.572Z" fill="#F8F8F8"/>
<path d="M202.351 328.522C202.057 327.697 201.509 326.983 200.838 326.418C200.6 326.163 200.318 325.939 199.999 325.76C199.636 325.557 199.255 325.431 198.867 325.359C197.894 325.093 196.853 325.122 195.894 325.57C195.268 325.862 194.784 326.367 194.527 326.964C194.119 327.4 193.787 327.896 193.573 328.433C192.374 331.435 194.742 334.38 197.837 334.414C200.94 334.448 203.45 331.605 202.351 328.522Z" fill="#F8F8F8"/>
<path d="M128.506 458.699C128.816 457.599 128.15 456.624 127.514 455.763C126.337 454.168 124.688 452.95 123.176 451.699C121.323 450.159 119.467 448.624 117.612 447.089C119.803 442.561 120.959 437.65 121.004 432.582C121.026 432.581 121.054 432.582 121.082 432.572C123.391 432.135 125.695 431.698 128.006 431.258C129.448 430.985 131.81 431.024 132.961 429.977C133.946 429.085 134.151 427.129 134.39 425.916C134.708 424.287 134.852 422.627 134.816 420.966C134.752 418.282 134.591 415.364 131.454 414.89C129.339 414.564 126.97 414.922 124.841 414.973C122.526 415.031 120.211 415.088 117.9 415.147C117.512 415.159 117.313 415.481 117.316 415.781C115.739 411.262 113.872 406.845 110.756 403.207C112.051 401.238 113.295 399.237 114.464 397.191C115.428 395.509 116.86 393.585 117.379 391.706C117.698 390.557 117.442 390.028 116.702 389.131C115.348 387.487 113.587 386.051 112.07 384.555C109.974 382.482 108.506 380.824 105.815 382.914C102.245 385.672 99.0196 389.046 95.6717 392.074C95.6208 392.119 95.5839 392.166 95.5574 392.216C91.2681 390.098 86.7886 389.211 82.0567 388.796C81.7695 384.88 81.4067 380.556 79.9759 376.872C78.6064 373.347 75.1252 374.05 72.0076 374.45C69.434 374.784 65.5674 374.624 65.0068 377.733C64.1913 382.232 64.2578 387.035 64.5034 391.581C64.5214 391.934 64.792 392.128 65.0695 392.159C60.0951 393.935 55.4411 396.411 51.1939 399.548C47.6503 397.116 44.1023 394.234 40.31 392.286C37.8271 391.009 35.4122 394.95 34.1054 396.59C32.5682 398.516 29.6142 401.786 31.1856 404.443C32.1447 406.067 34.2743 407.379 35.6775 408.619C37.4694 410.201 39.2635 411.79 41.0529 413.376C39.4043 417.689 38.2678 422.155 37.6393 426.731C37.6268 426.734 37.6166 426.732 37.6034 426.734C33.5879 428.054 29.1154 429.009 25.2809 430.795C22.4402 432.114 23.4343 436.248 23.7791 438.74C24.1649 441.523 24.4103 445.935 27.7154 446.728C29.6181 447.186 31.8082 446.821 33.7323 446.669C35.5787 446.528 37.4183 446.32 39.2568 446.079C40.5332 450.889 43.1891 455.164 46.9198 458.468C45.0974 462.068 43.2368 465.664 41.5983 469.344C40.131 472.635 43.5928 474.152 45.9322 475.91C47.5015 477.082 49.1544 478.606 50.9327 479.44C51.8265 479.863 52.539 479.886 53.3193 479.248C54.8791 477.965 56.0352 475.591 57.2213 473.966C58.6332 472.029 60.0444 470.093 61.4578 468.163C65.9618 470.542 70.9659 471.649 76.0799 471.411C77.0919 475.535 78.0859 479.812 79.6475 483.753C80.9645 487.072 85.1361 486.179 88.0254 485.886C90.8327 485.598 94.5632 485.367 95.1878 481.974C95.9049 478.057 95.3346 473.57 94.8976 469.562C99.9408 468.129 104.352 465.247 107.699 461.213C111.26 463.221 114.796 465.318 118.436 467.162C121.81 468.865 123.213 466.19 125.134 463.631C126.208 462.209 128.011 460.433 128.506 458.699ZM110.596 439.094C109.596 442.378 108.245 445.706 106.469 448.766C101.753 445.079 96.9645 441.492 92.1026 437.999C93.3947 435.135 93.6528 431.912 93.035 428.844C99.2111 426.922 105.361 424.921 111.485 422.841C112.594 428.207 112.224 433.753 110.596 439.094ZM98.9178 403.691C103.742 407.209 107.643 411.986 109.942 417.708C110.302 418.605 110.611 419.511 110.881 420.424C104.733 422.51 98.5596 424.52 92.36 426.447C91.4146 423.857 89.833 421.487 87.6883 419.697C91.3203 414.282 95.0626 408.948 98.9178 403.691ZM72.4033 397.743C72.8747 404.102 73.9844 410.368 75.7465 416.516C72.5058 417.022 69.4005 418.505 66.933 420.766C62.4985 416.829 58.0633 412.893 53.6289 408.958C58.4702 403.321 65.1134 399.255 72.4033 397.743ZM46.0537 435.001C45.3134 429.907 45.6984 424.653 47.4088 419.7C48.5047 416.528 50.1055 413.574 52.0814 410.903C56.4638 414.793 60.8462 418.683 65.2295 422.574C63.0327 425.325 61.9895 428.565 62.0541 431.706C56.6418 432.414 51.3068 433.509 46.0537 435.001ZM64.6631 445.267L60.7045 450.702C59.4748 452.389 58.2459 454.077 57.0163 455.765C56.7217 455.538 56.4238 455.313 56.1372 455.076C56.1434 454.948 56.0967 454.817 55.9745 454.699C51.187 450.018 47.9278 443.937 46.5025 437.465C51.7016 435.985 56.981 434.895 62.3349 434.182C62.9785 437.177 64.6834 439.916 67.4177 441.825C66.5382 443.049 65.0066 444.795 64.6631 445.267ZM78.2889 416.334C76.4795 410.114 75.3333 403.777 74.873 397.336C75.9731 397.198 77.08 397.097 78.1993 397.08C84.847 396.977 91.3402 398.866 96.8483 402.294C93.0008 407.539 89.2662 412.861 85.6421 418.263C83.3623 416.959 80.8325 416.339 78.2889 416.334ZM59.0417 457.225C61.0484 454.471 63.0551 451.715 65.0619 448.961C66.1149 447.516 68.2802 445.495 69.5469 443.445C72.814 445.612 76.647 446.629 80.3372 446.29C81.0495 451.958 81.7609 457.626 82.4738 463.293C74.301 463.918 65.8731 461.755 59.0417 457.225ZM97.4154 458.53C93.589 460.911 89.3344 462.377 84.9513 463.024C84.2326 457.303 83.5131 451.583 82.7951 445.862C85.6592 445.095 88.3267 443.442 90.4259 440.772C90.5785 440.578 90.7031 440.369 90.8436 440.17C95.6793 443.646 100.442 447.215 105.133 450.883C103.068 453.92 100.528 456.59 97.4154 458.53Z" fill="#F8F8F8"/>
<path d="M525.489 278.281C526.496 276.63 525.856 274.737 525.213 273.043C524.024 269.906 521.894 267.167 520.002 264.439C517.685 261.083 515.363 257.733 513.041 254.382C518.681 248.006 522.808 240.532 525.196 232.294C525.234 232.303 525.278 232.316 525.327 232.315C529.288 232.659 533.244 232.997 537.211 233.336C539.685 233.549 543.516 234.694 545.871 233.513C547.882 232.51 549.111 229.416 550.054 227.55C551.317 225.039 552.311 222.401 553.011 219.677C554.133 215.274 555.205 210.446 550.308 208.24C547.01 206.742 542.988 206.245 539.495 205.355C535.696 204.39 531.898 203.424 528.104 202.465C527.466 202.306 526.994 202.741 526.863 203.232C526.359 195.147 525.334 187.095 521.917 179.745C524.927 177.129 527.869 174.435 530.708 171.636C533.048 169.336 536.259 166.855 537.963 164.03C539.007 162.304 538.834 161.323 538.038 159.525C536.582 156.227 534.368 153.083 532.58 149.951C530.112 145.616 528.478 142.245 523.137 144.42C516.061 147.283 509.263 151.306 502.423 154.712C502.32 154.761 502.238 154.822 502.173 154.89C496.152 149.479 489.257 145.987 481.737 143.148C483.058 136.636 484.442 129.424 483.795 122.766C483.174 116.398 477.181 115.953 471.918 115.179C467.571 114.549 461.344 112.52 459.01 117.331C455.626 124.289 453.539 132.147 451.864 139.666C451.732 140.25 452.084 140.689 452.521 140.867C443.604 141.487 434.89 143.395 426.536 146.567C421.873 140.985 417.408 134.668 412.119 129.759C408.657 126.544 402.921 131.862 400.042 133.939C396.656 136.375 390.349 140.352 391.695 145.401C392.517 148.486 395.387 151.596 397.106 154.258C399.304 157.655 401.501 161.063 403.691 164.466C399.033 170.741 395.142 177.5 392.026 184.668C392.004 184.667 391.988 184.66 391.966 184.659C384.819 184.975 377.095 184.488 370.031 185.645C364.799 186.497 364.531 193.688 363.953 197.906C363.31 202.617 361.693 209.918 366.717 212.721C369.608 214.336 373.343 214.743 376.548 215.375C379.621 215.987 382.713 216.491 385.82 216.939C385.703 225.359 388.078 233.539 392.647 240.628C388.033 245.659 383.358 250.671 379.006 255.919C375.112 260.611 380.059 264.665 383.068 268.598C385.089 271.225 387.086 274.465 389.603 276.637C390.866 277.734 392.017 278.098 393.58 277.414C396.706 276.035 399.675 272.696 402.352 270.59C405.537 268.08 408.723 265.568 411.907 263.07C418.16 269.006 425.808 273.095 434.251 275.042C434.016 282.224 433.682 289.649 434.424 296.785C435.053 302.794 442.26 303.247 447.102 304.087C451.807 304.902 457.992 306.23 460.56 300.985C463.52 294.93 464.639 287.357 465.759 280.627C474.632 280.598 483.136 277.916 490.434 272.873C495.319 277.772 500.124 282.804 505.213 287.473C509.931 291.79 513.44 288.071 517.741 284.78C520.139 282.948 523.888 280.879 525.489 278.281ZM471.668 154.884C493.964 160.764 511.452 179.914 513.969 203.002C515.334 215.498 512.003 227.617 505.263 238.15C498.129 249.298 487.937 259.996 474.904 263.797C450.686 270.85 423.385 259.696 409.22 239.308C409.289 239.102 409.271 238.869 409.126 238.62C398.351 219.941 398.792 195.53 411.161 177.672C424.326 158.672 449.219 148.96 471.668 154.884Z" fill="#F8F8F8"/>
<path d="M470.263 235.783C470.027 234.224 469.791 232.666 469.556 231.108C471.943 229.61 474.05 227.762 475.826 225.656C477.066 226.534 478.497 227.427 479.754 226.181C480.584 225.359 481.161 223.943 481.757 222.951C482.556 221.617 483.353 220.283 484.152 218.95C484.469 218.42 484.42 217.534 483.795 217.218C482.883 216.756 481.97 216.451 481.018 216.292C482 213.242 482.458 210.032 482.296 206.821C483.398 206.878 484.501 206.252 485.061 205.216C486.19 203.128 484.353 201.164 484.865 199.114C485.05 198.368 484.62 197.494 483.761 197.471C482.52 197.436 481.291 197.529 480.065 197.687C479.929 197.389 479.793 197.092 479.644 196.798C478.291 194.138 476.506 191.849 474.424 189.951C475.276 189.219 475.994 188.362 476.52 187.322C476.849 186.672 476.739 185.654 475.872 185.449C474.828 185.201 473.975 184.67 473.432 183.722C472.983 182.939 471.787 182.712 471.262 183.58C470.63 184.624 469.841 185.449 468.869 186.153C466.418 184.932 463.775 184.112 461.051 183.74C461.587 182.308 460.681 180.644 459.201 180.08C457.971 179.611 456.564 179.775 455.283 179.796C453.541 179.826 451.8 179.856 450.06 179.886C449.267 179.899 448.586 180.528 448.75 181.369C448.877 182.024 449.004 182.678 449.132 183.332C449.05 183.689 449.126 184.078 449.335 184.38C449.366 184.542 449.398 184.703 449.429 184.864C448.438 185.203 447.458 185.598 446.496 186.067C444.699 186.945 443.075 188.026 441.625 189.265C441.373 188.687 441.119 188.107 440.867 187.529C440.552 186.81 439.487 186.579 438.917 187.133C437.185 188.815 435.455 190.498 433.724 192.18C433.038 192.847 433.235 193.966 434.152 194.306C434.999 194.621 435.758 195.073 436.425 195.637C433.876 200.16 432.754 205.466 433.225 210.709C431.201 210.916 429.177 211.124 427.152 211.332C426.272 211.421 426.015 212.415 426.264 213.104C426.945 214.988 427.626 216.871 428.308 218.755C428.487 219.253 429.173 219.554 429.67 219.438C431.24 219.075 432.821 218.795 434.414 218.567C435.901 222.722 438.383 226.268 441.489 228.992C440.803 229.973 440.302 231.039 440.036 232.258C439.877 232.984 440.158 233.518 440.826 233.841C442.706 234.75 444.659 235.318 446.721 235.63C447.216 235.705 447.881 235.281 447.99 234.779C448.104 234.255 448.257 233.747 448.407 233.239C451.774 234.581 455.447 235.16 459.193 234.769C459.255 235.359 459.318 235.949 459.38 236.539C459.437 237.075 460.007 237.526 460.526 237.55C463.452 237.682 466.364 237.577 469.275 237.252C469.963 237.17 470.358 236.408 470.263 235.783ZM476.763 213.059C475.827 216.832 473.848 220.388 471.017 223.347C469.579 221.153 468.143 218.958 466.705 216.765C468.129 215.222 469.214 213.33 469.853 211.262C472.119 212.006 474.422 212.601 476.763 213.059ZM474.253 197.428C474.33 197.552 474.42 197.664 474.496 197.79C476.939 201.899 477.739 206.342 477.208 210.615C474.892 210.162 472.616 209.554 470.377 208.807C470.471 208.023 470.517 207.228 470.473 206.42C470.372 204.576 469.802 202.925 468.91 201.525C470.768 200.255 472.553 198.901 474.253 197.428ZM472.776 195.403C471.05 196.918 469.232 198.317 467.325 199.603C465.937 198.28 464.202 197.346 462.351 196.898C462.162 196.828 461.97 196.768 461.779 196.707C462.618 194.338 463.457 191.97 464.296 189.601C467.544 190.723 470.502 192.676 472.776 195.403ZM461.874 188.951L459.315 196.174C457.01 195.905 454.647 196.276 452.491 197.36C451.102 195.14 449.619 192.989 448.028 190.912C452.35 188.589 457.289 187.981 461.874 188.951ZM445.891 192.231C447.501 194.31 449.001 196.463 450.393 198.695C450.038 198.98 449.691 199.284 449.356 199.619C448.292 200.683 447.467 201.874 446.871 203.134C444.286 202.679 441.7 202.224 439.114 201.767C440.311 198.026 442.565 194.646 445.891 192.231ZM440.809 219.214C440.801 218.875 440.717 218.515 440.521 218.14C438.261 213.822 437.596 208.827 438.486 204.18C441.005 204.624 443.525 205.068 446.044 205.512C445.289 208.652 445.781 211.986 447.407 214.755C445.208 216.241 443.008 217.727 440.809 219.214ZM441.51 221.734L448.889 216.747C450.03 218.013 451.449 219.084 453.163 219.831C453.945 220.172 454.722 220.391 455.494 220.557C454.969 223.554 454.502 226.561 454.129 229.582C449.143 228.832 444.516 226.07 441.51 221.734ZM468.126 225.942C464.587 228.645 460.557 229.837 456.619 229.782C456.988 226.787 457.451 223.804 457.97 220.832C460.499 220.811 462.859 219.915 464.84 218.445C466.286 220.653 467.733 222.86 469.179 225.068C468.833 225.363 468.491 225.663 468.126 225.942ZM479.941 219.086C480.001 218.952 480.068 218.82 480.127 218.685C480.52 218.715 480.902 218.782 481.28 218.884L481.124 219.143C480.764 218.916 480.317 218.861 479.941 219.086ZM467.197 233.38C467.107 233.081 466.921 232.826 466.654 232.686C466.847 232.597 467.036 232.501 467.226 232.407C467.279 232.758 467.332 233.109 467.385 233.459C467.326 233.427 467.263 233.401 467.197 233.38Z" fill="#F8F8F8"/>
<path d="M377.947 337.669C378.46 336.3 377.716 334.986 376.999 333.82C375.67 331.661 373.701 329.93 371.908 328.172C369.713 326.01 367.513 323.854 365.314 321.697C368.596 316.163 370.598 310.029 371.201 303.576C371.231 303.577 371.264 303.581 371.302 303.572C374.29 303.265 377.275 302.955 380.268 302.643C382.135 302.45 385.141 302.756 386.721 301.546C388.071 300.515 388.544 298.045 388.98 296.526C389.56 294.483 389.924 292.384 390.057 290.262C390.264 286.834 390.374 283.099 386.427 282.156C383.766 281.512 380.71 281.715 377.99 281.55C375.034 281.372 372.077 281.196 369.126 281.022C368.629 280.995 368.341 281.384 368.313 281.767C366.792 275.838 364.887 270.006 361.308 265.036C363.171 262.666 364.972 260.25 366.681 257.769C368.092 255.729 370.123 253.431 370.987 251.093C371.518 249.663 371.25 248.96 370.404 247.738C368.855 245.496 366.766 243.478 364.993 241.407C362.546 238.54 360.855 236.269 357.199 238.642C352.353 241.772 347.879 245.723 343.285 249.222C343.215 249.272 343.163 249.329 343.125 249.388C337.888 246.227 332.274 244.614 326.289 243.574C326.345 238.553 326.349 233.004 324.923 228.154C323.558 223.515 319.046 224.035 315.03 224.208C311.714 224.358 306.803 223.736 305.754 227.638C304.23 233.283 303.797 239.411 303.62 245.231C303.605 245.683 303.929 245.958 304.279 246.029C297.748 247.755 291.55 250.408 285.8 253.949C281.547 250.468 277.336 246.412 272.713 243.52C269.687 241.625 266.184 246.386 264.341 248.337C262.175 250.625 258.057 254.474 259.773 258.03C260.822 260.203 263.393 262.103 265.048 263.835C267.161 266.045 269.276 268.263 271.385 270.477C268.819 275.797 266.89 281.366 265.595 287.13C265.578 287.132 265.565 287.129 265.549 287.131C260.289 288.38 254.487 289.115 249.408 290.977C245.647 292.352 246.468 297.728 246.638 300.939C246.829 304.527 246.665 310.177 250.792 311.545C253.167 312.333 255.998 312.104 258.467 312.118C260.834 312.137 263.201 312.071 265.571 311.963C266.679 318.229 269.604 323.963 274.001 328.576C271.29 332.966 268.532 337.35 266.047 341.863C263.823 345.898 268.07 348.205 270.863 350.698C272.735 352.36 274.678 354.482 276.854 355.736C277.948 356.371 278.853 356.478 279.917 355.749C282.042 354.281 283.772 351.381 285.459 349.437C287.467 347.122 289.475 344.806 291.484 342.499C296.968 346.017 303.226 347.967 309.769 348.214C310.614 353.579 311.42 359.137 312.985 364.328C314.305 368.699 319.718 368.012 323.432 367.948C327.041 367.885 331.821 367.991 332.981 363.735C334.318 358.82 334.074 353.04 333.95 347.887C340.532 346.605 346.464 343.407 351.165 338.627C355.486 341.571 359.767 344.624 364.207 347.366C368.323 349.901 370.399 346.643 373.124 343.59C374.638 341.892 377.128 339.824 377.947 337.669ZM357.608 309.764C355.608 309.591 353.672 309.189 351.78 308.538C353.222 304.595 354.031 300.411 354.111 296.19C356.231 296.337 358.333 296.158 360.393 295.652C360.29 300.432 359.32 305.184 357.608 309.764ZM358.708 283.428C359.686 286.614 360.218 289.847 360.359 293.081C358.303 293.664 356.197 293.86 354.071 293.685C354.054 293.342 354.055 292.998 354.028 292.655C353.783 289.505 353.081 286.47 351.999 283.602C353.733 282.277 355.622 281.222 357.661 280.485C358.043 281.449 358.402 282.426 358.708 283.428ZM348.528 266.578C351.865 269.939 354.641 273.858 356.681 278.211C354.657 278.953 352.76 279.949 350.998 281.221C349.307 277.598 346.992 274.287 344.202 271.416C345.644 269.803 347.087 268.19 348.528 266.578ZM346.721 264.857C345.283 266.466 343.844 268.075 342.405 269.684C339.405 266.985 335.959 264.755 332.216 263.128C333.42 261.305 334.282 259.317 334.786 257.212C339.16 259.102 343.197 261.694 346.721 264.857ZM320.478 253.717C324.598 254.001 328.621 254.884 332.435 256.278C331.976 258.4 331.112 260.371 329.833 262.186C329.217 261.968 328.601 261.745 327.973 261.559C325.001 260.68 321.997 260.224 319.021 260.141C318.495 257.974 317.968 255.807 317.443 253.639C318.452 253.63 319.464 253.646 320.478 253.717ZM314.913 253.744C315.431 255.883 315.951 258.021 316.469 260.16C311.768 260.376 307.181 261.539 302.951 263.547C302.25 261.477 301.548 259.407 300.845 257.336C305.279 255.347 310.039 254.104 314.913 253.744ZM298.58 258.432C299.29 260.525 300 262.618 300.709 264.71C297.299 266.633 294.162 269.112 291.454 272.117C289.808 270.595 288.074 269.186 286.25 267.881C289.764 264.031 293.967 260.829 298.58 258.432ZM278.802 279.222C280.312 275.813 282.281 272.645 284.61 269.779C286.449 271.088 288.196 272.501 289.854 274.028C289.763 274.143 289.665 274.248 289.576 274.364C287.43 277.153 285.765 280.134 284.558 283.219C282.294 282.759 280.031 282.299 277.767 281.839C278.083 280.959 278.42 280.084 278.802 279.222ZM276.99 284.227C279.234 284.683 281.479 285.14 283.723 285.596C282.98 287.988 282.5 290.429 282.282 292.882C279.99 293.477 277.681 294.001 275.361 294.48C275.481 291.02 276.019 287.575 276.99 284.227ZM275.336 297.025C277.617 296.559 279.885 296.042 282.142 295.471C282.089 299.077 282.601 302.678 283.642 306.157C281.459 306.87 279.275 307.585 277.091 308.297C276.029 304.633 275.428 300.837 275.336 297.025ZM284.219 322.599C281.483 318.975 279.344 314.935 277.848 310.676C280.044 309.958 282.239 309.241 284.435 308.524C285.632 311.708 287.289 314.763 289.394 317.59C287.669 319.259 285.945 320.929 284.219 322.599ZM286.111 325.248C286.133 325.085 286.086 324.914 285.945 324.75C285.887 324.683 285.832 324.612 285.774 324.544C287.5 322.874 289.225 321.204 290.951 319.533C291.574 320.265 292.219 320.984 292.906 321.677C293.038 322.061 293.265 322.432 293.632 322.757C294.927 323.907 296.308 324.941 297.747 325.883C296.933 327.963 296.042 330.007 295.069 332.014C291.82 330.126 288.791 327.872 286.111 325.248ZM297.115 319.161C296.984 318.844 296.782 318.537 296.495 318.258C282.968 305.107 284.464 283.541 298.982 271.84C311.913 261.417 330.677 263.588 341.642 275.865C352.271 287.769 351.166 306.448 340.376 317.923C329.021 329.996 309.312 329.625 297.115 319.161ZM297.266 333.212C298.228 331.242 299.111 329.238 299.919 327.2C302.685 328.747 305.638 329.945 308.697 330.752C307.936 332.778 307.411 334.868 307.142 337.008C303.723 336.112 300.409 334.824 297.266 333.212ZM309.595 337.584C309.85 335.433 310.364 333.351 311.154 331.318C314.898 332.049 318.749 332.228 322.54 331.815C322.407 334.032 322.359 336.249 322.403 338.467C318.129 338.775 313.808 338.457 309.595 337.584ZM324.891 338.213C324.85 335.959 324.91 333.705 325.063 331.451C327.727 330.971 330.341 330.202 332.848 329.115C333.713 331.229 334.442 333.393 335.022 335.605C331.757 336.911 328.35 337.767 324.891 338.213ZM338.343 334.099C338.005 334.272 337.662 334.43 337.32 334.592C336.715 332.365 335.982 330.184 335.107 328.047C338.511 326.261 341.517 323.91 344.082 321.157C345.568 322.686 347.055 324.215 348.541 325.745C345.68 329.153 342.305 332.073 338.343 334.099ZM345.713 319.279C347.784 316.72 349.51 313.88 350.844 310.858C352.726 311.516 354.662 311.962 356.643 312.182C354.928 316.209 352.761 320.205 350.093 323.783C348.632 322.282 347.173 320.78 345.713 319.279Z" fill="#F8F8F8"/>
<path d="M300.711 557.69C301.112 556.62 300.531 555.592 299.97 554.681C298.931 552.992 297.391 551.639 295.99 550.265C294.273 548.575 292.553 546.888 290.833 545.202C293.398 540.874 294.964 536.078 295.436 531.033C295.459 531.033 295.486 531.037 295.515 531.03C297.851 530.79 300.186 530.547 302.525 530.304C303.985 530.152 306.335 530.392 307.57 529.446C308.625 528.64 308.996 526.709 309.336 525.521C309.789 523.924 310.074 522.282 310.178 520.623C310.34 517.944 310.426 515.023 307.34 514.286C305.26 513.782 302.87 513.94 300.745 513.812C298.433 513.673 296.122 513.535 293.813 513.399C293.425 513.377 293.199 513.682 293.178 513.981C291.989 509.344 290.499 504.786 287.701 500.899C289.157 499.047 290.566 497.156 291.903 495.218C293.006 493.623 294.594 491.826 295.27 489.999C295.685 488.881 295.475 488.331 294.813 487.375C293.602 485.622 291.969 484.044 290.583 482.425C288.669 480.183 287.347 478.408 284.489 480.263C280.701 482.71 277.202 485.8 273.61 488.536C273.555 488.576 273.515 488.62 273.485 488.666C269.39 486.194 265.001 484.933 260.321 484.12C260.365 480.194 260.368 475.855 259.253 472.062C258.186 468.435 254.658 468.842 251.517 468.978C248.925 469.094 245.086 468.609 244.266 471.66C243.073 476.074 242.735 480.866 242.597 485.416C242.585 485.769 242.839 485.985 243.112 486.04C238.006 487.39 233.16 489.464 228.664 492.233C225.338 489.511 222.045 486.341 218.43 484.079C216.065 482.597 213.326 486.32 211.885 487.846C210.19 489.635 206.971 492.645 208.313 495.424C209.132 497.123 211.142 498.609 212.436 499.963C214.089 501.69 215.742 503.426 217.391 505.157C215.385 509.316 213.876 513.67 212.863 518.177C212.851 518.178 212.84 518.176 212.827 518.178C208.714 519.154 204.177 519.729 200.206 521.185C197.265 522.259 197.906 526.463 198.04 528.975C198.189 531.781 198.061 536.198 201.288 537.267C203.146 537.883 205.359 537.704 207.289 537.715C209.14 537.73 210.991 537.679 212.843 537.594C213.71 542.494 215.996 546.977 219.435 550.584C217.316 554.017 215.159 557.444 213.215 560.973C211.476 564.127 214.798 565.932 216.98 567.881C218.444 569.182 219.964 570.84 221.665 571.821C222.52 572.317 223.228 572.401 224.06 571.83C225.722 570.683 227.074 568.416 228.393 566.896C229.963 565.085 231.532 563.275 233.104 561.47C237.392 564.222 242.284 565.746 247.4 565.939C248.061 570.134 248.691 574.48 249.915 578.538C250.946 581.956 255.179 581.418 258.083 581.368C260.905 581.319 264.642 581.402 265.549 578.074C266.595 574.231 266.404 569.712 266.306 565.682C271.452 564.679 276.091 562.18 279.766 558.442C283.145 560.744 286.492 563.13 289.963 565.275C293.181 567.257 294.804 564.709 296.935 562.322C298.125 560.992 300.071 559.376 300.711 557.69ZM255.777 492.048C269.37 492.985 281.646 502.159 285.669 515.279C287.848 522.38 287.26 529.784 284.518 536.644C281.615 543.906 276.888 551.246 269.745 554.899C256.473 561.68 239.389 558.238 228.906 547.978C228.923 547.85 228.886 547.717 228.775 547.589C220.448 537.945 217.993 523.728 223.191 511.992C228.723 499.502 242.091 491.102 255.777 492.048Z" fill="#F8F8F8"/>
<path d="M257.896 523.997C257.602 523.172 257.054 522.458 256.383 521.893C256.145 521.638 255.863 521.415 255.544 521.235C255.181 521.032 254.8 520.906 254.412 520.835C253.439 520.568 252.398 520.598 251.439 521.045C250.813 521.338 250.329 521.842 250.072 522.439C249.664 522.876 249.332 523.371 249.118 523.908C247.919 526.911 250.287 529.855 253.382 529.889C256.485 529.924 258.994 527.08 257.896 523.997Z" fill="#F8F8F8"/>
<path d="M230.97 472.697C231.37 471.628 230.789 470.6 230.229 469.688C229.191 467.999 227.65 466.646 226.249 465.272C224.532 463.582 222.813 461.895 221.092 460.209C223.657 455.881 225.223 451.085 225.695 446.04C225.719 446.041 225.746 446.044 225.774 446.037C228.111 445.797 230.445 445.554 232.784 445.311C234.244 445.159 236.594 445.399 237.829 444.453C238.885 443.647 239.255 441.715 239.596 440.527C240.049 438.93 240.334 437.289 240.438 435.63C240.6 432.95 240.686 430.029 237.6 429.293C235.52 428.789 233.129 428.948 231.004 428.819C228.692 428.681 226.381 428.542 224.073 428.406C223.685 428.384 223.459 428.689 223.437 428.988C222.247 424.352 220.758 419.793 217.96 415.905C219.416 414.053 220.824 412.164 222.162 410.224C223.264 408.629 224.853 406.833 225.529 405.004C225.944 403.886 225.734 403.336 225.072 402.381C223.862 400.628 222.228 399.049 220.842 397.43C218.928 395.188 217.606 393.413 214.748 395.268C210.959 397.715 207.46 400.805 203.869 403.54C203.814 403.579 203.774 403.624 203.742 403.671C199.648 401.199 195.258 399.938 190.578 399.124C190.623 395.199 190.625 390.86 189.511 387.067C188.443 383.44 184.915 383.847 181.775 383.982C179.182 384.099 175.343 383.613 174.523 386.664C173.331 391.078 172.993 395.87 172.855 400.42C172.843 400.774 173.097 400.989 173.37 401.044C168.263 402.394 163.418 404.468 158.922 407.237C155.596 404.514 152.304 401.344 148.689 399.082C146.323 397.601 143.585 401.324 142.144 402.848C140.449 404.638 137.231 407.647 138.572 410.427C139.391 412.126 141.402 413.613 142.695 414.966C144.348 416.693 146.002 418.428 147.65 420.16C145.643 424.319 144.135 428.673 143.122 433.18C143.109 433.181 143.098 433.179 143.086 433.18C138.973 434.157 134.436 434.731 130.465 436.188C127.523 437.263 128.165 441.466 128.298 443.978C128.448 446.784 128.32 451.202 131.546 452.27C133.403 452.886 135.616 452.708 137.547 452.719C139.398 452.733 141.249 452.682 143.102 452.597C143.968 457.497 146.255 461.98 149.694 465.587C147.574 469.02 145.418 472.447 143.474 475.976C141.735 479.13 145.056 480.935 147.24 482.884C148.704 484.183 150.223 485.842 151.925 486.823C152.779 487.319 153.487 487.403 154.319 486.833C155.981 485.686 157.332 483.418 158.652 481.899C160.222 480.088 161.792 478.278 163.363 476.473C167.65 479.224 172.543 480.749 177.659 480.942C178.32 485.136 178.951 489.482 180.173 493.541C181.205 496.959 185.438 496.421 188.342 496.371C191.164 496.322 194.9 496.405 195.809 493.077C196.854 489.235 196.663 484.715 196.566 480.685C201.712 479.682 206.35 477.183 210.025 473.446C213.404 475.747 216.751 478.135 220.222 480.278C223.44 482.261 225.064 479.713 227.194 477.325C228.383 476.001 230.33 474.383 230.97 472.697ZM214.776 451.652C213.502 454.84 211.876 458.043 209.849 460.941C205.461 456.87 200.991 452.892 196.441 449.002C197.97 446.257 198.499 443.068 198.142 439.958C204.458 438.564 210.754 437.087 217.033 435.532C217.685 440.972 216.848 446.467 214.776 451.652ZM206.125 415.392C210.636 419.303 214.12 424.392 215.927 430.288C216.211 431.212 216.443 432.142 216.634 433.075C210.333 434.635 204.012 436.118 197.673 437.515C196.949 434.854 195.573 432.36 193.587 430.394C197.66 425.304 201.84 420.304 206.125 415.392ZM180.206 407.23C180.139 413.605 180.717 419.942 181.954 426.217C178.683 426.448 175.462 427.663 172.814 429.709C168.726 425.413 164.639 421.116 160.552 416.82C165.852 411.612 172.814 408.121 180.206 407.23ZM150.809 442.132C150.502 436.994 151.328 431.791 153.449 426.999C154.808 423.931 156.653 421.123 158.846 418.628C162.885 422.875 166.925 427.12 170.964 431.366C168.543 433.921 167.231 437.063 167.03 440.197C161.578 440.447 156.169 441.089 150.809 442.132ZM168.487 453.931L164.084 459.013C162.717 460.591 161.35 462.169 159.982 463.747C159.708 463.496 159.43 463.247 159.164 462.987C159.181 462.859 159.144 462.725 159.034 462.597C154.658 457.529 151.923 451.196 151.049 444.625C156.353 443.589 161.706 442.948 167.101 442.69C167.49 445.728 168.957 448.602 171.522 450.735C170.542 451.879 168.869 453.491 168.487 453.931ZM184.503 426.249C183.224 419.899 182.617 413.488 182.7 407.03C183.808 406.986 184.92 406.979 186.036 407.056C192.668 407.514 198.98 409.943 204.178 413.824C199.902 418.726 195.732 423.715 191.665 428.791C189.506 427.3 187.037 426.469 184.503 426.249ZM161.877 465.373C164.108 462.798 166.34 460.222 168.571 457.646C169.742 456.294 172.071 454.464 173.505 452.528C176.578 454.963 180.312 456.3 184.018 456.273C184.249 461.981 184.482 467.688 184.713 473.396C176.518 473.327 168.302 470.463 161.877 465.373ZM200.003 469.908C195.99 471.958 191.627 473.059 187.205 473.334C186.971 467.573 186.736 461.813 186.503 456.052C189.421 455.529 192.219 454.107 194.536 451.625C194.705 451.443 194.846 451.246 195.003 451.059C199.528 454.931 203.973 458.89 208.338 462.939C206.026 465.791 203.27 468.237 200.003 469.908Z" fill="#F8F8F8"/>
</g>
<defs>
<clipPath id="clip0">
<rect width="314.831" height="558.31" fill="white" transform="translate(343.302) rotate(37.9442)"/>
</clipPath>
</defs>
</svg>
