<svg width="43" height="43" viewBox="0 0 43 43" fill="none" xmlns="http://www.w3.org/2000/svg">
<g clip-path="url(#clip0)">
<path d="M26.5167 25.0833H25.7283C25.4318 25.0839 25.1666 24.8989 25.0647 24.6204C24.9773 24.391 24.8834 24.1667 24.7823 23.9446C24.6567 23.6744 24.7141 23.3545 24.9257 23.1448L25.4875 22.5822C26.3216 21.7407 26.3201 20.3837 25.484 19.5442L23.4587 17.5189C22.6181 16.6833 21.2605 16.6833 20.42 17.5189L19.8581 18.0801C19.648 18.2909 19.3286 18.3481 19.0583 18.2234C18.8362 18.1224 18.6118 18.0285 18.3818 17.9367C18.1018 17.8356 17.9156 17.5694 17.9167 17.2717V16.4833C17.9167 15.2959 16.9541 14.3333 15.7667 14.3333H12.9C11.7126 14.3333 10.75 15.2959 10.75 16.4833V17.2717C10.7505 17.5682 10.5655 17.8335 10.287 17.9353C10.0577 18.0227 9.83338 18.1166 9.61122 18.2177C9.34095 18.3426 9.02149 18.2854 8.81142 18.0743L8.24883 17.5125C7.40836 16.6774 6.05135 16.6774 5.21088 17.5125L3.18558 19.5442C2.34995 20.3848 2.34995 21.7423 3.18558 22.5829L3.74673 23.1448C3.95833 23.3545 4.01566 23.6744 3.89007 23.9446C3.78902 24.1667 3.69513 24.391 3.60698 24.6211C3.50441 24.9012 3.23665 25.0864 2.93833 25.0833H2.15C0.962573 25.0833 0 26.0459 0 27.2333V30.1C0 31.2874 0.962573 32.25 2.15 32.25H2.93833C3.23485 32.2495 3.50011 32.4345 3.60197 32.713C3.6894 32.9423 3.78328 33.1666 3.88433 33.3888C4.00993 33.659 3.9526 33.9789 3.741 34.1886L3.17913 34.7512C2.34404 35.5916 2.34404 36.9487 3.17913 37.7891L5.20443 39.8144C6.04499 40.6501 7.40254 40.6501 8.2431 39.8144L8.80497 39.2533C9.01513 39.0425 9.3345 38.9852 9.60477 39.1099C9.82693 39.211 10.0513 39.3049 10.2813 39.3966C10.5627 39.4966 10.7505 39.7631 10.75 40.0617V40.85C10.75 42.0374 11.7126 43 12.9 43H15.7667C16.9541 43 17.9167 42.0374 17.9167 40.85V40.0617C17.9161 39.7652 18.1011 39.4999 18.3796 39.398C18.609 39.3106 18.8333 39.2167 19.0555 39.1157C19.3257 38.9907 19.6452 39.0479 19.8553 39.259L20.4178 39.8209C21.2595 40.6546 22.6161 40.653 23.4558 39.8173L25.4811 37.792C26.3167 36.9514 26.3167 35.5939 25.4811 34.7533L24.9199 34.1915C24.7083 33.9817 24.651 33.6618 24.7766 33.3917C24.8777 33.1695 24.9715 32.9452 25.0633 32.7151C25.1644 32.4352 25.4307 32.2489 25.7283 32.25H26.5167C27.7041 32.25 28.6667 31.2874 28.6667 30.1V27.2333C28.6667 26.0459 27.7041 25.0833 26.5167 25.0833ZM27.2333 30.1C27.2333 30.4958 26.9124 30.8167 26.5167 30.8167H25.7283C24.8374 30.82 24.0401 31.3707 23.7217 32.2027C23.6457 32.4034 23.5636 32.6009 23.4751 32.7954C23.1067 33.6088 23.2776 34.5652 23.9051 35.2005L24.4656 35.7617C24.7456 36.0414 24.7459 36.4952 24.4661 36.7752C24.4659 36.7754 24.4657 36.7756 24.4656 36.7758L22.4403 38.8011C22.1604 39.0808 21.7068 39.0808 21.4269 38.8011L20.865 38.2399C20.23 37.6118 19.2732 37.4408 18.4599 37.8099C18.2657 37.8981 18.0679 37.9805 17.8687 38.0564C17.0372 38.3748 16.4869 39.1714 16.4833 40.0617V40.85C16.4833 41.2458 16.1624 41.5667 15.7667 41.5667H12.9C12.5042 41.5667 12.1833 41.2458 12.1833 40.85V40.0617C12.18 39.1708 11.6294 38.3735 10.7973 38.055C10.5966 37.979 10.3991 37.8969 10.2046 37.8085C9.3912 37.4402 8.4349 37.6112 7.79948 38.2385L7.23833 38.7989C6.95866 39.0789 6.50483 39.0792 6.22479 38.7994C6.22461 38.7993 6.22443 38.7991 6.22425 38.7989L4.19895 36.7758C3.91918 36.4959 3.91918 36.0422 4.19895 35.7624L4.7601 35.2005C5.38763 34.5652 5.55856 33.6088 5.1901 32.7954C5.10195 32.6012 5.01953 32.4034 4.94357 32.2041C4.6259 31.3718 3.82915 30.8206 2.93833 30.8167H2.15C1.75422 30.8167 1.43333 30.4958 1.43333 30.1V27.2333C1.43333 26.8376 1.75422 26.5167 2.15 26.5167H2.93833C3.82924 26.5134 4.62653 25.9627 4.945 25.1306C5.02097 24.93 5.10312 24.7324 5.19153 24.538C5.55999 23.7245 5.38898 22.7682 4.76153 22.1328L4.19823 21.5717C3.9182 21.292 3.91793 20.8382 4.1977 20.5581C4.19788 20.558 4.19805 20.5578 4.19823 20.5576L6.22353 18.5323C6.50339 18.2525 6.95704 18.2525 7.2369 18.5323L7.79877 19.0934C8.43382 19.7215 9.39057 19.8925 10.2039 19.5234C10.3981 19.4353 10.5959 19.3529 10.7952 19.2769C11.6277 18.9595 12.1793 18.1627 12.1833 17.2717V16.4833C12.1833 16.0876 12.5042 15.7667 12.9 15.7667H15.7667C16.1624 15.7667 16.4833 16.0876 16.4833 16.4833V17.2717C16.4867 18.1626 17.0373 18.9599 17.8694 19.2783C18.07 19.3543 18.2676 19.4365 18.4621 19.5249C19.2754 19.894 20.2321 19.7229 20.8672 19.0949L21.4283 18.5344C21.7093 18.2566 22.1615 18.2566 22.4424 18.5344L24.4677 20.5597C24.7475 20.8396 24.7475 21.2933 24.4677 21.5731L23.9066 22.135C23.2791 22.7703 23.1081 23.7267 23.4766 24.5401C23.5647 24.7343 23.6471 24.9321 23.7231 25.1314C24.0415 25.9628 24.8381 26.5131 25.7283 26.5167H26.5167C26.9124 26.5167 27.2333 26.8376 27.2333 27.2333V30.1Z" fill="url(#paint0_linear)"/>
<path d="M20.7693 28.38C20.7621 28.208 20.7499 28.0367 20.7291 27.8661C20.7062 27.6827 20.679 27.5006 20.641 27.3222C20.6159 27.2054 20.5829 27.09 20.5514 26.9739C20.5113 26.8262 20.4661 26.6808 20.4159 26.5374C20.3808 26.4378 20.3443 26.3389 20.307 26.2407C20.2147 26.0112 20.1092 25.7872 19.991 25.5699C19.9816 25.5534 19.9759 25.5355 19.9666 25.519C19.7802 25.1872 19.5643 24.8727 19.3216 24.5795C19.3008 24.5537 19.2772 24.5293 19.2557 24.5042C19.1568 24.3874 19.055 24.2742 18.9482 24.166C18.8923 24.1079 18.8335 24.0535 18.7748 23.9976C18.7031 23.9309 18.6314 23.865 18.5598 23.8019C18.4728 23.7264 18.3842 23.6533 18.2939 23.5826L18.1764 23.4952C17.0674 22.6645 15.7191 22.2159 14.3336 22.2166C14.2619 22.2166 14.1903 22.2274 14.1186 22.2302C13.9659 22.2345 13.8126 22.2431 13.6585 22.2589C13.5775 22.2675 13.4958 22.2768 13.4148 22.2883C13.1812 22.319 12.9494 22.3624 12.7204 22.418C9.26954 23.3097 7.19497 26.8302 8.08668 30.281C8.67435 32.555 10.451 34.3302 12.7254 34.916C12.7369 34.916 12.749 34.9196 12.7612 34.9224C13.0088 34.9842 13.2595 35.0321 13.5123 35.0658C13.6793 35.0866 13.8463 35.0909 14.014 35.0987C14.1258 35.1045 14.229 35.121 14.3458 35.121C14.55 35.121 14.7622 35.1073 14.9786 35.0858C15.0015 35.0858 15.0245 35.0794 15.0503 35.0765C15.2244 35.0572 15.4007 35.0314 15.5806 34.9955C15.6523 34.9819 15.7189 34.964 15.7877 34.9482C15.9138 34.9189 16.0393 34.888 16.1683 34.8501C16.2686 34.82 16.3661 34.7848 16.4642 34.7504C16.5624 34.716 16.6642 34.6788 16.766 34.6401C16.8677 34.6014 16.953 34.5569 17.0455 34.5139C17.1659 34.4588 17.2855 34.4043 17.4038 34.3398H17.4081C18.0769 33.9817 18.6947 33.5356 19.2449 33.0132C19.3935 32.8746 19.5228 32.7164 19.629 32.5431C20.1884 31.6464 20.5559 30.6435 20.7083 29.5976C20.7284 29.4593 20.7463 29.321 20.7571 29.1798C20.7671 29.0501 20.7743 28.9211 20.7771 28.7921C20.7771 28.7512 20.7829 28.7125 20.7829 28.6717C20.7836 28.5706 20.7736 28.4774 20.7693 28.38ZM19.3409 28.8494C19.3409 28.9089 19.3359 28.9684 19.3323 29.0271C19.3194 29.2006 19.2972 29.374 19.2678 29.5481C19 31.0382 18.0749 32.3282 16.7495 33.0598C16.6606 33.1064 16.5732 33.1501 16.4857 33.1903L16.4263 33.2189C16.0099 33.4079 15.5704 33.541 15.1191 33.6145C15.0875 33.6195 15.0553 33.6253 15.023 33.6296C14.9334 33.6425 14.8453 33.6532 14.7579 33.6611C14.6425 33.6711 14.5264 33.6769 14.4081 33.679C14.358 33.679 14.3085 33.679 14.2583 33.679C14.0888 33.6771 13.9195 33.6666 13.7509 33.6475L13.6649 33.6375C13.4679 33.6117 13.2724 33.5748 13.0794 33.5271C10.3953 32.8401 8.77639 30.1072 9.46331 27.4231C9.91723 25.6496 11.3013 24.2641 13.0744 23.8084V23.8076C13.4861 23.7038 13.909 23.6508 14.3336 23.65C14.5385 23.6511 14.7432 23.665 14.9463 23.6915C15.0008 23.698 15.0546 23.708 15.1083 23.7159C15.2631 23.7403 15.4165 23.7711 15.5677 23.8098C15.6171 23.8227 15.6666 23.8342 15.7153 23.8478C16.0964 23.9578 16.4633 24.1122 16.8082 24.3079C16.8634 24.3401 16.9172 24.3738 16.9716 24.4075C17.0849 24.4792 17.1945 24.5508 17.3027 24.6325C17.3608 24.6748 17.4196 24.7164 17.4755 24.7615C17.6161 24.8739 17.7508 24.9935 17.8789 25.1199C17.9298 25.1715 17.9764 25.2281 18.0259 25.2818C18.1083 25.3714 18.1885 25.4631 18.2652 25.5599C18.3183 25.6265 18.3691 25.6953 18.4193 25.7649C18.491 25.8681 18.5626 25.9756 18.6271 26.0845C18.663 26.144 18.6988 26.202 18.7354 26.2629C18.8278 26.4331 18.9101 26.6085 18.9819 26.7883C19.0106 26.8599 19.0349 26.9316 19.0607 27.0033C19.1073 27.1351 19.1474 27.2684 19.1826 27.4032C19.2005 27.4748 19.2205 27.5386 19.2356 27.6081C19.2774 27.8018 19.3078 27.9978 19.3266 28.1951C19.3309 28.2474 19.3309 28.3004 19.3345 28.3527C19.3445 28.5176 19.3474 28.6831 19.3409 28.8494Z" fill="url(#paint1_linear)"/>
<path d="M40.8502 15.05H38.5963C38.2958 15.053 38.0269 14.8638 37.9284 14.5799C37.7061 13.9142 37.4372 13.2649 37.1236 12.637C36.9904 12.3658 37.0459 12.0398 37.2612 11.8279L38.8593 10.2276C39.6982 9.38807 39.6982 8.02765 38.8593 7.18817L35.8121 4.14592C34.9726 3.30706 33.6122 3.30706 32.7727 4.14592L31.1752 5.74265C30.9635 5.95783 30.638 6.01355 30.3668 5.88097C29.7389 5.56572 29.0894 5.29536 28.4232 5.07185C28.1382 4.97429 27.9475 4.70519 27.9502 4.40392V2.15C27.9502 0.962573 26.9877 0 25.8002 0H21.5002C20.3128 0 19.3502 0.962573 19.3502 2.15V4.40392C19.3533 4.70447 19.1641 4.97331 18.8801 5.07185C18.2143 5.29527 17.565 5.56545 16.9372 5.88025C16.666 6.01382 16.3399 5.95837 16.1281 5.74265L14.5278 4.14448C13.6873 3.30804 12.3289 3.30804 11.4884 4.14448L8.44686 7.18602C7.60756 8.02559 7.60756 9.38654 8.44686 10.2261L10.7968 12.5804C11.0811 12.8557 11.5348 12.8486 11.8102 12.5642C12.0788 12.2869 12.0795 11.8465 11.8116 11.5684L9.46023 9.2149C9.18046 8.93504 9.18046 8.48139 9.46023 8.20153L12.5018 5.16C12.7816 4.88023 13.2353 4.88023 13.5151 5.16L15.1162 6.75817C15.7639 7.4098 16.7565 7.57266 17.5786 7.16237C18.1463 6.87812 18.7333 6.63409 19.3352 6.43208C20.204 6.13798 20.7873 5.32116 20.7836 4.40392V2.15C20.7836 1.75422 21.1045 1.43333 21.5002 1.43333H25.8002C26.196 1.43333 26.5169 1.75422 26.5169 2.15V4.40392C26.5132 5.32098 27.0966 6.13753 27.9653 6.43137C28.5675 6.63347 29.1547 6.87767 29.7225 7.16237C30.5448 7.57051 31.5361 7.40747 32.1843 6.75745L33.7853 5.16C34.0652 4.88023 34.5188 4.88023 34.7987 5.16L37.8402 8.20225C38.1196 8.48202 38.1196 8.93513 37.8402 9.2149L36.2421 10.8159C35.5911 11.4641 35.4283 12.4562 35.8379 13.2784C36.1221 13.8461 36.3661 14.433 36.5681 15.035C36.8621 15.9039 37.679 16.4873 38.5963 16.4833H40.8502C41.246 16.4833 41.5669 16.8042 41.5669 17.2V21.5C41.5669 21.8958 41.246 22.2167 40.8502 22.2167H38.5963C37.6792 22.213 36.8627 22.7964 36.5689 23.6651C36.3669 24.2672 36.1226 24.8544 35.8379 25.4223C35.429 26.2445 35.5921 27.2361 36.2428 27.8841L37.8409 29.4851C38.1207 29.765 38.1207 30.2186 37.8409 30.4985L34.798 33.54C34.5182 33.8193 34.0651 33.8193 33.7853 33.54L31.4304 31.1901C31.155 30.9057 30.7012 30.8985 30.417 31.1739C30.1327 31.4493 30.1255 31.903 30.4009 32.1873C30.4066 32.1932 30.4125 32.1991 30.4184 32.2049L32.7727 34.5548C33.6122 35.3937 34.9726 35.3937 35.8121 34.5548L38.8536 31.514C39.6929 30.6744 39.6929 29.3135 38.8536 28.4739L37.2576 26.875C37.0426 26.6632 36.9869 26.3378 37.1193 26.0666C37.4345 25.4386 37.7049 24.7891 37.9284 24.123C38.0259 23.8379 38.295 23.6473 38.5963 23.65H40.8502C42.0377 23.65 43.0002 22.6874 43.0002 21.5V17.2C43.0002 16.0126 42.0377 15.05 40.8502 15.05Z" fill="url(#paint2_linear)"/>
<path d="M30.2372 12.7624C26.5967 9.12952 20.7025 9.12952 17.062 12.7624C16.7871 13.0471 16.7949 13.5008 17.0796 13.7758C17.3573 14.044 17.7976 14.044 18.0754 13.7758C21.1333 10.6765 26.1246 10.6431 29.2238 13.7011C32.3231 16.759 32.3565 21.7503 29.2986 24.8495C29.2738 24.8746 29.2489 24.8995 29.2238 24.9242C28.9391 25.1993 28.9313 25.6529 29.2063 25.9376C29.4813 26.2223 29.935 26.2302 30.2197 25.9552C30.2256 25.9494 30.2315 25.9435 30.2372 25.9376C33.8701 22.2971 33.8701 16.4029 30.2372 12.7624Z" fill="url(#paint3_linear)"/>
</g>
<defs>
<linearGradient id="paint0_linear" x1="0" y1="14.3333" x2="29.8201" y2="15.5881" gradientUnits="userSpaceOnUse">
<stop stop-color="#F89017"/>
<stop offset="1" stop-color="#F3B514"/>
</linearGradient>
<linearGradient id="paint1_linear" x1="7.87988" y1="22.2166" x2="21.3021" y2="22.7813" gradientUnits="userSpaceOnUse">
<stop stop-color="#F89017"/>
<stop offset="1" stop-color="#F3B514"/>
</linearGradient>
<linearGradient id="paint2_linear" x1="7.81738" y1="0" x2="44.4158" y2="1.53993" gradientUnits="userSpaceOnUse">
<stop stop-color="#F89017"/>
<stop offset="1" stop-color="#F3B514"/>
</linearGradient>
<linearGradient id="paint3_linear" x1="16.8608" y1="10.0377" x2="33.6098" y2="10.7417" gradientUnits="userSpaceOnUse">
<stop stop-color="#F89017"/>
<stop offset="1" stop-color="#F3B514"/>
</linearGradient>
<clipPath id="clip0">
<rect width="43" height="43" fill="white"/>
</clipPath>
</defs>
</svg>
