<svg width="460" height="180" viewBox="0 0 460 180" fill="none" xmlns="http://www.w3.org/2000/svg">
<path d="M458.69 216.847C457.307 212.435 452.895 210.603 448.838 209.089C441.323 206.285 433.041 205.798 425.152 204.901C415.468 203.779 405.784 202.676 396.1 201.574C393.521 181.383 386.585 162.184 375.536 144.91C375.611 144.854 375.705 144.798 375.779 144.705C382.64 138.124 389.483 131.544 396.343 124.944C400.624 120.831 408.719 115.747 410.308 109.652C411.673 104.455 408.046 97.3698 406.177 92.7335C403.653 86.5082 400.475 80.5633 396.68 75.011C390.529 66.0563 383.538 56.5221 371.853 61.85C363.964 65.4207 356.73 71.8703 349.626 76.7496C341.905 82.0589 334.184 87.3682 326.482 92.6774C325.192 93.5748 325.229 95.1077 325.902 96.1172C310.573 84.2835 294.477 73.4407 275.875 68.0005C275.913 58.4663 275.707 48.932 275.146 39.4165C274.698 31.5834 275.296 21.8996 272.903 14.3844C271.445 9.78554 269.407 8.55169 264.92 7.1496C256.695 4.56974 247.553 3.59762 239.103 1.87772C227.419 -0.515192 218.782 -2.88941 214.277 10.1407C208.276 27.3772 204.798 45.9409 200.144 63.6073C200.069 63.869 200.05 64.1121 200.069 64.3364C180.851 66.6358 163.708 73.5341 146.752 82.5823C137.124 69.9448 126.337 56.0921 113.344 46.7635C100.913 37.8461 90.6679 47.9225 80.9841 56.1669C73.0015 62.9904 59.5414 70.9917 64.5142 82.7693C71.6929 99.8188 82.5358 115.952 93.416 130.814C94.2573 131.973 95.6033 132.03 96.6128 131.525C83.6761 148.537 73.3754 167.213 65.9163 187.235C48.5303 186.823 30.1348 184.898 12.9731 186.674C1.73767 187.833 2.26112 206.528 1.45725 214.978C0.503828 224.904 -2.28167 242.515 8.9164 248.048C15.7586 251.432 25.8724 251.17 33.3689 252.273C42.9406 253.675 52.5309 255.096 62.1025 256.517C66.0471 274.782 72.0668 292.429 80.0494 309.329C80.012 309.367 79.9746 309.385 79.9372 309.423C69.2439 322.771 56.1951 335.894 47.1469 350.42C40.4355 361.169 52.9422 372.984 59.6162 380.668C67.0753 389.249 77.6565 403.662 90.6118 399.045C98.071 396.39 104.689 390.314 110.877 385.547C116.822 380.986 122.598 376.219 128.3 371.339C143.256 384.818 161.707 393.436 181.655 396.39C183.431 412.617 185.076 428.919 187.656 445.015C189.955 459.41 205.042 456.904 216.857 457.69C224.764 458.194 233.738 459.709 241.608 458.606C245.571 458.064 248.039 456.568 249.273 452.679C251.722 444.884 250.395 434.284 250.825 426.152C251.329 416.468 251.834 406.784 252.358 397.119C272.884 395.231 292.289 387.921 309.096 375.807C321.64 387.547 334.464 399.849 348.467 409.757C360.263 418.094 372.433 405.849 381.575 398.465C390.455 391.286 402.587 382.257 397.203 369.376C390.978 354.514 379.126 340.568 368.788 327.949C382.715 311.946 391.296 292.429 393.726 271.36C410.234 270.295 426.853 269.584 443.267 267.79C458.466 266.107 457.307 253.937 458.166 241.019C458.653 233.822 460.84 223.82 458.69 216.847ZM151.986 119.186C197.695 88.359 259.686 87.0877 305.17 118.943C329.791 136.18 346.335 161.268 354.654 189.983C363.46 220.38 366.638 255.564 352.935 284.989C327.454 339.652 264.378 371.171 205.397 364.516C205.135 364.067 204.686 363.731 204.013 363.6C153.444 353.542 110.241 314.283 97.6223 263.901C84.1996 210.285 105.96 150.219 151.986 119.186Z" fill="#2B2B2B"/>
<path d="M324.616 164.983C324.408 164.525 324.135 164.106 323.816 163.726C322.713 162.018 321.582 160.328 320.391 158.679C288.999 115.279 231.79 99.673 182.602 120.869C136.847 140.586 108.2 188.889 110.933 238.437C113.881 291.87 155.024 337.725 207.004 348.749C207.868 348.932 208.646 348.872 209.349 348.67C254.412 355.372 301.315 334.105 325.775 295.449C350.368 256.577 348.885 203.675 324.616 164.983ZM326.093 274.501C323.374 281.19 319.931 287.496 315.9 293.372C312.434 289.547 308.284 286.144 302.818 286.243C297.74 286.335 294.426 289.528 292.437 293.897C291.293 296.409 290.599 297.694 288.543 299.528C286.712 301.158 285.408 302.62 285.088 305.138C284.499 309.765 288.118 314.921 290.814 319.151C274.264 331.307 254.354 338.917 233.842 340.428C233.685 334.877 234.168 323.541 228.645 320.234C225.966 318.63 222.53 319.123 219.552 319.148C215.284 319.183 211.016 319.219 206.748 319.252C204.774 319.269 202.695 320.684 202.241 322.683C201.125 327.607 200.676 332.524 201 337.558C183.185 332.279 166.852 322.599 153.597 309.776C156.067 307.944 158.537 306.112 161.006 304.278C163.152 302.685 164.539 299.012 161.952 296.939C156.77 292.781 152.313 288.051 148.638 282.506C147.112 280.205 144.686 279.784 142.242 280.829C139.408 282.043 136.843 283.534 134.381 285.251C129.227 276.358 125.299 266.717 122.895 256.528C121.534 250.757 120.723 244.891 120.349 239.006C120.409 239.004 120.458 239.017 120.517 239.015C125.081 238.8 129.638 238.695 134.207 238.703C136.041 238.707 138.431 237.263 138.715 235.272C139.339 230.896 139.965 226.52 140.59 222.143C141.044 218.963 142.59 214.391 141.519 211.155C140.756 208.853 138.806 207.653 136.643 206.844C132.523 205.299 128.214 204.112 124.002 202.806C128.405 186.313 136.413 170.778 147.518 157.845C150.874 161.941 156.067 168.004 161.73 166.299C164.696 165.405 166.785 162.543 168.858 160.425L177.813 151.279C179.506 149.55 179.714 146.372 177.813 144.669C175.156 142.291 173.647 139.79 172.812 136.393C187.515 127.517 203.957 122.436 220.573 121.185C221.018 125.257 221.107 129.87 222.536 133.604C224.289 138.186 228.52 138.562 232.831 138.756C236.781 138.935 242.818 140.395 246.231 137.761C249.763 135.036 250.006 128.547 250.938 124.513C251.039 124.073 251.06 123.654 251.047 123.247C269.579 127.236 287.084 136.255 301.219 150.421C301.369 150.571 301.507 150.728 301.655 150.878C297.039 153.742 291.403 157.449 292.865 162.934C293.727 166.168 296.998 168.854 299.105 171.227C301.997 174.481 304.887 177.736 307.779 180.993C309.374 182.787 312.803 182.819 314.39 180.993C316.119 179.002 317.85 177.009 319.579 175.016C326.321 187.263 330.819 200.729 332.886 214.564C330.398 214.559 327.908 214.551 325.42 214.544C322.786 214.536 320.89 216.696 320.746 219.218L320.013 231.962C319.798 235.693 318.929 240.073 319.407 243.805C320.303 250.78 327.255 250.238 332.832 250.032C331.533 258.39 329.301 266.608 326.093 274.501Z" fill="#2B2B2B"/>
</svg>
