<svg width="313" height="410" viewBox="0 0 313 410" fill="none" xmlns="http://www.w3.org/2000/svg">
<path d="M32.4582 165.964C34.0807 162.776 37.6823 161.945 40.9721 161.311C47.0664 160.137 53.4476 160.831 59.5821 161.16C67.1148 161.549 74.645 161.952 82.1752 162.355C86.7384 147.282 94.4976 133.524 105.147 121.765C105.098 121.713 105.033 121.658 104.988 121.577C100.599 115.674 96.2247 109.774 91.8381 103.858C89.1004 100.169 83.5778 95.2494 83.1487 90.3953C82.7754 86.2546 86.4531 81.3149 88.4753 78.0178C91.2009 73.5924 94.3897 69.4651 97.9988 65.7166C103.842 59.6748 110.402 53.2991 118.632 58.8658C124.192 62.604 128.883 68.4547 133.676 73.0905C138.885 78.1336 144.093 83.1767 149.288 88.2174C150.156 89.0678 149.931 90.2326 149.288 90.9164C162.505 83.8577 176.179 77.6536 191.07 75.8935C192.267 68.6144 193.649 61.3664 195.3 54.1784C196.649 48.2597 197.437 40.7944 200.229 35.368C201.932 32.0466 203.646 31.3671 207.249 30.8739C213.857 29.9627 220.956 30.3959 227.624 30.1697C236.847 29.8456 243.742 29.1441 245.504 39.6648C247.868 53.587 248.135 68.1974 249.416 82.2747C249.439 82.484 249.423 82.6718 249.379 82.8406C263.747 87.0649 275.94 94.5313 287.714 103.614C296.684 95.2092 306.694 86.0263 317.806 80.5787C328.437 75.3728 334.959 84.3774 341.288 91.9121C346.501 98.1442 355.742 105.979 350.435 114.326C342.766 126.411 332.42 137.327 322.209 147.268C321.418 148.045 320.384 147.914 319.678 147.4C327.362 162.042 332.821 177.615 335.939 193.85C349.257 195.77 363.54 196.665 376.405 200.226C384.829 202.554 382.027 216.751 381.554 223.301C381.006 230.997 380.868 244.792 371.613 247.574C365.957 249.277 358.274 247.777 352.413 247.655C344.93 247.495 337.43 247.346 329.945 247.2C324.588 260.629 317.727 273.32 309.464 285.188C309.488 285.221 309.514 285.24 309.538 285.274C315.981 296.832 324.25 308.522 329.287 320.768C333.026 329.832 321.965 337.239 315.886 342.243C309.092 347.832 299.166 357.469 289.875 352.281C284.525 349.297 280.257 343.811 276.148 339.378C272.199 335.134 268.404 330.754 264.681 326.299C251.538 334.661 236.352 338.865 220.754 338.555C217.313 350.707 213.963 362.933 209.926 374.883C206.321 385.57 195.133 381.72 186.017 380.8C179.919 380.169 172.878 380.171 167.015 378.318C164.061 377.395 162.37 375.937 161.928 372.812C161.062 366.549 163.437 358.632 164.154 352.372C165.013 344.919 165.873 337.466 166.715 330.024C151.297 325.945 137.431 317.875 126.165 306.472C115.085 313.817 103.72 321.554 91.7628 327.314C81.691 332.16 73.9792 321.253 67.9535 314.444C62.1009 307.826 54.0044 299.377 59.7677 290.242C66.4275 279.702 77.2629 270.585 86.7724 262.286C78.2027 248.286 74.1641 232.293 75.0177 215.905C62.56 212.971 49.9711 210.293 37.6784 206.814C26.2984 203.577 28.7469 194.44 29.751 184.474C30.3052 178.92 29.9217 171.008 32.4582 165.964ZM104.504 188.875C106.905 189.3 109.765 189.628 110.483 189.778C112.688 190.239 114.892 190.7 117.097 191.161C118.45 184 120.53 177.009 123.28 170.321C123.207 170.293 123.134 170.272 123.06 170.233C119.567 168.414 116.076 166.594 112.584 164.774C109.246 172.462 106.424 180.576 104.504 188.875ZM115.287 158.838C114.869 159.705 114.464 160.586 114.058 161.466C117.566 163.295 121.075 165.123 124.584 166.952C124.623 166.972 124.652 166.999 124.69 167.021C127.989 159.728 132.144 152.854 137.11 146.587C137.068 146.558 137.024 146.539 136.983 146.506C133.835 144.017 130.685 141.528 127.537 139.04C122.804 145.116 118.702 151.749 115.287 158.838ZM129.807 136.225C132.972 138.726 136.138 141.228 139.303 143.73C139.338 143.758 139.362 143.789 139.394 143.818C143.709 138.785 148.595 134.204 154.02 130.169C151.408 127.013 148.798 123.856 146.188 120.699C140.133 125.236 134.651 130.436 129.807 136.225ZM162.172 110.997C157.562 113.189 153.212 115.731 149.108 118.569C151.727 121.736 154.345 124.902 156.965 128.07C158.684 126.899 160.439 125.769 162.261 124.709C165.136 123.035 168.075 121.563 171.062 120.265C169.835 116.424 168.47 112.632 166.973 108.888C165.361 109.551 163.757 110.243 162.172 110.997ZM193.627 102.068C185.737 102.966 177.918 104.772 170.34 107.57C171.831 111.296 173.192 115.068 174.415 118.889C181.606 116.124 189.045 114.413 196.541 113.679C195.462 109.835 194.49 105.964 193.627 102.068ZM220.99 102.62C213.139 101.44 205.167 101.105 197.236 101.723C198.112 105.64 199.094 109.531 200.197 113.396C206.685 113.039 213.19 113.441 219.599 114.519C220.062 110.552 220.526 106.586 220.99 102.62ZM224.559 103.196C224.091 107.194 223.624 111.192 223.156 115.188C229.308 116.479 235.342 118.427 241.156 120.982C242.311 116.981 243.465 112.98 244.62 108.98C238.123 106.413 231.402 104.464 224.559 103.196ZM195.805 120.801C189.184 121.654 182.595 123.323 176.163 125.836C143.42 139.25 123.933 172.198 122.428 206.844C122.033 215.927 122.578 225.196 124.698 233.892C128.735 245.477 135.438 255.655 143.893 264.309C160.792 277.155 180.196 288.494 201.315 292.134C201.496 292.164 201.651 292.221 201.814 292.272C234.002 292.67 265.604 274.5 280.141 245.51C295.581 214.716 291.591 177.021 269.244 150.705C251.19 129.441 223.104 117.646 195.805 120.801ZM247.96 110.365L244.456 122.509C250.563 125.485 256.389 129.162 261.806 133.506C264.582 130.122 267.358 126.739 270.135 123.355C263.252 118.129 255.799 113.769 247.96 110.365ZM279.016 130.869C277.071 129.019 275.048 127.27 272.981 125.586C270.183 128.995 267.385 132.405 264.587 135.815C264.597 135.824 264.608 135.834 264.619 135.843C269.872 140.408 274.504 145.471 278.502 150.909C282.256 148.261 285.892 145.463 289.458 142.573C286.316 138.422 282.835 134.5 279.016 130.869ZM291.582 145.498C288.004 148.399 284.356 151.207 280.589 153.862C284.59 159.777 287.858 166.098 290.38 172.688C294.737 171.032 298.923 169.027 302.934 166.656C299.987 159.204 296.199 152.084 291.582 145.498ZM304.223 170.097C300.178 172.445 295.958 174.44 291.579 176.099C293.17 180.794 294.381 185.611 295.216 190.505C299.872 190.131 304.402 189.239 308.848 187.811C307.8 181.786 306.271 175.85 304.223 170.097ZM309.411 191.417C304.959 192.804 300.408 193.704 295.754 194.088C296.564 200.259 296.732 206.531 296.309 212.813C300.955 213.126 305.6 213.292 310.251 213.303C310.708 205.999 310.422 198.656 309.411 191.417ZM309.967 216.904C305.313 216.883 300.664 216.706 296.016 216.397C295.298 223.221 293.855 230.036 291.614 236.724C291.378 237.426 291.118 238.112 290.866 238.805C293.63 239.273 296.395 239.743 299.158 240.213C300.527 240.445 301.896 240.679 303.265 240.911C303.736 240.991 304.206 241.071 304.676 241.15C307.416 233.292 309.174 225.14 309.967 216.904ZM288.402 270.525C293.808 263.775 298.376 256.319 301.895 248.269C302.413 247.085 302.903 245.89 303.374 244.689C302.657 244.528 301.954 244.356 301.297 244.243C297.418 243.586 293.538 242.926 289.659 242.267C289.615 242.258 289.58 242.243 289.539 242.233C286.588 249.408 282.734 256.037 278.169 262.058C281.765 264.67 285.172 267.494 288.402 270.525ZM286.09 273.306C282.882 270.296 279.498 267.49 275.928 264.894C271.133 270.718 265.629 275.896 259.601 280.375C259.707 280.468 259.81 280.573 259.904 280.702C262.311 283.976 264.718 287.252 267.125 290.527C274.1 285.562 280.501 279.802 286.09 273.306ZM264.147 292.579L256.959 282.798C256.866 282.67 256.795 282.541 256.739 282.414C251.149 286.256 245.138 289.491 238.841 292.09C241.275 295.509 243.827 298.837 246.496 302.075C252.655 299.449 258.575 296.274 264.147 292.579ZM235.747 293.978C235.363 293.994 234.975 293.906 234.646 293.707C230.718 295.12 226.686 296.265 222.587 297.168C224.084 300.846 225.392 304.59 226.517 308.397C232.133 307.2 237.645 305.563 242.99 303.499C240.467 300.408 238.057 297.232 235.747 293.978ZM196.381 310.094C199.815 310.615 203.269 310.995 206.735 311.184C206.993 310.875 207.378 310.676 207.909 310.663C212.972 310.514 217.999 309.964 222.959 309.084C221.815 305.286 220.493 301.553 218.978 297.883C212.34 299.081 205.542 299.617 198.683 299.372C197.662 302.902 196.896 306.471 196.381 310.094ZM192.815 309.499C193.341 305.802 194.121 302.162 195.173 298.562C195.204 298.459 195.246 298.368 195.289 298.277C189.468 296.956 183.837 295.101 178.366 292.853C176.403 296.477 174.439 300.1 172.476 303.723C179.072 306.26 185.883 308.216 192.815 309.499ZM169.103 302.368C171.079 298.721 173.056 295.074 175.032 291.426C169.059 288.769 163.283 285.647 157.664 282.242C155.392 285.515 153.122 288.789 150.85 292.061C150.724 292.241 150.583 292.373 150.437 292.482C156.351 296.318 162.606 299.636 169.103 302.368ZM147.739 290.682C147.762 290.371 147.86 290.053 148.073 289.744L154.593 280.349C150.478 277.756 146.446 275.022 142.49 272.211C139.9 270.371 137.405 268.444 135.052 266.385L126.578 271.973C132.809 279.035 139.947 285.321 147.739 290.682ZM124.22 269.198C126.92 267.419 129.62 265.638 132.319 263.858C128.925 260.522 125.943 256.803 123.645 252.454C122.162 249.646 120.956 246.702 119.938 243.688C116.719 244.903 113.502 246.116 110.283 247.331C114 255.186 118.706 262.516 124.22 269.198ZM104.389 231.546C105.572 235.832 107.076 239.984 108.809 244.021C112.161 242.756 115.512 241.491 118.864 240.227C117.38 234.974 116.435 229.55 115.833 224.18C115.657 222.611 115.527 221.039 115.42 219.466C111.083 220.134 106.746 220.802 102.409 221.47C102.837 224.858 103.474 228.223 104.389 231.546ZM102.022 217.874L115.23 215.84C114.974 208.763 115.403 201.68 116.482 194.723C112.443 193.879 108.403 193.034 104.363 192.19C104.186 192.153 103.992 192.123 103.804 192.09C102.082 200.622 101.345 209.308 102.022 217.874Z" fill="#F8F8F8"/>
<path d="M209.368 196.862C210.119 196.766 210.869 196.873 211.571 197.121C212.016 196.776 212.619 196.677 213.279 197.066C216.941 199.222 217.456 205.151 213.428 207.293C209.555 209.353 204.33 205.954 204.923 201.532C205.223 199.278 207.057 197.162 209.368 196.862ZM210.97 202.04C210.956 201.607 210.657 201.008 210.245 201.337C209.806 201.689 210.123 202.314 210.565 202.223C210.74 202.186 210.867 202.12 210.97 202.04Z" fill="#F8F8F8"/>
</svg>
