<svg width="145" height="408" viewBox="0 0 145 408" fill="none" xmlns="http://www.w3.org/2000/svg">
<path d="M76.7574 312.849V287.197H108.145V312.849H76.7574ZM92.4531 310.812C95.7072 310.804 98.9612 310.588 101.404 310.263C103.847 309.958 105.474 309.527 105.474 309.527C105.474 309.527 103.847 309.096 101.404 308.792C98.9612 308.467 95.7072 308.251 92.4531 308.243C89.199 308.251 85.9449 308.462 83.5022 308.788C81.0595 309.092 79.4325 309.527 79.4325 309.527C79.4325 309.527 81.0595 309.958 83.5022 310.267C85.9407 310.592 89.199 310.808 92.4531 310.812Z" fill="#F8F8F8"/>
<path d="M76.7574 318.736H108.145V344.388H76.7531V318.736H76.7574ZM83.5022 342.406C85.9407 342.732 89.199 342.943 92.4531 342.951C95.7072 342.943 98.9612 342.727 101.404 342.402C103.847 342.098 105.474 341.667 105.474 341.667C105.474 341.667 103.847 341.236 101.404 340.931C98.9612 340.606 95.7072 340.39 92.4531 340.382C89.199 340.39 85.9449 340.602 83.5022 340.927C81.0595 341.231 79.4325 341.667 79.4325 341.667C79.4325 341.667 81.0595 342.102 83.5022 342.406Z" fill="#F8F8F8"/>
<path d="M97.9218 165.997C96.9583 167.345 95.3988 168.148 93.738 168.148H90.5431C89.6809 168.347 88.7935 168.478 87.8722 168.478C87.496 168.478 87.1706 168.339 86.879 168.148H58.2261C57.3302 168.148 56.4977 167.899 55.7623 167.493C55.027 167.899 54.1945 168.148 53.2985 168.148H-1.8773C-4.71722 168.148 -7.02044 165.845 -7.02044 163.005V111.743C-7.02044 108.903 -4.71722 106.6 -1.8773 106.6H53.2943C54.1902 106.6 55.0228 106.849 55.7581 107.255C56.4934 106.849 57.326 106.6 58.2219 106.6H76.2208C78.4184 106.6 80.3751 107.998 81.0851 110.078L86.8325 126.893C87.1326 126.682 87.4791 126.534 87.8722 126.534C94.3972 126.534 99.6841 131.821 99.6841 138.346V156.666C99.6841 158.386 99.2953 160.013 98.636 161.488C99.1093 163.022 98.8558 164.687 97.9218 165.997ZM-1.88152 111.743V163.005H53.0788V111.743H-1.88152ZM76.2208 111.743H58.4375V163.005H86.0254V140.434L76.2208 111.743ZM98.3909 137.412C98.3275 136.203 97.9852 135.007 97.4273 133.866C96.8315 132.755 96.0243 131.745 95.0692 131.039C94.1352 130.308 93.0956 129.868 92.1828 129.695C91.2784 129.488 90.505 129.547 89.9937 129.623C89.4781 129.733 89.2034 129.822 89.2034 129.822C89.2034 129.822 89.4738 129.923 89.9472 130.105C90.4036 130.295 91.0248 130.578 91.6756 130.997C92.3307 131.411 93.0153 131.96 93.6408 132.637C94.2536 133.321 94.8368 134.103 95.2636 134.982C95.496 135.409 95.6989 135.857 95.8552 136.313C95.9989 136.765 96.1891 137.243 96.2652 137.661C96.3751 138.037 96.4553 138.659 96.5314 139.039C96.5821 139.521 96.6667 139.973 96.7427 140.391C97.0343 142.069 97.44 143.185 97.44 143.185C97.44 143.185 97.85 142.069 98.1373 140.391C98.2134 139.973 98.2937 139.517 98.3486 139.039C98.3782 138.464 98.467 138.071 98.3909 137.412Z" fill="#F8F8F8"/>
<path d="M85.8051 174.034C80.6281 174.283 74.5933 174.49 68.1231 174.626C61.653 174.79 54.756 174.82 47.8548 174.858C40.9536 174.82 34.0524 174.795 27.5865 174.63C21.1163 174.495 15.0815 174.288 9.90453 174.038C4.72757 173.823 0.416962 173.472 -2.60046 173.307C-5.6179 173.104 -7.34637 172.931 -7.34637 172.931C-7.34637 172.931 -5.62212 172.762 -2.60046 172.555C0.416962 172.39 4.7318 172.039 9.90453 171.824C15.0773 171.574 21.1163 171.367 27.5865 171.232C34.0566 171.067 40.9536 171.042 47.8548 171.004C54.756 171.046 61.653 171.076 68.1231 171.236C74.5933 171.372 80.6281 171.579 85.8051 171.828C90.982 172.044 95.2927 172.39 98.3101 172.559C101.328 172.762 103.052 172.931 103.052 172.931C103.052 172.931 101.328 173.1 98.3101 173.303C95.2927 173.472 90.982 173.818 85.8051 174.034Z" fill="#F8F8F8"/>
<path d="M4.01291 211.787C4.01291 210.249 5.25961 209.002 6.79791 209.002H14.0921C15.6304 209.002 16.8771 210.249 16.8771 211.787V211.969H20.52V215.717H16.8771V215.899C16.8771 217.437 15.6304 218.684 14.0921 218.684H6.79791C5.25961 218.684 4.01291 217.437 4.01291 215.899V215.717H0.370029V211.969H4.01291V211.787Z" fill="#F8F8F8"/>
<path d="M38.4771 154.308C39.4195 155.44 39.9351 156.117 39.9351 156.117C39.9351 156.117 39.2631 155.601 38.1263 154.663C37.0106 153.703 35.3624 152.381 33.4818 150.703C29.691 147.373 24.793 142.779 20.0386 138.037C15.297 133.283 10.699 128.385 7.36881 124.594C5.69106 122.714 4.37253 121.061 3.4132 119.945C2.47079 118.809 1.95942 118.137 1.95942 118.137C1.95942 118.137 2.63138 118.648 3.7682 119.59C4.88388 120.55 6.53205 121.868 8.41689 123.546C12.2077 126.876 17.1057 131.474 21.8601 136.216C26.6017 140.97 31.1955 145.868 34.5257 149.659C36.195 151.544 37.5135 153.188 38.4771 154.308Z" fill="#F8F8F8"/>
<path d="M15.593 141.062C18.34 143.822 20.9433 146.729 22.7816 149.028C24.6326 151.31 25.7061 152.992 25.7061 152.992C25.7061 152.992 24.0241 151.919 21.742 150.068C19.4472 148.229 16.5397 145.63 13.7758 142.879C11.0246 140.12 8.42136 137.212 6.58723 134.917C4.73621 132.635 3.667 130.953 3.667 130.953C3.667 130.953 5.34898 132.027 7.63107 133.873C9.93006 135.707 12.8334 138.311 15.593 141.062Z" fill="#F8F8F8"/>
<path d="M37.7414 126.078C35.7214 124.045 33.845 121.873 32.5603 120.123C31.2586 118.386 30.5486 117.068 30.5486 117.068C30.5486 117.068 31.8672 117.774 33.6041 119.079C35.3537 120.368 37.5301 122.245 39.5587 124.261C41.5787 126.293 43.4509 128.47 44.7398 130.219C46.0415 131.952 46.7515 133.271 46.7515 133.271C46.7515 133.271 45.4329 132.561 43.7002 131.259C41.9506 129.97 39.7742 128.098 37.7414 126.078Z" fill="#F8F8F8"/>
<path d="M79.635 154.285C77.3698 152.481 74.5045 149.92 71.7829 147.211C69.074 144.489 66.5088 141.628 64.7042 139.359C62.8828 137.106 61.8347 135.445 61.8347 135.445C61.8347 135.445 63.4955 136.498 65.7481 138.315C68.0132 140.119 70.8785 142.685 73.6001 145.394C76.309 148.115 78.8701 150.98 80.6746 153.246C82.496 155.498 83.5483 157.159 83.5483 157.159C83.5483 157.159 81.8875 156.107 79.635 154.285Z" fill="#F8F8F8"/>
<path d="M71.7831 137.415C70.3758 135.996 69.1122 134.432 68.2797 133.139C67.4344 131.862 67.033 130.848 67.033 130.848C67.033 130.848 68.0472 131.25 69.3235 132.095C70.6167 132.923 72.1803 134.191 73.6003 135.598C75.0076 137.018 76.2712 138.586 77.0995 139.875C77.9447 141.151 78.3462 142.161 78.3462 142.161C78.3462 142.161 77.3362 141.76 76.0599 140.91C74.7709 140.082 73.203 138.823 71.7831 137.415Z" fill="#F8F8F8"/>
<path d="M-748.142 6.23348H-664.689C-663.459 6.23348 -662.301 6.82091 -661.574 7.81404C-660.848 8.80717 -660.641 10.0877 -661.012 11.2583C-661.524 12.8684 -662.052 14.4955 -662.584 16.131C-659.335 12.7586 -657.129 10.8991 -656.799 10.6244C-655.523 9.56787 -653.942 8.95086 -652.29 8.86211L-486.23 0.00845218C-486.099 0.00422609 -485.959 0 -485.824 0C-485.376 0 -484.932 0.0380348 -484.493 0.114104L-359.565 22.0433C-359.194 22.1067 -358.826 22.1996 -358.467 22.3222C-358.057 22.4574 -317.072 36.0908 -275.365 51.0934C-189.132 82.1171 -183.891 88.5915 -181.377 91.7019C-178.397 95.3828 -176.525 99.8118 -175.469 104.921C-169.552 95.1715 -158.868 88.6211 -146.655 88.6211C-134.712 88.6211 -124.227 94.8799 -118.239 104.27C-115.289 93.8952 -105.759 86.2841 -94.4375 86.2841H-52.3499V72.7859V65.0733H-44.6373C56.269 65.0733 67.9711 69.5826 78.2996 73.5593L79.2674 73.9312C90.4539 78.1742 94.8701 93.3289 96.2436 99.5751C96.6071 99.9386 96.9113 100.353 97.2241 100.763H116.875C118.9 98.3622 121.989 96.9169 125.361 97.1705L134.016 97.8213C139.595 98.2397 143.774 103.1 143.356 108.678C143.293 109.553 142.532 110.204 141.657 110.14L115.963 108.213C115.092 108.15 114.437 107.389 114.5 106.514C114.517 106.307 114.581 106.113 114.606 105.91H99.4766C99.5864 106.557 99.6752 107.216 99.6752 107.892V109.828L117.729 160.718C124.888 161.741 130.847 166.977 132.672 174.149C136.675 189.882 143.394 218.89 143.394 236.386C143.394 253.278 140.098 269.303 138.107 277.43C141.716 280.663 145 285.658 145 292.471V335.18C145 344.046 138.365 351.535 129.562 352.599L65.2537 360.38L56.6113 361.424V352.722V348.027L45.0657 351.551C41.2791 383.095 14.4477 407.547 -18.1144 407.547C-50.5665 407.547 -77.3303 383.256 -81.2563 351.864H-372.958C-376.884 383.256 -403.644 407.547 -436.1 407.547C-468.552 407.547 -495.316 383.256 -499.238 351.864H-540.421C-544.347 383.256 -571.107 407.547 -603.563 407.547C-638.72 407.547 -667.216 379.046 -667.216 343.894C-667.216 340.699 -666.975 337.559 -666.519 334.491L-675.652 325.358L-687.341 336.726C-687.265 337.204 -687.193 337.681 -687.193 338.18C-687.193 343.239 -691.292 347.338 -696.351 347.338C-701.41 347.338 -705.509 343.239 -705.509 338.18C-705.509 333.121 -701.41 329.022 -696.351 329.022C-696.081 329.022 -695.823 329.077 -695.556 329.102L-683.567 317.443L-683.694 317.32V310.732H-703.29V312.874H-715.081V291.613H-703.29V293.76H-683.694V254.457C-683.694 243.74 -675.005 235.051 -664.288 235.051H-656.626V201.39L-672.765 181.612L-696.178 227.866C-696.592 228.796 -697.048 229.688 -697.538 230.554L-697.716 230.901C-697.843 231.154 -697.999 231.387 -698.177 231.602C-702.707 238.952 -709.853 243.731 -717.904 243.731C-731.567 243.731 -742.682 230.043 -742.682 213.215C-742.682 207.514 -741.384 202.193 -739.165 197.62C-739.132 197.553 -739.132 197.472 -739.094 197.405L-738.717 196.712C-738.548 196.386 -738.375 196.065 -738.198 195.752L-707.47 139.081L-730.908 110.356C-731.47 109.667 -731.778 108.805 -731.778 107.917V61.2741C-738.988 48.9043 -746.189 29.0121 -751.835 11.2583C-752.207 10.0877 -752 8.80717 -751.273 7.81404C-750.529 6.82091 -749.371 6.23348 -748.142 6.23348ZM135.538 101.768C137.524 102.39 139.223 103.683 140.132 105.014C140.584 105.678 140.875 106.328 141.04 106.806C141.188 107.322 141.273 107.613 141.273 107.613C141.273 107.613 141.387 107.326 141.501 106.797C141.594 106.244 141.628 105.416 141.344 104.46C141.078 103.505 140.478 102.453 139.586 101.574C138.703 100.678 137.524 99.9766 136.269 99.5498C135.631 99.3596 134.984 99.2201 134.338 99.1483C133.67 99.0595 133.116 99.0976 132.558 99.0849C131.447 99.0849 130.403 99.1314 129.507 99.2159C127.715 99.3596 126.507 99.6639 126.507 99.6639C126.507 99.6639 127.656 100.146 129.406 100.556C130.281 100.771 131.303 100.974 132.402 101.139C133.56 101.312 134.545 101.409 135.538 101.768ZM-698.747 331.744C-699.516 331.989 -700.214 332.386 -700.822 332.83C-702.044 333.734 -702.846 334.939 -703.239 336.025C-703.641 337.119 -703.683 338.087 -703.607 338.725C-703.539 339.368 -703.425 339.71 -703.425 339.71C-703.425 339.71 -703.32 339.355 -703.1 338.793C-702.897 338.227 -702.504 337.474 -701.938 336.722C-701.35 335.978 -700.552 335.251 -699.584 334.727C-699.106 334.448 -698.561 334.296 -698.029 334.123C-697.441 333.975 -697.061 333.929 -696.275 333.916C-695.835 333.92 -695.168 333.975 -694.652 334.123C-694.12 334.292 -693.574 334.448 -693.097 334.727C-692.129 335.251 -691.33 335.978 -690.743 336.726C-690.177 337.479 -689.784 338.243 -689.581 338.793C-689.357 339.363 -689.255 339.718 -689.255 339.718C-689.323 339.752 -688.638 338.282 -689.445 336.033C-689.839 334.947 -690.646 333.743 -691.863 332.838C-692.471 332.395 -693.173 332.002 -693.938 331.752C-694.737 331.507 -695.459 331.38 -696.406 331.355C-697.01 331.363 -698.02 331.499 -698.747 331.744ZM-711.442 296.405C-711.747 294.816 -712.178 293.755 -712.178 293.755C-712.178 293.755 -712.609 294.816 -712.913 296.405C-713.238 297.998 -713.454 300.12 -713.462 302.241C-713.454 304.363 -713.243 306.484 -712.917 308.078C-712.613 309.671 -712.178 310.732 -712.178 310.732C-712.178 310.732 -711.747 309.671 -711.438 308.078C-711.113 306.484 -710.897 304.363 -710.893 302.241C-710.901 300.12 -711.117 297.998 -711.442 296.405ZM-717.891 236.01C-709.862 236.01 -703.125 228.551 -701.317 218.552C-704.178 215.552 -710.555 210.328 -722.143 207.547C-722.925 207.362 -723.812 207.269 -724.746 207.23C-723.613 207.509 -722.481 207.831 -721.369 208.224C-720.304 208.541 -719.282 208.989 -718.272 209.382C-717.253 209.753 -716.311 210.29 -715.381 210.713C-714.443 211.127 -713.61 211.693 -712.795 212.137C-711.975 212.581 -711.248 213.092 -710.58 213.553C-709.219 214.432 -708.184 215.294 -707.457 215.89C-706.734 216.477 -706.32 216.815 -706.32 216.815C-706.32 216.815 -706.798 216.579 -707.639 216.169C-708.471 215.755 -709.65 215.154 -711.142 214.618C-711.878 214.326 -712.659 214.005 -713.534 213.768C-714.405 213.527 -715.275 213.181 -716.239 212.999C-717.198 212.809 -718.149 212.513 -719.159 212.391C-720.165 212.243 -721.167 212.048 -722.189 211.989C-724.218 211.761 -726.255 211.761 -728.135 211.824C-730.02 211.917 -731.757 212.099 -733.219 212.357C-733.857 212.458 -734.411 212.572 -734.935 212.686C-734.939 212.86 -734.956 213.029 -734.956 213.202C-734.956 225.779 -727.303 236.01 -717.891 236.01ZM-678.09 175.066L-693.667 155.972L-709.591 184.486C-701.773 187.926 -695.763 196.053 -693.811 206.128L-678.09 175.066ZM-6.09959 343.894C-6.09959 337.259 -11.4752 331.883 -18.1101 331.883C-22.2855 331.883 -25.958 334.017 -28.1091 337.25C-27.4456 336.435 -26.7102 335.75 -25.9538 335.239C-23.8238 333.713 -21.6516 333.379 -20.2697 333.379C-18.8201 333.413 -18.1355 333.709 -18.1101 333.671C-18.1101 333.671 -18.2961 333.73 -18.6426 333.836C-18.9976 333.916 -19.4921 334.153 -20.0626 334.377C-21.1402 334.871 -22.5137 335.759 -23.6843 337.098C-22.1587 335.843 -20.2359 335.061 -18.1059 335.061C-13.229 335.061 -9.2776 339.013 -9.2776 343.89C-9.2776 345.998 -10.0468 347.913 -11.285 349.43C-9.96223 348.268 -9.08321 346.911 -8.59299 345.842C-8.369 345.25 -8.13234 344.769 -8.05203 344.422C-7.94215 344.076 -7.88721 343.89 -7.88721 343.89C-7.88721 343.89 -7.8492 344.08 -7.77312 344.439C-7.6886 344.802 -7.60406 345.339 -7.59138 346.049C-7.58716 347.435 -7.92104 349.607 -9.44666 351.737C-9.96223 352.485 -10.6342 353.217 -11.4287 353.872C-8.22108 351.72 -6.09959 348.056 -6.09959 343.894ZM-20.1598 327.027C-9.71289 327.027 -1.24803 335.497 -1.24803 345.943C-1.24803 350.981 -3.23007 355.545 -6.44189 358.934C-1.95801 355.448 0.941071 350.013 0.941071 343.894C0.941071 333.371 -7.5914 324.838 -18.1144 324.838C-24.238 324.838 -29.6685 327.737 -33.155 332.221C-29.7614 329.009 -25.1973 327.027 -20.1598 327.027ZM64.3282 352.722L68.6599 352.198C68.6261 340.555 68.4402 304.274 67.3583 284.086H55.3477C62.4983 292.166 64.3282 302.339 64.3282 314.489C64.3282 348.555 64.3282 352.722 64.3282 352.722ZM137.287 335.18V292.471C137.287 288.718 135.665 285.975 133.877 284.086H116.647V316.733C117.556 302.267 118.431 288.321 118.431 288.321C118.431 288.321 119.415 303.374 120.4 318.423C120.886 325.95 121.368 333.481 121.731 339.127C121.896 341.836 122.035 344.092 122.137 345.732L128.637 344.946C133.573 344.342 137.287 340.154 137.287 335.18ZM87.8717 125.168C86.8532 125.168 86.0249 124.34 86.0249 123.322V97.9312C86.0249 97.1155 86.5659 96.4436 87.3012 96.1985C85.4713 90.5947 82.0989 83.254 76.5458 81.1451C67.2231 77.6079 58.5469 72.7902 -44.6246 72.7902V79.8942L53.0403 83.5836L-44.6288 87.273V97.6269L83.3963 101.367L-12.1682 104.16V221.075C4.85445 221.806 18.3864 224.68 29.1925 228.775V228.56L103.386 231.133L39.3436 233.352C60.0514 244.475 67.4809 260.547 70.1348 270.859L109.243 274.658L88.2943 276.695H111.508V166.246L95.8295 122.041C93.7249 123.964 90.9483 125.168 87.8717 125.168ZM-63.1856 194.332C-63.08 192.283 -62.8264 189.35 -62.7123 185.834C-62.5982 182.318 -62.3826 178.214 -62.3024 173.819C-62.1925 169.424 -62.1756 164.737 -62.1502 160.046C-62.1798 155.359 -62.1967 150.669 -62.3066 146.273C-62.3869 141.878 -62.6024 137.775 -62.7165 134.259C-62.8348 130.743 -63.0842 127.814 -63.1898 125.76C-63.3462 123.71 -63.4392 122.535 -63.4392 122.535C-63.4392 122.535 -63.5279 123.706 -63.6885 125.76C-63.7942 127.81 -64.0435 130.743 -64.1618 134.259C-64.2759 137.775 -64.4872 141.878 -64.5717 146.273C-64.6816 150.669 -64.6985 155.355 -64.7281 160.046C-64.7028 164.733 -64.6859 169.424 -64.576 173.819C-64.4999 178.214 -64.2802 182.318 -64.166 185.834C-64.0519 189.35 -63.7984 192.279 -63.6927 194.332C-63.5321 196.382 -63.4434 197.557 -63.4434 197.557C-63.4434 197.557 -63.3462 196.386 -63.1856 194.332ZM-69.0556 160.05C-69.0641 152.794 -69.2796 145.542 -69.605 140.099C-69.7487 137.377 -69.9811 135.112 -70.091 133.523C-70.2263 131.938 -70.3404 131.03 -70.3404 131.03C-70.3404 131.03 -70.4545 131.938 -70.5897 133.523C-70.6996 135.112 -70.932 137.377 -71.0757 140.099C-71.4011 145.542 -71.6166 152.794 -71.6251 160.05C-71.6166 167.307 -71.4053 174.559 -71.0799 180.002C-70.9362 182.723 -70.7038 184.989 -70.5897 186.578C-70.4545 188.162 -70.3404 189.071 -70.3404 189.071C-70.3404 189.071 -70.2263 188.162 -70.091 186.578C-69.9811 184.989 -69.7487 182.723 -69.605 180.002C-69.2754 174.563 -69.0641 167.307 -69.0556 160.05ZM-97.7508 166.318C-102.006 166.204 -106.976 165.988 -112.297 165.908C-117.618 165.798 -123.297 165.781 -128.973 165.751C-134.649 165.777 -140.329 165.794 -145.649 165.904C-150.97 165.98 -155.94 166.199 -160.195 166.314C-164.455 166.428 -168.001 166.681 -170.486 166.787C-172.971 166.947 -174.391 167.036 -174.391 167.036C-174.391 167.036 -172.971 167.125 -170.486 167.286C-168.001 167.391 -164.455 167.645 -160.195 167.759C-155.94 167.873 -150.97 168.093 -145.649 168.169C-140.329 168.279 -134.649 168.296 -128.973 168.321C-123.297 168.296 -117.618 168.274 -112.297 168.165C-106.976 168.084 -102.006 167.869 -97.7508 167.755C-93.4951 167.636 -89.9452 167.387 -87.4603 167.281C-84.9753 167.125 -83.5553 167.032 -83.5553 167.032C-83.5553 167.032 -84.9753 166.943 -87.4603 166.783C-89.9452 166.69 -93.4951 166.436 -97.7508 166.318ZM-146.647 96.3379C-160.986 96.3379 -172.646 108.002 -172.646 122.337C-172.646 136.672 -160.982 148.336 -146.647 148.336C-132.312 148.336 -120.648 136.672 -120.648 122.337C-120.648 108.002 -132.312 96.3379 -146.647 96.3379ZM-670.001 13.9461H-722.346L-715.93 54.563H-687.404C-687.007 54.563 -686.631 54.6391 -686.272 54.7532C-681.2 44.6993 -675.051 29.1389 -670.001 13.9461ZM-714.865 108.129L-656.613 179.495V172.264C-656.613 170.134 -654.885 168.405 -652.755 168.405H-645.82L-690.346 115.808C-690.937 115.11 -691.258 114.227 -691.258 113.318V62.2756H-714.861V108.129H-714.865ZM-683.55 65.2043V111.898L-676.349 120.405L-652.455 22.4067L-667.69 130.628L-635.719 168.397H-630.754C-646.669 151.045 -662.8 129.335 -662.8 129.335L-658.515 94.8377C-658.515 94.8377 -596.205 132.978 -529.868 150.546L-540.666 217.825C-540.666 217.825 -567.472 208.232 -589.494 198.119L-581.837 206.292L-538.283 224.748L-500.315 8.47753L-651.88 16.5578C-651.88 16.5578 -660.991 24.1183 -670.508 38.4109C-674.684 49.1072 -679.151 58.768 -683.55 65.2043ZM-485.828 7.71261L-471.895 10.1595L-510.99 232.862L-413.917 249.901L-374.826 27.1949L-485.824 7.70839H-485.828V7.71261ZM66.1243 276.69C64.3366 264.397 53.2812 228.179 -14.8138 226.125L-17.3072 226.049V104.308L-44.6246 105.107V191.395L-42.0552 113.259L-38.2939 227.528C-37.4065 227.533 -36.5021 227.541 -35.5639 227.545C-23.3885 227.668 -6.96593 228.399 9.20308 231.67C13.2348 232.519 17.2327 233.572 21.1164 234.793C24.9791 236.082 28.7572 237.451 32.2648 239.159C35.7767 240.832 39.0858 242.666 42.0144 244.737C44.9981 246.719 47.5337 249.001 49.7904 251.152C50.8554 252.298 51.8866 253.388 52.8079 254.47C53.67 255.607 54.5363 256.642 55.2548 257.686C55.9225 258.763 56.5649 259.761 57.1016 260.712C57.6172 261.679 57.9975 262.613 58.361 263.437C59.1428 265.065 59.3837 266.506 59.6541 267.427C59.9119 268.352 59.9922 268.864 59.9922 268.864C59.9922 268.864 59.6499 268.454 59.1259 267.659C58.5427 266.89 57.8749 265.677 56.81 264.283C56.3113 263.573 55.7619 262.787 55.1618 261.929C54.4941 261.122 53.8348 260.217 53.1121 259.262C52.3345 258.353 51.5062 257.39 50.6357 256.371C49.7144 255.404 48.6874 254.432 47.6394 253.409C45.4038 251.503 42.9273 249.5 40.0197 247.784C37.1756 245.988 33.9637 244.429 30.5617 243.021C23.7408 240.215 16.024 238.318 8.20573 237.05C-7.47307 234.476 -23.5322 234.607 -35.5639 234.704C-38.6912 234.768 -41.5396 234.823 -44.0583 234.873L-16.0182 237.358L-56.4408 240.938C-57.7424 246.546 -57.4973 252.986 -57.1 257.204L-37.3938 260.336L-46.687 261.81C3.04565 262.389 30.8871 267.478 46.2617 276.669H66.1243V276.69ZM111.508 284.082H72.5099C73.5664 304.118 73.765 339.359 73.8031 351.573L111.508 347.008V284.082ZM-96.8802 221.215C-98.8031 221.113 -101.546 220.86 -104.842 220.741C-108.139 220.627 -111.98 220.416 -116.096 220.331C-120.212 220.222 -124.608 220.205 -128.998 220.175C-133.389 220.2 -137.785 220.217 -141.901 220.327C-146.021 220.403 -149.863 220.623 -153.155 220.737C-156.451 220.851 -159.194 221.109 -161.117 221.21C-163.04 221.371 -164.138 221.46 -164.138 221.46C-164.138 221.46 -163.04 221.553 -161.117 221.709C-159.194 221.815 -156.451 222.068 -153.155 222.182C-149.863 222.297 -146.017 222.516 -141.901 222.592C-137.785 222.702 -133.389 222.719 -128.998 222.744C-124.608 222.719 -120.212 222.698 -116.096 222.588C-111.98 222.508 -108.134 222.292 -104.842 222.178C-101.55 222.06 -98.8031 221.811 -96.8802 221.705C-94.9573 221.544 -93.8586 221.456 -93.8586 221.456C-93.8586 221.456 -94.9573 221.375 -96.8802 221.215ZM-98.7186 225.69C-105.252 225.58 -112.221 225.563 -119.194 225.534C-126.163 225.559 -133.132 225.576 -139.665 225.686C-146.199 225.762 -152.297 225.982 -157.525 226.096C-162.752 226.21 -167.109 226.463 -170.156 226.569C-173.208 226.73 -174.949 226.818 -174.949 226.818C-174.949 226.818 -173.208 226.911 -170.156 227.068C-167.109 227.173 -162.752 227.427 -157.525 227.541C-152.297 227.655 -146.199 227.875 -139.665 227.951C-133.132 228.061 -126.163 228.078 -119.194 228.103C-112.225 228.074 -105.256 228.057 -98.7186 227.947C-92.185 227.866 -86.0868 227.651 -80.8591 227.537C-75.6314 227.419 -71.2743 227.169 -68.2273 227.064C-65.1761 226.907 -63.4349 226.814 -63.4349 226.814C-63.4349 226.814 -65.1761 226.725 -68.2273 226.565C-71.2786 226.459 -75.6314 226.21 -80.8591 226.092C-86.0868 225.986 -92.185 225.775 -98.7186 225.69ZM-77.8374 244.099H-171.319L-77.8374 251.076V244.099ZM-347.339 34.1975L-385.691 252.682C-368.242 253.054 -337.214 253.603 -306.224 253.603C-274.845 253.603 -243.534 253.037 -226.418 251.152L-191.625 102.453L-213.52 248.152C-200.031 239.307 -196.485 210.024 -190.226 174.381C-183.887 138.265 -177.125 109.206 -187.365 96.5535C-195.8 86.1361 -307.969 47.5181 -347.339 34.1975ZM-160.01 185.868C-160.01 188.75 -157.672 185.868 -154.786 185.868C-151.904 185.868 -149.563 188.75 -149.563 185.868C-149.563 182.985 -151.9 180.644 -154.786 180.644C-157.672 180.644 -160.01 182.985 -160.01 185.868ZM-133.736 185.868C-133.736 188.75 -131.399 185.868 -128.512 185.868C-125.626 185.868 -123.289 188.75 -123.289 185.868C-123.289 182.985 -125.626 180.644 -128.512 180.644C-131.399 180.644 -133.736 182.985 -133.736 185.868ZM-107.462 185.868C-107.462 188.75 -105.125 185.868 -102.239 185.868C-99.3567 185.868 -97.0154 188.75 -97.0154 185.868C-97.0154 182.985 -99.3525 180.644 -102.239 180.644C-105.121 180.644 -107.462 182.985 -107.462 185.868ZM-87.4645 200.215C-89.9494 200.11 -93.4951 199.86 -97.755 199.742C-102.011 199.628 -106.981 199.412 -112.301 199.332C-117.622 199.222 -123.302 199.205 -128.977 199.176C-134.653 199.201 -140.333 199.218 -145.654 199.328C-150.974 199.404 -155.944 199.624 -160.2 199.738C-164.46 199.852 -168.005 200.105 -170.49 200.211C-172.975 200.372 -174.395 200.46 -174.395 200.46C-174.395 200.46 -172.975 200.553 -170.49 200.71C-168.005 200.815 -164.46 201.069 -160.2 201.183C-155.944 201.297 -150.974 201.517 -145.654 201.593C-140.333 201.703 -134.653 201.72 -128.977 201.745C-123.302 201.72 -117.622 201.699 -112.301 201.589C-106.981 201.508 -102.011 201.293 -97.755 201.179C-93.4993 201.06 -89.9494 200.811 -87.4645 200.705C-84.9795 200.545 -83.5596 200.456 -83.5596 200.456C-83.5596 200.456 -84.9795 200.376 -87.4645 200.215ZM116.647 168.372V228.779L135.331 231.129L124.74 232.46L130.716 233.432L116.651 235.719V276.69H130.335C132.165 269.413 135.677 253.261 135.677 236.382C135.677 219.419 128.751 190.018 125.197 176.046C124.153 171.947 120.742 168.967 116.647 168.372ZM39.3858 338.717C39.3097 337.969 39.2294 337.162 39.1449 336.299C38.9843 334.567 38.8237 332.589 38.2617 330.522C38.025 329.479 37.7757 328.388 37.5221 327.26C37.1587 326.161 36.7825 325.024 36.3937 323.858C35.726 321.474 34.4835 319.171 33.389 316.707C31.9859 314.413 30.7435 311.89 28.9516 309.684C27.3541 307.33 25.3341 305.267 23.4196 303.112C21.2686 301.193 19.202 299.178 16.8481 297.58C14.6421 295.784 12.1191 294.546 9.82431 293.143C7.3605 292.048 5.06151 290.801 2.67377 290.138C1.50737 289.753 0.370544 289.377 -0.728241 289.01C-1.8566 288.756 -2.94693 288.507 -3.99077 288.27C-6.06155 287.708 -8.02669 287.547 -9.75093 287.387C-10.6131 287.298 -11.416 287.218 -12.164 287.146C-12.912 287.146 -13.6009 287.142 -14.2221 287.142C-16.6944 287.175 -18.1101 287.197 -18.1101 287.197C-18.1101 287.197 -16.7071 287.357 -14.2559 287.64C-13.6474 287.704 -12.9712 287.776 -12.2359 287.852C-11.5132 288 -10.7272 288.164 -9.8904 288.333C-8.21686 288.671 -6.33626 289.026 -4.34154 289.673C-3.33995 289.965 -2.30032 290.273 -1.21844 290.586C-0.178833 291.004 0.898819 291.44 2.00606 291.888C4.26279 292.669 6.39696 294.043 8.74243 295.129C10.9189 296.54 13.2601 297.846 15.3647 299.571C17.6046 301.117 19.5528 303.082 21.5982 304.929C23.445 306.975 25.4101 308.923 26.9569 311.163C28.6854 313.267 29.987 315.609 31.3985 317.785C32.4846 320.13 33.8665 322.26 34.6441 324.521C35.0879 325.629 35.5232 326.706 35.9416 327.75C36.2585 328.828 36.5628 329.872 36.8544 330.873C37.501 332.872 37.856 334.74 38.1898 336.409C38.3631 337.246 38.5237 338.028 38.6716 338.751C38.7477 339.49 38.8195 340.171 38.8829 340.783C39.1661 343.239 39.3266 344.642 39.3266 344.642C39.3266 344.642 39.3478 343.23 39.3816 340.758C39.39 340.145 39.39 339.461 39.3858 338.717ZM-77.8374 263.45H-171.319L-77.8374 270.427V263.45ZM-171.259 276.889C-176.728 276.669 -184.542 276.209 -193.92 275.917C-203.297 275.587 -214.234 275.313 -225.953 275.127C-231.815 275.055 -237.871 274.979 -244.02 274.907C-250.173 274.878 -256.424 274.848 -262.674 274.818C-268.924 274.848 -275.175 274.878 -281.328 274.907C-287.481 274.907 -293.537 275.059 -299.394 275.127C-311.113 275.304 -322.055 275.583 -331.428 275.917C-340.806 276.204 -348.616 276.674 -354.088 276.893C-359.557 277.164 -362.684 277.392 -362.684 277.392C-362.684 277.392 -359.561 277.62 -354.088 277.891C-348.62 278.11 -340.806 278.58 -331.428 278.867C-322.05 279.201 -311.113 279.475 -299.394 279.657C-293.533 279.721 -287.477 279.873 -281.328 279.877C-275.175 279.907 -268.924 279.936 -262.674 279.966C-256.424 279.936 -250.173 279.907 -244.02 279.877C-237.867 279.801 -231.811 279.729 -225.953 279.653C-214.234 279.471 -203.293 279.197 -193.92 278.863C-184.542 278.575 -176.728 278.11 -171.259 277.891C-165.791 277.62 -162.664 277.392 -162.664 277.392C-162.664 277.392 -165.791 277.164 -171.259 276.889ZM-568.824 220.192L-554.908 235.047H-533.769L-568.824 220.192ZM-648.9 253.895H-547.817L-620.683 176.114H-648.9V253.895ZM-719.869 182.812L-700.894 147.119L-702.187 145.534L-722.646 183.264C-721.733 183.045 -720.807 182.901 -719.869 182.812ZM-109.635 96.545C-109.635 96.545 -108.996 96.6591 -107.876 96.7943C-106.757 96.9042 -105.163 97.1409 -103.245 97.2846C-99.4116 97.61 -94.3023 97.8213 -89.1929 97.8297C-84.0836 97.8213 -78.9743 97.6058 -75.1412 97.2803C-73.2268 97.1367 -71.6293 96.9042 -70.5094 96.7943C-69.3937 96.6591 -68.7513 96.545 -68.7513 96.545C-68.7513 96.545 -69.3895 96.4309 -70.5094 96.2957C-71.6251 96.1858 -73.2225 95.9533 -75.1412 95.8097C-78.9743 95.4843 -84.0836 95.2687 -89.1929 95.2603C-94.3023 95.2687 -99.4116 95.48 -103.245 95.8054C-105.159 95.9491 -106.757 96.1816 -107.876 96.2914C-108.996 96.4309 -109.635 96.545 -109.635 96.545ZM-56.2337 91.5836C-57.6114 91.4737 -59.5765 91.2413 -61.9347 91.0976C-66.651 90.7722 -72.9394 90.5566 -79.2321 90.5482C-85.5205 90.5566 -91.8131 90.7679 -96.5294 91.0934C-98.8876 91.237 -100.853 91.4695 -102.23 91.5793C-103.608 91.7146 -104.394 91.8287 -104.394 91.8287C-104.394 91.8287 -103.608 91.9428 -102.23 92.078C-100.853 92.1879 -98.8876 92.4203 -96.5294 92.564C-91.8131 92.8894 -85.5205 93.105 -79.2321 93.1092C-72.9436 93.1007 -66.651 92.8852 -61.9347 92.5598C-59.5765 92.4161 -57.6114 92.1837 -56.2337 92.0738C-54.856 91.9386 -54.0699 91.8245 -54.0699 91.8245C-54.0699 91.8245 -54.8602 91.7188 -56.2337 91.5836ZM98.3905 105.627C98.3271 104.418 97.9848 103.222 97.4269 102.081C96.831 100.974 96.0239 99.9639 95.0688 99.2539C94.1348 98.5228 93.0952 98.0833 92.1823 97.91C91.278 97.7029 90.5046 97.7621 89.9932 97.8382C89.4776 97.9481 89.2029 98.0368 89.2029 98.0368C89.2029 98.0368 89.4734 98.1425 89.9467 98.32C90.4032 98.5101 91.0244 98.7933 91.6752 99.2117C92.3303 99.6258 93.0149 100.171 93.6403 100.851C94.2531 101.536 94.8363 102.318 95.2632 103.197C95.4956 103.624 95.6984 104.072 95.8548 104.528C95.9985 104.976 96.1887 105.458 96.2647 105.876C96.3746 106.252 96.4549 106.874 96.531 107.254C96.5817 107.736 96.6662 108.188 96.7423 108.606C97.0339 110.284 97.4396 111.4 97.4396 111.4C97.4396 111.4 97.8495 110.284 98.1369 108.606C98.213 108.188 98.2933 107.731 98.3482 107.254C98.3778 106.679 98.4665 106.286 98.3905 105.627ZM-18.1101 386.125C0.848099 386.125 16.8861 373.633 22.2279 356.433C15.9606 370.349 2.00183 380.056 -14.2517 380.056C-19.2807 380.056 -24.0731 379.089 -28.5063 377.394C-24.1577 378.721 -19.6062 379.203 -15.3463 378.839C-10.4736 378.463 -5.939 376.98 -2.06367 374.875C1.82433 372.771 5.05305 370.045 7.56758 367.167C10.0863 364.289 11.9458 361.263 13.1038 358.393C13.7968 357.012 14.1223 355.583 14.5829 354.336C14.9252 353.047 15.1619 351.847 15.4154 350.778C15.7155 348.589 15.8803 346.873 15.838 345.694C15.8507 344.519 15.8592 343.894 15.8592 343.894C15.8592 343.894 15.8042 344.515 15.6986 345.686C15.6648 346.86 15.3267 348.542 14.9252 350.677C14.6167 351.72 14.3124 352.883 13.9067 354.121C13.3827 355.317 12.9939 356.682 12.2374 357.988C10.9442 360.701 8.98334 363.503 6.49417 366.191C3.9881 368.862 0.818512 371.346 -2.93002 373.206C-6.67012 375.07 -10.9807 376.266 -15.4604 376.608C-20.0415 376.946 -24.7409 376.333 -29.2078 374.689C-33.6621 373.058 -37.8121 370.404 -41.2184 367.002C-44.6246 363.6 -47.2744 359.446 -48.9056 354.991C-49.7635 352.781 -50.2833 350.444 -50.6045 348.2C-50.8454 347.106 -50.7989 345.834 -50.9004 344.667C-51.0145 343.577 -50.8412 342.393 -50.8285 341.274C-50.4862 336.756 -49.2944 332.45 -47.4265 328.709C-45.567 324.961 -43.0821 321.791 -40.4112 319.285C-37.7234 316.8 -34.9215 314.831 -32.2084 313.542C-30.9025 312.786 -29.5375 312.397 -28.3373 311.873C-27.099 311.467 -25.9368 311.167 -24.893 310.854C-22.7715 310.457 -21.0811 310.119 -19.902 310.081C-18.7314 309.975 -18.1101 309.92 -18.1101 309.92C-18.1101 309.92 -18.7356 309.929 -19.9062 309.941C-21.0811 309.899 -22.7926 310.064 -24.9902 310.364C-26.0636 310.613 -27.2639 310.854 -28.5486 311.197C-29.7953 311.657 -31.2195 311.983 -32.6056 312.676C-35.4709 313.834 -38.4968 315.693 -41.3748 318.212C-44.2527 320.726 -46.9785 323.955 -49.0789 327.843C-51.1835 331.718 -52.6669 336.257 -53.043 341.092C-53.0726 342.313 -53.2627 343.488 -53.1613 344.777C-53.0726 345.981 -53.1402 347.131 -52.8993 348.407C-52.6457 350.402 -52.202 352.346 -51.6103 354.256C-53.2965 349.831 -54.2643 345.047 -54.2643 340.027C-54.2643 323.773 -44.557 309.815 -30.6405 303.547C-47.8407 308.889 -60.333 324.927 -60.333 343.885C-60.3414 367.218 -41.4339 386.125 -18.1101 386.125ZM-330.642 345.301C-323.927 345.415 -314.334 345.58 -302.822 345.774C-291.31 345.88 -277.879 346.125 -263.49 346.167C-249.1 346.222 -233.751 346.277 -218.401 346.336C-203.052 346.277 -187.703 346.218 -173.313 346.163C-158.923 346.02 -145.493 345.884 -133.981 345.77C-122.469 345.576 -112.876 345.411 -106.161 345.297C-99.4454 345.14 -95.6081 345.048 -95.6081 345.048C-95.6081 345.048 -99.4454 344.959 -106.161 344.798C-112.876 344.684 -122.469 344.523 -133.981 344.325C-145.493 344.211 -158.923 344.076 -173.313 343.932C-187.703 343.877 -203.052 343.818 -218.401 343.763C-233.751 343.822 -249.1 343.877 -263.49 343.932C-277.879 343.974 -291.31 344.219 -302.822 344.325C-314.334 344.519 -323.927 344.684 -330.642 344.798C-337.357 344.959 -341.195 345.048 -341.195 345.048C-341.195 345.048 -337.357 345.145 -330.642 345.301ZM-265.412 301.138C-253.693 301.193 -241.193 301.248 -228.688 301.307C-216.187 301.248 -203.686 301.193 -191.963 301.138C-180.244 301.088 -169.303 300.851 -159.929 300.745C-150.552 300.627 -142.742 300.378 -137.269 300.272C-131.8 300.116 -128.673 300.023 -128.673 300.023C-128.673 300.023 -131.8 299.934 -137.269 299.773C-142.737 299.668 -150.552 299.418 -159.929 299.3C-169.307 299.194 -180.244 298.958 -191.963 298.907C-203.682 298.852 -216.183 298.793 -228.688 298.738C-241.188 298.797 -253.689 298.852 -265.412 298.907C-277.131 298.949 -288.073 299.194 -297.446 299.3C-306.824 299.414 -314.638 299.668 -320.106 299.773C-325.575 299.934 -328.702 300.023 -328.702 300.023C-328.702 300.023 -325.575 300.111 -320.106 300.272C-314.638 300.378 -306.824 300.631 -297.446 300.745C-288.073 300.851 -277.131 301.096 -265.412 301.138ZM-289.974 309.929C-289.974 309.929 -289.434 310.436 -288.453 311.273C-287.456 312.088 -286.074 313.314 -284.341 314.675C-280.897 317.43 -276.176 320.917 -271.337 324.234C-266.49 327.539 -261.529 330.67 -257.717 332.889C-255.819 334.013 -254.175 334.854 -253.055 335.488C-251.919 336.101 -251.251 336.422 -251.251 336.422C-251.251 336.422 -251.792 335.915 -252.772 335.078C-253.77 334.263 -255.151 333.037 -256.884 331.676C-260.333 328.925 -265.049 325.434 -269.884 322.117C-274.727 318.812 -279.688 315.676 -283.504 313.462C-285.402 312.338 -287.046 311.497 -288.166 310.863C-289.307 310.246 -289.974 309.929 -289.974 309.929ZM-228.688 309.929C-228.688 309.929 -228.147 310.436 -227.166 311.273C-226.169 312.088 -224.787 313.314 -223.054 314.675C-219.61 317.43 -214.885 320.917 -210.051 324.234C-205.203 327.539 -200.242 330.67 -196.426 332.889C-194.528 334.013 -192.884 334.854 -191.764 335.488C-190.628 336.101 -189.96 336.422 -189.96 336.422C-189.96 336.422 -190.501 335.915 -191.485 335.078C-192.483 334.263 -193.865 333.037 -195.597 331.676C-199.046 328.925 -203.762 325.434 -208.597 322.117C-213.44 318.812 -218.401 315.676 -222.218 313.462C-224.115 312.338 -225.759 311.497 -226.879 310.863C-228.02 310.246 -228.688 309.929 -228.688 309.929ZM-130.199 335.074C-131.196 334.258 -132.578 333.033 -134.311 331.672C-137.759 328.921 -142.475 325.43 -147.31 322.113C-152.153 318.808 -157.115 315.672 -160.931 313.457C-162.828 312.333 -164.472 311.492 -165.592 310.858C-166.729 310.246 -167.397 309.929 -167.397 309.929C-167.397 309.929 -166.856 310.436 -165.875 311.273C-164.878 312.088 -163.496 313.314 -161.763 314.675C-158.319 317.43 -153.594 320.917 -148.76 324.234C-143.912 327.539 -138.951 330.67 -135.139 332.889C-133.241 334.013 -131.598 334.854 -130.478 335.488C-129.341 336.101 -128.673 336.422 -128.673 336.422C-128.673 336.422 -129.218 335.911 -130.199 335.074ZM-322.224 287.923C-309.469 288.038 -294.589 288.173 -278.644 288.316C-262.699 288.371 -245.693 288.426 -228.688 288.486C-211.682 288.426 -194.676 288.371 -178.731 288.316C-162.786 288.173 -147.906 288.038 -135.152 287.923C-122.397 287.729 -111.769 287.564 -104.327 287.45C-96.8844 287.29 -92.633 287.201 -92.633 287.201C-92.633 287.201 -96.8844 287.112 -104.327 286.951C-111.769 286.837 -122.397 286.677 -135.152 286.478C-147.906 286.364 -162.786 286.229 -178.731 286.085C-194.676 286.03 -211.682 285.971 -228.688 285.916C-245.693 285.975 -262.703 286.03 -278.644 286.085C-294.589 286.229 -309.469 286.364 -322.224 286.478C-334.978 286.673 -345.607 286.837 -353.049 286.951C-360.491 287.112 -364.742 287.201 -364.742 287.201C-364.742 287.201 -360.491 287.29 -353.049 287.45C-345.611 287.564 -334.982 287.725 -322.224 287.923ZM-424.085 343.894C-424.085 337.259 -429.461 331.883 -436.096 331.883C-440.271 331.883 -443.944 334.017 -446.095 337.25C-445.431 336.435 -444.696 335.75 -443.939 335.239C-441.809 333.713 -439.637 333.379 -438.255 333.379C-436.806 333.413 -436.121 333.709 -436.1 333.671C-436.1 333.671 -436.286 333.73 -436.632 333.836C-436.987 333.916 -437.482 334.153 -438.052 334.377C-439.13 334.871 -440.504 335.759 -441.674 337.098C-440.149 335.843 -438.226 335.061 -436.096 335.061C-431.219 335.061 -427.267 339.013 -427.267 343.89C-427.267 345.998 -428.041 347.913 -429.275 349.43C-427.952 348.268 -427.073 346.911 -426.583 345.842C-426.359 345.25 -426.122 344.769 -426.042 344.422C-425.932 344.076 -425.877 343.89 -425.877 343.89C-425.877 343.89 -425.839 344.08 -425.763 344.439C-425.678 344.802 -425.594 345.339 -425.581 346.049C-425.577 347.435 -425.911 349.607 -427.436 351.737C-427.952 352.485 -428.624 353.217 -429.418 353.872C-426.202 351.72 -424.085 348.056 -424.085 343.894ZM-438.141 327.027C-427.694 327.027 -419.229 335.497 -419.229 345.943C-419.229 350.981 -421.211 355.545 -424.423 358.934C-419.939 355.448 -417.04 350.013 -417.04 343.894C-417.04 333.371 -425.573 324.838 -436.096 324.838C-442.215 324.838 -447.65 327.737 -451.136 332.221C-447.743 329.009 -443.179 327.027 -438.141 327.027ZM-427.872 288.338C-426.198 288.676 -424.318 289.031 -422.323 289.677C-421.321 289.969 -420.282 290.277 -419.2 290.59C-418.156 291.008 -417.083 291.444 -415.971 291.892C-413.714 292.674 -411.58 294.047 -409.235 295.133C-407.058 296.545 -404.717 297.851 -402.612 299.575C-400.373 301.122 -398.424 303.087 -396.379 304.933C-394.532 306.979 -392.567 308.927 -391.02 311.167C-389.292 313.272 -387.99 315.613 -386.579 317.789C-385.492 320.135 -384.111 322.265 -383.333 324.526C-382.889 325.633 -382.454 326.71 -382.036 327.754C-381.719 328.832 -381.414 329.876 -381.123 330.877C-380.476 332.876 -380.121 334.744 -379.787 336.414C-379.614 337.25 -379.453 338.032 -379.306 338.755C-379.229 339.494 -379.158 340.175 -379.094 340.788C-378.811 343.243 -378.65 344.646 -378.65 344.646C-378.65 344.646 -378.629 343.234 -378.596 340.762C-378.596 340.145 -378.596 339.461 -378.6 338.717C-378.676 337.969 -378.756 337.162 -378.845 336.299C-379.005 334.567 -379.166 332.589 -379.728 330.522C-379.965 329.479 -380.214 328.388 -380.468 327.26C-380.831 326.161 -381.207 325.024 -381.596 323.858C-382.264 321.474 -383.506 319.171 -384.601 316.707C-386.004 314.413 -387.246 311.89 -389.038 309.684C-390.636 307.33 -392.656 305.267 -394.57 303.112C-396.721 301.193 -398.788 299.178 -401.142 297.58C-403.348 295.784 -405.871 294.546 -408.165 293.143C-410.629 292.048 -412.928 290.801 -415.316 290.138C-416.482 289.753 -417.619 289.377 -418.718 289.01C-419.846 288.756 -420.937 288.507 -421.981 288.27C-424.051 287.708 -426.016 287.547 -427.741 287.387C-428.603 287.298 -429.406 287.218 -430.154 287.146C-430.902 287.146 -431.591 287.142 -432.212 287.142C-434.688 287.175 -436.1 287.197 -436.1 287.197C-436.1 287.197 -434.697 287.357 -432.246 287.64C-431.637 287.704 -430.961 287.776 -430.226 287.852C-429.495 288.004 -428.708 288.164 -427.872 288.338ZM-436.096 386.125C-417.137 386.125 -401.099 373.633 -395.758 356.433C-402.025 370.349 -415.984 380.056 -432.237 380.056C-437.266 380.056 -442.059 379.089 -446.492 377.394C-442.143 378.721 -437.592 379.203 -433.332 378.839C-428.463 378.463 -423.925 376.98 -420.049 374.875C-416.161 372.771 -412.932 370.045 -410.418 367.167C-407.899 364.289 -406.04 361.263 -404.882 358.393C-404.189 357.012 -403.863 355.583 -403.403 354.336C-403.06 353.047 -402.824 351.847 -402.57 350.778C-402.27 348.589 -402.105 346.873 -402.148 345.694C-402.135 344.519 -402.126 343.894 -402.126 343.894C-402.126 343.894 -402.181 344.515 -402.287 345.686C-402.321 346.86 -402.659 348.542 -403.06 350.677C-403.369 351.72 -403.673 352.883 -404.079 354.121C-404.603 355.317 -404.992 356.682 -405.748 357.988C-407.037 360.701 -409.002 363.503 -411.491 366.191C-413.997 368.862 -417.167 371.346 -420.916 373.206C-424.656 375.07 -428.966 376.266 -433.446 376.608C-438.031 376.946 -442.726 376.333 -447.193 374.689C-451.648 373.058 -455.798 370.404 -459.204 367.002C-462.61 363.6 -465.26 359.446 -466.891 354.991C-467.749 352.781 -468.269 350.444 -468.59 348.2C-468.831 347.106 -468.784 345.834 -468.886 344.667C-468.996 343.577 -468.827 342.393 -468.814 341.274C-468.472 336.756 -467.28 332.45 -465.412 328.709C-463.553 324.961 -461.068 321.791 -458.397 319.285C-455.709 316.8 -452.907 314.831 -450.194 313.542C-448.888 312.786 -447.523 312.397 -446.323 311.873C-445.085 311.467 -443.922 311.167 -442.879 310.854C-440.757 310.457 -439.067 310.119 -437.888 310.081C-436.717 309.975 -436.096 309.92 -436.096 309.92C-436.096 309.92 -436.721 309.929 -437.892 309.941C-439.067 309.899 -440.778 310.064 -442.976 310.364C-444.045 310.613 -445.249 310.854 -446.534 311.197C-447.781 311.657 -449.205 311.983 -450.591 312.676C-453.456 313.834 -456.482 315.693 -459.36 318.212C-462.238 320.726 -464.964 323.955 -467.064 327.843C-469.169 331.718 -470.652 336.257 -471.029 341.092C-471.058 342.313 -471.248 343.488 -471.147 344.777C-471.058 345.981 -471.126 347.131 -470.885 348.407C-470.631 350.402 -470.188 352.346 -469.596 354.256C-471.282 349.831 -472.25 345.047 -472.25 340.027C-472.25 323.773 -462.543 309.815 -448.626 303.547C-465.826 308.889 -478.319 324.927 -478.319 343.885C-478.323 367.218 -459.415 386.125 -436.096 386.125ZM-509.79 342.453C-509.786 344.147 -509.782 345.052 -509.782 345.052C-509.782 345.052 -509.689 344.152 -509.511 342.461C-509.423 341.62 -509.313 340.581 -509.186 339.363C-509.101 338.142 -508.873 336.756 -508.544 335.213C-508.231 333.671 -507.935 331.959 -507.529 330.117C-506.984 328.308 -506.397 326.355 -505.771 324.268C-505.104 322.201 -504.102 320.097 -503.21 317.84C-502.255 315.609 -500.958 313.394 -499.774 311.019C-498.363 308.767 -496.909 306.408 -495.231 304.101C-493.414 301.895 -491.77 299.431 -489.577 297.322C-485.562 292.779 -480.465 288.853 -475.018 285.219C-469.495 281.618 -463.185 279.015 -456.656 276.893C-449.957 274.945 -443.373 274.1 -435.96 273.931C-429.237 274.079 -422.078 274.941 -415.523 276.889C-408.994 279.002 -402.68 281.614 -397.161 285.21C-391.713 288.845 -386.612 292.767 -382.598 297.314C-380.404 299.423 -378.765 301.886 -376.943 304.092C-375.265 306.4 -373.812 308.762 -372.404 311.011C-371.221 313.386 -369.928 315.6 -368.969 317.831C-368.081 320.088 -367.075 322.189 -366.412 324.259C-365.786 326.347 -365.199 328.304 -364.654 330.108C-364.248 331.942 -363.952 333.65 -363.644 335.188C-363.314 336.722 -363.086 338.117 -363.001 339.346C-362.874 340.572 -362.765 341.612 -362.676 342.457C-362.498 344.147 -362.405 345.048 -362.405 345.048C-362.405 345.048 -362.401 344.143 -362.397 342.444C-362.393 341.595 -362.393 340.547 -362.388 339.317C-362.397 338.7 -362.367 338.041 -362.401 337.335C-362.481 336.629 -362.566 335.881 -362.655 335.087C-362.841 333.502 -363.005 331.731 -363.272 329.817C-363.677 327.932 -364.117 325.891 -364.59 323.71C-365.106 321.538 -365.955 319.311 -366.691 316.902C-367.494 314.518 -368.732 312.169 -369.818 309.616C-371.141 307.194 -372.518 304.646 -374.137 302.132C-375.895 299.714 -377.56 297.077 -379.753 294.757C-383.789 289.804 -388.966 285.384 -394.701 281.415C-400.487 277.485 -407.105 274.404 -414.099 272.131C-417.657 271.188 -421.228 270.165 -424.939 269.734C-426.777 269.439 -428.62 269.117 -430.492 269.088L-436.222 268.788C-443.267 268.961 -451.119 269.984 -458.088 272.126C-465.087 274.392 -471.701 277.481 -477.49 281.411C-483.225 285.379 -488.406 289.796 -492.442 294.753C-494.635 297.073 -496.301 299.714 -498.059 302.127C-499.677 304.642 -501.051 307.194 -502.373 309.612C-503.46 312.16 -504.694 314.51 -505.501 316.898C-506.236 319.306 -507.086 321.534 -507.601 323.71C-508.07 325.891 -508.51 327.932 -508.915 329.817C-509.182 331.727 -509.342 333.489 -509.528 335.07C-509.617 335.86 -509.701 336.608 -509.778 337.314C-509.816 338.02 -509.786 338.691 -509.79 339.308C-509.794 340.551 -509.794 341.599 -509.79 342.453ZM-591.544 343.894C-591.544 337.259 -596.919 331.883 -603.554 331.883C-607.73 331.883 -611.402 334.017 -613.553 337.25C-612.89 336.435 -612.155 335.75 -611.398 335.239C-609.268 333.713 -607.096 333.379 -605.714 333.379C-604.264 333.413 -603.58 333.709 -603.559 333.671C-603.559 333.671 -603.745 333.73 -604.091 333.836C-604.446 333.916 -604.941 334.153 -605.511 334.377C-606.589 334.871 -607.962 335.759 -609.133 337.098C-607.607 335.847 -605.684 335.061 -603.554 335.061C-598.678 335.061 -594.726 339.013 -594.726 343.89C-594.726 345.998 -595.5 347.913 -596.734 349.43C-595.411 348.268 -594.532 346.907 -594.042 345.842C-593.818 345.25 -593.581 344.769 -593.501 344.422C-593.391 344.076 -593.336 343.89 -593.336 343.89C-593.336 343.89 -593.298 344.08 -593.222 344.439C-593.137 344.802 -593.057 345.339 -593.04 346.049C-593.036 347.435 -593.37 349.607 -594.895 351.737C-595.411 352.485 -596.083 353.217 -596.877 353.872C-593.665 351.72 -591.544 348.056 -591.544 343.894ZM-605.604 327.027C-595.157 327.027 -586.692 335.497 -586.692 345.943C-586.692 350.981 -588.674 355.545 -591.882 358.934C-587.398 355.448 -584.499 350.017 -584.499 343.894C-584.499 333.371 -593.031 324.838 -603.554 324.838C-609.674 324.838 -615.109 327.737 -618.595 332.221C-615.206 329.009 -610.642 327.027 -605.604 327.027ZM-595.335 288.338C-593.661 288.676 -591.781 289.031 -589.786 289.677C-588.784 289.969 -587.745 290.277 -586.663 290.59C-585.619 291.008 -584.546 291.444 -583.438 291.892C-581.182 292.674 -579.047 294.047 -576.702 295.133C-574.525 296.545 -572.184 297.851 -570.08 299.575C-567.84 301.122 -565.892 303.087 -563.846 304.933C-561.999 306.979 -560.034 308.927 -558.487 311.167C-556.759 313.272 -555.457 315.613 -554.046 317.789C-552.96 320.135 -551.578 322.265 -550.8 324.526C-550.356 325.633 -549.921 326.71 -549.503 327.754C-549.186 328.832 -548.882 329.876 -548.59 330.877C-547.943 332.876 -547.588 334.744 -547.254 336.414C-547.081 337.25 -546.921 338.032 -546.773 338.755C-546.697 339.494 -546.625 340.175 -546.561 340.788C-546.278 343.243 -546.118 344.646 -546.118 344.646C-546.118 344.646 -546.097 343.234 -546.067 340.762C-546.067 340.145 -546.067 339.461 -546.071 338.717C-546.147 337.969 -546.228 337.162 -546.316 336.299C-546.477 334.567 -546.638 332.589 -547.2 330.522C-547.436 329.479 -547.686 328.388 -547.939 327.26C-548.303 326.161 -548.679 325.024 -549.067 323.858C-549.735 321.474 -550.978 319.171 -552.072 316.707C-553.475 314.413 -554.718 311.89 -556.51 309.684C-558.107 307.33 -560.127 305.267 -562.042 303.112C-564.193 301.193 -566.259 299.178 -568.613 297.58C-570.819 295.784 -573.342 294.546 -575.637 293.143C-578.101 292.048 -580.4 290.801 -582.787 290.138C-583.954 289.753 -585.091 289.377 -586.19 289.01C-587.318 288.756 -588.408 288.507 -589.452 288.27C-591.523 287.708 -593.488 287.547 -595.216 287.387C-596.079 287.298 -596.881 287.218 -597.625 287.146C-598.373 287.146 -599.062 287.142 -599.683 287.142C-602.16 287.175 -603.571 287.197 -603.571 287.197C-603.571 287.197 -602.168 287.357 -599.717 287.64C-599.109 287.704 -598.432 287.776 -597.697 287.852C-596.953 288.004 -596.172 288.164 -595.335 288.338ZM-603.554 386.125C-584.596 386.125 -568.558 373.633 -563.216 356.433C-569.484 370.349 -583.443 380.056 -599.696 380.056C-604.725 380.056 -609.518 379.089 -613.951 377.394C-609.602 378.721 -605.051 379.203 -600.791 378.839C-595.918 378.463 -591.383 376.98 -587.508 374.875C-583.62 372.771 -580.391 370.045 -577.877 367.167C-575.358 364.289 -573.499 361.263 -572.341 358.393C-571.647 357.012 -571.322 355.583 -570.861 354.336C-570.519 353.047 -570.282 351.847 -570.029 350.778C-569.729 348.589 -569.564 346.873 -569.606 345.694C-569.594 344.519 -569.585 343.894 -569.585 343.894C-569.585 343.894 -569.64 344.515 -569.746 345.686C-569.78 346.86 -570.122 348.542 -570.519 350.677C-570.828 351.72 -571.132 352.883 -571.538 354.121C-572.062 355.317 -572.45 356.682 -573.207 357.988C-574.5 360.701 -576.461 363.503 -578.95 366.191C-581.456 368.862 -584.626 371.346 -588.374 373.206C-592.114 375.07 -596.425 376.266 -600.905 376.608C-605.49 376.946 -610.185 376.333 -614.652 374.689C-619.107 373.058 -623.256 370.404 -626.663 367.002C-630.069 363.6 -632.719 359.446 -634.35 354.991C-635.208 352.781 -635.728 350.444 -636.049 348.2C-636.29 347.106 -636.243 345.834 -636.345 344.667C-636.459 343.577 -636.286 342.393 -636.273 341.274C-635.931 336.756 -634.735 332.45 -632.871 328.709C-631.011 324.961 -628.526 321.791 -625.856 319.285C-623.168 316.8 -620.366 314.831 -617.653 313.542C-616.347 312.786 -614.982 312.397 -613.782 311.873C-612.543 311.467 -611.381 311.167 -610.337 310.854C-608.216 310.457 -606.525 310.119 -605.346 310.081C-604.18 309.975 -603.554 309.92 -603.554 309.92C-603.554 309.92 -604.18 309.929 -605.355 309.941C-606.53 309.899 -608.241 310.064 -610.439 310.364C-611.508 310.613 -612.712 310.854 -613.997 311.197C-615.244 311.657 -616.668 311.983 -618.054 312.676C-620.919 313.834 -623.945 315.693 -626.823 318.212C-629.701 320.726 -632.427 323.955 -634.532 327.843C-636.632 331.718 -638.12 336.257 -638.496 341.092C-638.525 342.313 -638.72 343.488 -638.614 344.777C-638.525 345.981 -638.593 347.131 -638.356 348.407C-638.103 350.402 -637.655 352.346 -637.067 354.26C-638.754 349.831 -639.721 345.047 -639.721 340.031C-639.721 323.778 -630.014 309.819 -616.098 303.552C-633.298 308.893 -645.79 324.931 -645.79 343.89C-645.786 367.218 -626.878 386.125 -603.554 386.125ZM-660.89 296.633C-661.612 297.584 -662.293 298.531 -662.948 299.456C-664.317 301.265 -665.382 303.142 -666.418 304.87C-667.508 306.565 -668.264 308.302 -669.059 309.848C-669.874 311.382 -670.462 312.87 -670.99 314.21C-672.148 316.847 -672.714 319.04 -673.15 320.511C-673.585 321.982 -673.817 322.763 -673.817 322.763C-673.817 322.763 -673.492 322.011 -672.888 320.604C-672.3 319.192 -671.421 317.134 -670.082 314.628C-669.448 313.36 -668.746 311.957 -667.808 310.525C-666.895 309.083 -666.02 307.461 -664.807 305.905C-663.654 304.316 -662.47 302.601 -660.987 300.969C-660.281 300.133 -659.554 299.275 -658.815 298.396C-658.012 297.572 -657.196 296.726 -656.355 295.864C-654.754 294.077 -652.742 292.559 -650.853 290.814C-648.765 289.297 -646.77 287.522 -644.421 286.115C-639.899 283.047 -634.713 280.473 -629.16 278.419C-626.409 277.307 -623.472 276.593 -620.535 275.807C-617.539 275.216 -614.517 274.611 -611.495 274.341C-605.22 273.724 -598.91 273.783 -592.689 274.856C-586.435 275.647 -580.379 277.599 -574.673 280.004C-571.871 281.335 -569.053 282.586 -566.483 284.234C-563.787 285.671 -561.416 287.543 -559.007 289.272C-557.761 290.087 -556.759 291.182 -555.635 292.112C-554.57 293.105 -553.399 293.971 -552.419 295.015C-550.504 297.132 -548.379 299.004 -546.794 301.236C-545.949 302.309 -545.116 303.37 -544.296 304.418C-543.489 305.474 -542.855 306.624 -542.124 307.689C-541.427 308.775 -540.704 309.819 -540.062 310.884C-539.487 311.991 -538.921 313.073 -538.367 314.134C-537.826 315.203 -537.23 316.226 -536.77 317.278C-536.334 318.343 -535.912 319.382 -535.497 320.397C-535.075 321.411 -534.661 322.4 -534.259 323.363C-533.951 324.357 -533.655 325.324 -533.363 326.258C-532.07 329.994 -531.517 333.362 -530.963 336.147C-530.426 338.937 -530.346 341.21 -530.126 342.719C-529.957 344.24 -529.868 345.052 -529.868 345.052C-529.868 345.052 -529.86 344.236 -529.847 342.702C-529.839 341.937 -529.835 340.99 -529.822 339.879C-529.818 338.768 -529.75 337.491 -529.966 336.063C-530.274 333.202 -530.545 329.673 -531.521 325.764C-531.732 324.775 -531.952 323.756 -532.18 322.708C-532.505 321.686 -532.839 320.633 -533.182 319.556C-533.532 318.474 -533.896 317.367 -534.268 316.234C-534.673 315.114 -535.223 314.02 -535.713 312.87C-536.22 311.729 -536.74 310.563 -537.268 309.371C-537.868 308.221 -538.549 307.08 -539.204 305.901C-539.884 304.739 -540.51 303.505 -541.304 302.356C-542.116 301.219 -542.94 300.065 -543.772 298.894C-545.344 296.469 -547.47 294.389 -549.406 292.061C-550.39 290.907 -551.578 289.931 -552.689 288.853C-553.851 287.835 -554.895 286.647 -556.188 285.743C-558.69 283.833 -561.171 281.779 -563.998 280.16C-565.397 279.336 -566.716 278.343 -568.207 277.646C-569.687 276.923 -571.17 276.196 -572.662 275.469C-578.739 272.832 -585.213 270.694 -591.912 269.772C-598.559 268.674 -605.435 268.695 -611.909 269.388C-618.659 270.051 -624.913 271.843 -630.787 274.189C-636.653 276.496 -642.003 279.509 -646.614 282.958C-649.006 284.559 -651.047 286.495 -653.122 288.215C-654.994 290.167 -656.964 291.879 -658.519 293.844C-659.322 294.795 -660.116 295.725 -660.89 296.633Z" fill="#F8F8F8"/>
</svg>
