<svg width="203" height="124" viewBox="0 0 203 124" fill="none" xmlns="http://www.w3.org/2000/svg">
<path d="M190.516 103.975C190.933 103.975 191.318 103.712 191.458 103.297L201.209 74.4052L202.627 80.487L192.929 108.623L190.922 109.817C189.848 108.778 188.492 107.251 187.277 105.178C186.751 104.279 186.33 103.411 185.99 102.6L190.214 103.928C190.314 103.959 190.416 103.975 190.516 103.975Z" fill="#565656"/>
<path d="M179.637 87.7318C179.455 87.608 179.266 87.4952 179.065 87.3987C179.06 87.0511 179.047 86.7017 179.029 86.3505L179.448 86.2468C180.794 85.9119 181.886 84.9929 182.439 83.7191C182.993 82.4452 182.922 81.0203 182.245 79.8083L180.323 76.3633L190.265 75.0876L194.252 67.1187L201.81 69.4953L200.776 72.5599L190.512 102.978L185.529 101.411L183.664 100.825L188.074 86.7964C186.976 86.7836 183.724 86.8036 179.637 87.7318Z" fill="#565656"/>
<path d="M10.6826 87.1003L14.1075 86.6053L11.2904 88.993L10.6826 87.1003Z" fill="#565656"/>
<path d="M11.5456 89.7828L15.5383 86.3997L17.1416 86.1686L35.7056 83.4844L35.7711 83.9794L35.9239 85.1259C32.2406 88.7892 15.3327 105.593 9.82043 111.071C8.99787 111.888 5.92419 114.944 5.92419 114.944C6.02428 115.084 6.14075 115.211 6.2463 115.348C7.24902 116.632 8.49378 117.748 9.72216 118.798C9.62389 118.472 9.85319 117.946 10.1462 117.766C10.6284 117.47 11.0251 117.89 11.4583 118.025C11.6803 118.092 11.986 117.997 12.006 117.766C12.0151 117.668 11.9678 117.575 11.9241 117.488C11.6821 117.02 10.9524 116.001 11.7513 115.601C12.3518 115.142 12.6666 115.606 13.1907 115.85C13.4401 115.965 13.733 116.012 13.9878 115.915C14.9432 115.553 13.8968 114.418 14.4864 113.834C15.1088 113.217 15.6166 114.099 16.168 113.779C16.7885 113.419 16.0369 112.936 16.0187 112.523C15.9969 112.045 16.5064 111.65 16.9505 111.65C17.4582 111.65 17.8386 111.877 18.3572 111.604C18.6538 111.45 18.874 111.091 18.7612 110.776C18.5756 110.248 17.9714 110.092 18.3881 109.404C19.076 108.269 20.2316 109.894 21.0578 108.951C21.8786 108.014 20.1752 107.186 21.1343 106.352C21.844 105.734 22.1825 106.503 22.823 106.634C23.1215 106.696 23.4927 106.514 23.5109 106.208C23.5273 105.943 23.2907 105.739 23.0997 105.552C22.8139 105.269 22.7848 104.913 22.9704 104.563C23.1361 104.254 23.4545 104.074 23.7839 104.074C24.3499 104.074 24.8794 104.531 25.4163 104.15C26.3189 103.508 25.278 102.623 25.278 101.855C25.2834 101.351 25.6947 100.944 26.1988 100.942C26.7739 100.942 27.0887 101.672 27.7002 101.419C28.8612 100.94 27.0141 99.7627 27.9167 99.0293C28.6246 98.4542 29.8148 99.6043 30.3407 98.8073C30.8794 97.9938 29.005 97.6462 29.7256 96.6344C29.9021 96.3869 30.1824 96.2504 30.4718 96.2504C30.9831 96.2504 31.5345 96.4906 32.0404 96.3632C32.7465 96.1831 32.8921 95.6426 32.4572 95.1003C31.8657 94.3614 32.3553 93.8592 33.216 93.5953C33.5381 93.497 33.873 93.4079 34.1423 93.2022C34.6937 92.78 34.2333 92.1849 34.7356 91.8064C34.752 91.7937 34.772 91.79 34.7884 91.7791C34.61 92.6181 34.4717 93.4734 34.3771 94.3396C33.8621 94.4397 33.2652 94.4743 33.1432 94.245C33.2979 94.5361 33.4526 94.8273 33.6073 95.1185C33.9148 95.699 33.7602 96.4324 33.2179 96.8055C32.4463 97.335 31.3671 97.5152 30.4699 97.1712L31.1451 97.9811C31.5655 98.4815 31.4672 99.2458 30.9194 99.6043C30.1715 100.096 29.0559 100.178 28.3389 99.6189C29.1342 100.083 29.3125 101.22 28.6938 101.868C28.075 102.516 26.8121 102.514 26.1952 101.865C26.146 101.812 26.8558 103.532 26.8558 103.519C26.8649 104.154 26.2461 104.774 25.6438 105.026C24.9923 105.295 24.1915 105.246 23.5874 104.895C24.4336 105.248 24.7339 106.376 24.1606 107.042C23.5855 107.708 22.3099 107.71 21.733 107.046C22.4627 107.886 22.4554 109.188 21.4454 109.852C20.7739 110.292 19.8622 110.274 19.1725 109.881C20.9632 111.029 18.5428 113.342 16.9104 112.549C17.4364 113.018 17.5274 113.892 17.0014 114.385C16.5155 114.84 15.6584 114.831 15.1088 114.463C15.4983 115.062 15.4564 115.904 14.9196 116.416C14.2408 117.06 12.9378 117.018 12.3099 116.332C12.4992 116.632 12.6903 116.933 12.8795 117.233C13.2344 117.795 12.9578 118.55 12.3172 118.734C11.6184 118.934 10.8068 118.836 10.2481 118.399C10.6685 118.638 11.1125 118.9 11.3181 119.311C11.5256 119.722 11.36 120.318 10.8777 120.427C10.7522 120.456 10.5702 120.41 10.35 120.305C9.14164 119.735 6.73765 117.424 5.53839 115.945C5.0252 115.309 4.73039 114.827 4.85232 114.705L4.86142 114.698C4.86142 114.698 4.8596 114.696 4.85778 114.696C3.54205 112.804 2.35917 110.671 1.71677 108.512C0.539345 104.567 0.583021 101.146 0.79958 98.8837L11.5456 89.7828Z" fill="#565656"/>
<path d="M34.2498 72.5509L30.4336 73.7774L34.0096 70.7456L34.2498 72.5509Z" fill="#565656"/>
<path d="M8.0895 86.5452L6.74283 82.3469L26.6862 75.9466L28.5952 75.3333L34.375 73.4789L35.5852 82.5707L16.8628 85.2768L16.8556 85.2786L15.4307 85.4824L10.3988 86.2103L8.0895 86.5452Z" fill="#565656"/>
<path d="M10.5504 76.407C11.4148 76.1304 12.3102 76.2378 13.0636 76.6254C13.8152 77.013 14.4157 77.6827 14.6942 78.5453L14.7761 78.8019L8.49949 80.8164L8.4176 80.558C7.86074 78.831 8.82342 76.9602 10.5504 76.407Z" fill="#565656"/>
<path d="M145.202 54.7166C144.854 54.7221 144.507 54.7348 144.161 54.7512L144.056 54.3308C143.91 53.7466 143.642 53.2243 143.302 52.7639C144.536 52.6602 145.808 52.6074 147.122 52.6074C147.195 52.6074 147.271 52.6092 147.344 52.6111C146.403 53.0333 145.646 53.7757 145.202 54.7166Z" fill="#565656"/>
<path d="M119.694 0.00196513L147.805 0.416884C151.419 0.469659 154.68 2.07292 156.935 4.60793C147.068 4.46235 116.859 4.01649 110.446 3.92368C112.78 1.44144 116.096 -0.0508097 119.694 0.00196513Z" fill="#565656"/>
<path d="M164.267 57.6502L164.3 58.1088C163.441 58.1325 162.604 58.4072 161.903 58.895C161.599 58.7257 161.295 58.5638 160.993 58.4054L161.119 57.9705C161.328 57.2426 161.341 56.4946 161.181 55.7812C162.251 56.3363 163.281 56.9623 164.267 57.6502Z" fill="#565656"/>
<path d="M41.4321 70.2472L41.4175 71.2189L41.2992 79.2717C40.7023 79.914 40.1363 80.5856 39.605 81.2844C39.4321 81.51 39.2683 81.7411 39.1063 81.9723C39.1027 81.9759 39.0991 81.9795 39.0972 81.9832C39.0754 82.0123 39.0554 82.0414 39.0335 82.0687C38.8534 82.3253 38.6805 82.5855 38.5094 82.8476C38.4548 82.9313 38.3966 83.0132 38.3438 83.0987C38.2601 83.2298 38.1782 83.3608 38.0963 83.4918C37.7087 84.1251 37.3466 84.773 37.0099 85.439C37.0008 85.459 36.9899 85.4772 36.979 85.4954L36.9753 85.4681L36.8552 84.5564L36.8115 84.2416L36.6932 83.3389L36.6587 83.0933L36.5695 82.4254L35.3375 73.168L35.2156 72.2399L35.1974 72.1161L34.8152 69.2426L34.4276 66.3309C34.1928 64.542 34.4312 62.189 35.0445 59.7959L41.5886 59.4065L41.4321 70.2472Z" fill="#565656"/>
<path d="M107.654 8.65319L105.892 8.62953C105.927 6.57314 107.427 4.90982 109.226 4.93348L109.579 4.93894L157.705 5.57405L160.05 5.60499C161.85 5.62865 163.295 7.33018 163.262 9.38658L159.566 9.33744L107.654 8.65319Z" fill="#565656"/>
<path d="M110.686 95.4153L114.455 102.172C115.175 103.463 116.731 103.938 118.063 103.384C118.607 104.362 119.204 105.302 119.845 106.212L118.584 107.426C117.215 108.744 117.474 111 119.104 111.976L125.745 115.943C127.015 116.702 128.602 116.332 129.479 115.184C130.433 115.757 131.413 116.287 132.429 116.758L131.947 118.429C131.421 120.252 132.773 122.079 134.673 122.107L142.409 122.221C143.879 122.243 145.062 121.142 145.257 119.721C145.28 119.721 145.302 119.724 145.324 119.726C146.432 119.743 147.528 119.699 148.609 119.604L149.022 121.273C149.479 123.117 151.562 124.023 153.222 123.097L159.979 119.328C161.271 118.607 161.746 117.051 161.191 115.719C162.168 115.175 163.109 114.578 164.019 113.937L165.235 115.2C166.552 116.569 168.809 116.31 169.783 114.68L173.75 108.038C174.509 106.767 174.141 105.18 172.993 104.303C173.564 103.35 174.095 102.369 174.567 101.353L176.236 101.836C178.061 102.363 179.888 101.009 179.913 99.1095L180.028 91.3735C180.044 90.3616 179.522 89.4954 178.734 88.984C178.379 88.7511 177.972 88.5855 177.528 88.5236C177.528 88.5 177.531 88.4781 177.533 88.4545C177.533 88.3962 177.529 88.338 177.531 88.2779C177.54 87.2297 177.5 86.1924 177.413 85.1715L179.082 84.7584C180.925 84.3016 181.832 82.2161 180.905 80.5583L178.683 76.5747L178.159 75.6357L177.135 73.7995C176.414 72.5092 174.858 72.0342 173.526 72.5875C172.982 71.6102 172.385 70.6694 171.744 69.7595L173.005 68.5438C174.374 67.2263 174.116 64.9697 172.485 63.9943L169.5 62.2127L169.389 62.2709L169.147 62.0016L165.843 60.0289C165.389 59.7577 164.894 59.6358 164.405 59.6376C163.53 59.6413 162.672 60.0507 162.11 60.7877C161.157 60.2145 160.174 59.6867 159.16 59.2136L159.642 57.5448C159.941 56.5093 159.633 55.472 158.964 54.7641C158.125 54.422 157.264 54.1199 156.389 53.8579L149.18 53.7505C147.71 53.7287 146.527 54.8315 146.332 56.2527C146.309 56.2527 146.287 56.2491 146.265 56.2491C145.157 56.2327 144.061 56.2746 142.98 56.3692L142.567 54.7004C142.378 53.9452 141.912 53.3592 141.319 52.9807C139.539 53.2173 137.865 53.5703 136.3 54.0307L131.61 56.6476C130.318 57.3683 129.843 58.9261 130.398 60.2564C129.421 60.8005 128.48 61.3974 127.57 62.038L126.354 60.775C125.037 59.4065 122.78 59.6649 121.807 61.2955L117.839 67.9378C117.081 69.208 117.448 70.7949 118.596 71.6721C118.025 72.6257 117.495 73.6066 117.022 74.622L115.354 74.1398C113.528 73.6138 111.701 74.966 111.676 76.8659L111.585 82.9331L111.561 84.6019C111.557 84.8185 111.585 85.0259 111.627 85.2261C111.803 86.0487 112.333 86.7311 113.055 87.1224C113.361 87.288 113.699 87.4026 114.061 87.4517C114.061 87.4754 114.056 87.4972 114.056 87.5209C114.04 88.6292 114.083 89.7247 114.176 90.8039L112.507 91.217C110.666 91.6719 109.759 93.7556 110.686 95.4153ZM119.918 87.6064C119.921 87.3498 119.938 87.0987 119.949 86.8457C120.558 72.9132 132.141 61.9033 146.178 62.1108C153.754 62.2236 160.523 65.5793 165.178 70.8386C169.304 75.4992 171.772 81.6538 171.673 88.3689C171.462 102.662 159.706 114.076 145.413 113.866C131.122 113.654 119.707 101.897 119.918 87.6064Z" fill="#565656"/>
<path d="M130.693 87.7645C130.571 96.1047 137.232 102.965 145.572 103.089C153.912 103.211 160.775 96.5506 160.897 88.2103C160.911 87.1821 160.822 86.1776 160.64 85.2058C159.35 78.2832 153.328 72.9948 146.018 72.8874C138.136 72.771 131.583 78.7163 130.782 86.4087C130.737 86.8545 130.7 87.3059 130.693 87.7645ZM134.864 87.8245C134.871 87.2822 134.931 86.7563 135.015 86.2358C135.867 80.9656 140.46 76.9747 145.956 77.0548C151.035 77.1294 155.242 80.6617 156.398 85.3732C156.616 86.2613 156.74 87.1894 156.726 88.1466C156.636 94.183 151.672 99.0037 145.634 98.9145C139.597 98.8271 134.777 93.8627 134.864 87.8245Z" fill="#565656"/>
<path d="M155.786 72.0577C154.229 72.0341 152.982 70.7529 153.006 69.1952C153.029 67.6374 154.311 66.3926 155.868 66.4145C157.426 66.4381 158.673 67.7193 158.649 69.2789C158.625 70.8366 157.342 72.0814 155.786 72.0577Z" fill="#565656"/>
<path d="M165.599 76.9458C166.218 76.9676 166.835 77.1805 167.339 77.6191C168.518 78.6382 168.649 80.4198 167.628 81.5991C167.188 82.1104 166.602 82.4107 165.983 82.5199C165.177 82.6618 164.316 82.4671 163.648 81.8884C162.471 80.8693 162.34 79.0859 163.36 77.9066C163.941 77.2333 164.773 76.9148 165.599 76.9458Z" fill="#565656"/>
<path d="M165.692 91.2366C167.229 90.9891 168.678 92.0337 168.926 93.5733C169.173 95.111 168.128 96.5596 166.589 96.8071C165.049 97.0546 163.601 96.01 163.355 94.4704C163.106 92.9345 164.152 91.4859 165.692 91.2366Z" fill="#565656"/>
<path d="M158.907 102.947C160.245 103.746 160.683 105.479 159.882 106.816C159.085 108.156 157.351 108.592 156.014 107.794C154.676 106.995 154.237 105.262 155.038 103.923C155.837 102.585 157.57 102.148 158.907 102.947Z" fill="#565656"/>
<path d="M142.595 105.819C144.069 105.308 145.674 106.087 146.187 107.559C146.698 109.031 145.919 110.638 144.447 111.151C142.975 111.663 141.368 110.884 140.855 109.411C140.343 107.937 141.122 106.329 142.595 105.819Z" fill="#565656"/>
<path d="M131.843 99.2714C133.299 99.8264 134.029 101.457 133.473 102.913C132.918 104.369 131.29 105.1 129.834 104.545C128.376 103.99 127.646 102.361 128.201 100.904C128.756 99.4479 130.387 98.7163 131.843 99.2714Z" fill="#565656"/>
<path d="M123.976 86.2542C125.024 85.67 126.28 85.8302 127.15 86.5526C127.412 86.7692 127.641 87.0294 127.814 87.3442C128.575 88.7055 128.085 90.4234 126.724 91.1822C125.363 91.9411 123.645 91.4534 122.886 90.0922C122.251 88.9548 122.498 87.5717 123.388 86.7037C123.563 86.5362 123.754 86.3797 123.976 86.2542Z" fill="#565656"/>
<path d="M129.095 77.8592C127.565 77.5662 126.56 76.0867 126.855 74.5562C127.148 73.0257 128.627 72.0212 130.156 72.316C131.688 72.609 132.691 74.0885 132.396 75.619C132.103 77.1495 130.624 78.154 129.095 77.8592Z" fill="#565656"/>
<path d="M143.442 69.5827C142.234 70.5672 140.456 70.3853 139.472 69.1769C138.487 67.9685 138.669 66.1906 139.877 65.2061C141.086 64.2215 142.864 64.4053 143.848 65.6137C144.833 66.8202 144.651 68.5982 143.442 69.5827Z" fill="#565656"/>
<path d="M145.879 82.2614C148.154 82.2959 150.094 83.6553 150.99 85.5916C151.337 86.345 151.534 87.184 151.521 88.0702C151.474 91.2313 148.873 93.7572 145.712 93.7099C142.551 93.6644 140.025 91.062 140.071 87.9028C140.082 87.2404 140.209 86.6071 140.424 86.0193C141.237 83.7991 143.381 82.225 145.879 82.2614Z" fill="#565656"/>
<path d="M85.5161 88.2322C86.3714 90.5925 86.8974 93.1075 87.0429 95.7208L91.7071 95.7899C91.587 93.1039 91.1193 90.507 90.3568 88.0375L110.888 87.2095C110.495 86.6799 110.222 86.0648 110.102 85.3987C110.058 85.1494 110.027 84.8947 110.029 84.6326L91.5543 84.9765L91.4979 81.9848L110.069 81.639L110.082 80.871L110.14 76.8419C110.175 74.4434 112.153 72.4889 114.551 72.4889C114.964 72.4889 115.378 72.5472 115.78 72.6636L116.215 72.7892C116.371 72.4871 116.533 72.1832 116.702 71.8811C115.742 70.4962 115.627 68.6491 116.524 67.1496L120.489 60.5072C121.294 59.1606 122.715 58.3562 124.284 58.3562C125.494 58.3562 126.622 58.8366 127.463 59.7102L127.781 60.0432C128.071 59.8557 128.362 59.6738 128.653 59.4972C128.6 58.8476 128.691 58.2033 128.912 57.6064L118.877 57.6938L119.745 56.4709C126.444 47.0187 133.174 42.1107 141.938 40.5966L142.327 14.1673L155.323 14.3584L158.142 41.2463C159.852 41.6666 161.525 42.2071 163.159 42.8441L160.014 11.6196C159.972 11.1937 159.903 10.777 159.821 10.3657L107.396 9.59412C107.392 9.61595 107.383 9.63597 107.379 9.65599L99.2849 44.7403L79.7182 46.2089L77.4834 46.4837L77.5362 42.7785C77.558 41.4119 77.0776 40.1744 76.3096 39.3209L76.5681 21.7778H72.1168L71.8656 38.8259C71.6309 39.0024 71.4125 39.2062 71.216 39.441C70.539 40.2617 70.0968 41.4046 70.0786 42.6675L70.0149 46.9914L43.1143 48.8258C42.9887 48.8476 42.865 48.8913 42.7431 48.9259L42.6684 53.9905L95.7344 50.8367L42.6684 53.9905L42.6539 54.9895L36.6539 55.3462C36.1353 56.4472 35.6967 57.6064 35.34 58.7802C35.2381 59.1205 35.1344 59.459 35.0452 59.7975L42.5884 59.348L96.6243 56.1378L42.5884 59.348L42.4319 69.9248L42.4173 70.8966L42.3081 78.2414C43.6056 76.9875 45.0287 75.8647 46.5574 74.8929C46.8231 74.7237 47.0924 74.5563 47.3654 74.3979C47.8859 74.0922 48.4191 73.8028 48.9632 73.5335L48.3536 61.3917L52.4937 61.1842L52.7994 67.2988C51.7985 67.5791 50.803 67.903 49.8203 68.2688L49.7548 73.1568C50.814 72.6709 51.9095 72.2505 53.0378 71.9084C54.1278 71.5772 55.2489 71.317 56.3917 71.1277C57.7402 70.9057 59.1196 70.7856 60.5245 70.7783C60.5646 70.7783 60.6064 70.7747 60.6465 70.7747L61.045 70.7783C62.0204 70.7929 62.9813 70.8638 63.9276 70.9803C65.3671 71.1586 66.7683 71.4571 68.1241 71.8556C69.3124 72.2069 70.468 72.6363 71.5817 73.1441C73.0867 73.8301 74.5171 74.6509 75.8565 75.5936C77.1249 76.4889 78.3096 77.4934 79.3997 78.5926C81.1485 80.3542 82.6481 82.3578 83.8492 84.5489C84.4952 85.7281 85.0521 86.9565 85.5161 88.2322ZM96.7499 51.7739L95.8472 55.1843L94.1348 55.2862L36.3992 58.7165C36.785 57.5009 37.2563 56.3362 37.7895 55.2789L95.3686 51.8558L96.7499 51.7739ZM105.034 41.128L105.074 40.9351L110.52 13.2156L138.014 13.6214L137.081 41.6011L105.034 41.128ZM107.456 73.2423L94.8554 73.0567L100.369 47.4937L124.06 47.8413L118.058 55.5318C115.663 58.5982 113.54 61.8648 111.705 65.297L107.456 73.2423ZM60.2916 66.1378C58.9304 66.1632 57.5491 66.3015 56.1606 66.5418L55.884 61.0131L60.0222 60.8057L60.2916 66.1378ZM67.8784 66.9767C66.5154 66.6528 65.1177 66.4162 63.691 66.2779L63.4089 60.6364L67.549 60.429L67.8784 66.9767ZM75.5708 69.9339C74.2132 69.1896 72.7956 68.5417 71.3233 68.0049L70.9339 60.2597L75.074 60.0523L75.5708 69.9339ZM83.4233 76.0485C82.0985 74.6254 80.6463 73.3242 79.0776 72.1686L78.4607 59.8812L82.6008 59.6738L83.4233 76.0485Z" fill="#565656"/>
<path d="M36.1073 93.0112C35.8944 94.2614 35.7743 95.5425 35.7561 96.8492C35.5541 110.602 46.5367 121.914 60.2873 122.116C74.0415 122.318 85.3517 111.333 85.5555 97.5825C85.5646 96.9492 85.5428 96.3232 85.5064 95.699C85.3499 93.1076 84.7985 90.6199 83.9067 88.2978C83.7375 87.8592 83.5592 87.4261 83.3681 87.0003C82.3763 84.8001 81.0751 82.7692 79.5192 80.9639C78.4455 79.7192 77.2535 78.58 75.9541 77.5663C74.6275 76.5309 73.1935 75.6282 71.6703 74.8748C70.5602 74.3271 69.4028 73.8612 68.2072 73.4808C66.855 73.0514 65.4501 72.7365 64.007 72.5418C63.0298 72.4108 62.0343 72.3289 61.0225 72.3143C60.8824 72.3125 60.7441 72.318 60.6021 72.318C59.1936 72.3198 57.8142 72.4399 56.4693 72.6674C55.3228 72.8621 54.2036 73.1333 53.1154 73.479C51.9471 73.8503 50.8169 74.3052 49.7305 74.8366C49.503 74.9494 49.2737 75.0586 49.0499 75.1769C48.6386 75.3935 48.2383 75.6246 47.8415 75.8612C47.5704 76.025 47.2992 76.1887 47.0354 76.3616C45.2847 77.5081 43.6887 78.873 42.282 80.4125C41.9308 80.7965 41.5923 81.1914 41.2665 81.5972C41.221 81.6537 41.1737 81.7101 41.1282 81.7665C40.8589 82.1086 40.5968 82.4544 40.3439 82.8092C40.1874 83.0276 40.0382 83.2515 39.8907 83.4753C39.6978 83.7646 39.5122 84.0576 39.3321 84.3543C38.5623 85.6281 37.8999 86.9712 37.3667 88.3815C37.0955 89.0949 36.8571 89.8247 36.6515 90.569C36.5132 91.0749 36.3912 91.5881 36.2839 92.1067C36.2184 92.4088 36.1583 92.7072 36.1073 93.0112ZM42.4913 96.9474C42.5295 94.4434 43.07 92.063 44.0199 89.9047C45.2301 87.1513 47.1063 84.7601 49.4393 82.9275C49.4958 82.8839 49.554 82.8402 49.614 82.7947C50.7951 81.8884 52.0872 81.1259 53.4702 80.529C54.5348 80.0704 55.6522 79.7101 56.8096 79.4608C58.1363 79.1751 59.5102 79.0295 60.9242 79.0495C60.9297 79.0495 60.937 79.0513 60.9424 79.0513C62.1108 79.0695 63.2518 79.2005 64.3546 79.4298C65.8359 79.7356 67.2536 80.2233 68.5766 80.8657C69.8341 81.4753 71.0079 82.2269 72.0834 83.0986C73.5793 84.3106 74.8804 85.7537 75.9268 87.3752C76.1834 87.7701 76.42 88.1759 76.6438 88.5926C77.7903 90.7145 78.5292 93.084 78.7512 95.6008C78.8058 96.2213 78.8294 96.8492 78.8203 97.4843C78.6729 107.517 70.4201 115.53 60.3874 115.38C50.3547 115.231 42.3439 106.978 42.4913 96.9474Z" fill="#565656"/>
<path d="M60.7464 91.0147C63.5144 91.0547 65.8292 92.9037 66.5899 95.4187C66.77 96.0156 66.8629 96.647 66.8556 97.304C66.8064 100.727 63.9894 103.462 60.5663 103.413C57.1414 103.362 54.4062 100.545 54.459 97.122C54.4681 96.4669 54.5809 95.8354 54.7792 95.2458C55.6109 92.7544 57.9785 90.9747 60.7464 91.0147Z" fill="#565656"/>
<path d="M68.8171 85.681C68.4895 85.9066 68.0964 86.0395 67.667 86.0322C66.5732 86.0158 65.6997 85.1168 65.7161 84.0231C65.7325 82.9294 66.6333 82.0559 67.7252 82.0722C68.0637 82.0777 68.373 82.1742 68.6478 82.327C69.2684 82.6691 69.6888 83.3261 69.676 84.0831C69.6669 84.7492 69.3266 85.3297 68.8171 85.681Z" fill="#565656"/>
<path d="M75.7781 89.9356C76.6061 90.6507 76.6971 91.9028 75.9801 92.7308C75.2649 93.5588 74.0147 93.648 73.1866 92.9328C72.3604 92.2176 72.2695 90.9656 72.9846 90.1394C73.6998 89.3114 74.9519 89.2204 75.7781 89.9356Z" fill="#565656"/>
<path d="M74.6207 99.497C75.7016 99.3223 76.7171 100.058 76.8918 101.137C77.0665 102.218 76.3313 103.233 75.2522 103.408C74.1712 103.582 73.1557 102.847 72.981 101.766C72.8063 100.687 73.5397 99.6699 74.6207 99.497Z" fill="#565656"/>
<path d="M69.86 107.717C70.8008 108.278 71.1066 109.493 70.5461 110.432C69.9837 111.371 68.7681 111.679 67.8291 111.116C66.8901 110.556 66.5825 109.338 67.1448 108.399C67.7035 107.462 68.921 107.155 69.86 107.717Z" fill="#565656"/>
<path d="M58.4097 109.732C59.4415 109.373 60.5716 109.919 60.9301 110.953C61.2886 111.986 60.7408 113.115 59.709 113.473C58.6753 113.832 57.5471 113.286 57.1867 112.252C56.8282 111.218 57.3742 110.09 58.4097 109.732Z" fill="#565656"/>
<path d="M50.8611 105.135C51.8838 105.524 52.397 106.669 52.0076 107.692C51.6181 108.715 50.4735 109.228 49.4525 108.838C48.428 108.449 47.9166 107.304 48.306 106.283C48.6955 105.26 49.8401 104.745 50.8611 105.135Z" fill="#565656"/>
<path d="M45.3399 95.9993C46.2934 95.4661 47.5 95.81 48.0332 96.7654C48.5664 97.7208 48.2225 98.9274 47.2689 99.4606C46.3135 99.992 45.1069 99.6499 44.5737 98.6963C44.0423 97.739 44.3845 96.5325 45.3399 95.9993Z" fill="#565656"/>
<path d="M51.2247 88.6127C51.1282 89.0258 50.9062 89.3752 50.6096 89.639C50.302 89.9084 49.918 90.0794 49.5031 90.1231C49.3157 90.1413 49.1246 90.1431 48.9299 90.1067C48.6242 90.0485 48.353 89.9156 48.1182 89.7391C47.5341 89.2987 47.2102 88.5562 47.3576 87.7883C47.5559 86.7528 48.5277 86.0704 49.5614 86.205C49.5741 86.2068 49.5887 86.2069 49.6032 86.2087C49.6287 86.2123 49.6505 86.2105 49.6778 86.2159C50.7515 86.4216 51.4558 87.4589 51.2502 88.5344C51.2447 88.5617 51.232 88.5854 51.2247 88.6127Z" fill="#565656"/>
<path d="M59.0025 84.2961C58.4384 84.7547 57.7032 84.8456 57.068 84.6109C56.7459 84.4926 56.4493 84.2961 56.2182 84.0103C55.5267 83.1623 55.654 81.9157 56.5021 81.2242C56.6222 81.1259 56.7514 81.0495 56.8842 80.984C57.6922 80.5891 58.695 80.782 59.2882 81.5099C59.9798 82.358 59.8524 83.6045 59.0025 84.2961Z" fill="#565656"/>
<path d="M73.1718 18.2966L75.8724 18.3366C77.3228 18.3585 78.4893 19.5195 78.5548 20.9499L70.4148 20.8298C70.5221 19.403 71.7214 18.2747 73.1718 18.2966Z" fill="#565656"/>
<path d="M41.6713 54.0487L37.1654 54.3162C38.3883 52.0342 39.9552 50.1743 41.7404 49.3008L41.6713 54.0487Z" fill="#565656"/>
<path d="M169.563 61.3171C168.904 60.5782 168.203 59.8776 167.47 59.2152C166.445 58.2907 165.353 57.4409 164.2 56.6765C163.122 55.9613 161.987 55.3244 160.811 54.7603C158.351 53.5792 155.692 52.7366 152.893 52.2726C151.585 52.056 150.253 51.9159 148.891 51.8686C146.718 51.7958 144.631 51.8595 142.644 52.0542C137.665 52.5401 133.332 53.8631 129.925 56.0214C129.51 56.2835 129.104 56.5546 128.717 56.8421L120.371 56.9149C126.304 48.5401 132.531 43.0552 141.927 41.3864C144.118 40.997 146.48 40.8132 149.053 40.8514C151.98 40.8951 154.82 41.2645 157.554 41.9032C159.512 42.3618 161.41 42.9678 163.242 43.7049C169.75 46.3199 175.397 50.5965 179.666 56.0269L170.323 60.924L169.563 61.3171Z" fill="#565656"/>
<path d="M96.0872 72.0776L101.174 48.5037L122.04 48.8112L117.274 54.9204C114.853 58.0213 112.684 61.3552 110.826 64.8275L106.864 72.2359L96.0872 72.0776Z" fill="#565656"/>
</svg>
