<svg width="56" height="56" viewBox="0 0 56 56" fill="none" xmlns="http://www.w3.org/2000/svg">
<path d="M12.5053 15.4371C9.64889 15.4371 7.3335 13.1213 7.3335 10.2652C7.3335 7.40881 9.64889 5.09375 12.5053 5.09375C15.3614 5.09375 17.6768 7.40881 17.6768 10.2652C17.6741 13.12 15.3601 15.434 12.5053 15.4371ZM12.5053 6.81758C10.6009 6.81758 9.05732 8.36084 9.05732 10.2652C9.05732 12.1693 10.6009 13.7132 12.5053 13.7132C14.4094 13.7132 15.953 12.1693 15.953 10.2652C15.953 8.36084 14.4094 6.81758 12.5053 6.81758Z" fill="white"/>
<path d="M33.1919 39.5716V44.7434H23.7107V32.9165L18.5388 31.1923V22.3326H26.2962C28.6753 22.3296 30.6033 20.4016 30.6063 18.0229V16.2991H6.47136C4.0923 16.3014 2.16465 18.2294 2.16162 20.6088V30.09C2.16162 31.5181 3.31949 32.6759 4.74753 32.6759H6.47136V48.1911H2.16162V54.225H3.88579V49.9149H15.9529V54.225H17.6768V46.4672H33.1919V54.225H34.9161V41.2954H52.155V54.225H53.8789V39.5716H33.1919ZM6.47136 21.4706V30.9521H4.74753C4.27152 30.9521 3.88579 30.566 3.88579 30.09V20.6088C3.88579 19.1801 5.04332 18.0229 6.47136 18.0229H28.8822C28.8822 19.4509 27.7243 20.6088 26.2962 20.6088H16.815V32.4354L21.9865 34.1592V44.7434H19.4009V35.5263L10.7811 32.2939V48.1911H8.19553V21.4706H6.47136ZM15.9529 44.7434V48.1911H12.5053V34.7818L17.6768 36.7209V44.7434H15.9529Z" fill="white"/>
<path d="M40.0873 36.9857H46.9829V15.437H51.9738L43.5352 1.72485L35.0967 15.437H40.0873V36.9857ZM38.1825 13.7132L43.5352 5.01384L48.888 13.7132H45.2591V35.2619H41.8114V13.7132H38.1825Z" fill="white"/>
</svg>
