<svg width="56" height="56" viewBox="0 0 56 56" fill="none" xmlns="http://www.w3.org/2000/svg">
<g clip-path="url(#clip0)">
<path d="M34.3338 22.7981L25.9198 30.7453L21.8817 26.591C21.434 26.1301 20.6969 26.1196 20.2365 26.5672C19.7756 27.0154 19.7651 27.7521 20.2128 28.2129L25.0559 33.1847C25.5059 33.6374 26.233 33.6529 26.7016 33.2193L35.9563 24.4903C36.181 24.2783 36.3123 23.9856 36.321 23.677C36.3297 23.3684 36.2152 23.0689 36.0028 22.8446C35.5524 22.3764 34.8098 22.3559 34.3338 22.7981Z" fill="white"/>
<path d="M28.0901 10.5676C18.4739 10.5676 10.6548 18.3867 10.6548 28.0029C10.6548 37.6195 18.4739 45.4386 28.0901 45.4386C37.7067 45.4386 45.5258 37.6195 45.5258 28.0029C45.5258 18.3867 37.7067 10.5676 28.0901 10.5676ZM28.0901 43.1045C19.7576 43.1045 12.9888 36.3239 12.9888 28.0029C12.9888 19.6819 19.7576 12.9017 28.0901 12.9017C36.4307 12.9017 43.1917 19.6627 43.1917 28.0029C43.1917 36.3431 36.4307 43.1045 28.0901 43.1045Z" fill="white"/>
<path d="M52.0846 21.5843L52.4698 14.6637C52.4967 14.1991 52.2441 13.7629 51.8279 13.555L45.6659 10.4391L42.55 4.2771C42.338 3.86454 41.9045 3.61335 41.4413 3.63523L34.5089 4.00905L28.7321 0.192492C28.3428 -0.0641639 27.8381 -0.0641639 27.4484 0.192492L21.6716 4.00905L14.7514 3.62384C14.2864 3.59649 13.8506 3.84904 13.6427 4.26571L10.5264 10.4277L4.36483 13.5436C3.95181 13.7551 3.70108 14.1887 3.72296 14.6523L4.10772 21.5729L0.291613 27.3497C0.0349571 27.739 0.0349571 28.2436 0.291613 28.6334L4.09632 34.4216L3.71111 41.3422C3.68421 41.8067 3.93631 42.243 4.35298 42.4509L10.515 45.5668L13.6309 51.7288C13.8424 52.1418 14.2759 52.3925 14.7396 52.3707L21.6602 51.9854L27.437 55.8015C27.824 56.0664 28.3337 56.0664 28.7207 55.8015L34.4975 51.9854L41.4181 52.3707C41.8826 52.3975 42.3184 52.145 42.5268 51.7288L45.6427 45.5668L51.8047 42.4509C52.2172 42.2389 52.4684 41.8058 52.4466 41.3422L52.0613 34.4216L55.8774 28.6448C56.1341 28.2555 56.1341 27.7504 55.8774 27.3611L52.0846 21.5843ZM49.9137 33.4647C49.7715 33.6735 49.7054 33.9247 49.7273 34.1768L50.0888 40.7236L44.2655 43.6644C44.0435 43.7756 43.8634 43.9562 43.7522 44.1782L40.8109 50.0015L34.2641 49.64C34.0134 49.6309 33.7658 49.6956 33.552 49.8264L28.0902 53.4328L22.6289 49.8264C22.4392 49.6983 22.2159 49.629 21.987 49.6281H21.9287L15.3814 49.9901L12.4406 44.1663C12.3294 43.9443 12.1493 43.7642 11.9268 43.653L6.09167 40.7236L6.45363 34.1768C6.46275 33.9261 6.39756 33.6785 6.26673 33.4647L2.66078 28.0029L6.26673 22.5411C6.40941 22.3328 6.47552 22.0812 6.45363 21.8295L6.09167 15.2823L11.9154 12.3415C12.1374 12.2302 12.3175 12.0502 12.4287 11.8282L15.3696 6.0044L21.9168 6.36636C22.1671 6.37502 22.4146 6.31029 22.6289 6.17945L28.0902 2.57351L33.552 6.17945C33.7608 6.32214 34.0125 6.38824 34.2641 6.36636L40.8109 6.0044L43.7522 11.8282C43.8634 12.0502 44.0435 12.2302 44.2655 12.3415L50.0888 15.2823L49.7273 21.8295C49.7182 22.0798 49.7833 22.3273 49.9137 22.5411L53.5201 28.0029L49.9137 33.4647Z" fill="white"/>
</g>
<defs>
<clipPath id="clip0">
<rect width="56" height="56" fill="white"/>
</clipPath>
</defs>
</svg>
