<svg width="56" height="56" viewBox="0 0 56 56" fill="none" xmlns="http://www.w3.org/2000/svg">
<g clip-path="url(#clip0)">
<path d="M55.9998 9.60365C55.9998 9.59752 55.9991 9.5914 55.9989 9.58516C55.9982 9.56077 55.9968 9.53671 55.9939 9.51287C55.9928 9.50412 55.9912 9.49537 55.9899 9.48662C55.9866 9.46463 55.9826 9.44298 55.9775 9.42176C55.9756 9.41333 55.9734 9.40502 55.9711 9.3966C55.9647 9.37352 55.9575 9.35088 55.9492 9.32857C55.9477 9.3243 55.9467 9.31993 55.945 9.31577L53.7198 3.61931C53.4955 3.04532 52.9522 2.67432 52.3359 2.67432H48.2842C47.8426 2.67432 47.4846 3.0323 47.4846 3.47396C47.4846 3.91561 47.8426 4.27359 48.2842 4.27359H52.2585L54.0294 8.80707H37.2869L36.2379 4.27359H48.2004C48.6421 4.27359 49.0001 3.91561 49.0001 3.47396C49.0001 3.0323 48.6421 2.67432 48.2004 2.67432H35.2321H27.1748H10.0708C9.4544 2.67432 8.91125 3.04532 8.68692 3.61953L6.46169 9.31577C6.46005 9.32004 6.45918 9.32441 6.45754 9.32857C6.44922 9.35077 6.442 9.37341 6.43566 9.3966C6.43336 9.40502 6.43118 9.41333 6.42921 9.42176C6.42418 9.44308 6.42013 9.46474 6.41685 9.48662C6.41553 9.49537 6.4139 9.50412 6.4128 9.51287C6.41007 9.53671 6.40854 9.56077 6.40788 9.58516C6.40777 9.59129 6.407 9.59741 6.40689 9.60365L6.40679 9.6066V21.3545C6.40679 21.7962 6.76477 22.1542 7.20642 22.1542C7.64808 22.1542 8.00606 21.7962 8.00606 21.3545V10.4063H24.9561V22.5609C24.9561 23.0363 25.2361 23.4694 25.6695 23.6644C25.8283 23.7359 25.9972 23.7707 26.1651 23.7707C26.4556 23.7707 26.743 23.6664 26.9683 23.4667L31.2034 19.7147L35.4385 23.4666C35.7941 23.7819 36.304 23.8594 36.7374 23.6644C37.1708 23.4693 37.4508 23.0363 37.4508 22.5609V10.4063H54.4007V46.2729C54.4007 46.8466 53.9338 47.3136 53.36 47.3136H38.698C38.698 47.3045 38.6969 47.2954 38.6968 47.2863C38.6959 47.2146 38.6932 47.1429 38.6871 47.0718C40.0638 47.4368 41.5348 46.7293 42.0865 45.3763C42.3767 44.6646 42.3724 43.8826 42.0744 43.1743C42.0462 43.1075 42.0153 43.0428 41.9827 42.979C41.9767 42.9673 41.9709 42.9555 41.9649 42.9439C41.9328 42.8831 41.8987 42.8237 41.8627 42.7659C41.8557 42.7546 41.8485 42.7437 41.8414 42.7325C41.8033 42.6731 41.7638 42.6148 41.7217 42.5587L41.7193 42.5556C41.6775 42.5002 41.6334 42.4468 41.5877 42.3946C41.5794 42.3851 41.5712 42.3755 41.5628 42.366C41.5176 42.3157 41.4707 42.267 41.4222 42.2201C41.4126 42.2109 41.403 42.202 41.3934 42.1931C41.3425 42.1453 41.2905 42.0988 41.2362 42.0549C41.2344 42.0535 41.2325 42.0521 41.2306 42.0507C41.1773 42.0077 41.1218 41.967 41.0653 41.9278C41.0551 41.9207 41.045 41.9135 41.0346 41.9065C40.9781 41.8684 40.9201 41.8325 40.8606 41.7982C40.8557 41.7954 40.8512 41.7921 40.8462 41.7893C41.1841 41.4968 41.4509 41.1267 41.6246 40.7008C41.9148 39.9891 41.9105 39.207 41.6125 38.4986C41.3517 37.8788 40.8933 37.3802 40.3062 37.0709C40.2223 37.0267 40.1358 36.9864 40.0469 36.9502L27.6014 31.8755L33.3946 30.0824C34.7728 29.6558 35.5491 28.1858 35.1249 26.8058C34.9666 26.2906 34.6528 25.8562 34.2475 25.5387C33.6443 25.0661 32.8381 24.8527 32.0386 25.0206C32.0347 25.0214 32.031 25.0221 32.0272 25.0231C31.9829 25.033 27.5418 26.0316 22.9036 26.9361C22.6978 26.9762 22.4974 27.0149 22.2997 27.053C22.1416 27.0834 21.9856 27.1133 21.8326 27.1424C21.7886 27.1509 21.7445 27.1592 21.7009 27.1675C21.4307 27.2188 21.169 27.2679 20.9146 27.3151C20.8122 27.3342 20.7107 27.353 20.6109 27.3714C14.7859 28.4444 13.1495 28.4637 12.6954 28.4022L12.6904 28.4015C12.6835 28.4005 12.6767 28.3995 12.6704 28.3985C12.6658 28.3977 12.6615 28.397 12.6572 28.3963C12.6542 28.3958 12.6509 28.3952 12.6479 28.3948C12.6196 28.3896 12.5975 28.3843 12.5804 28.3791L12.4494 28.3258L12.6127 27.9253C12.7733 27.5316 12.7709 27.0989 12.606 26.707C12.5648 26.609 12.5146 26.5165 12.4564 26.4303C12.2819 26.1718 12.035 25.9706 11.7397 25.8502L7.44475 24.099C7.05111 23.9383 6.61832 23.9408 6.22643 24.1056C5.83443 24.2705 5.53026 24.5781 5.36969 24.9718L0.117842 37.8521C-0.213563 38.6649 0.178108 39.5956 0.990872 39.9272L5.28591 41.6785C5.48202 41.7584 5.68491 41.7963 5.88474 41.7963C6.51288 41.7963 7.10941 41.422 7.36086 40.8054L7.40035 40.7086L8.39063 41.1123L8.39238 41.1131C9.33956 41.4993 10.2123 42.0503 10.9676 42.7341C11.105 42.8585 11.2384 42.9872 11.3678 43.1201C11.4972 43.253 11.6223 43.3902 11.7432 43.5313C11.8036 43.6018 11.8629 43.6735 11.921 43.746C13.0217 45.1184 14.4645 46.195 16.0935 46.8592L17.2075 47.3134H9.04687C8.47309 47.3134 8.00617 46.8465 8.00617 46.2727V44.2494C8.00617 43.8078 7.64819 43.4498 7.20653 43.4498C6.76488 43.4498 6.40689 43.8078 6.40689 44.2494V46.2727C6.40689 47.7284 7.59109 48.9127 9.04687 48.9127H21.1298L31.4309 53.1129C31.7855 53.2575 32.1523 53.3261 32.5136 53.326C33.6488 53.326 34.727 52.6495 35.1814 51.5351C35.3678 51.078 35.4276 50.6003 35.3774 50.141C35.9133 50.2179 36.4688 50.1474 36.9723 49.9299C37.4841 49.7089 37.9083 49.3568 38.2095 48.9126H53.3601C54.8158 48.9126 56.0001 47.7284 56.0001 46.2726V9.60671L55.9998 9.60365ZM27.8105 4.27359H34.5963L35.6453 8.80707H26.7614L27.8105 4.27359ZM25.1199 8.80707H8.37739L10.1483 4.27359H26.169L25.1199 8.80707ZM35.8517 21.6959L32.0057 18.2889C31.777 18.0863 31.4903 17.985 31.2036 17.985C30.9168 17.985 30.6299 18.0863 30.4012 18.2889L26.5555 21.6959V10.4063H35.8517V21.6959ZM5.88277 40.1947L1.60151 38.4491L6.84778 25.5828L11.129 27.3285L5.88277 40.1947ZM37.8295 45.0204L36.9118 44.6461L36.9104 44.6456L36.9095 44.6451L27.3513 40.7479C26.9425 40.5812 26.4758 40.7774 26.309 41.1865C26.1422 41.5954 26.3385 42.0621 26.7475 42.2289L36.3056 46.1262C36.3455 46.1425 36.3841 46.1605 36.4214 46.1803C36.4319 46.1859 36.4417 46.1927 36.4519 46.1985C36.4782 46.2134 36.5045 46.2282 36.5294 46.2447C36.5413 46.2527 36.5522 46.2619 36.5638 46.2702C36.5858 46.286 36.6082 46.3015 36.629 46.3186C36.6416 46.3289 36.653 46.3403 36.6651 46.3511C36.6837 46.3676 36.7027 46.3835 36.7202 46.401C36.7324 46.4131 36.7432 46.4263 36.7548 46.4388C36.7709 46.4561 36.7874 46.473 36.8025 46.4912C36.814 46.5051 36.824 46.5198 36.835 46.5342C36.8486 46.5521 36.8629 46.5697 36.8754 46.5883C36.886 46.6038 36.8951 46.6202 36.905 46.6361C36.9163 46.6545 36.9284 46.6725 36.9388 46.6914C36.9482 46.7085 36.9561 46.7263 36.9647 46.7437C36.9739 46.7624 36.9838 46.7808 36.9921 46.7999C37.0001 46.8183 37.0066 46.8373 37.0137 46.856C37.0209 46.875 37.0288 46.8936 37.0351 46.9128C37.0415 46.9322 37.0463 46.952 37.0516 46.9715C37.057 46.9909 37.063 47.0099 37.0675 47.0295C37.072 47.0493 37.0748 47.0694 37.0784 47.0893C37.082 47.1092 37.0862 47.1289 37.0888 47.1491C37.0915 47.1692 37.0924 47.1895 37.0941 47.2098C37.0957 47.2301 37.0981 47.2503 37.0988 47.2707C37.0994 47.2907 37.0985 47.3109 37.0982 47.3311C37.098 47.3518 37.0983 47.3726 37.097 47.3935C37.0958 47.4133 37.0929 47.4331 37.0907 47.4529C37.0884 47.4742 37.0866 47.4956 37.0831 47.5168C37.08 47.5362 37.0751 47.5556 37.071 47.5751C37.0664 47.5966 37.0626 47.6182 37.0568 47.6396C37.0518 47.6585 37.045 47.6773 37.039 47.6962C37.0322 47.7176 37.0259 47.739 37.018 47.7601C37.0112 47.7747 37.0045 47.7893 36.9983 47.8041C36.9968 47.8075 36.9961 47.811 36.9948 47.8143C36.8699 48.1027 36.6393 48.3318 36.3382 48.4619C36.0068 48.6048 35.6274 48.6099 35.2971 48.4751L33.6036 47.7846C33.5957 47.7815 33.5877 47.7793 33.5799 47.7763C33.5719 47.7727 33.5643 47.7686 33.5562 47.7653L25.7823 44.5955C25.3731 44.4288 24.9067 44.625 24.74 45.0341C24.5732 45.443 24.7695 45.9097 25.1785 46.0765L32.9524 49.2463C32.9607 49.2497 32.9691 49.2521 32.9775 49.2552C32.9851 49.2585 32.9921 49.2625 32.9999 49.2656C33.6523 49.5317 33.9667 50.2789 33.7007 50.9313C33.4346 51.584 32.6877 51.8985 32.0349 51.6322L21.5902 47.3734L21.5889 47.3727L16.6976 45.3783C15.8366 45.0272 15.0371 44.5399 14.3313 43.9404C13.9078 43.5807 13.5181 43.1807 13.169 42.7454C12.825 42.3166 12.4477 41.9166 12.0417 41.549C11.1484 40.7404 10.1165 40.0888 8.99656 39.6321L8.00464 39.2277L9.97962 34.384L11.846 29.8068L11.9837 29.8629C12.1133 29.9158 12.2982 29.9908 12.7956 30.0096C13.4171 30.0377 14.4452 29.9728 16.2871 29.7126C17.5399 29.5357 19.0768 29.2797 20.8708 28.9496C20.915 28.9415 20.9589 28.9335 21.0035 28.9253C21.0874 28.9097 21.1722 28.894 21.2573 28.8782C21.3234 28.866 21.3899 28.8535 21.457 28.8409C21.5333 28.8266 21.61 28.8123 21.6872 28.7977C21.7691 28.7823 21.852 28.7667 21.9354 28.7508C22.0021 28.7381 22.0687 28.7255 22.1361 28.7127C22.2377 28.6934 22.3411 28.6736 22.4447 28.6537C22.4981 28.6434 22.5509 28.6333 22.6048 28.6231C22.7636 28.5924 22.9245 28.5614 23.0883 28.5295C27.7106 27.6305 32.172 26.6298 32.3725 26.5847C32.3925 26.5806 32.4125 26.5782 32.4325 26.5752C32.9462 26.4992 33.4494 26.7963 33.5967 27.2756C33.6484 27.444 33.6545 27.6158 33.6219 27.7775C33.5502 28.1333 33.2917 28.4403 32.9221 28.5546L24.9944 31.0083C24.6716 31.1083 24.4465 31.4 24.432 31.7375C24.4173 32.0749 24.6162 32.3852 24.929 32.5127L39.4435 38.4311C39.7595 38.56 40.0065 38.8042 40.1389 39.1189C40.2712 39.4335 40.2732 39.7809 40.1442 40.0969C40.0153 40.413 39.7711 40.66 39.4565 40.7923C39.2992 40.8584 39.1337 40.8918 38.968 40.8928C38.9656 40.8928 38.9632 40.8925 38.9608 40.8925C38.9218 40.8925 38.883 40.891 38.8442 40.8874C38.8327 40.8863 38.8213 40.8839 38.8098 40.8825C38.7802 40.8789 38.7506 40.8755 38.7211 40.8699C38.7025 40.8662 38.6842 40.8608 38.6657 40.8564C38.6436 40.8512 38.6214 40.8467 38.5995 40.8402C38.5769 40.8335 38.5547 40.8247 38.5324 40.8167C38.5146 40.8104 38.4966 40.8051 38.4791 40.798L28.9202 36.9003C28.5112 36.7335 28.0446 36.9298 27.8778 37.3389C27.711 37.7479 27.9074 38.2146 28.3164 38.3814L39.9052 43.1067C39.9843 43.1388 40.059 43.1783 40.1287 43.2243C40.3377 43.3621 40.5014 43.5584 40.6006 43.7944C40.7165 44.0697 40.7324 44.3701 40.6482 44.6526C40.6362 44.6929 40.6221 44.733 40.606 44.7725C40.5894 44.8133 40.5709 44.8527 40.5507 44.8908C40.5035 44.9794 40.4461 45.0595 40.382 45.1324C40.3422 45.1777 40.2996 45.2199 40.2544 45.2586C40.2471 45.2648 40.2406 45.2718 40.2332 45.2777C39.9414 45.5163 39.5513 45.6189 39.1701 45.5419C39.0928 45.5263 39.0159 45.5041 38.9402 45.4732L37.8295 45.0204Z" fill="white"/>
</g>
<defs>
<clipPath id="clip0">
<rect width="56" height="56" fill="white"/>
</clipPath>
</defs>
</svg>
