<svg width="19" height="16" viewBox="0 0 19 16" fill="none" xmlns="http://www.w3.org/2000/svg">
<path d="M1.16484 6.84186L12.4825 2.17879C13.5997 1.69305 17.3884 0.138695 17.3884 0.138695C17.3884 0.138695 19.1371 -0.541336 18.9914 1.11017C18.9428 1.7902 18.5542 4.17031 18.1656 6.74471L16.9513 14.3708C16.9513 14.3708 16.8541 15.488 16.0284 15.6823C15.2026 15.8766 13.8426 15.0022 13.5997 14.8079C13.4054 14.6622 9.95667 12.4764 8.69376 11.4078C8.35374 11.1163 7.96515 10.5335 8.74233 9.85343C10.491 8.2505 12.5797 6.25898 13.8426 4.99606C14.4255 4.41318 15.0083 3.05311 12.5797 4.70462L5.73077 9.31912C5.73077 9.31912 4.95359 9.80485 3.49638 9.36769C2.03917 8.93053 0.33909 8.34764 0.33909 8.34764C0.33909 8.34764 -0.826678 7.61904 1.16484 6.84186Z" fill="white"/>
</svg>
