<svg width="280" height="282" viewBox="0 0 280 282" fill="none" xmlns="http://www.w3.org/2000/svg">
<path d="M332.666 76.2884L331.792 71.9831L338.628 70.5959C340.299 70.2566 341.377 68.6267 341.039 66.9571C340.699 65.2851 339.069 64.2072 337.4 64.546L330.564 65.9332L329.814 62.2376L336.65 60.8504C338.322 60.5111 339.4 58.8811 339.061 57.2115C338.722 55.5419 337.092 54.4616 335.422 54.8004L328.587 56.1876L325.191 39.4565C324.165 34.4008 319.234 31.1337 314.179 32.1597L303.162 34.3953C298.501 21.9887 292.403 10.8916 282.998 12.8003L207.35 28.152C203.007 29.0333 199.123 31.079 196.018 33.9455C193.161 31.4271 189.954 29.1016 188.16 29.4656C184.42 30.2246 186.182 37.1478 187.281 42.5669C187.673 44.4944 188.063 46.6247 188.569 48.5411L182.494 92.6542C180.263 92.3672 177.269 91.6075 174.14 90.8144C164.124 88.2739 151.66 85.1074 142.957 90.3111C139.142 92.5917 136.489 96.3138 135.035 101.348C132.978 103.447 131.754 106.306 131.745 109.342L85.7649 184.899L81.886 181.197L82.0026 180.785C82.562 178.801 81.4088 176.74 79.4256 176.183C77.4423 175.626 75.3837 176.779 74.8238 178.76L72.5816 186.708C72.4283 186.747 72.274 186.78 72.124 186.835C70.291 187.476 68.9218 189.018 68.5058 190.914L52.7346 262.575L44.0425 269.708C42.0565 271.339 41.4351 274.111 42.5387 276.434C43.6419 278.754 46.1851 280.025 48.7036 279.514L109.482 267.18C119.765 265.093 128.538 258.11 131.316 249.804C133.466 243.376 131.954 236.793 127.061 231.27C126.748 230.918 126.409 230.545 126.047 230.16L130.594 202.505L134.363 221.074C134.977 224.102 137.93 226.058 140.958 225.444L145.57 224.508C152.211 243.757 172.235 255.59 192.735 251.43C208.966 248.136 221.013 235.722 224.64 220.616L270.64 211.281C279.872 223.78 295.802 230.514 312.036 227.219C330.319 223.509 343.296 208.231 344.905 190.558L353.595 188.794L353.072 177.603L358.074 176.588C359.744 176.249 360.824 174.619 360.485 172.949C360.146 171.277 358.516 170.199 356.846 170.538L352.78 171.363L352.65 168.592L358.28 167.449C359.952 167.11 361.03 165.48 360.691 163.81C360.352 162.138 358.722 161.061 357.052 161.399L352.36 162.352L348.199 73.1362L332.666 76.2884ZM318.582 43.5591C318.33 41.7865 318.198 40.2946 318.068 39.2589C317.957 38.217 317.919 37.6192 317.919 37.6192C317.919 37.6192 318.117 38.1869 318.42 39.1875C318.705 40.1942 319.165 41.6194 319.623 43.3478C320.566 46.8017 321.666 51.4395 322.62 56.1068C323.563 60.7766 324.358 65.4763 324.836 69.0244C325.089 70.797 325.218 72.2893 325.348 73.3251C325.459 74.367 325.495 74.9652 325.495 74.9652C325.495 74.9652 325.294 74.3979 324.991 73.3974C324.705 72.3935 324.244 70.9659 323.786 69.2376C322.843 65.7837 321.746 61.1454 320.791 56.478C319.855 51.8069 319.061 47.1095 318.582 43.5591ZM223.466 197.435C223.296 196.945 223.117 196.461 222.929 195.979C223.884 195.763 224.855 195.547 225.847 195.331C230.16 194.375 234.774 193.424 239.387 192.468C244.008 191.55 248.628 190.625 252.972 189.824C256.414 189.169 259.674 188.617 262.617 188.108C262.629 188.503 262.648 188.898 262.673 189.295C259.81 189.962 256.653 190.71 253.299 191.432C248.986 192.388 244.371 193.337 239.758 194.293C235.137 195.211 230.517 196.134 226.172 196.935C225.256 197.111 224.356 197.274 223.466 197.435ZM182.075 198.913C185.96 198.125 189.783 199.265 192.577 201.663C190.011 200.062 186.857 199.391 183.658 200.04C177.024 201.386 172.741 207.854 174.087 214.485C174.736 217.684 176.583 220.326 179.058 222.065C175.76 220.43 173.221 217.354 172.432 213.466C171.074 206.786 175.394 200.269 182.075 198.913ZM139.845 219.962L133.149 186.966L136.303 167.788L145.491 158.828L146.117 161.912C147.038 166.447 151.475 169.387 156.01 168.466C160.545 167.546 163.485 163.109 162.565 158.574L161.225 151.97C163.814 149.04 165.061 144.983 164.225 140.866C164.208 140.783 164.181 140.706 164.163 140.622L179.592 125.576L166.579 142.409L186.065 127.91L187.818 144.103L170.662 147.584L176.545 149.623L188.157 147.267L188.963 154.728L171.404 158.291L177.289 160.329L189.307 157.891L189.914 163.49L138.203 173.984C137.192 174.189 136.542 175.173 136.747 176.182C136.952 177.192 137.936 177.842 138.944 177.638L190.315 167.213L190.5 168.916L186.119 169.805C182.903 169.684 179.621 169.93 176.328 170.598C173.034 171.267 169.917 172.319 167.001 173.685L139.284 179.31C138.273 179.515 137.623 180.499 137.828 181.507C138.033 182.518 139.017 183.168 140.025 182.963L158.187 179.278C155.229 181.738 152.647 184.594 150.493 187.746L150.193 186.269L145.511 187.219L146.461 191.902L148.17 191.555C143.807 199.696 142.141 209.344 144.092 219.102L139.846 219.964L139.845 219.962ZM108.369 261.697C95.2729 264.355 47.591 274.032 47.591 274.032L57.7817 265.669C57.7817 265.669 92.4633 258.631 105.508 255.984C118.553 253.337 121.096 245.945 121.096 245.945C121.096 245.945 117.948 251.067 105.459 253.601C95.1696 255.689 68.5419 257.406 59.4788 257.947L71.4383 203.608L114.622 233.977L72.7055 197.858L73.969 192.113C73.969 192.113 112.897 223.719 122.873 234.981C132.851 246.24 121.464 259.04 108.369 261.697ZM212.937 30.8513C215.371 30.3696 217.796 29.8874 220.202 29.4113C225.009 28.4358 229.76 27.5838 234.347 26.7018C243.527 24.9706 252.112 23.4335 259.484 22.1842C266.848 20.9021 273.02 19.9964 277.324 19.2864C281.636 18.614 284.11 18.2804 284.11 18.2804C284.11 18.2804 281.702 18.9376 277.469 19.9993C273.228 21.0234 267.192 22.5951 259.91 24.2853C252.635 26.0083 244.129 27.937 235.001 29.9238C230.433 30.8996 225.725 31.9673 220.918 32.9428C218.517 33.44 216.097 33.9433 213.667 34.4485C211.274 34.9878 208.662 35.3739 206.656 36.074C204.709 36.7426 202.917 37.8166 201.369 39.1635C200.867 38.6258 199.94 37.6566 198.803 36.5397C200.718 34.8107 202.961 33.4252 205.415 32.5586C208.13 31.6584 210.491 31.3941 212.937 30.8513ZM137.457 110.539C136.814 107.369 138.868 104.269 142.038 103.626C143.755 103.277 145.435 103.739 146.731 104.722C146.532 104.618 146.332 104.502 146.134 104.438C144.921 103.973 143.848 104.12 143.212 104.322C142.541 104.549 142.292 104.805 142.271 104.784C142.253 104.791 142.678 104.851 143.213 105.06C143.771 105.269 144.474 105.666 145.046 106.27C145.61 106.888 146.02 107.688 146.111 108.534C146.111 108.622 146.143 108.789 146.125 108.81C146.128 108.946 146.168 109.201 146.138 109.234C146.111 109.354 146.091 109.593 146.043 109.791C145.942 110.192 145.787 110.585 145.551 110.928C145.325 111.279 145.023 111.572 144.693 111.823C144.334 112.064 144.023 112.249 143.519 112.381C142.8 112.612 141.836 112.556 141.069 112.277C140.292 111.986 139.651 111.496 139.241 111.064C138.836 110.631 138.618 110.306 138.618 110.306C138.64 110.304 138.511 110.667 138.557 111.354C138.619 112.018 138.9 113.066 139.801 114.002C139.938 114.152 140.115 114.287 140.282 114.427C138.879 113.613 137.804 112.249 137.457 110.539ZM191.739 54.1384C192.178 54.3277 192.656 54.3967 193.198 54.2868C193.899 54.1445 194.64 53.5399 195.382 52.6495C195.083 54.6268 194.786 56.5938 194.494 58.5233C193.09 67.7589 191.702 76.3685 190.444 83.7408C189.216 91.1144 188.034 97.2382 187.283 101.536C186.493 105.828 185.991 108.273 185.991 108.273C185.991 108.273 186.169 105.783 186.567 101.438C187.005 97.098 187.521 90.8822 188.332 83.4493C189.113 76.0126 190.106 67.3488 191.247 58.0764C191.409 56.7836 191.576 55.4532 191.739 54.1384ZM288.691 31.1917L305.172 90.8233L304.398 90.9803L286.997 35.6469L299.064 92.0629L280.567 95.8166L267.158 29.7434L279.258 27.2879C283.638 26.3989 287.556 27.0786 288.691 31.1917ZM278.295 105.087C284.049 103.951 289.447 103.036 294.058 102.178C298.671 101.328 302.539 100.731 305.236 100.259C307.942 99.8271 309.486 99.582 309.486 99.582C309.486 99.582 307.968 99.9584 305.309 100.615C302.641 101.235 298.849 102.192 294.267 103.208C289.686 104.215 284.356 105.478 278.617 106.674C272.877 107.878 266.759 109.164 260.637 110.447C254.499 111.649 248.361 112.853 242.608 113.979C236.853 115.11 231.456 116.03 226.845 116.888C222.232 117.738 218.364 118.338 215.666 118.807C212.963 119.238 211.416 119.484 211.416 119.484C211.416 119.484 212.937 119.109 215.594 118.451C218.262 117.834 222.055 116.876 226.636 115.861C231.217 114.853 236.548 113.595 242.286 112.394C248.025 111.188 254.145 109.905 260.266 108.618C266.404 107.417 272.542 106.213 278.295 105.087ZM286.268 155.19C285.664 155.593 285.037 156.008 284.394 156.436C283.068 157.226 281.897 158.376 280.553 159.369C279.359 160.544 278.048 161.677 276.935 163.041C275.716 164.309 274.735 165.807 273.678 167.237C272.77 168.769 271.776 170.255 271.083 171.873C270.258 173.427 269.729 175.077 269.113 176.636C268.725 178.26 268.116 179.787 267.909 181.316C267.765 182.075 267.627 182.814 267.494 183.527C267.428 184.251 267.368 184.951 267.308 185.623C267.15 186.973 267.16 188.202 267.155 189.304C267.15 189.857 267.145 190.375 267.139 190.853C267.183 191.332 267.224 191.773 267.261 192.173C267.385 193.772 267.457 194.682 267.457 194.682C267.457 194.682 267.256 193.788 266.905 192.226C266.823 191.835 266.733 191.399 266.635 190.928C266.583 190.445 266.528 189.922 266.468 189.363C266.341 188.241 266.179 186.963 266.266 185.575C266.279 184.879 266.293 184.154 266.309 183.404C266.397 182.658 266.487 181.885 266.577 181.093C266.689 179.491 267.177 177.863 267.553 176.154C268.144 174.51 268.606 172.744 269.46 171.106C270.172 169.401 271.19 167.825 272.131 166.206C273.253 164.709 274.307 163.157 275.602 161.837C276.772 160.408 278.224 159.298 279.507 158.11C280.934 157.097 282.24 156.012 283.675 155.286C284.369 154.891 285.045 154.507 285.698 154.138C286.383 153.833 287.046 153.537 287.682 153.255C288.928 152.633 290.159 152.286 291.239 151.969C291.775 151.806 292.279 151.653 292.743 151.512C293.22 151.418 293.659 151.331 294.053 151.254C295.631 150.968 296.534 150.806 296.534 150.806C296.534 150.806 295.667 151.097 294.149 151.605C293.771 151.726 293.351 151.86 292.895 152.006C292.455 152.198 291.98 152.404 291.473 152.624C290.457 153.06 289.311 153.534 288.134 154.205C287.531 154.518 286.912 154.849 286.268 155.19ZM216.818 185.356L213.883 170.592L210.712 154.033L207.594 137.463L204.602 120.867L208.314 137.316L211.901 153.791L215.437 170.277L218.679 185.94L234.938 182.575L251.492 179.279L254.481 163.151L257.692 146.464L260.958 129.787L264.354 113.136L261.691 129.922L258.898 146.683L256.048 163.437L253.086 180.169L252.985 180.743L252.409 180.863L235.308 184.399L218.578 187.726C218.021 186.909 217.428 186.126 216.818 185.356ZM144.426 144.879C143.625 140.932 146.184 137.07 150.133 136.269C151.903 135.91 153.641 136.255 155.11 137.071C153.683 136.525 152.396 136.608 151.6 136.801C150.725 137.033 150.363 137.319 150.341 137.296C150.341 137.296 150.459 137.314 150.683 137.346C150.908 137.359 151.236 137.461 151.599 137.539C152.354 137.749 153.359 138.188 154.231 138.97C155.101 139.758 155.8 140.878 156.016 142.15C156.03 142.292 156.089 142.509 156.073 142.586C156.08 142.777 156.131 143.087 156.098 143.177C156.074 143.411 156.048 143.763 155.981 144.072C155.847 144.699 155.608 145.312 155.246 145.852C154.89 146.395 154.417 146.853 153.893 147.22C153.339 147.57 152.818 147.863 152.092 148.008C151.524 148.119 150.876 148.184 150.256 148.1C149.644 148.009 149.05 147.839 148.517 147.596C147.457 147.098 146.66 146.347 146.172 145.733C145.953 145.416 145.735 145.16 145.635 144.965C145.517 144.772 145.455 144.67 145.455 144.67C145.455 144.67 145.45 144.79 145.44 145.015C145.423 145.245 145.424 145.584 145.488 146.023C145.619 146.826 146.041 148.037 147.089 149.133C145.773 148.101 144.784 146.642 144.426 144.879ZM146.872 120.216L149.018 130.787C147.847 131.025 146.757 131.426 145.741 131.943L143.496 120.879C143.492 120.858 143.478 120.839 143.473 120.816C144.137 120.801 144.808 120.738 145.483 120.601C145.961 120.503 146.422 120.368 146.872 120.216ZM117.988 164.229L109.667 214.845C104.801 210.574 99.637 206.167 94.8961 202.176L117.988 164.229ZM139.433 128.987L140.901 136.219C140.433 136.912 140.031 137.648 139.704 138.419L124.917 152.839L139.433 128.987ZM150.68 156.281C151.817 156.36 152.98 156.305 154.148 156.068L155.509 162.774C155.315 162.865 155.112 162.938 154.894 162.982C153.384 163.289 151.904 162.31 151.597 160.797L150.68 156.281ZM265.161 98.9455L263.505 99.2814L246.971 36.0813L256.382 100.727L217.69 108.579L213.026 99.2371C212.338 97.8557 210.666 97.294 209.275 97.984C207.894 98.6721 207.332 100.354 208.022 101.735L212.013 109.731L208.662 110.411L207.082 102.626C206.692 100.703 204.816 99.4579 202.891 99.8485L200.883 100.256L200.441 53.2147C200.339 47.5882 204.333 41.7018 210.119 40.6301L251.76 32.9121L265.161 98.9455ZM203.957 168.036C203.094 164.18 202.243 160.051 201.386 155.923C200.567 151.79 199.742 147.655 199.034 143.768C198.307 139.884 197.726 136.237 197.177 133.124C196.63 130.009 196.285 127.391 195.993 125.568C195.738 123.737 195.592 122.693 195.592 122.693C195.592 122.693 195.865 123.712 196.344 125.497C196.784 127.29 197.489 129.835 198.199 132.916C198.908 135.998 199.793 139.58 200.638 143.442C201.502 147.3 202.354 151.427 203.211 155.553C204.03 159.688 204.857 163.82 205.565 167.709C206.157 170.854 206.648 173.825 207.103 176.504C206.642 176.202 206.177 175.908 205.704 175.626C205.152 173.277 204.545 170.732 203.957 168.036ZM295.629 146.383C284.654 148.61 275.596 155.009 269.753 163.587L279.997 109.37L315.098 102.247L315.395 103.178L282.459 112.12L316.757 107.45L318.702 113.555L308.844 115.555L315.533 121.571L320.908 120.48L322.776 126.342L311.497 128.631L318.187 134.646L324.98 133.268L329.082 146.144C329.082 146.144 326.711 148.305 323.688 150.664C315.432 146.121 305.587 144.362 295.629 146.383ZM155.372 123.145L153.562 114.225C154.573 112.073 154.938 109.597 154.43 107.095C154.039 105.17 153.184 103.459 152.006 102.047C152.387 101.755 152.786 101.484 153.201 101.233C159.625 97.3954 169.284 99.1438 177.849 101.224L155.372 123.145ZM134.074 116.272C134.968 117.449 136.074 118.435 137.327 119.187L89.1177 197.342C88.1041 196.498 87.1295 195.69 86.2109 194.929L134.074 116.272ZM120.468 224.622L124.089 202.489L120.752 201.96L117.651 222.002C116.673 221.104 115.658 220.182 114.613 219.242L117.714 200.38L125.065 201.632L121.174 225.299C120.94 225.073 120.712 224.853 120.468 224.622ZM147.597 216.438C147.515 216.047 147.425 215.611 147.327 215.14C147.275 214.657 147.22 214.134 147.16 213.575C147.033 212.453 146.873 211.174 146.958 209.787C146.971 209.091 146.985 208.366 147.001 207.616C147.089 206.87 147.179 206.097 147.269 205.305C147.381 203.703 147.869 202.075 148.244 200.366C148.836 198.722 149.298 196.956 150.152 195.318C150.864 193.613 151.882 192.037 152.823 190.418C153.945 188.92 154.999 187.369 156.294 186.049C157.464 184.62 158.916 183.51 160.196 182.322C161.624 181.31 162.932 180.224 164.367 179.498C165.061 179.103 165.737 178.719 166.39 178.35C167.075 178.045 167.738 177.749 168.374 177.467C169.62 176.845 170.851 176.498 171.931 176.181C172.467 176.018 172.971 175.865 173.435 175.724C173.912 175.63 174.351 175.543 174.745 175.465C176.323 175.179 177.226 175.018 177.226 175.018C177.226 175.018 176.359 175.309 174.841 175.817C174.463 175.938 174.043 176.072 173.587 176.218C173.147 176.41 172.672 176.616 172.165 176.836C171.149 177.272 170.003 177.746 168.826 178.417C168.231 178.733 167.609 179.065 166.968 179.405C166.364 179.808 165.737 180.223 165.094 180.652C163.768 181.441 162.597 182.592 161.253 183.585C160.059 184.76 158.748 185.892 157.635 187.256C156.416 188.524 155.435 190.022 154.378 191.452C153.47 192.984 152.476 194.47 151.783 196.088C150.958 197.642 150.429 199.293 149.813 200.851C149.422 202.476 148.816 204.002 148.607 205.532C148.463 206.291 148.325 207.029 148.189 207.743C148.126 208.466 148.063 209.168 148.004 209.839C147.846 211.189 147.856 212.418 147.85 213.52C147.845 214.073 147.84 214.591 147.835 215.069C147.878 215.548 147.919 215.989 147.954 216.39C148.078 217.988 148.15 218.899 148.15 218.899C148.15 218.899 147.948 218 147.597 216.438ZM182.983 203.387C185.229 202.931 187.428 203.516 189.139 204.777C188.911 204.65 188.683 204.501 188.454 204.411C186.872 203.724 185.429 203.821 184.547 204.022C183.625 204.253 183.235 204.547 183.216 204.524C183.216 204.524 183.341 204.54 183.577 204.571C183.814 204.583 184.161 204.682 184.548 204.759C185.156 204.919 185.923 205.218 186.667 205.711C185.665 205.307 184.535 205.177 183.395 205.408C180.3 206.036 178.298 209.055 178.926 212.153C179.157 213.288 179.713 214.271 180.474 215.037C179.734 214.545 179.164 213.962 178.78 213.467C178.553 213.127 178.331 212.855 178.228 212.646C178.108 212.441 178.042 212.332 178.042 212.332C178.042 212.332 178.039 212.46 178.031 212.696C178.016 212.938 178.023 213.296 178.096 213.754C178.253 214.645 178.726 216.014 179.976 217.204C180.146 217.372 180.365 217.52 180.565 217.677C178.746 216.594 177.359 214.8 176.904 212.561C176.05 208.349 178.771 204.242 182.983 203.387ZM234.763 211.74C236.16 211.381 238.137 210.791 240.538 210.219C242.94 209.648 245.73 208.923 248.741 208.251C251.747 207.561 254.969 206.892 258.189 206.219C261.051 205.656 263.892 205.098 266.624 204.603C266.874 205.126 267.137 205.639 267.406 206.148C264.568 206.792 261.572 207.417 258.56 208.046C255.332 208.681 252.105 209.322 249.066 209.858C246.032 210.415 243.181 210.835 240.746 211.243C238.312 211.652 236.259 211.881 234.835 212.094C233.4 212.268 232.583 212.365 232.583 212.365C232.583 212.365 233.376 212.138 234.763 211.74ZM296.205 188.35C295.351 184.139 298.072 180.031 302.284 179.177C304.53 178.721 306.731 179.305 308.44 180.567C308.212 180.44 307.984 180.291 307.755 180.2C306.173 179.513 304.73 179.611 303.848 179.812C302.926 180.043 302.536 180.337 302.514 180.314C302.514 180.314 302.64 180.33 302.875 180.36C303.112 180.373 303.459 180.471 303.846 180.549C304.457 180.708 305.221 181.008 305.966 181.501C304.963 181.096 303.833 180.967 302.694 181.198C299.598 181.826 297.596 184.845 298.225 187.943C298.455 189.078 299.011 190.061 299.772 190.827C299.033 190.335 298.463 189.752 298.079 189.257C297.851 188.917 297.628 188.645 297.527 188.436C297.407 188.231 297.341 188.122 297.341 188.122C297.341 188.122 297.337 188.25 297.329 188.486C297.315 188.728 297.322 189.086 297.395 189.544C297.554 190.435 298.027 191.804 299.274 192.994C299.445 193.162 299.663 193.31 299.864 193.467C298.047 192.383 296.659 190.587 296.205 188.35ZM302.959 175.829C296.328 177.175 292.042 183.643 293.388 190.274C294.037 193.473 295.884 196.116 298.359 197.855C295.061 196.219 292.522 193.143 291.733 189.255C290.377 182.572 294.694 176.056 301.378 174.7C305.263 173.911 309.086 175.052 311.877 177.45C309.312 175.851 306.158 175.18 302.959 175.829ZM344.929 183.448C346.153 183.27 346.834 183.171 346.834 183.171C346.834 183.171 346.157 183.348 344.945 183.667C344.939 183.592 344.934 183.52 344.929 183.448ZM328.707 153.919C331.066 151.782 333.438 149.655 335.835 147.56L331.053 133.237L326.298 118.337C324.678 113.382 323.237 108.367 321.702 103.385C320.184 98.3974 318.748 93.3809 317.354 88.3511C319.199 93.2332 321.006 98.1281 322.727 103.05C324.431 107.978 326.23 112.874 327.851 117.829L332.816 132.659L337.582 147.554L337.75 148.08L337.336 148.437C334.861 150.582 332.351 152.688 329.836 154.788C329.468 154.492 329.087 154.205 328.707 153.919ZM314.166 44.4552C313.914 42.6825 313.782 41.1907 313.653 40.1549C313.541 39.113 313.505 38.5148 313.505 38.5148C313.505 38.5148 313.704 39.0825 314.007 40.0831C314.292 41.0898 314.752 42.515 315.21 44.2434C316.153 47.6973 317.252 52.3351 318.207 57.0024C319.15 61.6722 319.945 66.3719 320.423 69.92C320.675 71.6926 320.805 73.1849 320.935 74.2206C321.046 75.2626 321.082 75.8608 321.082 75.8608C321.082 75.8608 320.881 75.2935 320.578 74.293C320.294 73.2886 319.831 71.8615 319.373 70.1331C318.43 66.6793 317.332 62.041 316.378 57.3736C315.44 52.7029 314.645 48.0056 314.166 44.4552ZM309.751 45.3512C309.499 43.5786 309.367 42.0868 309.237 41.051C309.126 40.0091 309.09 39.4109 309.09 39.4109C309.09 39.4109 309.288 39.9786 309.591 40.9791C309.876 41.9858 310.336 43.4111 310.795 45.1395C311.737 48.5933 312.837 53.2312 313.791 57.8985C314.734 62.5682 315.529 67.2679 316.008 70.816C316.26 72.5886 316.389 74.081 316.519 75.1167C316.63 76.1586 316.666 76.7568 316.666 76.7568C316.666 76.7568 316.466 76.1896 316.163 75.189C315.876 74.1852 315.415 72.7576 314.957 71.0292C314.014 67.5753 312.917 62.937 311.962 58.2697C311.024 53.599 310.23 48.9017 309.751 45.3512ZM187.961 35.1118C187.839 33.3909 187.919 32.21 187.919 32.21C187.919 32.21 188.453 33.2662 189.012 34.8986C189.584 36.5281 190.188 38.7347 190.649 40.9704C191.096 43.2089 191.397 45.4769 191.506 47.2006C191.63 48.921 191.55 50.1019 191.55 50.1019C191.55 50.1019 191.018 49.0452 190.46 47.4129C189.887 45.7833 189.281 43.5772 188.82 41.3416C188.371 39.1059 188.067 36.8384 187.961 35.1118ZM144.871 93.5093C152.237 89.109 163.876 92.055 173.222 94.4284C176.545 95.2702 179.538 96.0229 181.985 96.3393L181.85 97.3237L180.99 98.1624C171.248 95.708 159.565 93.0835 151.287 98.0327C150.521 98.491 149.813 99.0251 149.141 99.5986C146.762 98.1501 143.862 97.5497 140.924 98.1459C140.701 98.1911 140.487 98.2565 140.271 98.3125C141.44 96.2492 142.957 94.6546 144.871 93.5093ZM83.7822 188.158L81.8503 191.331C80.9651 190.603 80.1979 189.975 79.5569 189.45L80.7393 185.255L83.7822 188.158ZM189.972 237.827C177.935 240.27 166.141 234.404 160.534 224.172C166.307 232.202 176.422 236.566 186.742 234.471C189.443 233.923 191.957 232.966 194.242 231.69C191.995 232.724 189.611 233.379 187.294 233.644C184.139 234.035 181.054 233.668 178.316 232.822C175.569 231.98 173.164 230.657 171.195 229.145C169.221 227.634 167.652 225.945 166.552 224.266C165.935 223.474 165.547 222.608 165.097 221.873C164.716 221.099 164.413 220.364 164.117 219.714C163.65 218.361 163.328 217.291 163.206 216.534C163.05 215.79 162.967 215.394 162.967 215.394C162.967 215.394 163.085 215.783 163.306 216.509C163.483 217.25 163.92 218.272 164.452 219.573C164.786 220.193 165.128 220.891 165.55 221.623C166.039 222.312 166.465 223.127 167.113 223.855C168.287 225.404 169.896 226.92 171.819 228.3C173.754 229.665 176.082 230.826 178.693 231.515C181.302 232.209 184.181 232.403 187.055 232.045C190.001 231.666 192.888 230.675 195.503 229.061C198.109 227.455 200.388 225.245 202.104 222.657C203.823 220.072 204.967 217.108 205.43 214.082C205.691 212.576 205.721 211.029 205.636 209.574C205.649 208.856 205.456 208.051 205.369 207.297C205.3 206.598 205.039 205.867 204.889 205.163C204.093 202.348 202.792 199.775 201.137 197.645C199.485 195.509 197.508 193.816 195.495 192.569C193.475 191.336 191.45 190.443 189.566 189.968C188.641 189.653 187.727 189.58 186.899 189.399C186.063 189.297 185.285 189.253 184.584 189.187C183.186 189.205 182.069 189.2 181.316 189.326C180.56 189.406 180.156 189.449 180.156 189.449C180.156 189.449 180.553 189.37 181.3 189.226C182.04 189.044 183.148 188.922 184.583 188.826C185.295 188.845 186.093 188.84 186.954 188.887C187.806 189.017 188.755 189.037 189.725 189.296C191.701 189.657 193.869 190.44 196.028 191.67C198.188 192.894 200.344 194.593 202.19 196.794C204.034 198.988 205.575 201.686 206.442 204.716C206.621 205.49 206.895 206.213 206.994 207.05C207.093 207.828 207.287 208.543 207.298 209.393C207.36 210.216 207.385 211.036 207.363 211.853C207.641 209.265 207.541 206.595 206.995 203.908C204.901 193.588 196.94 185.974 187.294 183.788C198.905 184.963 208.902 193.537 211.345 205.574C214.35 220.38 204.782 234.822 189.972 237.827ZM264.643 209.844C261.196 210.626 257.187 211.603 252.872 212.535C248.559 213.491 243.944 214.44 239.331 215.396C234.71 216.314 230.089 217.237 225.745 218.038C225.543 218.076 225.35 218.111 225.149 218.147C225.249 217.579 225.338 217.007 225.414 216.433C225.417 216.432 225.417 216.432 225.419 216.432C229.732 215.476 234.346 214.525 238.96 213.569C243.581 212.651 248.2 211.725 252.545 210.924C256.884 210.1 260.957 209.437 264.434 208.814C265.918 208.55 267.275 208.331 268.531 208.132C268.668 208.358 268.811 208.583 268.952 208.808C267.649 209.136 266.219 209.487 264.643 209.844ZM309.273 213.617C297.236 216.06 285.442 210.193 279.835 199.959C285.605 207.99 295.722 212.353 306.042 210.259C308.744 209.71 311.257 208.754 313.542 207.474C311.295 208.509 308.911 209.164 306.594 209.429C303.439 209.82 300.356 209.452 297.618 208.606C294.872 207.765 292.467 206.441 290.497 204.929C288.523 203.418 286.955 201.729 285.855 200.051C285.237 199.258 284.849 198.392 284.4 197.658C284.018 196.883 283.715 196.149 283.42 195.498C282.952 194.145 282.63 193.075 282.508 192.319C282.352 191.574 282.269 191.178 282.269 191.178C282.269 191.178 282.387 191.567 282.608 192.294C282.785 193.034 283.222 194.056 283.755 195.357C284.088 195.978 284.43 196.675 284.852 197.407C285.341 198.097 285.768 198.911 286.416 199.639C287.589 201.188 289.199 202.705 291.122 204.084C293.057 205.45 295.385 206.611 297.995 207.299C300.604 207.993 303.483 208.188 306.357 207.829C309.303 207.451 312.193 206.459 314.805 204.845C317.411 203.239 319.69 201.029 321.406 198.442C323.125 195.856 324.269 192.892 324.732 189.866C324.993 188.36 325.023 186.814 324.938 185.359C324.951 184.641 324.758 183.835 324.671 183.081C324.602 182.382 324.342 181.651 324.192 180.947C323.396 178.132 322.095 175.559 320.439 173.429C318.788 171.294 316.811 169.6 314.797 168.353C312.777 167.12 310.752 166.227 308.869 165.753C307.943 165.437 307.03 165.364 306.202 165.183C305.366 165.082 304.588 165.037 303.886 164.972C302.488 164.989 301.371 164.984 300.618 165.11C299.863 165.19 299.459 165.233 299.459 165.233C299.459 165.233 299.856 165.155 300.603 165.01C301.342 164.829 302.45 164.706 303.886 164.61C304.598 164.629 305.395 164.624 306.257 164.671C307.108 164.801 308.057 164.821 309.028 165.081C311.003 165.441 313.171 166.225 315.33 167.454C317.49 168.678 319.647 170.377 321.492 172.578C323.337 174.773 324.878 177.47 325.744 180.5C325.923 181.274 326.197 181.998 326.296 182.834C326.395 183.613 326.589 184.328 326.6 185.178C326.66 186 326.687 186.82 326.665 187.638C326.945 185.049 326.843 182.379 326.298 179.692C324.203 169.372 316.242 161.759 306.597 159.573C318.207 160.747 328.205 169.322 330.647 181.358C333.651 196.169 324.083 210.611 309.273 213.617ZM348.653 187.104C347.652 187.346 346.441 187.658 345.051 188.006C345.057 187.77 345.068 187.534 345.071 187.296C346.415 187.087 347.605 186.909 348.58 186.748C350.622 186.45 351.791 186.281 351.791 186.281C351.791 186.281 350.651 186.581 348.653 187.104ZM345.887 91.7262C346.118 95.5467 346.446 100.002 346.692 104.779C346.958 109.554 347.17 114.653 347.389 119.75C347.569 124.848 347.754 129.947 347.86 134.728C347.991 139.509 348.006 143.977 348.072 147.804C348.138 151.631 348.079 154.824 348.09 157.056C348.062 159.291 348.046 160.568 348.046 160.568C348.046 160.568 347.929 159.296 347.729 157.07C347.567 154.842 347.257 151.666 347.026 147.845C346.795 144.025 346.463 139.57 346.221 134.793C345.955 130.017 345.745 124.918 345.526 119.823C345.349 114.725 345.164 109.625 345.058 104.844C344.93 100.063 344.912 95.5961 344.846 91.769C344.782 87.9415 344.84 84.7485 344.829 82.5168C344.856 80.2821 344.873 79.0043 344.873 79.0043C344.873 79.0043 344.987 80.2775 345.189 82.5021C345.348 84.7283 345.654 87.9062 345.887 91.7262Z" fill="#F8F8F8"/>
<path d="M141.528 188.025L136.845 188.975L137.796 193.658L142.479 192.707L141.528 188.025Z" fill="#F8F8F8"/>
<path d="M225.109 69.4988C223.261 72.3252 221.407 75.1502 219.722 77.8334C218.021 80.5055 216.519 83.0564 215.187 85.214C213.858 87.3735 212.844 89.2346 212.091 90.508C211.371 91.8042 210.959 92.5445 210.959 92.5445C210.959 92.5445 211.481 91.8771 212.393 90.708C213.273 89.5187 214.591 87.8595 216.059 85.7939C217.527 83.7283 219.288 81.3494 221.088 78.7404C222.903 76.1455 224.781 73.335 226.664 70.531C228.514 67.7041 230.368 64.8815 232.053 62.1982C233.757 59.528 235.256 56.9753 236.588 54.8176C237.918 52.6605 238.929 50.7975 239.684 49.5237C240.405 48.2274 240.816 47.4872 240.816 47.4872C240.816 47.4872 240.295 48.1545 239.382 49.3237C238.503 50.5153 237.182 52.1727 235.714 54.2382C234.246 56.3062 232.482 58.6809 230.685 61.2917C228.867 63.8825 226.991 66.6925 225.109 69.4988Z" fill="#F8F8F8"/>
<path d="M214.369 77.0178C213.619 78.3395 213.06 79.4855 212.638 80.2695C212.233 81.0622 212.022 81.5274 212.022 81.5274C212.022 81.5274 212.37 81.1515 212.94 80.4671C213.495 79.7734 214.332 78.8123 215.257 77.6065C217.129 75.2076 219.494 71.9222 221.733 68.5528C223.963 65.1777 226.07 61.7204 227.546 59.0597C228.299 57.7376 228.854 56.5896 229.277 55.8081C229.682 55.0153 229.893 54.5478 229.893 54.5478C229.893 54.5478 229.544 54.9237 228.972 55.6062C228.417 56.2999 227.576 57.2591 226.652 58.4672C224.778 60.8643 222.415 64.1539 220.176 67.521C217.952 70.8998 215.848 74.3567 214.369 77.0178Z" fill="#F8F8F8"/>
<path d="M238.138 87.1657C235.91 90.5403 233.804 93.9999 232.327 96.6582C231.577 97.9799 231.019 99.126 230.597 99.9099C230.191 100.703 229.978 101.168 229.978 101.168C229.978 101.168 230.327 100.792 230.896 100.108C231.451 99.4143 232.288 98.4532 233.216 97.247C235.087 94.848 237.453 91.5626 239.692 88.1955C241.922 84.8204 244.028 81.3631 245.505 78.7025C246.257 77.3804 246.813 76.2324 247.236 75.4508C247.641 74.6581 247.851 74.1906 247.851 74.1906C247.851 74.1906 247.503 74.5665 246.931 75.249C246.376 75.9427 245.535 76.9019 244.611 78.11C242.737 80.5094 240.377 83.7962 238.138 87.1657Z" fill="#F8F8F8"/>
<path d="M208.2 58.7253C207.414 60.3107 207.029 61.4582 207.029 61.4582C207.029 61.4582 207.935 60.6542 209.089 59.314C210.256 57.9808 211.679 56.1148 212.978 54.1666C214.266 52.2108 215.433 50.1747 216.205 48.5799C216.989 46.9925 217.376 45.8446 217.376 45.8446C217.376 45.8446 216.467 46.6467 215.314 47.9893C214.146 49.3224 212.726 51.188 211.427 53.1386C210.136 55.0924 208.973 57.1304 208.2 58.7253Z" fill="#F8F8F8"/>
<path d="M284.824 74.5418C283.712 76.2324 282.726 78.0024 282.083 79.3974C281.43 80.785 281.131 81.8003 281.131 81.8003C281.131 81.8003 281.949 81.1289 282.972 79.9862C284.007 78.8533 285.254 77.2524 286.378 75.5693C287.49 73.8811 288.478 72.1082 289.118 70.7137C289.771 69.3261 290.068 68.3112 290.068 68.3112C290.068 68.3112 289.247 68.9808 288.227 70.1231C287.192 71.2583 285.947 72.8587 284.824 74.5418Z" fill="#F8F8F8"/>
<path d="M274.929 44.1337C274.276 45.5212 273.977 46.5366 273.977 46.5366C273.977 46.5366 274.795 45.8651 275.818 44.7224C276.853 43.5895 278.1 41.9887 279.224 40.3056C280.336 38.6173 281.324 36.8445 281.964 35.4499C282.617 34.0624 282.914 33.0475 282.914 33.0475C282.914 33.0475 282.093 33.7171 281.073 34.8593C280.038 35.9922 278.793 37.5949 277.67 39.2781C276.557 40.9663 275.569 42.7391 274.929 44.1337Z" fill="#F8F8F8"/>
<path d="M282.246 71.6223C281.748 72.7757 281.553 73.6332 281.553 73.6332C281.553 73.6332 282.269 73.1192 283.135 72.2111C284.014 71.3123 285.054 70.0246 285.97 68.6546C286.875 67.2771 287.658 65.8192 288.143 64.6588C288.641 63.5054 288.833 62.6461 288.833 62.6461C288.833 62.6461 288.117 63.1601 287.249 64.0663C286.369 64.9651 285.332 66.2524 284.416 67.6247C283.512 69.0045 282.732 70.4642 282.246 71.6223Z" fill="#F8F8F8"/>
<path d="M108.071 237.023C107.198 236.424 105.977 235.522 104.464 234.525C101.449 232.507 97.3497 229.955 93.1763 227.533C88.995 225.12 84.7404 222.838 81.4886 221.228C79.8702 220.411 78.4795 219.802 77.5265 219.341C76.5624 218.897 76.0005 218.667 76.0005 218.667C76.0005 218.667 76.4816 219.041 77.3458 219.654C78.2194 220.253 79.442 221.152 80.9553 222.149C83.9699 224.167 88.0699 226.721 92.2433 229.143C96.4223 231.557 100.677 233.841 103.929 235.449C105.547 236.266 106.938 236.875 107.891 237.336C108.855 237.78 109.417 238.01 109.417 238.01C109.417 238.01 108.936 237.639 108.071 237.023Z" fill="#F8F8F8"/>
<path d="M96.7598 249.39C93.5295 249.388 89.2358 249.549 84.9528 249.859C80.6694 250.179 76.3996 250.65 73.2038 251.12C71.6057 251.342 70.278 251.609 69.3484 251.756C68.4178 251.923 67.8884 252.045 67.8884 252.045C67.8884 252.045 68.4291 252.087 69.3728 252.118C70.3151 252.129 71.6668 252.197 73.2805 252.184C76.5104 252.183 80.8046 252.024 85.0885 251.719C89.3719 251.399 93.6427 250.933 96.8379 250.46C98.4361 250.238 99.7638 249.971 100.693 249.822C101.623 249.655 102.153 249.533 102.153 249.533C102.153 249.533 101.612 249.489 100.666 249.461C99.7257 249.447 98.3736 249.377 96.7598 249.39Z" fill="#F8F8F8"/>
</svg>
